<?xml version="1.0" standalone="no"?>
<!DOCTYPE svg PUBLIC "-//W3C//DTD SVG 1.1//EN" "http://www.w3.org/Graphics/SVG/1.1/DTD/svg11.dtd" >
<svg>
<metadata>
Created by FontForge 20090622 at Wed Aug 24 12:29:15 2016
 By deploy user
Copyright (c) 2013 by Hipopotam Studio. All rights reserved.
</metadata>
<defs>
<font id="MrsLollipop-Fill" horiz-adv-x="700" >
  <font-face 
    font-family="Mrs Lollipop Fill"
    font-weight="400"
    font-stretch="normal"
    units-per-em="1000"
    panose-1="0 0 0 0 0 0 0 0 0 0"
    ascent="750"
    descent="-250"
    x-height="483"
    cap-height="734"
    bbox="-50 -291 1396 1010.17"
    underline-thickness="50"
    underline-position="-50"
    unicode-range="U+0020-U+F6C3"
  />
<missing-glyph horiz-adv-x="393" 
d="M50 0v748h293v-748h-293z" />
    <glyph glyph-name=".notdef" horiz-adv-x="393" 
d="M50 0v748h293v-748h-293z" />
    <glyph glyph-name=".notdef" horiz-adv-x="393" 
d="M50 0v748h293v-748h-293z" />
    <glyph glyph-name=".null" horiz-adv-x="0" 
 />
    <glyph glyph-name="nonmarkingreturn" horiz-adv-x="333" 
 />
    <glyph glyph-name="space" unicode=" " horiz-adv-x="350" 
 />
    <glyph glyph-name="exclam" unicode="!" horiz-adv-x="333" 
d="M84 609q0 1 -0.5 1t-0.5 1t0.5 2t0.5 2v1q0 1 -0.5 2.5t-0.5 2.5q-1 1 0 3t0 3t0 2.5t0 2.5q0 4 -1 5v27v3v3v4v9v10v2v2v6q-1 2 -1 6q0 2 2 8q2 2 3 2q6 0 8 1q5 0 8 1q4 2 8 -1q6 2 11 1q3 -1 6 0q2 1 8 1h2q2 1 3 1q6 1 10 0q6 0 8 -1h8q5 -2 11 0q1 0 5.5 0.5
t6.5 1.5h3q7 -2 11 1l8 -2q4 0 7 -1q0 1 2 1q1 0 3.5 -0.5t3.5 -0.5q3 0 5 1q0 -2 1 -2v-5q1 -4 0 -8t-1 -12l-2 -12q-1 -3 -1 -8v-6v-3q0 -1 -1 -8t-2 -11v-1q0 -5 -2 -15q0 -6 -1 -10q0 -6 -1 -9v-3v-4q-1 -2 -1 -15q0 -1 -1 -4.5t-1 -5.5q1 -5 0 -9q0 -1 -0.5 -5t-1.5 -6
v-1q0 -4 -0.5 -10t-0.5 -10v-11q0 -2 -0.5 -4t-0.5 -3l1 -1v-2l-2 -14q0 -1 1 -3q-1 -1 -1 -2v-10q-2 -8 -1 -11q0 -4 -1 -7v-3v-3.5v-3.5v-6v-7q0 -1 -0.5 -2t-0.5 -2t-0.5 -4t-0.5 -5q0 -1 -0.5 -4t-0.5 -5q0 -13 -3 -28v-2q0 -4 -2 -12q-1 -1 -1 -4q0 -8 -1 -13v-5
q0 -1 -0.5 -3t-0.5 -3q0 -2 -0.5 -7t-1.5 -7v-3q0 -5 -1 -8v-7l-9 -6h-6q-3 0 -5 1q-4 -2 -6 -1h-4h-4q-10 3 -14 1h-3h-4h-3h-7q-2 1 -7 1q-2 -1 -11 -1q-1 0 -5 -0.5t-5 -0.5l-11 3v6t-1 5v10v17q0 1 -1 1q0 2 -0.5 4t-0.5 3v7q0 4 -1 5v2.5v2.5v5q-1 3 -1 11q0 7 -2 10
q1 1 1 4q0 13 -1 15v7q2 3 0 9q0 4 1 6q0 1 -1 3.5t0 4.5v7q0 5 -1 7q2 3 0 5q1 3 1 14q0 1 -0.5 3t-0.5 3t-0.5 3t-0.5 3v14q0 6 -1 10v2q0 2 -1 3q0 1 0.5 3t0.5 3v7v6v7v1q1 1 1 2q-1 4 -1 15q-1 5 -1 15q0 13 1 16zM89 188q1 0 5.5 3.5t8.5 4.5q0 1 2 3q3 -1 14 4
q1 0 4 0.5t5 1.5q3 -1 6 0l1 -1h2t3 1t4 0q1 -1 5 -1q2 0 6 2l8 -4t9 -5l8 -4l15 -16l4 -14l1 -2q2 -10 2 -14v-21q0 -2 -0.5 -6t-0.5 -5l-4 -11q-1 -2 -5 -6q-2 -4 -2 -5t-0.5 -1t-0.5 -1l-3.5 -3.5t-3.5 -4.5l-3.5 -3.5t-4.5 -3.5q-1 0 -3 -2q-3 -3 -11 -7l-8 -3
q-2 0 -4 1q-1 -1 -3 -1.5t-3 -0.5q-1 1 -5 1h-11q-1 0 -3 0.5t-4 0.5q-1 -1 -3 -1h-3q-4 3 -7 3q-11 5 -17 12q-1 0 -1 1l-8 4l-9 13l-2.5 2.5t-2.5 3.5q-2 4 -2 14v8v4.5t1 3.5v12q5 13 7 16l9 15q2 2 8 12z" />
    <glyph glyph-name="quotedbl" unicode="&#x22;" horiz-adv-x="444" 
d="M341 754q7 4 18 2q1 0 1 -1q1 0 2.5 -1.5t0.5 -2.5v-2q-2 -2 -2 -6t-1 -6l-2 -3v-13q-2 -4 -2 -6q-1 -6 -1 -17l-3 -7q0 -10 -2 -13q0 -2 -0.5 -8t-0.5 -8t-1 -5t-1 -4q0 -3 -2.5 -9t-1.5 -9q-2 -2 -3 -7v-6q0 -6 -2 -9v-2q0 -2 -0.5 -5.5t-1 -6.5t-1.5 -6q0 -3 -2 -8
t-2 -7q-2 -3 -2 -10l-2 -6l-1 -2v-2q0 -5 -1 -8l-3 -10q-1 -1 -3 -1q-8 -1 -25 -1h-34q0 1 -2 3q0 62 -1 95l-2 6v103q0 4 3 5q7 1 24 1q1 1 2 1q2 1 3 1q8 0 26 0.5t28 0.5zM48 688l-2 51l3 8l18 2l4 2l2 -1h3q2 0 4 2q21 0 31 2q2 2 4 2q7 1 22 1q1 0 3 -1q2 -2 2 -4v-12
v-3l-1 -2v-19l-2 -5v-12q-2 -6 -2 -9q0 -1 -1 -4.5t-1 -5.5t-0.5 -9t-0.5 -11q1 0 0 -1v-1q-1 -2 -1 -3v-16q-2 -4 -2 -5v-8t-2 -10q0 -2 -0.5 -6.5t-0.5 -6.5q-1 -3 -1.5 -9t-2.5 -8v-18q-5 -16 -7 -18q-8 -1 -26 -1q-1 0 -7 2q-11 0 -17 -3q-2 0 -6 2h-7l-2 2
q-5 67 -6 131q0 1 0.5 2.5t1.5 2.5z" />
    <glyph glyph-name="numbersign" unicode="#" horiz-adv-x="1117" 
d="M84 268q0 1 0.5 2.5t0.5 2.5q3 3 6.5 9t5.5 9t4.5 9t4.5 9q2 1 6.5 1.5t6.5 2.5q2 -1 6 -1h1q2 -1 3 -1h29q2 0 6 2q29 0 44 1q4 2 13 2q0 1 2 3q3 6 3 8l1 2q6 7 7 13l6 14q9 19 27 47q3 3 4 7l12 24q2 2 4.5 7l3.5 7q0 4 -7 9l-1 1h-2h-78q-1 0 -5 2q-2 -2 -4 -2h-12
l-7 3h-26q-3 2 -2 4q0 1 2 6t4 7t2 4q1 3 3 7t2 6l6 14l1 2q1 8 9 16l2 4q1 5 11 26q4 4 8 14l2 3q2 1 6 2t6 3h83l6 2l8 -2l7 2h14q15 2 16 3h6q4 1 11 1l6 6h1q2 4 4 10l5 9q1 1 2 6t3 7q5 10 6 11l3 6q9 15 10 16q2 8 6 12l12 25l1 3q1 3 2 4q2 3 5 9t4 7q2 1 6.5 1.5
t5.5 0.5h10l5 2q18 0 28 1h6q12 0 16 2q8 0 13 1h11q9 4 15 1q5 -2 15 1h27q2 -2 1 -3q0 -2 -2 -6l-12 -24q-8 -15 -12 -26l-3 -6q-4 -6 -10 -18t-9 -17l-5 -10l-10 -12q0 -3 -2.5 -8.5t-1.5 -8.5t6 -5l8 -2q1 0 3 2h28l5 -3h14q23 0 34 -1q5 0 8 -1q7 2 15 -1h60l5 -3
q1 1 2 1q2 1 3 1q1 -1 3 -1h2q1 1 2 1q6 1 18 1q3 1 6 6q1 4 6 11l3 5q3 5 8 15t8 15q1 1 1.5 3t1.5 3q3 4 7 12.5l5 10.5q9 16 11 18q0 1 0.5 2t0.5 2q0 2 1 4t2.5 4.5t2.5 3.5l9 20q2 2 4 6l4 3h1l2 1h21q8 2 11 2h31q6 0 18 0.5t18 0.5q8 5 14 0h1l2 1l1 1h2h15
q14 1 14 0l-3 -9l-3 -8l-2 -4l-3 -9l-3 -9l-4 -8q-4 -9 -5 -11v-1l-8 -13q0 -5 -5 -12q-3 -5 -16 -31l-9 -14l-5 -5q-2 -4 0 -9l5 -6q1 0 2 -1h1h47q4 -2 5 -2q1 -1 2 -1h12q1 0 3 -0.5t3 -0.5q12 -2 21 0l5 -2q17 0 26 -1q1 0 2 -1v-1q1 -1 1 -2q-2 -8 -4 -11t-5.5 -11.5
t-5.5 -12.5l-11 -23q-1 -2 -1 -6q-3 -3 -6 -9.5t-5 -9.5q-1 -6 -5 -13q-4 -11 -5 -14q0 -1 -3 -7l-7 -11l-3 -2h-21q-8 2 -12 2q-2 0 -6 -1.5t-6 -1.5q-1 1 -2 1q-2 1 -3 1l-2 -1q-5 2 -13.5 2h-10.5q-1 0 -4 0.5t-5 1.5q-9 -3 -16 0q-1 0 -3 0.5t-3 0.5h-25l-2 -2l-6 -9
q0 -2 -8 -20q-3 -6 -3 -7q0 -4 -6 -10q0 -3 -2 -7t-2 -7l-1 -2q-4 -5 -8 -17l-10 -20q-4 -9 -5 -11q0 -1 -1.5 -2.5t-1.5 -2.5q-1 -3 -5 -9v-4q4 -6 10 -11l9 -2q12 2 18 0q1 0 3 0.5t3 0.5l8 -2h27q6 0 7 1h4q6 -2 19 -2h27l2 -1h2v-7q-1 -2 -8 -18q-1 -1 -1.5 -3t-0.5 -3
q-3 -8 -11 -24l-6 -13q-2 -2 -2 -4q0 -3 -9 -23q-4 -11 -12 -21l-2 -3l-6 -3q-20 -1 -53.5 -1h-53.5l-6 -2h-6q-4 0 -5 1h-3l-2 1q-10 -1 -16 -9q-2 -10 -4 -12t-3 -7t-2 -6l-6 -11l-18 -37q-2 -2 -3 -7t-3 -7l-5 -12q-2 -9 -6 -13l-5 -11q-3 -3 -6 -3h-152l-8 3q-1 1 -1 12
q6 8 9 16q0 2 1 3q0 1 2 3t2 4l3 7q1 2 9 19q7 15 10 18q2 2 2 4t2 5.5t2 4.5l16 33q-1 5 -7 9q-5 1 -16 1h-56h-20q-1 0 -4.5 1t-5.5 1h-9l-6 -2l-5 2h-24l-5 -2q-1 0 -7 2l-6 -2q-1 0 -5 2q-26 0 -39 1q-1 0 -2 1h-2q-3 -1 -8 -1q-4 0 -6 -1q-4 -1 -5 -4q-3 -8 -7 -13
q-2 -2 -4 -8q-1 -4 -4.5 -11l-4.5 -9l-10 -19q-3 -9 -3 -10l-5 -7l-3.5 -7t-3.5 -8q0 -2 -2 -4t-12 -23q-6 -8 -8 -12q-1 -1 -4 -3h-56q-38 0 -57 -1q-7 0 -20.5 0.5t-19.5 0.5q-5 0 -3 4l3 8q5 13 7 15l7 14q0 4 1 6q2 7 9 17l3.5 7l4.5 9t5 7q1 5 7 17q4 10 14 28l3 5
q2 2 2 3l-2 3q-6 3 -7 4h-22q-6 -2 -8 -2q-10 -1 -31 -1q-4 -2 -6 -2h-24q-1 0 -5 2q-6 0 -9 1q-2 1 -2 3l7 15l2 6q2 4 4 6q0 1 1 3.5t2 4.5q6 8 7 14q0 1 1 3q1 1 10 16q1 2 3.5 5.5t2.5 4.5zM679 454q-5 1 -15 1q-10 -1 -30.5 0t-30.5 0h-10t-12 2q-3 1 -7 -1h-1
q-1 0 -2 -1q-4 2 -6 2h-8q-4 0 -6 -2q-48 0 -71 -1h-3l-2 -1q-3 -1 -7 -1q-1 1 -3 1q-8 3 -10 -2l-12 -17q-2 -3 -4 -9l-3 -7l-8 -16q-1 -2 -4 -7.5t-4 -9.5q-3 -2 -5.5 -8t-4.5 -8q0 -1 -0.5 -2.5t-1.5 -2.5q-8 -13 -14 -28q-5 -10 -6 -11q-5 -5 -5 -10q0 -2 1 -3l6 -10
q0 -1 2 -3l9 -3h11l6 2l4 -2l4 2h92.5t91.5 1q5 2 11 10q4 11 10 21q2 2 2 4t6 13q4 6 5 9l6 10q3 9 4 10t4 10l7 12q0 1 2 6t4 7q4 10 13 23q0 14 -1 16z" />
    <glyph glyph-name="dollar" unicode="$" horiz-adv-x="545" 
d="M364 734q7 0 11 -1l3 -1q3 -1 4 -2q3 -2 10.5 -6t10.5 -7q2 -1 4.5 -3t3.5 -3q2 -1 4.5 -3t3.5 -3l23 -18q3 -1 5 -5l7 -8q8 -8 14 -17q6 -7 10 -17v-5q-10 -11 -23 -22q-2 -2 -8.5 -6.5t-9.5 -7.5l-16 -16q-12 -12 -19 -17q-2 -1 -5 -4.5t-6 -4.5h-2q-2 4 -6.5 9t-5.5 8
l-4 4q-6 4 -8 7q-4 1 -7 6q-2 2 -12 7q-4 0 -17 5q-12 1 -37 1q-2 -2 -4 -2q-6 -1 -14 -7l-12 -9q-4 -8 -8 -9q-2 -2 -2.5 -4.5t-1.5 -3.5q-1 -2 -1.5 -5.5t-1.5 -4.5q-3 -4 -4 -9v-23q3 -9 3 -10q0 -2 1.5 -6t1.5 -5l4 -9l5 -10l5 -5q1 -1 2.5 -4t3.5 -4l8 -6
q1 -1 4.5 -3.5t4.5 -4.5l9 -7l7 -6l5 -3q2 -3 8.5 -7t7.5 -5q1 0 5 -2t5 -4q1 -1 5 -2.5t5 -3.5l19 -11q1 -2 3.5 -3.5t5.5 -4t5 -3.5q11 -5 32 -26v-1l1 -1q2 -4 12 -14l10 -17q0 -1 0.5 -2.5t0.5 -2.5q8 -9 12 -22q0 -2 2 -6q1 -1 4 -11q2 -4 2 -10q0 -3 1 -5t2 -7t3 -8
v-3v-22q1 -22 0 -22q0 -10 -2 -15q-1 -2 -1 -7q0 -12 -2 -17q0 -3 -2 -8.5t-2 -7.5q-1 -5 -5 -15l-4 -15l-2 -4q-3 -14 -13 -30l-7 -11q-2 -3 -6 -8t-6 -8q-6 -8 -14 -14l-12 -13q-4 -4 -7 -5l-5 -3q-6 -6 -13 -9q-1 -1 -8 -4t-11 -5l-3 -3q-2 -3 -2 -8q0 -14 -1 -16
q0 -6 -1 -7v-10q0 -1 2 -5q0 -12 -1 -18q0 -1 1 -2q0 -2 -1 -4t-1 -4q0 -12 -1 -19l-4 -4q-19 0 -24 2l-4 -2h-14q-4 0 -6 1q-4 2 -18 0q-1 1 -3 1q-15 1 -45 1l-1 1q-1 1 -1 4q-1 10 -1 30q-2 4 -2 6v52q0 1 -0.5 2t-0.5 2q-2 5 -6 6l-5 3h-8q-1 0 -6 2t-8 1q-2 0 -6.5 2
t-5.5 2t-7 3h-2l-2 1q-1 0 -18 7q-10 9 -16 12q-5 3 -20 18l-2 4q-2 2 -5.5 7t-6.5 8q-2 1 -7 9l-4 8q-11 15 -21 37v11l22 21q2 1 6.5 4.5t6.5 4.5t6 5t7 5l1 1q3 5 10 9q1 1 4.5 4t5.5 4t4 2.5l4.5 3.5t3.5 3l2 2q2 3 5 5l8 6l8 -9q2 -7 11 -16q4 -3 10 -11t9 -11
q2 -3 8 -7t8 -6l26 -13q6 0 12 -3q14 0 17 2q3 0 7 0.5t7 0.5q16 8 28 21l4 4q6 6 9 13q0 2 5 11q1 3 1 9t2 9q0 7 1 12q-5 10 -3 15q-7 12 -12 26q-1 2 -1 4l-8 13q-7 7 -9 8l-2 1q-2 5 -10 9l-16 17q-11 11 -18 15q-2 0 -7 6l-7 5q-1 0 -4.5 3t-5.5 4t-5 3t-5 3
q-8 4 -22 16l-10 11q-6 6 -11 8q-3 2 -5 5l-12 11l-6 6l-11 12q-2 2 -5 7t-4 6q-4 6 -7 8q-1 2 -3.5 8t-4.5 9l-3 9t-4 9q-3 13 -3 14q-1 5 -1 14q-2 2 -2 4q-2 24 0 51v2l1 2l4 16q1 2 1 5v4q1 2 3.5 9.5t4.5 10.5l5 11q3 8 9 15q2 4 4 6t5 6.5t5 6.5l9 10l15 14l2 2
q3 1 7 5l4 4l10 6l8 4q9 5 22 10l6 9q1 1 1 3v14q-2 4 -2 5v33q0 1 2 5q0 18 1 27q1 3 4 3t5 -1l2 -1q2 0 3 -1h11q8 0 13 -1q4 -2 11.5 -2h9.5h6l9 -3h6q6 0 9 1q3 2 6 0l4 2h16q2 -2 3 -6.5t2 -5.5v-29q0 -2 2 -6q1 -2 1 -3v-27l3 -6q3 -4 8 -6q1 0 13 -5z" />
    <glyph glyph-name="percent" unicode="%" horiz-adv-x="1039" 
d="M621 148q-1 3 -1 8v7q-2 2 -3 8t-2 8v31q0 1 1.5 5t1.5 6q0 1 1 4t1 4t0.5 1t0.5 1v11l3 10q0 2 1.5 6t1.5 6q-1 2 1 6t2 5v1l2.5 5t2.5 5.5t1 4.5l6 13l8 15q0 1 1 3l1 2q3 3 7.5 9t6.5 8l5 7q10 10 12 11q3 1 6.5 5t5.5 5q14 9 16 11l5 3l21 10q1 0 3.5 0.5t4.5 1
t4 1.5t6 2t6 2h33q3 0 7 -1.5t5 -1.5h10q4 -2 5 -2q2 -1 7 -1l7 -3l15 -5q3 -2 9 -4l9 -3l18 -10q4 -2 7 -7q1 -1 4.5 -3t4.5 -4q6 -5 16 -15l13 -13l2 -2q1 -3 5 -7.5t5 -6.5q1 -3 5 -7q0 -1 3 -10l3 -10q0 -6 3 -10v-7l3 -6v-51q0 -4 -2 -10q-1 -5 -1 -15q-2 -4 -2 -7
q-3 -13 -3 -14q0 -3 -2 -7t-2 -6t-2 -6.5t-2 -5.5l-2 -8q-1 -2 -2 -5t-2 -5q0 -2 -5 -11q0 -1 -2.5 -4t-3.5 -5q0 -1 -0.5 -1t-0.5 -1q-5 -4 -22 -27l-4 -4q-8 -5 -11 -5l-4 -2q-9 -6 -19 -9l-8 -4q-15 -5 -18 -5l-6 -3h-15q-1 -1 -3 -1q-2 -1 -3 -1q-10 -1 -33 -1l-4 -2
q-4 2 -7 2h-24l-6 3h-3q-6 0 -9 1q-2 1 -7 2t-7 2q-6 4 -9 4q-14 6 -18 10l-6 2l-15 9l-7 8q-5 5 -11 8q-1 1 -4 7.5t-6 8.5q-5 10 -5 13v3q-1 2 -2 5t-2 5l-2 8q-1 4 -5 12zM70 454l-8 16q-3 5 -7 15q-2 5 -4 17l-3 8v29q-2 4 -2 5t0.5 3t0.5 4q0 1 -1 3v2q0 2 1 5.5t1 4.5
q0 6 1 9q0 1 0.5 2t0.5 2q1 1 1 2q0 10 3 20q1 2 2 5.5t2 6.5l2 6q5 16 8 22q0 1 3 6.5t4 9.5q0 2 4 6l2 7l13 20q1 1 3.5 2.5t4.5 3t2 4.5q4 2 10 6.5t7 5.5l18 9q3 0 9 2.5t8 2.5q1 1 4 1.5t4 0.5l7 3q12 3 13 3l2 1q2 1 3 1q9 1 27 1l2 1h2t2.5 -0.5t2.5 -0.5h15l6 2
q3 -2 9 -3t9 -2q3 0 8.5 -2t8.5 -1q17 -8 19 -9q8 -4 24 -14q2 -2 5 -4t4 -3t4 -3.5t5 -5t4 -4.5q4 -4 5 -8l9 -13q0 -3 3.5 -7.5t3.5 -7.5q0 -1 1.5 -2.5t1.5 -2.5l6 -10q-1 -5 2 -12q0 -3 0.5 -9t0.5 -10l3 -26q2 -7 0 -14v-9v-10.5v-8.5t-5 -21l-4 -14q0 -2 -2 -6t-2 -7
q-5 -12 -7 -14l-3 -5l-2 -7l-6 -9q-1 -2 -3 -4.5t-3 -3.5q-6 -4 -9 -11l-1 -1q-2 -1 -9 -8l-8 -6q-2 -1 -5 -3t-4 -2q-3 -2 -9 -5.5t-7 -4.5q-12 -6 -17 -7q-2 -1 -6 -2t-6 -2q-10 -3 -11 -3q-2 -1 -6 -1h-10q-7 -4 -13 -1q-13 -2 -18 1h-27l-12 2q-2 1 -6 1q-2 1 -4 1
q-13 5 -18 6q-1 0 -7 2t-9 4l-13 6l-7 3q-4 2 -9.5 8t-7.5 8l-3 3q-8 14 -13 19zM552 352l-5 -10l-6 -12q0 -2 -1.5 -6t-2.5 -7q0 -3 -3 -4q-4 -11 -5 -14q0 -2 -2 -6t-1 -7q-6 -10 -9 -23q-2 -4 -5 -11.5t-5 -11.5l-5 -10q0 -3 -2 -6.5t-3 -6.5l-4 -11q-5 -15 -7 -19
q-3 -5 -6.5 -14l-5.5 -14q-1 -3 -3 -7t-2 -6q-4 -11 -11 -23l-4 -9q0 -1 -2.5 -6t-3.5 -8l-4 -12q-4 -8 -4 -11l-10 -19q-1 1 -4 1l-1 1h-2q-9 -2 -12 -1q-1 0 -1 0.5t-1 0.5q-3 -2 -10.5 -2h-9.5q-13 0 -19 -1q-3 0 -5 -2q-31 0 -46 -1h-2h-3l-2 -1q-2 0 -6 2l-7 -3
q-2 0 -6 2q2 3 4 9l3 9q2 3 2 10q8 10 9 18q3 5 6.5 13t4.5 11l3 7q2 4 2 7l5 12l4 12q1 6 5 11l3 6q2 3 4.5 11t4.5 11l6 16l8 16l5 12l6 12l6 12q1 2 3.5 7.5t3.5 8.5t3 8t3 7q0 2 2 4q8 20 13 29q1 1 2 6t3 7l6 13l6 12l3 6t3.5 7.5t2.5 7.5q3 5 6.5 14.5t4.5 12.5
q0 5 4 11q2 4 2 5q1 5 14 33q2 6 4 9v6q3 6 7 18q5 13 7 16q0 3 1 5.5t2.5 5t2.5 4.5q2 4 5 11.5t4 9.5q1 3 1 8l5 12l3.5 7t3.5 8q0 2 2 7t3 8t5 9l8 17q0 1 1 3q2 8 4 14l8 14l6 13v2q1 2 1 6l4 6q1 2 3.5 9.5t4.5 10.5l7 15q1 0 1 1q1 0 1 1h3q6 1 18 1q2 2 5 1q1 -1 3 0
t3 1q5 0 7 -1h2q2 1 3 1l2 -1q3 -1 4 -1h12l5 3h24.5t24.5 -1q3 -1 1 -5l-3 -10q0 -1 -1.5 -4t-1.5 -4l-3 -11q-2 -10 -7 -18q-2 -4 -5 -13.5t-5 -13.5v-6q-4 -6 -5 -9q-4 -8 -4 -13q-2 -8 -4 -12l-6 -17q0 -4 -4 -12l-5 -11q-2 -2 -4 -7t-2 -6q-2 -10 -5 -14q-1 -2 -2.5 -7
t-2.5 -7t-3 -6.5t-3 -6.5q0 -3 -2 -7t-2 -6q0 -3 -3 -8q-7 -14 -8 -20l-3 -5q-6 -12 -6 -18q-1 -3 -3 -8t-3 -7l-9 -20q-2 -4 -7 -19q-2 -6 -11 -24q-1 -2 -2 -6t-3 -6q0 -5 -1 -8zM692 226q-2 -20 0 -25l2 -4q0 -1 0.5 -6t1.5 -7l5 -12l10 -17q10 -14 18 -20l10 -5l10 -4
q1 0 5 -2t6 -2q6 -2 9 -2q1 0 4 1t4 1q9 0 14 1l12 3q2 0 5.5 1.5t4.5 1.5l13 6q7 7 10 9l14 15q2 2 5 7t4 6q1 3 3.5 8t2.5 7l3 9q0 1 1 5t2 6v19l-3 11.5t-4 11.5q-2 7 -8 21q-13 13 -16 18q-6 2 -9 5l-9 6q-3 0 -9 4q-2 1 -7 2.5t-7 2.5t-8 1q-3 0 -4 1q-5 2 -12 -1
q-8 0 -11 -1q-24 -6 -42 -22q-19 -27 -24 -40q0 -4 -3 -11.5t-3 -8.5zM225 648q-3 0 -8 0.5t-7 0.5q-7 -1 -22 -1l-9 -3q-7 -1 -12 -6q-4 -4 -6 -5q-7 -4 -15 -15q-7 -8 -12 -20q0 -2 -0.5 -4t-0.5 -3q-2 -6 -2 -7q0 -4 -1 -6q-3 -7 -3 -14q0 -5 0.5 -13.5t0.5 -11.5
q0 -2 1 -4t1 -3q0 -4 5 -14l10 -11l4 -4q3 -1 8.5 -4.5t7.5 -4.5l13 -6q1 0 5.5 -0.5t6.5 -1.5t6 -1h9l4 2q4 -4 8 -2q3 2 8 2l5 1q8 2 18 10q2 4 4 6q6 3 7 4q2 2 6 4q2 1 3 2l3 5q10 16 14 35q0 2 2 8v24l-2 4q0 2 -0.5 4t-0.5 3q-2 4 -4 10l-7 13q-5 7 -12 12l-9 6l-2 1
h-2l-7 5h-8q-2 0 -4.5 1.5t-3.5 1.5z" />
    <glyph glyph-name="ampersand" unicode="&#x26;" horiz-adv-x="691" 
d="M77 120l-7 14q-1 4 -5 12l-6 15q-3 10 -4 13q0 1 -0.5 3t-0.5 4t-1.5 6.5t-1.5 6.5q-1 4 -1 13q-2 5 -2 33v35q1 1 1 2q1 2 1 3q1 7 1 22q2 2 2 4q1 4 5 17q3 6 7 20q0 5 4 13l4 9q2 6 5 9l2 4q2 8 12 22q5 7 10 16l9 10l4 4q0 1 0.5 3t0.5 3q7 5 8 6q3 5 23 25l3 9l3 7
l-8 16q-1 2 -4 11q-4 6 -4 9l-6 15q0 3 -1.5 7t-1.5 6l-3 12q-1 6 -1 20q0 1 -0.5 2.5t-1.5 2.5q0 10 -1 15q0 4 -1 6v8q-1 3 1 10v6q0 9 3 16q0 2 1.5 4.5t1.5 3.5l2 9l11 25l6 12l4 5q5 4 6 8q8 12 15 19l16 15q3 3 9 7.5t8 6.5q10 6 15 7l5 2.5t5.5 2.5t4.5 1q4 0 19 5
q6 2 8 2h28q14 -6 16 -6l16 -4q5 0 8 -3l16 -8q4 -1 27 -17q11 -8 18 -19q8 -12 12 -23q0 -1 1.5 -4.5t2.5 -5.5q0 -2 2 -8q0 -2 2 -6q1 -3 1 -10q0 -2 0.5 -4.5t0.5 -3.5q1 -3 1 -9l-2 -5v-17q0 -1 -0.5 -5t-0.5 -5q-2 -2 -2 -7t-1 -7l-2 -4q0 -7 -3 -15v-2q0 -2 -1 -3
l-15 -31q-5 -12 -13 -21l-5 -4l-6 -12q-1 -1 -6 -5.5t-8 -6.5q-6 -4 -18 -14q-13 -11 -21 -14q-7 -4 -10 -13q0 -2 2 -5.5t3 -6.5q0 -1 0.5 -3t0.5 -4q6 -12 10 -18q1 -1 1.5 -4t2.5 -5l3 -8q4 -10 7 -14l11 -20q0 -3 3.5 -8t3.5 -7l9 -12q2 -7 3 -8q8 -11 22 -33l2 -4
q5 -5 17 -24q2 -2 7 -12l11 -11h13q4 1 5 4l12 11q12 12 24 31q1 2 4 6.5t4 7.5t4 6.5t4 5.5q1 1 4.5 6t4.5 8l10 14h6q3 -1 8.5 -3.5t7.5 -3.5q5 -3 15 -7q3 -1 8 -4t7 -4q10 -3 16 -7q3 -1 7.5 -4t6.5 -4l16 -8v-3q-4 -6 -5 -9l-3 -10q-3 -12 -10 -20q-1 -2 -6 -9.5
t-7 -12.5q-2 -4 -7 -12.5t-7 -12.5l-10 -14q-9 -12 -10 -13q-2 -2 -5 -6t-5 -6l-6 -9q-1 0 -3 -1h-2l-2 -3v-15q4 -6 12 -11q2 -1 6.5 -4.5t6.5 -4.5l13 -9q3 -1 8 -4.5t6 -4.5l6 -3q1 -1 4.5 -2t4.5 -2q7 -5 8 -5t17 -11l2 -2q-6 -8 -6 -10q-1 -4 -5 -10q-3 -4 -7 -12
l-15 -18l-5 -7l-3 -5l-18 -17q-4 -5 -11 -7q-2 -1 -6 1q-2 1 -8.5 5t-10.5 6q-3 2 -9 5t-7 4q-6 7 -22 15q-2 1 -6.5 4l-7.5 5l-12 8l-7 5l-6 6l-5 3l-11 6h-12l-3 -2q-6 -4 -9 -7q-2 -2 -21 -10q-6 -1 -23 -10q-13 -7 -34 -14l-1 -1h-3q-7 0 -21 -6q-17 0 -25 -1
q-2 0 -4 -2h-16l-4 -2l-4 2h-5q-2 0 -14 2l-13 2q-6 2 -10 2q-3 0 -5 1l-7.5 2.5t-8.5 3t-8 3.5q-2 1 -5.5 1.5t-4.5 1.5q-2 2 -5.5 4t-4.5 2q-6 4 -9 5l-2 2q-2 3 -7.5 7t-8.5 6q-1 2 -6.5 7.5t-7.5 8.5q-2 1 -4.5 4.5t-3.5 4.5l-8 9l-8 10q-6 4 -10 10zM207 167
q18 -9 22 -13q6 -3 8 -3l11 -3.5t13 -3.5q3 0 5 -2h19q2 2 5 2q5 1 15 1l14 7q2 2 2 3q-2 6 -2 8q-2 3 -5.5 9t-5.5 9q-4 2 -5 4q-15 20 -18 23q-9 18 -21 32q-2 2 -5.5 8.5t-6.5 9.5q-2 4 -2 5q-1 1 -1 3q-2 8 -10 20q-4 5 -8 17l-3 6q-7 10 -12 24l-9 23q-1 3 -5 4h-2
q-1 1 -2 1l-2 -1h-2l-8 -4q0 -1 -4.5 -6.5t-5.5 -9.5q-2 -2 -10 -18q-6 -12 -6 -21l-3 -5v-22q0 -6 1 -9t1.5 -9.5t0.5 -8.5l3 -12l3 -7q8 -15 10 -21q2 -4 4 -6l7 -11q6 -9 13 -16q1 -1 2.5 -2t2.5 -2.5t2 -2.5zM316 653v20q-6 14 -17 21q-1 0 -5 0.5t-6 1.5q-5 1 -13 1
q-4 -2 -5 -2q-10 -3 -16 -9l-13 -8q-8 -10 -13 -22q0 -4 -1 -6q0 -1 -2 -7v-32l3 -15q6 -10 6 -17q0 -1 3 -7q2 -4 6 -5h7q3 8 12 13l3 3q1 3 6 8t6 8l9 10q1 1 2.5 3t3 4.5t2.5 3.5l13 13l4.5 9t4.5 11z" />
    <glyph glyph-name="quotesingle" unicode="'" horiz-adv-x="251" 
d="M53 758q8 5 18 1q9 -2 14 -1h8q4 -2 6 -2q2 -1 6 1q5 1 9 0q2 -1 3 0l2 -1q2 0 3 1q2 1 7 1q9 1 26 1l2 -2v-22q0 -1 -2 -5v-3v-12q-3 -10 -3 -11q-1 -3 -1 -9q0 -3 -0.5 -8t-0.5 -8v-3l-1 -2q-1 -9 -1 -25l-2 -5v-17l-3 -9q0 -8 -2 -11v-8q0 -8 -2 -13q-1 -4 -1 -14
l-2 -5q-1 -5 -1 -17l-3 -11q-1 0 -3 0.5t-4 0.5l-6 -3q-12 0 -34 -0.5t-33 -0.5q-2 2 -2 4v27q0 5 -2 8q0 1 0.5 2t0.5 2v3q0 42 -2 122q0 13 1 19v3q0 1 -0.5 2.5t-0.5 2.5v24q2 4 6 3z" />
    <glyph glyph-name="parenleft" unicode="(" horiz-adv-x="400" 
d="M63 284q-2 3 -4.5 10t-3.5 9q0 10 -1 15q0 1 -1 4.5t-1 5.5q0 6 -1 8v3q-2 5 -2 21q0 2 -0.5 7t-0.5 7q-2 5 -2 21v34q0 9 2 13q1 7 1 22l2 4q0 2 0.5 5.5t0.5 4.5q0 5 1 7t1.5 6.5t1.5 6.5q4 10 4 15q0 1 2 6.5t2 8.5l4 12l4 8v1l6 18l3 10l5 9q0 1 5 13q1 3 3 8t3 6
l11 21q8 15 9 17q2 2 4.5 7.5t4.5 7.5q21 32 24 37l7 9q11 16 24 30l4 4l3 5q5 3 14 11l8 8q1 1 5 4.5t7 5.5l7 7l9 7l4 4l5 3q2 0 3 -1l29 -29l5 -5q5 -4 8 -5l5 -5t7 -5q2 -1 7 -6q3 -1 7 -5q3 -2 5 -5v-2l-12 -13q-5 -8 -11 -14l-3 -3q-1 -3 -5 -7.5t-5 -6.5
q-1 -4 -7 -12l-8 -10q-6 -9 -7 -10t-2.5 -4t-2.5 -4q-5 -7 -5 -9l-1 -1v-2l-9 -15l-6 -12q-10 -13 -14 -27q0 -1 -1 -1l-6 -14q-1 -5 -5 -15q-1 -2 -2 -6.5t-3 -7.5q-1 -1 -1 -2q-1 -2 -1 -3q-6 -17 -7 -24q-3 -12 -3 -13l-2 -4q0 -2 -0.5 -6t-0.5 -7q-1 -2 -2.5 -5.5
t-2.5 -5.5q0 -2 -0.5 -6t-0.5 -7q-2 -5 -3 -18l-2 -4q0 -5 -0.5 -14.5t-0.5 -13.5l-2 -5v-33l2 -4q-1 -1 -1 -3v-3l1 -1q0 -5 0.5 -16t0.5 -17l2 -5q0 -3 0.5 -7t0.5 -6l2 -5q0 -8 1 -13q0 -2 1 -2q1 -2 1.5 -7t2.5 -7l5 -13v-1q1 -2 1 -3q0 -6 1 -9q2 -3 3.5 -8.5t2.5 -7.5
l2 -3q0 -4 1 -7q7 -10 11 -20q1 -5 5 -9q5 -6 6 -12q4 -11 13 -26q4 -6 5 -9q2 -4 8 -12q16 -24 20 -32q3 -3 8.5 -10t9.5 -11q1 -1 2.5 -4t3.5 -5l9 -9q2 -4 1 -6q-3 -3 -10.5 -8t-10.5 -8q-3 -1 -7.5 -5t-7.5 -5l-13 -9q-4 -2 -6 -4q-10 -9 -32 -25q-4 3 -10 11l-3 4
q-2 2 -5 6.5t-5 6.5t-4.5 6.5t-3.5 5.5l-3 6t-4 6l-8 10q-1 2 -11 17l-24 36q0 1 -2 3q-6 8 -14 24l-6 10q-6 10 -8 16l-4 9q-1 1 -7 10l-3 6q-3 10 -9 17l-3 7q-1 2 -2 6t-2 6t-2 5.5t-2 5.5q0 3 -1 5.5t-2.5 5t-2.5 4.5q0 4 -1 6q0 3 -2.5 8.5t-3.5 9.5q-1 1 -3 14z" />
    <glyph glyph-name="parenright" unicode=")" horiz-adv-x="397" 
d="M133 -10q-7 -7 -21 -17q-4 0 -5 2l-14 21l-9 14q-1 1 -4 6t-5 7q-3 1 -3 5q-14 22 -23 32q0 1 1 2v2l8 9q12 11 13 14q0 1 1 1q10 12 14 19l4 4t4 5q3 3 8 11.5t8 12.5t8 12.5t8 12.5q2 0 2 2q0 3 1.5 6t4 6.5t3.5 5.5l9 19l3 3l3 7q2 9 6 16q3 8 4 10q1 1 2 6t3 7l5 14
q3 9 3 10q0 2 1.5 4.5t1.5 3.5q1 4 1 14q5 12 6 26l2 4q0 1 0.5 4t0.5 5v7q0 1 2 5v54q-2 4 -2 5q-1 8 -1 22q-2 4 -2 5q-1 5 -1 18q-3 9 -3 11q0 11 -2 14l-3 14q0 1 -2 5.5t-2 7.5q1 1 0 3l-1 2q-1 3 -3 7t-2 6q-3 12 -3 13q-1 1 -2 6t-3 7l-6 17q0 1 -0.5 2.5t-1.5 2.5
l-8 21q-4 6 -5 12l-6 12q0 3 -1 4q-3 3 -10 18q-1 1 -4.5 7t-5.5 9q-1 1 -13 23l-20 25q-4 6 -14 16q-6 6 -9 13q0 3 2 5q5 6 10 9l9 7q10 12 20 18l4 4l4 5q3 3 13.5 9.5t15.5 11.5q9 -4 19 -14l3 -4q1 -3 4 -6t4 -5l9 -10q2 -4 9 -11q3 -6 6 -10q10 -9 17 -23q0 -1 2 -3
q5 -6 13 -18q2 -2 4.5 -6.5t4.5 -6.5l3 -6q1 -1 2 -5.5t3 -6.5l6 -12l3.5 -7t3.5 -8t3.5 -8.5t3.5 -7.5t4 -11l6 -12q1 -2 2 -5.5t2 -5.5l6 -15q2 -2 3.5 -7t2.5 -8q0 -1 0.5 -3t0.5 -3q0 -6 2 -8v-2q0 -4 3 -13t4 -14q1 -3 2 -8.5t3 -7.5v-2l3 -14v-4q0 -2 0.5 -5t0.5 -4
t2 -5q0 -12 1 -18q0 -1 1 -2v-2q1 -1 1 -3q0 -6 0.5 -17.5t0.5 -16.5q0 -3 2 -9q2 -34 0 -69q-2 -2 -2 -4q0 -4 -0.5 -10t-0.5 -9l-2 -5l1 -2v-3q-2 -5 -2 -15.5v-12.5l-2 -6q-1 -2 -1 -9q-2 -6 -2 -7q-2 -12 -3 -13q0 -3 -2 -7.5t-2 -6.5q-2 -10 -4 -13l-2 -9l-9 -21
q0 -1 -2 -5q-3 -5 -6 -14t-6 -13q0 -3 -1.5 -6l-3 -6l-2.5 -5l-8 -16l-5 -11l-7 -9q0 -1 -2 -3q-4 -1 -7 -6.5t-4 -6.5q-2 -4 -8 -10l-12 -13l-3 -3q-8 -12 -26 -26l-3 -4l-3 -3q-4 -2 -10.5 -8.5t-10.5 -8.5q-2 -2 -2 -3q-2 -4 -10 -6z" />
    <glyph glyph-name="asterisk" unicode="*" horiz-adv-x="491" 
d="M149 430h-2q-12 12 -20 16l-5 5q-4 4 -6 5q-4 2 -10 10q-2 5 -6 6q-4 2 -19 20q-1 2 -3.5 5.5t-2.5 4.5v3q4 6 5 9q3 9 12 17q2 2 5 6.5t5 6.5l10 11q1 1 8 11l4 8v7q-1 2 -3.5 4.5l-3.5 3.5l-5 3q-12 8 -17 13q-1 1 -4 2t-4 3l-7 8q-6 6 -11 8q-1 0 -3 2l-14 15
q-2 3 0 7l6 9l3 3l6 6l6 10l8 8q6 9 28 31l2 1h3l9 -5q6 -6 9 -7l5 -4q5 -6 16 -11l14 -13q13 -3 14 -3l2 1l4 4v27.5v32v26.5l2 3h53q1 1 3 1q1 1 2 1q3 -2 9 -2h7q4 2 6 2h10l1 -1q0 -2 0.5 -6t0.5 -6l-3 -7v-70q7 -12 8 -12q6 -2 10 1l6 2q1 1 6 2t7 3q3 0 7 1.5t6 1.5
q1 1 3 1q11 6 13 6q3 1 8 3t6 3q3 1 8 3t6 3t4 1q2 -1 3 -3.5t2 -3.5v-6l2 -3q1 -3 4 -9t4 -10q0 -1 1 -2l2 -3l2 -4q0 -1 2 -6t1 -8q0 -1 2 -7q1 -2 1 -8q-2 -3 -3 -4t-3 -2q-4 -3 -6 -4q-12 -6 -17 -10l-9 -5l-7 -6q-2 -1 -5 -2t-5 -2q-8 -6 -16 -9q-4 -2 -5 -4
q-2 -3 0 -10q1 -3 3 -6t5 -6.5t4 -5.5q8 -10 12 -19q5 -7 6 -8l2 -4q2 -3 7 -11.5t7 -14.5q0 -3 -2 -3l-13 -9q-1 -1 -7.5 -3t-8.5 -5q-5 -2 -15 -8q-8 -5 -24 -13l-6 -2q-2 0 -3 1l-7 8q0 1 -2.5 3t-3.5 4q-19 28 -20 29t-13 16l-11 12l-7 5q-7 3 -10 -4q0 -3 -1 -5
q-4 -6 -7 -9q-2 -5 -8 -15q-6 -4 -8 -8q-1 -2 -4 -5.5t-4 -5.5l-7 -11l-11 -12q-10 -10 -11 -12z" />
    <glyph glyph-name="plus" unicode="+" horiz-adv-x="425" 
d="M187 501l5 3h51l2 -2v-65q0 -1 -2 -7q-1 -5 -1 -18q0 -1 -0.5 -2.5t-1.5 -2.5q1 -6 8 -9q8 0 23 -0.5t22 -0.5q1 0 5 -2h30q4 0 6 -1q4 0 6 -5v-4v-6v-5l-3 -5v-21l-3 -6v-36q-1 0 -1 -1q-2 -2 -3 -2q-9 0 -12 -2l-4 2h-15l-7 -2q-1 1 -4 1h-2l-2 -1q-14 0 -16 1t-12 1
l-12 -7l-3 -5q0 -2 1 -6t1 -6v-54v-22l-3 -4l-3 -2h-63q-8 0 -12 -2h-1q-3 2 -9 2t-8 1l-2 2v6q0 12 0.5 37t0.5 37q0 8 -1 12l-10 11h-19h-37h-5h-6.5h-5.5q-2 2 -2 3q0 3 -0.5 9.5t-0.5 9.5q0 8 0.5 24.5t0.5 24.5q0 5 1 7q1 1 1 4q0 5 1 7l2 4h1q1 1 2 1h2l5 1q6 0 9 2
q2 1 7 1t8 1q2 1 7 1q8 1 23 1q8 0 12 2h3.5t3.5 1q4 0 5 4q1 1 1 11v32q2 4 2 5q1 12 1 33q2 4 6 8h1q1 1 2 1q13 0 19 2q1 0 5 -2z" />
    <glyph glyph-name="comma" unicode="," horiz-adv-x="268" 
d="M129 -20q-4 -1 -12 -5q-6 0 -7 -1h-9l-12 5q-2 0 -3 -1q-2 2 -3 2q-1 1 -4 1l-3 3q1 2 2.5 4t1.5 3l5 5q1 2 3 4t2 4q5 7 6 8v3l5 11q4 8 5 13q1 1 0 2q0 3 1.5 8t1.5 6v3l-2.5 2.5t-2.5 3.5q-2 0 -10 2q-4 2 -9 2q-1 0 -3.5 1t-4.5 1l-5 4q-5 5 -8 6q-1 1 -3.5 2.5
t-3.5 3.5q0 1 -2 3t-2 4v1q-3 4 -7 14v9q0 3 -1 4q0 9 1 11v1l2 17v1q1 1 2 3t2 3q2 1 4 5l3 6l3 4l8 7q7 5 8 5l9 7q2 1 6 2t6 2q2 -1 6 0t6 1q5 2 20 2q1 0 3 -1q4 -2 6 -2q4 -1 7 -4q1 -2 5.5 -4t6.5 -4l11 -10l4 -5q4 -4 5 -8q3 -8 8 -17q2 -8 2 -10v-8q0 -6 1 -9
t-1 -12l2 -4l-3 -10v-5.5t-1 -5.5q0 -1 -0.5 -4.5t-1.5 -5.5l-3 -12q0 -1 -1 -2t-2 -4l-1 -3v-3l-8 -16q-2 -7 -6 -11q-2 -3 -6 -8.5t-6 -9.5q-2 -2 -3 -2q-3 -2 -8 -6.5t-8 -6.5q-2 -1 -4 -5z" />
    <glyph glyph-name="hyphen" unicode="-" horiz-adv-x="350" 
d="M231 413l6 3h27l3 -3v-11l-3 -6q0 -11 -1 -17v-6q-2 -3 -2 -10v-29l-4 -8q-1 -2 -5 -4h-4h-64h-29q-15 0 -22 1q-1 0 -5 2h-55q-8 0 -20 3h-3h-1q-1 1 -2 1q-2 1 -1.5 6.5t0.5 6.5l2 7q0 6 0.5 18.5t0.5 19.5q0 4 2 8v14q2 0 2 2h24q1 0 7 2h46h54.5h46.5z" />
    <glyph glyph-name="period" unicode="." horiz-adv-x="258" 
d="M105 207q1 0 3 1h2h1q6 -4 14 -6q4 0 12 -4q7 -3 14 -8q4 -4 5 -6l5 -5q2 -2 2 -3q1 -2 3 -5t2 -4q0 -3 4 -11q2 -6 2 -9q0 -1 0.5 -2t0.5 -2q0 -2 -0.5 -4t-0.5 -3q0 -10 -3 -19v-5q-2 -3 -4 -9l-2 -4q-2 -2 -2 -3q-1 -4 -4 -7q-5 -8 -11 -12l-3 -3q-3 -4 -9 -6
q-1 0 -2.5 -1.5t-2.5 -1.5q-8 0 -10 -1h-2q-6 0 -8 -1q-1 -1 -3 0t-3 0t-3 0q-3 1 -9 1l-18 7l-9 8q-1 0 -2 1t-2 2.5t-2 2.5l-3 6l-3 2l-1 2q-1 2 -2 3q-1 0 -4 6q-2 4 -2 6q1 2 1 5v5q0 3 -2 5q1 3 1.5 7.5t0.5 6.5q0 1 1 3q2 4 2 6v1q1 2 3.5 8.5t4.5 9.5q2 4 2 5
q3 8 8 13l6 7q12 10 18 14q7 4 14 1z" />
    <glyph glyph-name="slash" unicode="/" horiz-adv-x="492" 
d="M282 671q1 3 1 7l8 17q1 4 4 9.5t3 8.5v1l1 2l17 34l3 3q12 -4 18 -5l12 -3q1 0 11 -3q10 -6 17 -6l6 -3q10 -5 20 -5h2t2 -1q2 -2 7 -3h6l9 -3q2 -4 1 -8l-6 -13l-8 -24q-2 -6 -5 -13l-8 -19q-2 -6 -8 -16q-1 -2 -3.5 -6.5t-4 -8.5t-2.5 -8q-1 -3 -4 -9t-4 -9l-9 -18
q0 -2 -2.5 -6t-3.5 -7q0 -2 -6 -13t-6 -13t-5 -11l-7 -14q-4 -9 -5 -16l-9 -21q-1 -2 -2.5 -7t-3.5 -7q-1 -5 -5 -15q-2 -3 -7 -16q-2 -3 -4 -9t-2 -7t-0.5 -2.5t-0.5 -2.5q-2 -2 -4 -7t-2 -6q-5 -12 -6 -13q0 -2 -1.5 -6t-2.5 -7l-5 -12l-4 -10q0 -1 -0.5 -3t-0.5 -4
q-4 -4 -6 -13q-4 -5 -5 -11q0 -2 -1.5 -5t-1.5 -4l-3 -8q-2 -3 -5 -11t-6 -11q-1 -1 -1 -2q-1 -3 -3 -7t-2 -6q0 -1 -1.5 -4.5t-1.5 -5.5q-2 -4 -2 -6l-5 -10q-1 -6 -5 -11q0 -2 -5 -11q0 -1 -0.5 -2.5l-1 -3t-0.5 -3.5l-3 -7q-2 -3 -7 -18q0 -2 -2 -6t-2 -6q-1 -1 -1 -3
q-4 -5 -6 -12l-11 -22l-4 -11q-1 -2 -2 -5.5t-2 -5.5t-3.5 -7.5t-3.5 -8.5q0 -1 -1 -2t-1 -2l-3 -4q-2 -7 -13 -29q-2 -3 -4 -9.5t-3 -9.5q-6 -12 -7 -18l-3 -3q0 -2 -2 -2q-4 -1 -8 0l-7 3q-6 4 -20 8h-2q-11 6 -13 6q-8 4 -14 6h-4l-5 2.5t-5.5 2.5t-4.5 1t-4 1.5t-4 1.5
h-5l-13 7v3q0 1 3 11l5 10l11 24l5 13t4 10l8 16q1 3 3.5 8.5t3.5 7.5q0 1 3 7t3 10q2 2 2 4q3 5 8 16.5t8 17.5l4 11q1 2 5 11q0 1 1.5 5t1.5 6l5 8q5 16 9 23q0 3 3 8.5t3 8.5l7 17q2 6 8 18t8 18l6 15q0 2 2 7t2 7q3 5 7 17q1 1 2.5 5t2.5 6q1 1 1.5 3l1 4t1.5 4l6 15
q6 10 8 16l6 15q4 14 9 18q1 1 1 2q1 2 1 3l6 15q1 2 2.5 7.5t3.5 7.5l5 15l6 14q1 2 2 6t2 6q1 3 3.5 8t2.5 6q3 6 3 8l5 13q4 11 5 14q2 4 5 11.5t5 10.5q0 4 4 10q8 16 8 17v2l6 12q1 4 5 12z" />
    <glyph glyph-name="zero" unicode="0" horiz-adv-x="589" 
d="M55 509l2 6q0 2 -1 3q1 1 1 5q0 3 1 8t1 7l1 1v2q2 6 2 10q2 12 4 19q2 4 2 5q1 8 5 17q2 6 2 10l1 1v1q10 20 11 24l5 7l6 10q1 1 1 2l4 8q4 4 7 10q4 4 4 7l4 6l7 8l7 6q1 1 3 2q4 3 6 4q8 6 12 10l5 4q3 0 4 1q3 2 10.5 6.5t11.5 7.5q1 1 4.5 2.5t5.5 3.5l4 3l9 3
q5 3 9 3q6 2 9 5q3 -1 9.5 0t8.5 1l7 3q4 0 7 -1q12 3 13 3q2 0 6 0.5t6 0.5q3 0 5 -1h14q3 0 4 -1q2 -1 12 -1h4q2 -1 11 -1q1 0 2.5 -0.5t2.5 -0.5l1 -1q2 0 8 -1t9 0q8 -3 13 -7q1 -1 2 -1q2 -1 3 -1l10 -6h3l10 -6q9 -5 16 -10l15 -12q9 -6 10 -10q1 -1 2 -1q1 -1 6 -8
q4 -5 10 -15q0 -1 1 -2t2 -2.5t2 -2.5l4 -8q8 -8 9 -14v-1q4 -8 5 -12q0 -3 4 -13q-1 -2 0.5 -5.5t1.5 -5.5q1 -2 1 -9q4 -12 4 -15l4 -16q1 -3 1 -8l2 -5v-14q0 -4 2 -8q0 -1 0.5 -4t0.5 -4q0 -9 1 -14l3 -6q-1 -1 -1 -2l2 -11q0 -1 -1 -2q2 -6 1 -7q0 -1 0.5 -2.5
t0.5 -2.5v-13q0 -7 1 -9v-5q0 -6 1 -8l1 -2q0 -15 1 -18q-1 -1 -1 -9v-6q1 -4 1 -12l-1 -2q2 -5 0 -7v-3l1 -1q-1 -6 1 -15l-2 -3v-33v-3.5t-1 -3.5l-1 -1v-2q0 -1 0.5 -3t0.5 -3q-1 -2 -1 -7v-7l-2 -6q1 -2 0 -5.5t-1 -4.5q1 -7 -2 -26l-3 -16q-2 -5 -2 -17q-2 0 -2 -2
q0 -7 -1 -9q-1 -1 -1 -4v-5l-3 -9q0 -2 -0.5 -4t-0.5 -3l-2 -6q-1 -1 -1 -6q-1 -1 -4 -9v-1l-7 -14l-9 -15q-7 -9 -8 -12l-5 -5q0 -2 -8 -12q-5 -7 -18 -20l-7 -4q-4 -3 -12 -7l-9 -8h-5q-8 -5 -9 -7t-6 -4l-5 -3q-1 0 -3 -1l-3 -1h-7q-6 -5 -21 -9q-12 -4 -18 -7
q-5 -2 -15 -4h-4q-8 -3 -18 -3q-6 0 -8 -1q-1 1 -3 1h-2h-13h-3q-6 0 -9 1q-1 0 -4.5 0.5t-4.5 1.5l-6 2h-3l-1 1q-7 3 -14 3q-2 0 -4 0.5t-3 0.5h-2q-5 4 -15 8h-4l-2 2l-15 7q-8 3 -9 4q-3 0 -7 2.5t-6 2.5q-2 1 -7.5 4t-7.5 6q-2 2 -7 6q-8 6 -12 13l-4 4l-15 15l-5 9
q-6 8 -7 15q-2 2 -2 3l-2 4q0 3 -1 5q-2 3 -3.5 8t-3.5 8v3.5t-0.5 4t-1.5 4t-1 4.5q-1 1 -1.5 4.5t-0.5 4.5q-2 2 -2 9q0 2 -1 3q-1 3 -2 9.5t-2 9.5q0 1 -1 8t-2 11q0 2 -1 5t-1.5 5.5t-0.5 4.5q1 1 -1 5l2 3q-2 4 -2 5q0 8 -1 12q0 3 -1 10.5t-1 11.5q0 2 -1 5v4t1 4v3
q-1 2 -1 6v10q-1 3 -1 10v3q0 2 -1 3q0 2 0.5 4t0.5 3q-1 3 -1 8q0 4 1 6q1 1 1 4v26q0 8 1 12v9q0 4 1 5q0 2 -0.5 4t-0.5 3v12q2 8 2 13q0 1 0.5 1t0.5 1q0 4 1 12t1 13q0 1 0.5 5t0.5 6q2 4 2 6v6zM247 176l9 -3q3 0 5 -1q3 -1 11 -1q3 0 4 -1h5q4 0 10 2l14 7q6 3 12 9
q10 7 11 9l6 7q6 10 8 15q2 8 4 10l1 1q0 3 2 9q0 2 1 5t1.5 5.5t0.5 4.5q2 6 2 9q2 4 2 6v3q0 2 1 5.5t1.5 6.5t0.5 6q-1 2 -0.5 5.5t0.5 4.5q1 2 1 10v17v3l1 2q0 5 -1 7v1l3 10q-3 4 -1 10v1q1 1 1 2v22q0 1 -1 3q1 11 1 33l-3 4l3 5l-3 5q1 1 1 12q2 7 0 13v11
q-1 2 -1 6v7l1 2q-2 4 -2 5v9q0 2 -0.5 6t-0.5 6t-1 5t-1.5 5.5t-0.5 4.5v3q-5 18 -5 19q-1 1 -2 3.5t-2 3.5v3q-4 4 -5 8l-6 10q-3 6 -8 10l-6 6q-3 4 -19 15q-4 3 -20 5q-2 -1 -6.5 -1h-6.5q-4 -1 -9 -2.5t-6 -1.5h-2l-2 -1q0 -2 -2 -2q-7 -1 -15 -9l-4 -3q-11 -7 -15 -17
l-6 -11q-2 -6 -6 -9q-2 -10 -4 -15q0 -2 -0.5 -5t-1 -5.5t-1.5 -4.5q-1 -3 -2 -9t-1 -7l-3 -15q1 -1 1 -3l-5 -29q1 -5 0 -9v-7v-7q-1 -1 -1 -3.5v-3.5v-4q-2 -3 0 -9v-1q-1 -1 -1 -2v-16q-2 -3 -1.5 -9.5t-0.5 -10.5q2 -7 -1 -13v-19q-2 -1 -1.5 -5.5t0.5 -5.5q2 -4 0 -12
q1 -3 1 -9q-1 -4 0.5 -11.5t1.5 -10.5q0 -1 0.5 -2t0.5 -2q0 -15 1 -18q2 -5 0 -10q0 -1 1 -4t1 -5q-1 -2 0 -4.5t1 -3.5q2 -6 2 -8q4 -6 4 -9q2 -6 4 -8l4.5 -9t6.5 -10l2 -3q5 -9 17 -14l4 -3q8 -5 16 -6z" />
    <glyph glyph-name="one" unicode="1" horiz-adv-x="465" 
d="M355 274l-2 -2q1 -2 1 -5v-3l1 -2q0 -1 -0.5 -3t-0.5 -3q0 -12 -1 -14v-3v-36v-2v-12q0 -7 -0.5 -22t-0.5 -22q0 -1 0.5 -5t0.5 -6q0 -1 -0.5 -4.5t-1.5 -5.5v-6q0 -6 -1 -9q0 -1 1 -2q-1 -1 -1 -6v-38q0 -4 -1 -6q-8 -3 -11 -1h-2l-2 -1l-4 2q-11 0 -13 1q-8 0 -12 -1
q-3 -1 -10 -1h-10q-3 -1 -9 -1q-12 0 -15 -1h-1q-4 1 -27 1l-4 2q0 1 -1 2t0 2q0 3 -1 8t-1 8q0 1 -0.5 4t-0.5 5q-2 6 1 10q-3 9 -1 19q1 1 1 5v51q0 6 1 8v38q0 1 -0.5 4t-0.5 4t0.5 4t0.5 4t-0.5 3.5t-0.5 4.5q2 6 0 10q2 7 0 10q2 8 0 12v6q1 3 1 8q-1 4 -1 13v13v2
q-1 2 -1 3l1 2v3q0 4 1 6q-2 4 -1 7q2 2 0 7q3 7 0 15q3 6 0 12q1 2 1 5v33q0 2 0.5 4t0.5 4q-1 2 -1 8v19q-1 2 -1 6q1 2 1 6q-1 1 0 3t0 3v6q0 2 -1 4q2 6 0 13v2l1 2v17q0 1 0.5 3t0.5 4q2 5 0 11q-2 2 0 4v3q-1 1 0 4q1 7 0 13v4q-1 2 -9 7q-10 -3 -14 -10q-3 -6 -8 -9
l-5 -7q-2 -2 -2 -3l-8 -7q-1 -1 -2 -2.5t-2.5 -2.5t-2.5 -2l-3 -3q-6 -7 -13 -13q-3 -1 -3 -3l-7 -7l-10 -8l-8 -10l-2 -2q-3 -2 -5 -5l-3 -3t-4 -3l-2 -3l-5 -3q-1 0 -2 1q-7 4 -10 9q-5 6 -11 10q0 2 -1 3l-11 13l-7 6l-7 7q-1 2 -15 16q-4 6 -5 9l-4 3q0 1 1 1q1 2 3 4
t2 3q4 7 11 12q6 6 9 12q7 9 9 10l3 4l18 20q4 2 5 4t5 4l3 4l8 10l2 2q2 0 2 1q1 2 3 3.5t3 2.5q2 4 4 6h3l7 9q2 2 4 2v1l2 4l5 5q2 1 4 5q2 2 6.5 6t5.5 5q9 12 11 15q1 2 4 5t4 5l6 6l3 3q3 1 7 7q2 3 7 7t6 5q2 0 5.5 -0.5t4.5 -0.5q2 0 7.5 1.5t8.5 1.5h10q4 0 7 1
q1 -1 2 -1h1q2 1 7 1h37q3 0 5 -1q6 2 9 2q2 1 4.5 0.5t3.5 -0.5h5h2q8 1 22 1q1 -1 2 -3v-2v-5v-8q0 -2 1 -3q-1 -1 -1 -2q-1 -2 -1 -3v-10q-1 -4 -1 -12v-11q0 -3 -1 -6q1 -1 1 -2v-6q0 -1 0.5 -2.5t0.5 -2.5q-1 -1 0 -3t1 -3q-2 -9 1 -16v-89q0 -5 -1 -7q0 -12 1 -14v-1
q0 -16 -1 -20v-5v-13q2 -13 0 -20q0 -2 1 -4q0 -1 -2 -5q1 -2 0.5 -8t1.5 -10q-2 -2 -2 -9q0 -45 1 -67q0 -1 -1 -2.5t0 -2.5v-6v-12q0 -8 -1 -10v-2q1 -3 1 -19q1 -1 0 -2.5t0 -2.5q0 -15 -1 -18v-2z" />
    <glyph glyph-name="two" unicode="2" horiz-adv-x="523" 
d="M416 467q-5 -7 -5 -8q-2 -2 -2 -5l-4 -12l-6 -15l-9 -12q-1 -1 -1 -4q-6 -4 -9 -11q0 -1 -1 -2t-1 -2l-9 -11q-2 -7 -6 -11q-3 -3 -7 -11l-13 -17q0 -1 -4 -3q-1 -6 -6 -12q0 -2 -2 -4q-8 -10 -11 -17l-1 -1q-2 -1 -3 -2q0 -1 -2 -3l-3 -3q-1 -2 -5 -6.5t-6 -7.5l-9 -9
l-7 -8l-7 -7l-7 -6q-2 -4 -8 -12q-1 -2 -4 -5.5t-4 -5.5q-5 -3 -8 -8l-8 -10l-8 -11l-5 -7l-3 -2q-1 -1 -1 -4q-6 -5 -5 -12q2 -2 3 -2q1 -1 3 -1l2 -1q4 -3 7 -7q7 0 10 2l3 -2l8 3h1l1 -1q4 1 11 1h26h3l1 1q8 -2 13 0q1 0 3 -0.5t3 -0.5h6q6 0 7 -1h10q5 0 7 -1
q1 -1 4 -1h26q6 0 9 1h7q8 -1 17 0h12q2 0 6 2q2 0 3 -1l2 1h1q1 -1 2 -1q6 2 9 1v-7q1 -2 1 -6t1 -6q0 -3 -1 -5v-3v-6q-1 -1 1 -5q-2 -2 -2 -10v-41q0 -5 -1 -9q2 -5 0 -8v-19q0 -1 -1 -1q-4 -1 -9 0q-7 1 -16 0h-2q-2 0 -3 -1l-4 2q-1 -1 -3 -1q-4 1 -13 1q-6 0 -10 1
h-35q-1 0 -3.5 0.5t-4.5 0.5q-1 0 -3 -1h-8q-3 0 -4 1h-6q-2 1 -6 1q-1 1 -4 1h-5q-1 1 -2 0q-2 -1 -3 -1q-8 0 -9 1q-2 -1 -7 -1q-8 0 -10 1q-3 -2 -8 0h-4q-6 -2 -9 0q-17 0 -21 -1q-2 -1 -7 1q-4 -2 -11 -1.5t-11 -0.5q-1 0 -4 0.5t-5 0.5q-5 0 -7 1q-1 -1 -11 -1h-21
h-15h-3.5h-3.5h-7h-7q-5 0 -7 -1h-9q-8 -2 -11 0h-3.5t-3.5 -1h-20q-1 0 -10 3l-3 -2q-2 2 -2 3q2 13 0 20v6q1 1 0 3v2q1 3 1 7v6q0 6 1 9v7q0 3 1 5q0 3 1 4q-3 5 -1 12q3 12 2 23q0 4 1 6t1 5q0 1 0.5 3.5t-0.5 3.5q0 1 0.5 2.5t1.5 2.5l5 7q4 4 5 7q1 2 5.5 6.5t6.5 7.5
q1 1 3.5 3t3.5 4l11 13l3 3q2 1 7 9l6 7l4 5q10 13 11 14l2 1q3 6 11 16q1 0 1 0.5t1 0.5q3 5 4 6q3 5 4 6l2 4l3 3q3 3 6 6.5t6.5 8t5.5 6.5q1 2 5 6q1 2 3 4t2 3l8 10l3 4l4 5l6 5l3 7l5 4q7 10 8 10q2 2 7.5 9t7.5 11l3 3q8 8 14 17l3 4q3 3 3 5l4 3q1 1 4.5 6.5t5.5 7.5
q1 3 4.5 6.5l4.5 4.5l7 11q1 2 3 5.5t4 4.5q2 2 2 5q2 6 4 9q2 4 4 14q1 5 1 15v21l-4 9l-2 7q0 1 -0.5 3l-1 4t-1.5 3l-4 8q0 1 -2 3.5t-2 4.5l-6 6l-9 10l-6 3l-7 3q-3 0 -7 2q-5 0 -7 2l-7 -2q-3 -1 -8 -1.5t-7 -1.5h-7l-2 -1q-12 -8 -18 -11l-5 -4q-2 -4 -8 -12l-4 -5
q-6 -16 -6 -26q-2 -3 -3 -9t-2 -8q-1 -3 -1.5 -9t-1.5 -9q-8 -1 -14 0q-6 2 -11 0h-8h-3.5t-3.5 -1q-2 -1 -5 -1q-3 1 -5 0h-5h-19q-6 0 -9 -1q-5 -2 -10 0q-5 1 -9 0h-1q-1 0 -4 8q1 5 1 17v15q3 6 1 13q1 3 0.5 9t1.5 9v10q0 4 1 6v4q1 2 1 5q0 7 1 10v11q3 3 3 9q0 1 2 5
q3 8 3 14q2 8 2 9q2 2 3.5 6.5t2.5 6.5q4 10 8 14q1 1 6.5 8.5t10.5 9.5q2 2 5.5 5t4.5 4q2 2 5.5 3.5t4.5 2.5l29 17l3 2q1 0 8 5q2 0 3 -1q2 1 6 1h2l4 2q0 -1 2 -1h2l2 1q10 0 15 1h7q2 1 7 1h8q2 1 8 1h7q2 0 4 1q1 -1 2 -1q4 1 11 0t9 -1q5 0 7 -1q1 -1 4 -1t5 -1h4
q10 -2 17 -4l6 -3q13 -5 22 -10h2l5 -4l3 -4q2 0 3 -1q8 -6 12 -10l9 -7q1 -1 2.5 -2t2.5 -2.5t2 -2.5q2 0 2 -1q6 -8 10 -11l4 -5l3 -4q8 -8 10 -13l5 -5q4 -8 8 -12q0 -2 1 -5.5t1.5 -6.5t0.5 -6l3 -4v-6q2 -2 4 -7t2 -6v-7l2 -6q1 -3 1 -7t1 -6v-2q0 -1 1 -2q0 -5 1 -6
v-16q-1 -3 -1 -16q0 -1 -0.5 -3t-0.5 -3v-2q0 -3 -1 -4q1 -1 1 -2q0 -2 -0.5 -5.5t-0.5 -4.5l-3 -9q-1 -4 -3 -11t-4 -11q0 -3 -1.5 -8.5t-1.5 -7.5z" />
    <glyph glyph-name="three" unicode="3" horiz-adv-x="552" 
d="M176 194l6 -3l6 -3l19 -6q8 -1 23 -1q5 0 11 2q10 3 13 4q16 10 22 18l6 8l6 10l7 16l2 4q3 3 3 7q0 1 0.5 3t0.5 3q2 6 2 7l2 3q0 3 -1 4q4 7 0 12q1 1 1 4q0 2 -0.5 5.5t-0.5 6.5l-4 11q-1 1 -2 5.5t-3 6.5l-12 14q0 1 -1 1h-1l-15 9l-2 2l-17 5h-3q-5 0 -7 1l-1 1
q-2 -1 -5.5 0t-4.5 1h-21q-7 0 -10 1q-5 1 -14 1q-1 1 -2 1v2q0 8 1 9v1q0 3 1 13t0 16q0 10 1 15q1 8 1 23q0 3 1 8.5t1 7.5l2 2q2 0 4 -1q1 1 3 1q8 -2 16 0q13 3 16 2h2q3 1 5 0q1 0 3 1t3 1l12 3l10 5q1 0 3 2l10 10q6 9 7 10q0 1 1 3q5 5 5 7q5 13 5 16l3 3l2 12
q0 7 2 9q1 4 1 10q0 17 -3 25q-8 18 -10 22q-4 2 -5 4q0 2 -2 6l-12 11q-6 5 -13 7q-15 3 -16 3t-3 1h-2.5t-2.5 -1q-2 0 -6.5 -1t-6.5 -1t-4 -0.5t-3 -0.5q-1 -1 -6.5 -2t-7.5 -3q-1 -1 -2 -1q-2 -1 -3 -1q-1 -3 -5 -6.5t-5 -4.5q-1 -2 -3 -3.5t-4 -3.5l-3 -3l-2 -4
q-4 -7 -6 -17l-4 -11q-1 -1 -5 -1h-16q-6 0 -16 -2q-5 -2 -10 0q-1 1 -4 1h-5l-3 2q-8 -2 -11 -2q-2 0 -6 -0.5t-6 -0.5q-6 -2 -14 0q-1 1 0 2.5t1 2.5v6l1 2v2q0 2 -0.5 4t-0.5 4q1 2 2 7t2 8q0 4 1 6t1 6q0 1 1 3v2q2 6 5 17.5t5 17.5l6 14l3 6q3 9 11 19v3q4 2 5 6l6 8
q5 4 10 12l7 5q1 0 3 1l3 4l11 7l6 3q4 2 6 2q10 4 13 4l6 3q4 2 7 2q8 2 12 4h1l2 -1q1 0 3 2q2 -1 7 -1q7 2 11 0h9h6h4t3 -1t2 -1q2 0 4 0.5t3 0.5q2 -1 7 -1h14q4 0 6 1h1q4 0 14 -2q2 1 6 0.5t6 -0.5l13 -5l17 -5q1 0 3 -2h6l11 -6h2l10 -5h2q5 -5 8 -6q2 0 4 -2
q4 -4 13 -12h3l3 -5l2 -2q5 -8 11 -12q0 -1 1 -1l4 -6l6 -8l3 -6q2 -8 8 -15q2 -3 4 -11l5 -12l3 -11q0 -9 1 -13v-4q1 -1 1 -3q0 -1 -0.5 -3.5t-0.5 -4.5q3 -5 0 -10q2 -4 1.5 -10.5t0.5 -10.5q0 -2 -1 -3v-1l1 -2q0 -1 -0.5 -2.5l-1 -3t-0.5 -3.5q0 -7 -1 -12
q0 -10 -2 -15l-3 -12q-1 -1 -3 -11q0 -2 -1 -2q-1 -1 -3 -8q-2 -4 -2 -7q-7 -18 -16 -28l-8 -9l-3 -5l-2.5 -2.5t-3 -2.5t-3.5 -1q-2 -2 -6 -5t-5 -5q0 -1 -0.5 -3t-0.5 -3v-1l3 -3q3 -1 7.5 -5t7.5 -5q7 -3 11 -7l13 -12q3 -3 6 -9q3 -3 7 -9l9 -10q2 -2 2 -5q3 -7 8 -14
l7 -27q0 -1 0.5 -5t1.5 -6v-8q2 -4 1 -6q1 -4 1 -25q0 -1 1 -1q-1 -2 -1 -7v-6q-1 -2 -1 -6v-3.5t-1 -4.5t-1 -7q-2 -8 -2 -12q-2 -8 -1 -12l-3 -3q0 -4 -3 -10q-3 -4 -5 -15q-2 -3 -4 -9q-4 -10 -7 -15q-1 -1 -2.5 -4.5t-3.5 -5.5v-4q-3 -1 -11 -15q-1 -1 -4 -4.5t-4 -5.5
q-3 -3 -7 -9l-7 -6q0 -1 -1 -1l-6 -5l-2 -2q-2 -3 -4 -4q-1 0 -2 -1t-2.5 -2t-2.5 -2q-7 -2 -9 -6q-5 0 -11 -4q-8 -4 -10 -6q-2 0 -4 -1l-5 -4q-4 0 -6 -1l-6 -2q-1 0 -3 -1l-4 -2h-5q-2 -2 -3 -2q-3 -1 -8 -1l-7 -2l-2 -2l-12 -3q-5 0 -7 -1h-6q-1 -1 -4.5 -0.5t-4.5 0.5
q-2 -1 -6 -1q-10 2 -13 1q-1 1 -5 1h-6h-1q-2 1 -3 1l-1 -1h-2q-4 2 -7 1l-3 2h-2q-8 0 -22 2q-2 1 -7 1q-7 0 -8 1q-1 -1 -2 -1l-21 6q-8 1 -17 5l-9 3q-5 1 -10 6q-1 1 -3.5 2.5t-4.5 3t-4 3.5q-2 0 -6 2q-4 3 -8 11l-7 5q-1 5 -6 9t-9 13l-3 4l-3 6q-4 6 -8 20
q-2 4 -4 12v1l-1 2v3l-3 6q0 3 -0.5 9t-0.5 8q0 1 -0.5 3.5t-0.5 3.5v2.5t-1 2.5v4l1 2v3q-1 1 -1 2q0 3 -1 7t-1 7q0 5 -1 7q-2 7 1 11q-1 2 -1 9q1 1 4 1h3q6 2 12 0h8q3 1 7 1h12q3 1 8 1q2 0 6 -2q3 3 7 1q2 -1 7 -1t8 -1h5q3 2 9.5 1t9.5 1l7 -2q3 -6 3 -7t3 -13v-4
q0 -5 2 -13l2 -7z" />
    <glyph glyph-name="four" unicode="4" horiz-adv-x="621" 
d="M299 605l-13 -27l-6 -12t-5 -11l-3 -5q-2 -2 -4 -7q0 -3 -2 -5l-2 -4l-2 -4q-3 -5 -5 -12q-1 -7 -6 -13l-5 -10q-1 -2 -3 -6.5l-3.5 -8t-2.5 -6.5l-1 -1q-2 -3 -5 -9.5t-5 -9.5q-6 -12 -8 -18l-4 -4q-2 -6 -4 -10l-8 -19v-3q-2 -4 -4 -5l-2 -6q0 -1 -1.5 -2.5t-1.5 -2.5
v-6l4 -4l10 -2q1 1 2 1t2 -1q4 2 5 2h3h4h3q2 0 3 1h7h7q0 -1 0.5 -1h1.5q2 0 5.5 1.5t5.5 0.5t10 -1q3 -1 15 2q1 0 2 1l4 -2h27h2l2 -1h3q2 0 6 -2q4 0 6 -1q1 0 2 0.5t2 0.5l3 7v2l-2 2v1q1 1 1 2t-1 3q0 2 0.5 5t0.5 4v2q1 4 0 6q2 3 2 10t1 10v2q0 12 2 19q2 1 7.5 2
t7.5 2q1 0 3 2q1 0 3.5 0.5t3.5 0.5q4 1 8 0h7q1 0 5 2q1 0 2 -1h5q5 0 7 -2l7 2q1 0 2.5 -1t2.5 0q5 -1 9 0q1 1 4 1h20h8t9 -1q0 -9 1 -11q-1 -1 -1 -3v-11v-18q0 -3 -2 -7l1 -1v-3q-1 -2 -1 -17l-3 -8l2 -3q-2 -4 -2 -7l3 -3q1 0 2.5 -1.5t2.5 -1.5l8 2q2 1 3 2h8t9 -1
l1 1h2h9q5 -2 7 -2q1 0 5 2q3 -1 17 -1q3 -1 3 -4v-8t-1 -9q-1 -1 -1 -5v-14q0 -9 -1 -11v-36q0 -1 -0.5 -3t-0.5 -3q1 -1 1 -2v-8q1 -1 1 -3.5v-3.5v-16q0 -1 0.5 -3t0.5 -3q0 -2 -1 -4q0 -3 -1 -4q-3 0 -22 2q-1 0 -3 -0.5t-3 -0.5h-2q-2 1 -3 1l-2 -1h-3q-6 0 -9 1
q-2 1 -6 1l-6 -3l-5 -4v-50v-7v-2v-5q-1 -3 0 -6q0 -9 -1 -10q-1 -2 1 -8q0 -1 -1 -3q0 -3 -1 -8.5t-1 -8.5q0 -9 -1 -10v-8q0 -3 -1 -5v-5v-23q-1 -1 -4 -1q-2 -1 -6 -1h-5h-2q-2 -1 -3 -1h-21q-5 0 -6 -1q-6 2 -9 0h-4q-5 2 -13 0h-1q-1 0 -3 0.5t-3 0.5h-5q-6 0 -9 1
q-10 2 -14 -1q-1 1 -3 1h-4q-1 1 -4 1l-1 -1h-3l-2 2q-1 0 -2 0.5t-2 0.5q-1 1 -1 6v6q-1 2 -1 6v6q1 9 1 27v66q0 7 1 8q0 1 -1 2v1q0 1 0.5 1t0.5 1v21q-4 8 -8 11h-8h-2q-2 1 -11 1q-20 0 -23 -1q-1 0 -1 0.5t-1 0.5q-5 0 -8 -1q-5 1 -9 0h-5q-2 1 -5 1.5t-4 0.5h-5
q-4 -1 -8 0q-1 1 -2 1q-3 -1 -8.5 0t-7.5 1q-5 0 -8 1q-2 1 -9 -1q-1 1 -2 1h-7l-2 1q-2 1 -3 0t-3.5 0t-3.5 1q-5 0 -8 -1h-5q-6 -1 -19 -1h-8q-2 -1 -5 0h-2q-4 -1 -8 0h-4h-3t-3 1h-7h-2q-3 1 -8 1q-4 0 -6 -1q-1 0 -3 0.5t-3 0.5h-2q-3 -1 -8 -1.5t-6 -0.5q-12 0 -18 1
q-5 0 -7 1h-8l-7 2v22q0 4 1 6v6v16q0 8 2 13q0 4 -1 7v16q1 3 1 17q0 9 1 11q0 1 0.5 3t-0.5 4q0 3 -1 6l3 4q4 7 7 19q0 1 5 13l5 10q0 1 2 4t2 5q1 2 3.5 6.5t3.5 6.5q0 3 2.5 7t3.5 6h1q3 3 6.5 9.5t4.5 8.5l1 1v1q1 2 9 19q2 6 3 7q1 3 4.5 9t4.5 8t3 4.5t3 3.5
q5 9 8 18q1 1 2.5 3t2.5 3l10 19l6 11q1 1 2.5 4t2.5 4q4 6 4 9l9 15q4 5 5 11l7 12q4 8 6 10t2 5l10 17q4 7 5 9q0 2 3 5q-1 2 1.5 5.5t2.5 4.5t1 2q3 2 4 7q1 1 1 2q1 1 1 4l17 23q0 2 1 3l6 9h5l6 3h10q1 1 5 1h14q3 0 5 -1l1 1q1 0 3.5 -0.5t3.5 -0.5l5 -2q13 4 22 1
q5 -2 9 0q1 0 3 -1q2 2 7 2h7h12h10q2 -2 3 -2l-2 -3l-8 -16l-6 -11q-1 -2 -3 -5t-3 -5l-2 -4q-1 -1 -2 -4.5t-2 -4.5l-5 -9q-1 -1 -1 -5l-9 -13q-2 -3 -6 -10.5t-5 -9.5l-3 -6q-1 -1 -2 -3t-2 -3l-1 -1q0 -2 -1 -3.5t-2.5 -3t-1.5 -2.5z" />
    <glyph glyph-name="five" unicode="5" horiz-adv-x="563" 
d="M114 432q-2 -1 -7 -1q-4 2 -6 1q-1 -1 -2.5 0t-2.5 1t-3.5 -0.5t-4.5 -1.5h-11q-13 0 -20 -3l-2 9v1q1 4 1 23v11t1 12v9q-1 1 0 2.5t0 2.5q-1 2 -1 6q1 2 1 5q1 5 0 9t0 9q1 2 1 7t1 8q1 1 -1 6q1 1 1 5q0 12 1 18q0 9 1 11v28q2 2 0 8q1 2 1 8v20q0 10 3 17v15q1 2 1 6
v6q1 3 1 10q0 2 1 4q-1 1 -1 3q0 17 1 20v8q0 3 1 5l1 2v2h8t8 1q9 -3 18 0q2 0 4 -0.5t3 -0.5t3.5 0.5t3.5 0.5h6l2 -1h2q1 0 3 1t3 0q1 0 5 2q1 0 1 -0.5t1 -0.5h1l2 -1q2 1 7 0t8 -1q1 1 2 1l1 -1h3l4 2h16q2 1 6 1q3 0 7 -2q4 0 7 -1q6 2 11 1q2 -1 6 -1h30q2 0 4 -0.5
t4 -0.5l2 1h2h13q4 0 6 1l1 -1h3h8h7q5 0 7 -1q1 0 4 0.5t4 0.5h11q3 0 5 1h2q1 -1 2 -1h3h2q1 1 2 1q2 0 7 0.5t8 1.5h6h14q5 0 8 -1q4 -2 8 0h5q1 0 3 0.5t3 0.5h10l1 -1h2h8h2q3 1 8 1h30v-11v-20q0 -1 -1 -2v-2q0 -1 0.5 -2.5t0.5 -2.5l-3 -9v-13q-2 -4 -2 -13
q0 -5 -1 -7q0 -1 1 -3v-1q-2 -5 0 -8q-1 -2 -1 -6v-22q-1 -1 -4 -1h-4t-4 0.5t-5 0.5q-3 -1 -8 -1q-3 -1 -9 -1t-7 -1l-9 2q-1 -1 -8 -1q-3 -1 -8 -1h-8q-6 0 -9 1l-1 -1h-2q-6 2 -12 0q-12 2 -18 0q-6 0 -9 1q-6 -2 -8 -1q-4 1 -8 0h-2q-6 0 -7 1q-1 -1 -3 -1h-3
q-1 -1 -6 1h-19q-1 -1 -2 -1l-6 2h-2l-2 -1h-6q-1 0 -3 0.5t-3 0.5l-11 2q-1 0 -4 -0.5t-4 -0.5t-3 0.5t-3 0.5q-3 0 -5 1q-7 -3 -17 0h-8l-7 -6q-3 -14 -2 -17q-1 -1 -1 -5v-14q0 -6 -1 -8q0 -6 -1 -7v-23q0 -1 -0.5 -3.5t-0.5 -4.5q1 0 1 -1l-1 -2v-2t1 -5t2 -6l9 -3
q3 -3 8 -3q1 1 3.5 1h3.5q11 0 14 -1q1 0 3 0.5t3 0.5q2 -1 6 -1h6q3 0 4 1h3h2q2 -1 3 0h5h4q4 0 5 -1h5h5l2 1h3h2q1 -1 2 -1t2 1q5 -2 10 0q15 -4 20 -5h2q1 0 5 -2q2 1 7 -0.5t7 -1.5q8 -4 14 -4q11 -3 14 -4q2 0 7 -2l4 -2l8 -4q3 -3 7 -4q6 -2 14 -9l11 -9
q8 -6 14 -14q5 -7 10 -13q11 -20 13 -25l5 -13q0 -3 2 -8.5t3 -8.5q2 -6 4 -20q0 -1 0.5 -2.5t1.5 -2.5l-1 -1v-2t0.5 -4t0.5 -4q0 -7 1 -11q1 -2 1 -6q-1 -1 0 -3.5t0 -3.5q1 0 1 -4l-1 -4v-17q-1 -16 0 -33q0 -1 -1 -3t0 -4q0 -1 -0.5 -4.5t-0.5 -5.5l-1 -1v-2v-8
q-1 -2 -1 -7q-2 -8 -2 -9q-3 -5 -2 -7q-1 -3 -2 -9.5t-2 -9.5l-2 -6t-2 -6.5t-2 -5.5l-6 -14q-2 -2 -2 -4q-8 -10 -9 -14q-1 -2 -6 -10t-8 -11l-11 -13q-1 -2 -12 -13l-3 -3q-2 -2 -5 -2l-14 -13q-1 0 -5 -2l-11 -8l-8 -4q-11 -5 -33 -11q-6 -2 -10 -2q-3 -2 -8.5 -3
t-7.5 -2q-8 -2 -13 -2q-8 -2 -12 -2q-5 2 -8 0q-5 -1 -14 -1h-6q-2 0 -5 -1t-5 0q-8 0 -11 -1t-18 -1h-9q-5 0 -8 1q-4 0 -7 1q-4 0 -8 3q-1 1 -2 1q-4 0 -10 4q-3 0 -5 1l-4 2h-4q-1 0 -2.5 1.5t-2.5 0.5q-1 0 -2 1l-2 1q-4 1 -10 5q-3 1 -14 6l-5 3q-7 5 -15 12
q-6 6 -10 8q-6 4 -14 14q-8 5 -12 12q-6 12 -9 21q0 1 -3 11q-2 6 -2 11q0 1 -0.5 3t-0.5 4v6q0 1 -1 3v1q0 2 1 3l-1 1v2q-2 3 0 5q0 12 1 15v2q-1 2 -1.5 7t-0.5 7q0 4 -1 7q1 1 1 6q0 14 1 22q0 5 1 8v8q0 6 3 11q6 2 9 2q4 0 8 -4l7 3q1 -1 2 -1q2 0 5 0.5t4 0.5
q5 0 8 1h2q2 -1 14 -1h11h2q2 -1 4 -1t3 1q1 0 2 -0.5t2 -0.5h10q5 -2 8 1h14l4 -2q0 -1 2 -3q0 -9 1 -10q0 -1 -0.5 -2.5t-0.5 -2.5q0 -7 -1 -9v-13q1 -1 1 -3v-12l2 -11q0 -5 4 -13l2 -7q2 -4 4 -6q0 -1 5 -8l5 -5q1 -1 4 -2.5t4 -2.5q1 0 13 -5q2 1 7 0t8 -1q2 -2 3 -2h5
q1 0 3 -1t4 0q1 1 3.5 1h3.5h3q2 0 4 0.5t4 0.5l10 2q6 2 9 2q3 1 9 5q4 2 6 2l4 6h3l17 17l4 8l9 21q0 4 1 5q1 2 1 6q0 1 1 4t0 5q1 2 2 7t1 6q-2 8 -1 12q1 2 1 5v13q1 3 0 8t-1 7q-1 1 -1 3t-0.5 4t-0.5 4l-2 3q0 1 1 2q-4 6 -6 13q0 1 -1 3q0 1 -1 2.5t-2 2.5t-1 2
q0 2 -1.5 4t-1.5 3q0 2 -4 6q-1 1 -1 2q-1 2 -1 3q-9 9 -11 10q0 1 -2 5h-1q-1 1 -2 1q-5 6 -20 16l-9 6l-8 6l-12 5l-9 4q-12 2 -14 2q-11 0 -21 5h-27h-4q-4 1 -23 1q-8 0 -11 1h-7q-3 0 -5 1h-3q-2 0 -14 2z" />
    <glyph glyph-name="six" unicode="6" horiz-adv-x="542" 
d="M456 610l2 -6q0 -2 -1 -3q1 -1 1 -5l2 -12v-13v-7v-9.5t-1 -10.5t0 -8l-1 -1v-2h-12q-2 -1 -8 -1q-4 1 -14 1q-9 0 -13 1h-7q-1 1 -4 1q-1 0 -3.5 -0.5t-4.5 -0.5q-1 0 -3 0.5t-3 0.5q-2 -1 -5 1q-1 0 -5.5 1t-6.5 0q-2 0 -8 2q-4 0 -7 1h-8q-4 -2 -10 0h-1q-1 1 -2 1h-2
q-2 0 -3 1l-2 3v1v1l1 1q0 16 -1 20v5q0 3 -1 8t-1 8t-2 5q-1 1 -2 4.5t-3 5.5l-5 10l-1 1l-2 2t-3 2.5t-2 2.5l-5 5l-13 8l-6 3q-2 0 -8 2q-1 0 -3.5 0.5t-4.5 1.5h-3q-7 0 -8 -1q-2 0 -4.5 0.5t-3.5 0.5l-6 -3h-1q-3 0 -9 -2l-15 -6l-4 -3l-9 -6l-2 -2q-2 -5 -5 -6
q-1 -1 -1.5 -3t-1.5 -3q-4 -5 -7 -13q-2 -7 -4 -8v-2l-2 -7q-2 -3 -4 -11q-2 -6 -2 -9t-2 -9q-1 -3 -1 -9q0 -9 -1 -14v-23q0 -2 1 -3q-1 -1 -1 -4v-6v-7.5v-6.5v-7v-14q0 -8 -3 -14v-9q1 -3 3 -3q5 0 8 -1v1q1 1 1 2l11 11l8 9l7 3l8 3h2l12 4q7 2 19 4q9 0 14 2q8 1 17 0
h6q1 -1 5 -1h2q1 1 2 1q10 -3 13 -2q3 0 4 -1q2 -1 8 1q4 -3 10 -1l6 -3q4 -1 10 -5l8 -4q3 0 7 -2t5 -2q5 -2 15 -8q2 -2 5 -4l7 -4.5t6 -3.5l11 -7q3 0 3 -2q1 -1 4.5 -4t5.5 -5l4 -7l4 -6q6 -8 8 -13q4 -3 5 -7l4 -2l1 -2v-3l5 -4q0 -1 1 -3v-2q0 -1 0.5 -2.5t0.5 -2.5
l5 -6q-1 -3 0 -7.5t1 -5.5q3 -5 5 -19q1 -1 1 -4v-8q0 -6 1 -9v-5v-23q1 -6 -1 -18q0 -1 -1 -3v-3q-1 -13 -5 -26l-4 -16v-8l-3 -6q0 -1 -2 -6q1 -2 0.5 -6t-0.5 -6l-3 -4v-4l-6 -15l-5 -6q-2 -4 -6 -9l-6 -11q-3 -6 -8 -11q-1 -1 -2 -2.5t-2.5 -2.5t-2.5 -2t-3.5 -2.5
t-3.5 -3.5q-1 -1 -4 -3.5t-5 -3.5l-2 -2q-5 -6 -13 -10q-1 0 -2.5 -1.5t-2.5 -1.5q-4 -2 -7 -2q-5 -5 -7 -6q-5 -3 -15 -7q-4 -2 -7 -2l-7 -2q-2 0 -14 -3h-2l-2 -1q-3 1 -9 -1.5t-8 -2.5h-6l-4 -2l-2 1h-3l-1 -1q-5 0 -7 -1q-3 -2 -8 0q-5 1 -15 1q-1 0 -4.5 0.5t-5.5 0.5
q-1 0 -3 -1q-9 3 -19 3l-6 3q-4 0 -14 2l-2 1q-2 1 -7 2.5t-7 2.5q-8 3 -10 4q-3 3 -8 5q-2 0 -11 5l-7 6q-3 0 -5 2q-1 1 -2 1q-2 1 -3 1l-4 4l-4 5l-5 3q-1 0 -2 -1l-3 2q1 0 1 0.5t1 0.5q0 1 -1 2l-6 6q-1 1 -2 2.5t-2.5 2.5t-2.5 2l-6 8l-8 12q-3 6 -4 7t-1 2
q-6 10 -10 18q-4 7 -5 13q-2 6 -4 9q-1 1 -1 2q1 2 -2 7q-3 3 -3 8l-4 14q0 5 -2 13t-4 13q0 1 -1 4v6v2.5v2.5q-1 2 -1 6v5q0 1 -0.5 5t-1.5 6v40q2 6 2 10v9l-2 8v31q0 2 1 3v5v5q1 4 0 7v3t-1 3q2 4 2 11q0 14 1 16v11v17q1 3 1.5 10.5t0.5 9.5t0.5 4t0.5 3q0 5 1 7v3v5
t1 4q1 2 1 5t1 4v3q0 5 2 13t2 11q0 1 0.5 2.5t0.5 2.5q0 4 2 12q2 4 4 14q4 18 8 27q7 16 10 20q8 14 11 22q1 1 1 2q3 3 7 10t6 10q6 8 10 12q0 2 2 3t2 2l4 4q1 1 17 14q2 0 2 1l12 8l10 8l8 3q4 4 12 7q2 0 3 1q3 2 7.5 3t6.5 2q12 2 14 2q2 1 10 4h4t4 1q3 1 8 1
q1 0 4.5 1t5.5 1q2 1 12 1h3q6 0 9 1q3 0 9 2q1 0 2.5 -0.5t2.5 -0.5t3 1q6 -2 10 0q6 -3 12 -3q2 -1 12 -1q3 -2 9.5 -4t9.5 -5h5l10 -5q3 0 9 -4q3 -2 7 -4q6 -2 12 -6l8 -5l6 -5l14 -10l2 -2q0 -3 3 -3q8 -8 11 -13q1 -1 3 -7l3 -6q7 -10 8 -21q0 -4 2 -8q4 -10 4 -14
q0 -2 1 -3q0 -1 -1 -3zM253 358q-7 0 -9 -1h-1q-5 1 -21 -6l-10 -5l-2 -1q-1 -1 -5 -3.5t-6 -4.5l-9 -9v-1q-1 -1 -1 -2l-4 -4l-3 -5l-4 -5q-7 -8 -10 -19q-6 -13 -9 -29v-3v-7.5v-8v-6.5q0 -1 0.5 -4.5t0.5 -5.5h1l2 -2v-3l2 -6q1 -3 1 -7q2 -4 2 -6l4 -3l11 -16l9 -7h1
q1 -1 2 -1q15 -8 18 -8q2 -2 7.5 -3t7.5 -2q4 -2 7 -2l7 -3q6 0 10 -3h9l3 2q2 0 4 -0.5t4 -0.5l1 1h2q3 -1 11 1q10 2 20 11l3 3l6 3q6 3 9 6q2 2 12 13q6 8 7 12q2 7 6 11q0 3 1 4q4 8 6 27q2 8 2 11q0 19 -2 24v3q-2 2 -2 3q-2 6 -2 9l-4 9q-1 0 -1 2q-3 2 -7 8q0 2 -2 4
l-9 6q-1 1 -6.5 4.5t-7.5 5.5q-2 4 -6 4q-4 2 -8 5q-2 2 -3 2q-2 1 -4 2.5t-3 1.5t-4 1t-4 1l-7 3q-1 0 -2 -1q-2 1 -4.5 1.5t-3.5 0.5q-4 1 -10 1q-1 0 -3 -2z" />
    <glyph glyph-name="seven" unicode="7" horiz-adv-x="470" 
d="M394 525q-3 -1 -5 -6q0 -2 -2 -6q0 -1 -5 -8v-3l-5.5 -10.5t-4.5 -8.5l-3 -9l-2 -5q-4 -8 -7 -12q-2 -2 -3.5 -4.5t-3 -5.5l-2.5 -5q0 -2 -2.5 -5.5t-2.5 -5.5q-1 -1 -2.5 -4t-2.5 -4q-2 -4 -2 -5l-3 -6q-2 -2 -2 -4t-2 -5t-2 -4q-3 -2 -3 -6q-4 -10 -7 -15v-3
q-4 -6 -5 -9q0 -3 -1 -4l-5 -9q0 -1 -1 -3q-2 -8 -4 -12l-6 -10l-3 -6v-6q-4 -6 -5 -9q0 -1 -5 -8v-5q-7 -10 -9 -18q0 -1 -2.5 -6t-3.5 -8q-2 -4 -4 -6t-4 -8t-4 -9l-5 -12q0 -1 -1 -2l-7 -14q0 -1 -1 -3q-3 -2 -3 -6q-1 -4 -5 -11t-5 -11l-3 -5q-1 -6 -5 -11q-3 -6 -3 -7
l-2 -4q-3 -6 -4 -7t-1.5 -3t-1.5 -3q0 -2 -1 -2q-2 -2 -3 -5t-2.5 -6.5t-2.5 -5.5l-3 -7l-4 -7q-2 -3 -4 -9q0 -1 -1 -3t-1 -3q-6 -6 -7 -14l-3 -6q-1 -1 -1 -3q-5 -5 -9 -5q-2 0 -4.5 -1.5t-3.5 -1.5q0 1 -1 1q-2 0 -6 0.5t-6 0.5q-10 2 -16 0h-1q-1 0 -2 0.5t-2 0.5
q-7 0 -10 -1q-1 0 -4 0.5t-5 0.5q-2 -1 -7 -1h-3q-2 0 -6 -0.5t-6 0.5q-1 1 -2 1q-1 -1 -3.5 -1h-3.5q-5 -2 -8 0q-2 0 -3 1h-18q-1 1 -1 4q3 10 8 22q3 5 2 7q1 3 3 9.5t4 9.5q2 4 4 10q3 9 3 10l1 1q1 2 2.5 5.5t2.5 5.5q3 4 5 12q1 1 1 3q2 2 7 18l5 7l3 8q0 2 2.5 5.5
t3.5 6.5q0 1 2 3v5q6 11 6 13l2 2l3 7q0 4 2 5q2 3 3.5 6.5t3 8t2.5 6.5l3 6q0 5 3 11q4 4 4 8q2 5 4 7l3 7q0 3 3 6q2 2 2 6l3 7q1 2 10 22q3 6 4 7l2 3q0 2 2 6t2 5q4 6 5 10l13 26q1 2 5 11v4l3 7q0 2 2 4q2 3 4 11q2 7 4 8q0 4 2 8l6 12l8 17q0 1 0.5 1t0.5 1q0 2 2 5.5
t2 5.5l5 11q1 0 1 1l8 19v1q1 2 1 3q5 4 7 12q3 10 7 15l3 7q2 5 -1 9q-2 0 -6 2h-25q-7 0 -10 -1h-5q-3 0 -8 -0.5t-7 -0.5q-2 1 -2 0q-3 -1 -9 -1h-9h-8q-2 0 -6 0.5t-5 0.5h-7.5t-8.5 1q-13 0 -16 1h-7q-3 0 -5 1l-1 -1h-3h-1q-1 1 -2 1q-1 -1 -2 -1q-14 0 -16 1h-2h-9
q-1 0 -4 0.5t-5 0.5q-3 -1 -8 -1q-2 0 -6.5 0.5t-7.5 1.5l-2 -1q-1 -1 -2 0q-3 -1 -9 1q0 3 -2 13l2 4q-3 4 -1 11q1 1 1 3q-1 2 -1 4v4v7q-2 7 0 11q0 2 0.5 4t0.5 4v8q0 9 1 13v7q0 7 1 10q1 4 0 7t-1 7v3t1 3q1 2 0 4t-1 3t1 2l3 2l2 -1q3 -1 5 0h16q11 0 13 1q6 0 8 -1
h11q7 1 14 0q3 1 9 1q9 0 13 -1h11h3.5t3.5 1q1 0 3 -1h1l1 1q6 0 10 -1q3 1 10 1h12q6 0 9 -1h8h4t4 -1q3 -2 5 0h8h7h7h6q6 2 19 0q2 0 4.5 -0.5t4 -0.5h3.5t4 1h3q1 0 3 -0.5t4 0.5t7 1h33q6 1 14 0h34q9 0 11 1h3q1 0 2 -0.5t2 -0.5q1 1 3 1h4q1 -1 4 0q4 2 6 -2v-5
q0 -4 -1 -6q1 -1 1 -3v-2q-1 -1 -1 -5v-15q0 -5 -1 -7v-3l1 -2v-11q0 -3 -1 -4q-1 -3 1 -7q0 -1 -1 -3q0 -2 1 -3q-2 -2 -2 -8v-35q0 -4 1.5 -11.5t1.5 -9.5q0 -1 -1.5 -3t-2.5 -4l-2 -3l-6 -15q-1 -2 -8 -18v-3z" />
    <glyph glyph-name="eight" unicode="8" horiz-adv-x="606" 
d="M189 728h1l2 1l14 9q3 2 9 4q2 0 3 1q4 2 7 2q2 0 4 2l6 2q4 2 14 4q1 1 2 1q2 1 3 1q6 2 10 1l2 1q3 1 5 0q1 1 3 0t3 0t2.5 0t2.5 0t4 1h5q1 0 2.5 0.5t3.5 0.5q2 -1 9 -1q4 0 7 -1l11 -2q6 -2 17 -2q3 0 5 -1h2q1 1 2 1q7 -2 8 -4q2 0 8 -3q4 -2 6 -2l1 1h1v-1l11 -9
q4 -2 12 -8q1 -1 2 -1q5 -9 13 -10q2 -4 13 -15q4 -6 7 -9q2 -2 4 -6l3 -6l1 -1q0 -3 1 -6t2.5 -6.5t2.5 -5.5q0 -3 3 -6q-1 -4 1 -11.5t2 -8.5v-4v-4.5t1 -5.5l2 -9q1 -2 1 -4.5v-3.5v-6q0 -3 -2 -15v-3q0 -8 -3 -14q0 -1 -0.5 -4t-1.5 -5q0 -2 -1.5 -6t-1.5 -5t-2 -5
q-1 -1 -1 -4q-1 -1 -7 -10q-6 -15 -20 -23l-4 -4q-1 0 -3 -2q-4 -1 -7 -6l-4 -3q0 -4 -1 -5q2 -4 11 -13q4 -1 12 -5q0 -1 3 -3.5t4 -4.5q3 -2 7.5 -6.5l6.5 -6.5q5 -7 9 -9l3 -4q0 -1 2 -3q1 -1 3.5 -4.5t4.5 -4.5q1 -2 5 -7t6 -8l13 -20q4 -5 5 -11q1 -5 8 -23l4 -8
q-1 -8 3 -20q1 -2 2 -7t2 -8q0 -4 1.5 -10t1.5 -10q0 -3 2 -3v-10q0 -8 1 -10v-29q-1 -3 -1 -17q0 -1 -0.5 -3t-0.5 -3q0 -2 -1 -2q1 -2 1 -4q0 -3 -1 -8t-1 -8q-2 -8 -2 -10q-3 -8 -3 -16q1 -2 0 -5t-1 -4q0 -3 -4 -9l-3 -10l-6 -10q-3 -3 -10 -15q-2 0 -2 -2l-12 -14
l-12 -11l-9 -9q-1 -1 -10 -7l-3 -2q-3 0 -7 -4l-8 -3h-3l-5 -3q-1 0 -2 -1t-2 -1q-1 -1 -4 -1q-2 -2 -7 -3.5t-8 -3.5l-10 -4l-20 -6l-2 -1q-2 1 -5.5 0t-4.5 -1q-8 -2 -11 -2q-1 0 -3 -0.5t-4 -0.5q-1 0 -3 -0.5t-3 -0.5q-4 -2 -7 -1l-3 -1q-3 -1 -5 0q-3 0 -5 1
q-1 -1 -10 -1t-13 -1q-5 -2 -9 0h-9h-3q-2 0 -6 2q-1 0 -2.5 -0.5t-2.5 0.5q-3 0 -13 2l-12 3q-3 0 -9 2l-8 4q-4 -1 -8 1q-1 1 -4 1q-2 0 -6 1t-7 1q-4 0 -10 2l-10 3q-2 0 -6 2l-4 2h-1q-2 3 -5 5q-1 1 -5 3l-6 3t-4 5h-3q-7 7 -11 9l-4 4t-6 3v4q-1 0 -2 0.5t-2 0.5
q0 1 -1 1l-3.5 3.5t-4.5 3.5l-9 10l-9 14v3q-6 6 -7 10q-2 11 -5 16q-1 2 -1 4l-1 2q-1 1 -6 14q-2 7 -4 8q0 1 -3 19q-1 2 -1 5q0 9 -1 14q-1 3 -1 7.5v6.5q0 8 -1 9q1 1 1 2q1 2 0 5.5t-1 4.5v8v12q0 11 1 17v4t1 4q1 2 1 4.5v3.5q1 3 1 8.5t2 8.5q-1 5 2 11q0 1 0.5 4
t1.5 5q4 10 5 15l2 3l1 2q4 8 5 12q2 4 2 6l2 5l11 21q5 8 10 19l5 7q1 1 7 10l18 23q3 3 9 7q1 0 4.5 3t5.5 4v3l1 2q0 1 -0.5 4t-0.5 5t-1 3t-2.5 4.5t-3.5 4.5q-1 5 -8 17q-2 4 -4 12q0 3 -1 5q-2 2 -4 12q-1 1 -1 3q0 6 -1 9v3v23q0 2 1 9t0 10q2 3 2 9q0 7 1 10
q3 6 3 10l3 8l3 6q5 13 7 15q1 1 4 7q15 23 18 26l3.5 3.5t4.5 3.5l3 5l13 11zM277 390q-1 0 -3 -0.5t-3 -0.5q-2 0 -6 -1t-6 -1h-1l-13 -5l-7 -2l-5 -2l-2 -3q-3 -3 -7 -4q-2 -2 -7.5 -5t-8.5 -6q-6 -5 -11 -11h-2q-1 -1 -4.5 -5t-4.5 -6q-8 -11 -9 -13l-3 -8
q-2 -2 -3.5 -6t-2.5 -5q-2 -6 -2 -9q-4 -6 -3 -13v-1q-3 -4 -1 -9q0 -2 -1 -5t-1 -5v-9q0 -5 -1 -7v-1q1 -3 1 -8q0 -2 1 -5.5t1 -5.5v-2q1 -1 1 -2q1 -2 3 -5.5t2 -4.5q1 -4 4 -9.5t4 -7.5l2 -2l3.5 -3.5t3.5 -4.5l2 -2l5 -5q3 -5 13 -11q9 -5 11 -5q2 -2 10 -5l7 -3
q1 0 1 0.5t1 0.5q14 -6 21 -7q4 1 9 0q1 -1 2 -1q2 -1 3 -1h5.5t5.5 1q3 2 5 0h3q3 1 7 1q2 0 4.5 0.5t3.5 0.5l1 1h1q1 0 2.5 1.5t2.5 1.5q2 0 3.5 2t2.5 2l6 3q2 0 4 2l4 2q3 1 6.5 3t5.5 2q1 2 3.5 2.5t3.5 1.5l3 3l16 18q2 2 2 3l9 16l5 9q2 2 2 5l3 12q0 5 1 7
q1 5 1 13v3.5v4.5v3q1 1 0 2t0 3t1 3q-1 2 -1 7t-1 8q0 2 -1.5 7.5t-1.5 8.5q0 2 -3 6.5t-3 7.5l-3 5q0 2 -1.5 4.5t-1.5 3.5q-2 2 -5 7l-9 10h-2q-1 2 -16 17h-1q-1 0 -2 1q-10 5 -11 6q-3 3 -7 3l-11 4l-2 -1l-11 3h-5h-5t-4 1q-3 1 -8 1zM299 669q-2 0 -7.5 0.5t-8.5 1.5
q-8 0 -11 -1q-2 0 -4.5 -0.5t-3.5 -0.5h-3l-8 -2q-1 -1 -2 -1q-2 -1 -3 -1q-8 -5 -9 -7q-4 -3 -7 -7l-4 -3l-4 -8l-3 -3l-6 -15l-1 -2v-2q-2 -6 -2 -7l-3 -10q-1 -3 1 -8q-2 -7 1 -28q5 -5 6 -11q1 -1 5 -6t7 -7q6 -6 11 -7q2 -3 7 -5q6 -3 7 -3q2 0 4 -1.5t4 -1.5l9 -2
l3 -3q6 2 7 2l10 3q3 0 4 1h2h2l3 4q6 3 12 3l8 6l10 5l8 10q1 1 2 2.5t2 3.5t2 3q3 3 3 5l3 5q1 3 2 8t2 8v3v3.5t-1 3.5q0 1 0.5 2t0.5 2q-1 2 -1 6q0 12 -4 20q0 1 -2 3q-1 1 -1 2q-11 17 -16 21l-1 1q-3 1 -7.5 4t-5.5 3l-8 4q-9 3 -11 4z" />
    <glyph glyph-name="nine" unicode="9" horiz-adv-x="568" 
d="M248 16q-3 1 -6 1q-2 1 -5 1h-6h-6h-3t-3 1q-1 0 -3 0.5t-3 0.5q-2 0 -3 -1l-4 3q-3 -1 -13 2h-4l-4 3q-4 2 -5 2q-3 0 -6 3h-6q-6 6 -10 8q-1 0 -4.5 2t-5.5 2q-3 5 -7 6l-8 9q-2 3 -8 7l-2 3l-5 5q0 1 -2 4.5t-4 5.5q-1 1 -3 8q-1 0 -3 2q-2 8 -5 12q0 2 -2 8t-1 9
l-1 5q-1 5 -2 7q0 3 -1 8.5t-1 8.5q1 2 -1 8v6q0 7 -2 10l2 4q-2 2 -2 6.5t-1 6.5q-1 1 -1 6v5v2q-1 2 0 5l1 1v7v4l4 4q8 0 11 1q1 0 5 0.5t6 1.5h10h6q1 1 2 1q3 -1 6 0q6 1 11 -1h31h3.5t3.5 -1q2 -1 6 -1q6 -3 7 -5l-1 -2v-3v-2l1 -2q0 -5 1 -7q2 -3 0 -7q2 -6 2 -10
q4 -6 4 -9q0 -1 1.5 -2.5t1.5 -2.5q3 -9 17 -15l9 -3q3 0 10 -1.5t11 -0.5q1 0 2.5 -0.5t2.5 -0.5q2 0 3 1h1q1 -1 2 -1q2 0 3 1q19 -2 34 10q5 7 8 8q1 1 3.5 6.5t4.5 7.5q0 2 1.5 4.5t1.5 3.5q0 2 2 7.5t3 8.5v2l1 2q0 6 2 14q0 9 1 11q0 3 0.5 10t0.5 11v25q0 3 -1 5
q1 2 1 13q-1 5 -5 8q-10 3 -11 2v-3q-1 0 -3 -0.5t-3 -0.5q-2 1 -4 0t-3 -1q-10 -4 -20 -3q-1 0 -3 -2q-4 2 -14 2q-4 0 -6 1q-2 -1 -5 -1q-7 0 -11 1q0 1 -5 0h-4q-8 0 -11 1q-3 0 -11 2q-3 1 -10 1l-21 6h-2q-2 1 -3 1q-8 2 -13 6q-3 2 -9 4q-1 1 -7 4q-1 0 -3.5 1.5
t-3.5 1.5q-3 1 -7 5l-6 4q-3 1 -7 3.5t-5 3.5l-14 12l-9 7l-4 5l-5 6q-6 4 -9 11v2l-12 18q-1 1 -6 14q-4 8 -5 13q-1 7 -5 16q0 1 -1 3q0 6 -1 9q-2 3 0 6l-3 18q1 3 1 11q0 11 1 13t1 5q0 9 1 10v1q-1 4 0 11t1 9t1 6.5t1 6.5l3 14q2 14 4 18t2 7q0 1 0.5 2.5t0.5 2.5
q1 1 2 6t3 7l3 6q2 2 3.5 6.5t3.5 6.5q1 2 3 5.5t4 5.5q6 9 7 10l5 7q1 2 5 6l5 5l5 5t5 7l1 1l3 2l9 8l12 9q13 10 14 11q4 2 10 8q1 1 3 1q1 0 4.5 2t5.5 4t4 2h2q7 4 13 5l12 3l7 2q6 0 8 1q3 1 8 1l9 2h15q4 2 6 0q1 1 12 1q4 1 11 1q2 -2 4 -2h1q2 1 3 1q5 -2 11 1
q4 -2 11 -2q4 0 10 -2l2 -1l15 -3l6 -3q8 -3 15 -3q2 0 6 -2.5t6 -2.5t2 -1l13 -6q1 -1 2 -1q9 -5 16 -10l5 -4q5 -5 8 -6q1 -2 8 -8.5t10 -11.5l3 -3q5 -3 6 -7l6 -7q3 -4 7 -7v-2l11 -19l3 -3q0 -1 0.5 -2.5t0.5 -2.5q6 -17 6 -20q0 -1 2 -5q2 -8 2 -11q2 -8 1 -12v-12
l3 -9v-15q0 -4 1 -7q1 -1 0.5 -3.5t-0.5 -3.5q-1 -1 -0.5 -3.5t0.5 -3.5q-1 -2 -1 -8v-7q0 -1 1 -2.5t0 -2.5t-1 -4v-20q0 -9 -1 -10v-8q0 -2 -0.5 -4t-0.5 -3q1 -2 0 -4t-1 -3v-20v-6q-1 -3 -1 -24q0 -1 -0.5 -4t-0.5 -5q1 -1 1 -3v-19q-1 -4 -1 -24q-1 0 -1 -4l1 -5
q-1 -3 -1 -9q1 -2 0 -4t-1 -3v-8q0 -1 -0.5 -4t-0.5 -4t-2 -10q0 -7 -1 -8q1 -3 1 -8l-3 -9q-3 -15 -3 -17q0 -5 -1 -8q0 -3 -1 -7t-1 -7q0 -2 -1 -2q1 -3 1 -8l-4 -12v-1q0 -5 -2 -17q0 -3 -1 -5v-1q1 -1 1 -2t-1.5 -3t-2.5 -4v-7l-3 -7q0 -1 -1 -3t-1 -3q0 -3 -2 -7l-3 -8
q-3 -7 -3 -8q-1 -1 -3 -8q-2 -2 -4 -8q-3 -9 -4 -11q-3 -6 -5 -7q-1 -3 -4 -7t-4 -6q-3 -6 -7 -10q-2 -5 -6 -6q-5 -8 -8 -9q-1 -2 -10 -11q-2 -2 -3 -2q-2 -1 -5 -3t-5 -3l-2 -1l-2 -2q-2 -1 -9.5 -4.5t-12.5 -3.5q-2 -2 -8 -4.5t-8 -3.5h-2q-2 0 -6 -2t-7 -3l-3 -3
q-4 0 -10 -2q-2 -1 -6 -1q-1 0 -3 -0.5t-3 -0.5h-14l-7 -2l-2 1h-6q-1 0 -2.5 0.5t-2.5 0.5q-8 2 -12 2l-2 -1h-2zM313 614l-6 2q-10 5 -19 5q-1 1 -8 1h-12q-3 -2 -10 -2.5t-10 -1.5l-9 -3q-9 -3 -10 -4q-2 -2 -4 -2l-4 -3l-6 -4q-4 -2 -6 -4q-12 -15 -13 -17l-1 -1
q-3 -2 -5 -8l-5 -17q1 0 1 -2q-2 -4 -2 -5v-5t-1 -4q-1 -3 -1 -22q1 -2 1 -14q4 -8 5 -12q2 -7 5 -10l1 -3q3 -3 7.5 -9t6.5 -8l8 -5l11 -6q4 -4 7 -5l15 -5l19 -4q3 0 9 2q2 0 12 2l4 4h4l4 2q2 1 10 4q1 0 4.5 -1t4.5 0l4 4q11 5 17 18l6 8q3 1 3 4q4 8 7 12v2q0 1 1 3.5
t1.5 4.5t0.5 4q1 4 1 11v7q0 4 1 7q-1 1 -1 4v6q0 9 -1 14q-4 8 -4 14l-8 11q0 3 -3 6.5t-4 6.5q-1 2 -9 7l-7 4q-2 1 -5.5 2.5t-4.5 1.5q-1 3 -2 3z" />
    <glyph glyph-name="colon" unicode=":" horiz-adv-x="247" 
d="M82 185q1 1 7 4q17 1 33 0q9 -5 18 -14l13 -16l4 -8q2 -2 3 -7.5t2 -6.5q1 -3 1 -10v-9l2 -4q0 -1 -1 -1q-2 -10 -4 -13l-6 -9l-9 -10l-10 -9q-9 -3 -11 -4h-9.5h-13h-11.5q-3 2 -8 3t-7 3l-13 8l-8 8l-5 10l-4 13v17l6 14q3 10 9 17q8 13 22 24zM153 382q1 -3 2.5 -6.5
l3.5 -8t3 -6.5q1 -8 1 -23l-3 -9q-1 -4 -3 -7.5t-5 -8t-4 -7.5h-1q-1 -1 -2 -1l-7 -7q-8 -6 -13 -8h-1q-2 -1 -3 -1q-13 -2 -26 -2q-4 2 -7 2q-9 1 -19 8q-9 6 -15 19q0 1 -0.5 5.5t-1.5 7.5q-2 3 0 10q1 2 1 6q0 1 0.5 4t1.5 4q1 2 2 7.5t3 7.5q5 8 10 19l10 10l9 5
q3 1 9 5q2 0 5 0.5t4 0.5t5 2h6l8 -3l7 -4q14 -12 20 -21z" />
    <glyph glyph-name="semicolon" unicode=";" horiz-adv-x="244" 
d="M99 -7q-4 2 -14 4l-7 4q-6 4 -8 8q2 6 4 9q5 7 10 19l8 19q2 4 0 9l-3 6q-3 3 -10.5 6t-9.5 4l-13 12q-7 11 -10 25v12q0 6 1 9q1 1 1 3q0 5 12 24l24 24l14 7h16q2 -2 22 -15l1 -1q1 -4 4 -5l2 -3q2 -3 5 -9t5 -9l2 -4q0 -1 2 -7q0 -2 0.5 -6t0.5 -7l2 -4v-6v-6v-5
q0 -5 -1 -6q-1 -3 -1 -10l-2 -13q-1 -2 -1 -8q0 -7 -3 -11q-2 -9 -6 -18q-1 -6 -9 -16q-10 -13 -11 -14l-2 -2l-2 -2q-3 -1 -5.5 -3.5l-5.5 -5.5t-5 -4q-6 -3 -7 -4zM166 332v-8l-3 -8l-4 -6q-14 -16 -23 -23l-17 -7q0 -1 -15 0h-15q-8 4 -10 6t-7.5 4.5t-6.5 3.5l-9 10
q-2 2 -4 8q-2 20 0 42q0 2 2 6.5t3 7.5q1 6 7 16q1 2 3 4t2 3q3 -1 6 -1l11 7l6 3t6 4q6 1 18 -1q3 0 9 -2q3 -2 11 -4q2 -1 6 -5t7 -5q3 -2 5 -5q0 -2 3 -5t3 -5q2 -10 4 -13q2 -8 2 -11q1 -9 0 -16z" />
    <glyph glyph-name="less" unicode="&#x3c;" horiz-adv-x="416" 
d="M233 311l6 -12q3 -2 6.5 -7t4.5 -6q10 -13 11 -14l15 -22l8 -10q3 -4 7 -12l1 -2q3 -3 7 -9t6 -8q-2 -3 -6.5 -6.5t-5.5 -5.5q-8 -2 -9 -3q-4 -4 -8 -4h-1q-1 -1 -2 -1q-3 -3 -10.5 -7.5t-9.5 -6.5t-4 -2q-3 -1 -9 -4.5t-8 -4.5t-5.5 -4.5t-6.5 -4.5l-1 1h-2l-4 4
q-1 3 -2.5 5t-4 4.5l-3.5 3.5t-2 3t-2 3.5t-2.5 3l-2.5 2.5q-2 2 -4 6l-4 5l-9 11l-8 12q-3 8 -9 14q-13 16 -23 32q-8 12 -13 17q-4 4 -5 6q-13 22 -15 25q-2 4 -7 11t-6 8l-11 15l-9 13l-3 4q-4 4 -4 5q-1 2 -3.5 5t-2.5 5q-1 1 -1 4l-7 8l-6 10q-1 2 -1 6q9 13 21 24l8 9
q4 8 14 15l5 5q2 3 5 5q2 1 7 8q8 6 12 10l12 11l14 15l8 8l8 9q3 4 8 7l4 4l12 15l10 9q3 3 3 4q5 9 16 18q1 1 3 4.5t4 4.5q18 20 28 29q2 1 6 -1l9 -8q1 -1 13 -10q5 -2 16 -13q9 -11 18 -16q1 -3 6 -6.5t6 -5.5q-9 -14 -24 -29l-7 -6q0 -1 -1.5 -2.5t-2.5 -3.5l-3 -3
q-5 -5 -20 -25l-18 -20l-17 -18q-5 -3 -6 -7l-4 -4q-2 0 -4 -3q-1 -3 -11 -13q-3 -6 -9 -12t-10 -15q-1 -3 -1 -9l4 -5q7 -8 13 -19t7 -13q2 -2 4.5 -6.5t4.5 -5.5q2 -2 2 -3q2 -4 6 -9.5t5 -8.5q1 -5 6 -10z" />
    <glyph glyph-name="equal" unicode="=" horiz-adv-x="414" 
d="M209 408l-6 2h-38q-1 0 -6 1t-5 0q-2 1 -15 1h-59q-1 1 -4.5 0.5t-4.5 0.5q-5 1 -13 1l-3 2q-1 12 -0.5 37t0.5 36q1 3 5 7h91q2 0 4.5 -1.5t4.5 -1.5q12 3 24 2q2 -1 4 -1q2 1 6 1h53q1 0 5 -2q36 0 55 -1q1 0 2 -1q2 -1 3 -1h9l3 -2q0 -40 -1 -60q-1 -4 -1 -9
q0 -2 -2 -8q-1 -1 -4.5 -2t-4.5 -2l-5 2h-11q-4 -2 -13 0q-1 1 -3 1l-2 -1q-8 0 -31.5 -1t-36.5 0zM238 227h-47q0 1 -23 1l-22 -1l-5 3q-32 0 -48 1q-6 2 -26 2l-3 2l-2 2v21v5q2 5 2 13v10q-2 4 -2 5q0 4 -0.5 11.5t-0.5 10.5q3 4 5 5h19q1 0 5 -2h25l4 2l4 -2
q10 0 30.5 -0.5t31.5 -0.5q1 0 5 -2h10q7 0 27.5 1t31.5 0q2 0 4 -2l4 2h6q2 0 5 -1t5 -1h18l8 -3q5 0 7 -1q2 -6 2 -39v-32l-4 -10q-3 0 -8 -1.5t-6 0.5h-21h-3.5t-3.5 1t-3.5 1h-3.5t-3 -0.5t-4 0.5q-1 1 -2 0t-2 -1q-12 -2 -16 0z" />
    <glyph glyph-name="greater" unicode="&#x3e;" horiz-adv-x="421" 
d="M106 484q0 2 -0.5 4t-0.5 3q-10 15 -12 17q-1 3 -4 8.5t-4 8.5l-3 6q-4 8 -14 24l-4 7l-3 7v4l4 3l22 13l22 11h2q2 1 3 1l18 11l1 1q1 1 2 1q4 1 10 4l8 4q1 0 5 2q4 3 9 1l4 -3q1 -2 17 -26q5 -5 8 -11l5 -3q0 -1 0.5 -3.5t0.5 -3.5l9 -12q1 -2 4 -5t4 -5l6 -12
q1 -3 4.5 -8l5.5 -8q8 -13 8 -15l9 -14q3 -6 7 -10q1 -5 6 -10q3 -3 3 -6q3 -7 11 -19q0 -1 1.5 -4.5t2.5 -5.5l4 -10q5 -9 5 -11t2 -4q8 -13 9 -17q1 -2 2.5 -4t1.5 -3q4 -8 12 -21t10 -16q0 -1 0.5 -3l1 -4t1.5 -3q1 0 1 -2v-4q0 -1 -2 -3l-30 -35l-5 -5l-7 -7
q-1 -1 -3 -4t-3 -4l-8 -8l-7 -8q-1 -1 -3.5 -3t-3.5 -4l-6 -9l-9 -8q-7 -6 -10 -12q-1 -2 -2.5 -4l-3.5 -4.5t-3 -3.5q-2 -1 -15 -14q-6 -8 -10 -11q-2 -1 -5 -5t-5 -5l-8 -9l-11 -14q-7 -7 -11 -9l-15 -12q-3 -5 -11 -11q-2 1 -4.5 4t-3.5 4l-8 7l-6 11l-19 19
q-2 4 -8.5 10.5t-8.5 10.5q-2 3 -5 5q-1 2 -6 8t-7 10q6 12 12 18l22 26q6 8 6 10l4 4q1 3 5 7q0 1 3 4.5t4 5.5q1 1 3.5 3t3.5 4l15 18v1q1 1 1 2l8 8q1 3 4 6t4 5l8 9q7 10 14 15v3q-2 2 -4 6q-5 5 -8 11q-1 2 -4 10l-3 6q-4 4 -5 7l-8 12q-5 10 -5 12l-9 16
q-1 2 -2.5 4.5t-3.5 5.5t-3 5l-1 1z" />
    <glyph glyph-name="question" unicode="?" horiz-adv-x="449" 
d="M149 348l1 4q2 3 2 5t1.5 5.5t0.5 5.5q0 2 1 5.5t1 4.5l3 11q0 3 3 9.5t3 10.5l4 8t5 9q1 0 1 1q4 10 15 21q3 6 12 16t12 14l9 11l9 10q5 5 9 17l3 5q2 2 2 3q1 3 1 8l4 11q3 10 3 11v13q0 6 -2 9v2l-1 2q0 6 -1 9t-3.5 8l-3.5 7q-4 8 -8 11l-5 4q-7 9 -19 12l-3 2h-10
t-12 -2q-3 0 -4 1l-10 -3l-2 -1h-2l-13 -6q-5 -2 -13 -8l-5 -5q-4 -6 -7 -9q-2 -2 -3.5 -6.5t-3.5 -6.5l-2 -4q0 -4 -2 -6q-1 -1 -3 -5t-4 -6q-1 0 -1 -1h-6q-2 1 -9.5 3.5t-11.5 4.5q-7 0 -11 4q-1 1 -2 1q-2 1 -3 1q-3 2 -11 4q-6 4 -11 4q-2 0 -2 3v6q4 12 7 18l18 40
q4 3 16 21q5 9 11 13l11 9l6 2q4 4 12 7q2 0 6.5 2t6.5 3q8 1 17 6q3 0 11 0.5t12 0.5q4 2 6 2q7 1 21 1h4q5 -2 20 -2l5 -2h13l5 -3h13q2 -2 6.5 -2t6.5 -1t6.5 -1.5t6.5 -1.5q4 -2 12 -4h3q12 -8 22 -16l8 -6l6 -8l8 -6l6 -12.5t7 -12.5q2 -4 4 -10q1 -2 3 -6.5t2 -6.5
q1 -2 4 -11l3 -11q2 -5 2 -13l2 -5q0 -9 1 -14l-2 -10v-10q-1 -2 -1 -6q0 -7 -4 -21q-1 -1 -1 -5v-6q-5 -19 -5 -21q-2 -2 -3.5 -6t-2.5 -6l-4 -8l-3 -5q-2 -2 -6 -8t-7 -9l-21 -21l-2 -2q-2 -1 -6.5 -5t-6.5 -5l-7 -6q-2 -2 -6 -5t-6 -5l-12 -11q-3 -2 -5.5 -4.5t-5.5 -6
t-5 -5.5q-1 -3 -6 -8.5t-6 -7.5q-13 -24 -15 -33q-1 -1 -1.5 -3l-1 -4t-0.5 -3q-2 -6 -2 -8q0 -3 -2 -11v-16q0 -5 -1 -7q-2 -6 1 -14v-3q-2 -1 -5 -1.5t-4 -0.5h-7q-1 0 -2.5 -0.5t-2.5 -1.5q-10 -1 -27 -1.5t-22 -0.5q-1 0 -2 1h-2q-1 0 -3 -0.5t-3 -0.5q-2 2 -3 2
q-1 2 -1.5 5t-0.5 4l3 7q-1 10 -1 33q0 8 1 11q1 2 1 6v18q2 3 2 17zM242 113v-1q1 -2 0 -3q2 -6 0 -10q0 -2 -2 -10l-3 -9q-2 -5 -9 -14l-4 -4l-2 -3q-1 -3 -2 -3q-5 -2 -13 -8q-7 -2 -19.5 -2h-15.5l-27 13q-2 2 -4 7t-3 7l-7 13q-2 13 1 19v3.5t1 3.5l6 13q1 5 6 10
q2 2 4 6q1 2 5 6l18 12q1 -1 2 0t2 1q2 -2 7 0q7 0 15 -3q3 1 7.5 -1t6.5 -2q12 -7 18 -12l10 -18q1 -1 1 -5t1 -6z" />
    <glyph glyph-name="at" unicode="@" horiz-adv-x="920" 
d="M740 416l2 4v3v54q0 6 -2 10v2q0 4 -2 11.5t-2 10.5v3q-2 2 -2.5 7t-1.5 7q-1 1 -1 2t-0.5 3.5t-0.5 3.5q0 2 -2.5 6.5t-3.5 7.5l-10 20q-2 2 -4.5 7l-3.5 7l-8 11t-8 10q-9 13 -22 22l-7 5q-5 6 -17 14q-16 10 -24 14q-13 5 -15 7q-1 1 -4.5 1.5t-4.5 1.5l-11 4
q-7 5 -15 6l-14 6l-17 7q-1 0 -3 0.5t-3 0.5l-11 3h-3q-10 0 -15 2q-2 1 -8 1q-33 0 -49 1h-9q-8 3 -14 0q-10 0 -15 -1q-7 0 -10 -1q-2 -1 -7 -1q-5 -1 -15 -1q-5 0 -9 -2q-3 0 -8 -0.5t-7 -0.5l-6 -2q-10 0 -15 -1l-12 -3q-6 -1 -11 -5q-2 0 -4 -0.5t-3 -0.5l-32 -16
l-4 -4q-6 -3 -20 -17q-2 -2 -6 -4l-5 -5q-3 -2 -7 -8l-4 -4q-5 -2 -21 -19l-11 -14l-3 -4q-8 -14 -13 -20q-2 -2 -4.5 -6t-5 -6.5l-4.5 -4.5q-4 -9 -5 -11q-3 -6 -13 -32q-1 -6 -10 -25q0 -7 -1 -10l-3 -10q-2 -4 -2 -7q0 -2 -1 -5t0 -4q0 -2 -1 -5.5t-1 -4.5v-19
q-2 -4 -2 -7v-45q-1 -4 2 -10v-20q0 -6 1 -8q2 -3 2 -16l3 -8q0 -9 3 -13q0 -2 1.5 -6t1.5 -5q2 -8 4 -12q1 -2 2 -5.5t2 -5.5q1 -7 9 -19q1 -2 5 -9.5t7 -10.5v-2q0 -2 1 -3q8 -10 11 -16q4 -5 6 -7l9 -9l43 -43q4 -4 14 -10q18 -10 26 -16q1 -1 3.5 -2t3.5 -2l20 -9
q4 0 6 -1q4 -2 6 -4q7 -2 43 -14l6 -2t7 -2t6 -2q1 -1 3 -1q3 0 8.5 -1.5t7.5 -1.5q1 0 3 -1q4 -2 6 -2q5 -1 15 -1h4q1 -1 2 -1q2 -1 3 -1q10 -1 30 -1l5 -2q19 -2 57 0q5 2 14 2t13 1q1 1 6 2t8 3q14 0 21 1l20 6q2 0 8 2q6 0 9 1l15 3q1 1 3 1l6 1q5 1 7 2q5 2 13 4
q1 1 4 1l15 6q1 1 5.5 2t6.5 3q3 2 11 4q13 5 25 12l8 4q6 2 18 8q11 5 19 10q2 0 5.5 2.5t4.5 3.5l8 5q5 -2 7 -7q0 -1 3 -7t3 -10q1 -1 4 -9q3 -9 8 -12l5 -5l4 -8v-12l-3 -4q-5 -3 -17 -11t-19 -12q-11 -6 -13 -6t-6 -2l-6 -3l-12 -5q-10 -3 -11 -3q-1 -1 -3.5 -1.5
t-3.5 -1.5l-5 -3q-3 -1 -7 -1q-12 -6 -18 -8q-14 -6 -16 -6l-4 -2l-15 -7q-3 0 -7 -2t-7 -2q-1 -1 -13 -3q-6 -2 -9 -4q-1 0 -2 -0.5t-2 -0.5q-3 0 -7 -1.5t-6 -1.5q-4 0 -6 -1q-7 -2 -30 -2h-17l-6 -3h-19l-5 -3q-16 0 -25 -1l-4 -2q-35 0 -41 1q-1 0 -3 1l-4 -2
q-10 0 -14 2l-19 2h-3l-1 1q-15 3 -16 3q-4 1 -13 1l-4 2h-3q-3 1 -9 1l-8 3q-6 2 -9 2q-1 0 -3 0.5t-3.5 0.5t-3 0.5t-2.5 1.5l-13 3q-3 1 -9 1q-21 9 -22 9l-7 5q-4 0 -6 1l-22 8q-4 1 -12 5t-12 5q-3 0 -6 3t-14 8q-23 10 -47 31l-12 8q-8 6 -11 10l-16 15l-12 11
q-7 3 -11 12l-16 26q-1 1 -5 9t-5 13q-2 4 -5 11t-5 11q-2 2 -4 8q-1 1 -1 6q-6 10 -7 17l-1 1v2q-2 10 -4 12q0 3 -1.5 7t-1.5 6q0 1 -3 11q0 2 -2 10q0 7 -1 12v4q-2 4 -2.5 9t-0.5 11.5v9.5l-2 6q-2 39 0 80q0 1 0.5 2.5t1.5 2.5q0 8 1 12q0 7 1 10q1 2 1 5l3 14v3t1 3
q0 5 1 7t1 7q2 6 2 9q2 5 4 15l1 3q1 4 2 6q0 2 2 7t1 8q0 2 2 4l6 18q2 8 4 11q1 1 3.5 7.5t4.5 9.5q1 1 1 2v3q13 26 16 31q2 4 7 11t6 8q4 8 10 13l3 4q2 4 17 19q7 9 16 16q12 14 21 19l16 15q8 8 13 11l7 3l9 4q22 14 34 18q3 1 9.5 3.5t8.5 3.5q6 4 10 5q1 0 3 0.5
l4 1t3 1.5q2 0 3 1q9 0 13 2q2 1 5.5 1.5t5.5 1.5t6 1t6 1t7 1.5t7 0.5q4 2 5 2q3 1 8.5 1t8.5 2q4 0 18 0.5t21 1.5q2 0 3 -1l7 2q1 0 3 -1q2 0 4 0.5t4 0.5h41q1 0 4 -1t5 -1q1 0 3 -0.5t3 -0.5l6 -2q10 0 15 -2q1 -1 4 1q5 -2 16 -5t16 -5q1 0 3 -0.5t3 -0.5q6 0 8 -1
t7 -1.5t7 -2.5q2 0 6.5 -2t7.5 -2q1 0 3 -1t3 -1q8 -4 12 -4l9 -3q6 -4 9 -5l9 -3q6 -2 10 -4q18 -8 32 -18l15 -9q1 -3 4 -4q10 -5 19 -18q6 -9 15 -15l15 -14q9 -9 13 -15q11 -16 11 -17q3 -3 5 -6.5t4 -8t3 -6.5q8 -15 9 -20q1 -4 5 -10v-6l2.5 -5t2.5 -5.5t1 -4.5l6 -17
l5 -17q1 -4 1 -17q2 -4 2 -6q0 -1 -1 -3t-1 -3l3 -5v-42l2 -4q-1 -1 -1 -3q-1 -3 -1 -9v-22l-3 -6v-13l-3 -4v-10q0 -2 -2 -6q0 -1 -0.5 -2t-0.5 -2q0 -9 -1 -13q-2 -8 -2 -12q0 -1 -1 -3q-2 -4 -2 -6l-3 -10q-3 -4 -3 -10q0 -2 -1 -3q-2 -3 -4.5 -10.5t-5.5 -11.5
q0 -1 -1.5 -3.5t-1.5 -3.5l-9 -18q-11 -20 -40 -43q-4 -2 -5 -2q-18 -9 -22 -10t-10 -5q-6 -3 -10 -3q-2 0 -5.5 -1.5t-6.5 -1.5h-6.5h-8h-7.5q-2 0 -5 0.5t-5 0.5q-15 5 -18 5l-4 2q-2 1 -11 5q-15 6 -24 19q-10 18 -16 21h-6q-4 -1 -10 -9q-6 -9 -13 -13l-3 -3
q-11 -10 -22 -15l-12 -6q-4 -2 -12 -4q-2 -1 -4.5 -2t-3.5 -1q-8 -2 -10 -2t-6 -0.5t-7 -0.5l-6 -2q-7 0 -12 -1q-4 0 -6 -1q-1 -1 -3 0t-3 1q-3 0 -11 0.5t-12 0.5q-3 1 -12 3.5t-14 4.5q-3 0 -6.5 0.5t-4.5 0.5l-15 3q-1 1 -3 2q-2 2 -6 4l-6 3l-11 10q-9 5 -18 17
q-3 3 -7.5 10t-7.5 10q-3 5 -7 14.5t-6 13.5q0 7 -1 10v1q-1 1 -1 2q-1 3 -2 8t-2 7q0 1 -0.5 5.5t-1.5 6.5q-2 3 -4 11l-3 27v40q0 10 2 15v4q0 8 3 14q0 5 4 13q1 2 3.5 8.5t4.5 9.5l7 15q2 5 4 7l14 19q5 8 13 13q6 4 8 7l13 9q2 0 4 2l11 7q3 1 7 2.5t6 1.5q2 1 6 1
q2 0 4.5 1.5t3.5 1.5q5 0 13.5 0.5t12.5 0.5q10 3 16 1q2 -1 6 -1q6 -1 17 -1l15 -5q1 0 4 -0.5t5 -0.5q1 0 4.5 -1.5t5.5 -2.5l11 -5l9 -4q5 -4 11 -5q1 -2 5 -6l6 -3q8 -8 9 -10q18 -23 22 -32l3 -6q5 -6 11 -22v-10q2 -4 4 -16q2 -4 2 -7v-21q2 -4 2 -8q0 -3 0.5 -8.5
t0.5 -7.5t2.5 -10t3.5 -13q0 -1 1.5 -3.5t1.5 -3.5q2 -2 7.5 -8t7.5 -9l6 -7q3 -1 8.5 -3t7.5 -2q6 -2 8 -2t8 -2h14l15 3q3 0 8 2.5t8 2.5l8 6l7 6q1 1 11 14l6 8q9 17 13 29q1 1 1 4l2 12q1 2 1.5 7t0.5 7zM393 458q-8 -8 -10 -9l-4 -4l-9 -12l-3 -8q0 -1 -2.5 -8.5
t-3.5 -11.5q-3 -3 -3 -11q0 -1 -2 -9q0 -4 -0.5 -14t-0.5 -15q0 -2 0.5 -5t0.5 -5l3 -15q5 -11 6 -15q8 -11 10 -12q3 -5 11 -13q3 -1 7 -2.5t6 -1.5q1 0 14 -3h3q5 -2 15 -2l11 3q5 3 10 3h2l2 1l8 3q5 4 13.5 13.5t12.5 12.5l8 16q1 2 2 5.5t2 5.5q1 1 1 4q0 1 3 10
q0 34 -1 41q0 3 -2.5 10t-2.5 11q-3 5 -7 15l-6 5q-3 1 -7 5l-6 6q-5 5 -14 7l-17 6h-34q-10 -5 -16 -7z" />
    <glyph glyph-name="A" unicode="A" horiz-adv-x="652" 
d="M558 58h-31h-31l-5 2q-9 2 -17 -1q-1 -1 -4 -1h-23q-1 0 -3 1t-4 1q-4 0 -12 0.5t-12 0.5l-7 3q-3 4 -5 14q-4 8 -5 12l-1 5q-1 5 -2 7q0 1 -0.5 4.5t-1.5 5.5q0 1 -1 3.5t-2 4.5q0 1 -1 4.5t-2 5.5t-1.5 6.5t-2.5 6.5q1 3 -1 8t-2 7t-2 6.5t-1 7.5q0 2 -1.5 6t-2.5 7
q-3 2 -5 5q-3 1 -18 1q-4 2 -5 2q-14 0 -18 -2h-3h-48q-4 2 -5 2q-7 1 -23 1h-19q-8 0 -11 3q-3 -2 -9 -4q0 -1 -1.5 -2.5t-1.5 -2.5q0 -3 -1.5 -8t-1.5 -6q-4 -10 -3 -15l-4 -9q-2 -4 -2 -7l-4 -17q0 -1 -1 -4q-1 -5 -5 -20l-3 -8l-2 -9q-3 -7 -3 -15l-3 -7v-4t-1 -4
q-2 -1 -6.5 0t-6.5 0h-12q-4 2 -6 2q-1 0 -4 -1t-4 1q-8 2 -13 -2q-4 2 -6 2q-1 0 -5 -2h-16q0 1 -2 1q-2 1 -3 2q-13 0 -16 2q-2 -2 -12 -2h-11q-3 2 -3 5q0 2 0.5 5.5t0.5 5.5l2 4q0 8 1 12q0 4 1 5q1 3 1 9q0 5 2 11q1 2 1 6q0 3 2 9q1 1 1 5q0 5 1 6q1 3 1.5 6.5t1 8
t0.5 6.5q0 1 2 5q0 4 2 10q1 3 1 10q0 1 1.5 5t1.5 6t1.5 6t1.5 6q0 4 3 10q-1 4 1 10t2 10q3 12 3 14t1.5 7t1.5 7q2 2 2 8l1 5q3 12 3 13q1 2 2 7t2 7t1.5 7t2.5 7v3q0 3 5 18q0 1 0.5 4t0.5 5q0 5 2 7q1 1 1.5 5t1.5 6t1.5 5.5t0.5 4.5q0 2 1.5 5.5t1.5 6.5q2 3 3 8t2 8
q0 2 1 5t1.5 5.5t0.5 5.5q5 6 3 14q4 8 5 12q1 3 2.5 7t1.5 6q3 12 3 13l2 4q7 18 10 32q2 4 2 7q0 1 2 5t2 6q0 1 2 10l5 13l1 5q1 5 2 7l4 9q0 2 2 6t2 7l3 12q1 2 2.5 7t2.5 7q3 10 4 13q1 2 2 7.5t3 8.5l2 6q1 2 4 10.5t5 12.5q0 2 2 6.5t2 7.5t2 5q1 2 2.5 7t2.5 7l2 7
q0 3 1 4l1 3q1 4 2 6q0 2 4 4q8 0 12 -3l6 3q16 0 21 -2h2q2 1 3 1q2 0 5 -1t5 -1t5.5 1.5t6.5 1.5h47q7 0 10 -2q1 0 2 0.5t2 0.5h28l4 -2q4 -12 5 -18q5 -15 5 -17q1 -2 4 -11t5 -14q1 -2 2 -6t2 -6q1 -1 2 -5t2 -5v-3l3 -12l1 -5q1 -5 2 -7q0 -3 5 -18l1 -2v-2
q0 -9 3 -13q0 -8 3 -11q0 -4 2 -10t2 -7q1 -3 2 -8.5t3 -8.5q0 -3 1.5 -8.5t1.5 -8.5q1 -3 2 -8.5t3 -8.5q0 -3 2 -9t2 -8t2 -6q0 -3 2 -7.5t2 -6.5q0 -3 1.5 -7t1.5 -7q3 -6 3 -13q2 -2 2.5 -6.5t1.5 -5.5q1 -2 1.5 -6.5t2.5 -6.5q0 -3 2 -10t2 -10q3 -15 3 -16q1 -2 2 -7
t2 -7q1 -1 1 -4q0 -4 2 -10l2 -8q0 -2 1 -4t1 -3t3 -10q0 -2 0.5 -5.5t0.5 -4.5q2 -2 2.5 -8t1.5 -8q2 -8 4 -14q0 -3 1.5 -8t1.5 -8l4 -12v-1q1 -1 1 -2q1 -8 6 -17q0 -1 0.5 -3.5t0.5 -4.5q2 -3 3 -8.5t2 -7.5v-1q4 -20 8 -28l9 -29q1 -3 4 -14q0 -1 2 -6.5t2 -8.5
q1 -3 3 -12t4 -13l4 -14q0 -2 1.5 -6t1.5 -5q0 -5 2 -11q1 -3 -2 -6zM257 438q0 -8 -1 -12q-2 -5 -2 -16q0 -4 -1 -6q-2 -4 -2 -13q0 -3 -2 -10t-2 -11q-2 -4 -2 -12v-3q-3 -4 -3 -13q0 -1 -2 -5q-2 -5 0 -9q2 -6 9 -7q9 0 11 1q4 2 11 -1h10q3 2 10 2h49q9 0 13 1
q1 0 2 0.5t2 0.5q0 4 1 6q0 4 -2 10q-2 3 -4 13q-1 3 -1 10q0 2 -1 5.5t-1 4.5q0 5 -2 13q-1 2 -1.5 7t-0.5 6l-1 1v2l-2 8q0 2 -1 5.5t-1 4.5q0 4 -2 10t-2 9l-2 4q0 2 -0.5 6.5t-0.5 6.5l-5 15v9q0 2 -1.5 5t-1.5 5q0 1 -3 10v14q0 1 -1 3q-2 4 -2 6q1 2 -1 5.5t-2 5.5v7
q0 1 -1 2.5t-1.5 3t-0.5 3.5q0 6 -2 10q-1 2 -1 7v10l-4 8l-9 2l-2 -1q-1 0 -1 -1q-4 -9 -5 -11q-1 -5 -3 -13t-3 -13q-2 -2 -2 -3q0 -3 -0.5 -6.5t-0.5 -5.5q0 -1 -1.5 -4t-0.5 -5q0 -3 -2 -10t-2 -10q-2 -3 -2 -11v-2l-1 -2q-2 -3 -2 -9q0 -4 -1 -6q-2 -2 -2 -8l-3 -8
q0 -5 -3 -10z" />
    <glyph glyph-name="B" unicode="B" horiz-adv-x="542" 
d="M180 56q-4 -2 -5 -2t-3 0.5t-4 0.5q-4 1 -12 1q-2 -2 -4 -2q-1 0 -2 1q-2 -1 -5 -1h-2q-2 1 -4 1q-3 1 -12 1h-36q-9 0 -14 1q-1 0 -5 2l-3 7v21q2 4 2 13v46q0 43 1 65q0 5 1 7q0 3 -1 4q-2 10 0 19v7q0 2 2 6l-2 4q1 1 1 2q1 2 1 3v14q-2 6 -1 8q-1 1 -1 10v62
q0 2 0.5 4.5t0.5 3.5l-1 1v3v15v2l1 2q1 2 0 4t0 4q0 1 -1 3t0 4q-1 2 0 5.5t0 5.5v10v22v53t-1 52v48q-2 4 -2 5q-1 8 -1 25l-2 6v47.5t-1 46.5q3 3 7 5q3 1 21 1q2 2 4 2q26 1 78 1q1 1 2 1q2 1 3 1q42 2 86 0q2 0 6 -2q8 0 13 -1l17 -3q2 0 4 -2h9q6 -2 16 -4q2 -2 4 -2
q9 0 14 -2q5 -1 12.5 -4t9.5 -3q2 -1 11 -5q4 -2 11.5 -7l10.5 -7l3 -3l3 -4q3 -1 8 -6q1 -2 5 -8.5t5 -9.5q10 -20 13 -31q0 -1 2 -3v-11q0 -2 1 -5t1.5 -5.5t0.5 -4.5v-13l2 -4q1 -3 1 -5q-2 -4 -2 -7q-1 -8 -1 -25q0 -11 -2 -16q-1 -3 -1 -10q-3 -4 -3 -13l-3 -8
q0 -2 -5 -17q-1 -2 -3.5 -8t-3.5 -9l-1 -1v-2q-2 -2 -7 -11q-8 -16 -10 -18t-5.5 -7.5t-6.5 -7.5q-4 -4 -5 -7q-10 -10 -12 -11t-12 -11v-7l2 -2q2 0 19 -12l6 -4q7 -3 19 -11l3 -4l6 -5l9 -10q1 -2 4 -7.5t4 -8.5t3.5 -9t3.5 -7l6 -16q1 -2 1.5 -7t1.5 -8q1 -4 1 -13l2 -4
q1 -4 1 -11q0 -5 1 -6q2 -5 2 -16q0 -17 -1 -25q0 -1 -2 -5v-10q0 -3 -2 -11q0 -1 -0.5 -5.5t-1.5 -6.5q-2 -10 -5 -15q0 -2 -1.5 -5t-1.5 -5q0 -1 -2 -5t-1 -6l-5 -9l-2 -7q-6 -9 -7 -10l-6 -7l-30 -15q-1 0 -4 -1t-4 -2t-5 -1.5t-5 -1.5l-8 -2q-10 -2 -16 -5q-13 0 -20 -1
q-6 -2 -8 -2q-3 0 -5 -1q-3 -2 -11 -2q-20 0 -29 -1q-1 0 -2.5 -0.5t-2.5 -0.5l-17 -2q-2 0 -4 -2h-72zM209 652q-2 -2 -2 -6v-144q0 -2 1 -4t1 -3t-2 -5v-14l1 -1v-2l7 -3q3 1 7 1.5t8.5 1t6.5 0.5q3 0 5 2h9q36 15 51 26l20 20l6 13q0 12 1 18l1 4q2 8 -2 22l-3 12l-6 12
q-9 20 -26 33q-14 11 -24 14l-11 3h-24h-25zM297 160l16 15l4 4q1 2 3.5 6.5t3.5 7.5q2 4 4 16q0 7 1 10q0 3 2 5l-2 5q0 1 1 3v2q-1 1 -1 2q-1 4 -1 11q0 3 -1.5 6.5t-1.5 5.5t-1.5 6t-1.5 5l-6 10q-9 16 -15 20l-14 7q-1 0 -8 2t-11 4q-8 0 -12 2q-3 1 -8 1
q-2 0 -4.5 -0.5t-3.5 -0.5h-10q-1 0 -2 -1h-1l-6 -2q-6 -2 -8 -8v-15l3 -5v-113q2 -6 4 -9l7 -7q19 -6 26 -3h3l1 -1h15q4 2 6 2q2 1 7 1z" />
    <glyph glyph-name="C" unicode="C" horiz-adv-x="694" 
d="M241 458l-2 -10q-1 -1 -1.5 -4t-1.5 -4q-2 -4 -1 -7q0 -2 -2 -6q-1 -2 -1 -3q0 -2 -0.5 -6t-0.5 -6l-2 -5v-37l3 -17q2 -4 2 -5q0 -2 0.5 -4t0.5 -3l2 -4q1 -7 5 -14l2 -7q6 -9 7 -10q5 -5 13 -17q4 -6 7 -8l12 -10l2 -2q9 -10 23 -19l9 -6l11 -6h7q2 -1 7.5 -3t8.5 -3
l9 -3q5 0 6 -1q4 -2 13 -2h25q3 0 7 0.5t6 0.5q2 1 6.5 1.5t6.5 1.5q6 2 10 2q7 0 13 3q3 1 9 4t10 3l17 9q7 5 27 14h3q3 -2 7 -8q2 -4 7 -10.5t7 -9.5q4 -4 10.5 -14t10.5 -15l1 -2q1 -2 2 -3t5 -7t7 -9q2 -1 4 -5t3 -5l4 -9h1l2 -1q15 -26 19 -35v-3l-10 -8
q-1 -1 -2.5 -2t-2.5 -2l-10 -9l-11 -7l-10 -8q-7 -5 -8 -5q-2 0 -5.5 -3t-5.5 -3t-5 -2t-4 -3q-4 -1 -10 -3.5t-8 -3.5q-2 0 -6 -2q-3 -2 -10.5 -4.5t-10.5 -4.5q-10 -3 -11 -3t-3 -0.5l-4 -1t-3 -1.5t-5 -1h-5h-3q-7 -3 -21 -3q-1 0 -3.5 -1t-4.5 0t-5 0q-1 -1 -2 -1l-9 -2
q-6 -3 -12 0q-3 1 -5 0h-4q-4 3 -10 0q-3 0 -5 1h-13q-1 0 -2.5 -0.5t-2.5 -0.5q-2 1 -7 1.5t-7 0.5q-1 0 -5 2q-1 0 -5.5 0.5t-6.5 0.5q-3 1 -9 2t-7 1q-4 0 -12 4q-10 4 -16 5q-2 1 -6 2t-6 2t-5.5 2t-5.5 2t-7 2.5t-7 2.5l-25 12l-10 5q-4 2 -6 2l-7 5q-1 0 -3 1h-1
l-17 11q-11 7 -20 16l-8 6q-3 1 -7 5l-20 20l-4 6q-1 2 -5 6t-10 14q-1 2 -4 5.5t-5 6.5t-3 6l-9 14q-6 9 -9 20l-3 8q-1 2 -2.5 4.5t-2.5 5t-1 5.5q-2 2 -3 7t-2 7q-1 5 -5 15q0 1 -0.5 3.5t-0.5 3.5t-0.5 4t-0.5 5t-2 4q0 2 -0.5 6.5t-0.5 6.5q-2 4 -2 23q-2 25 0 48
q0 1 0.5 2.5t1.5 2.5q1 5 1 16q1 1 1 2q1 2 1 3q0 2 0.5 6t0.5 6q0 1 1 3q2 4 2 6q-1 3 1 8t2 7q0 3 1.5 8t1.5 7q1 2 2 5.5t2 5.5t1 7l2 4q1 2 4 10.5t5 12.5q2 3 4 9q1 3 3.5 8.5t3.5 7.5l8 13q4 8 7 11l3 6q3 6 6 9q2 2 6 9q6 10 10 15q2 3 6 7.5t4 5.5q6 5 10 13
q16 16 19 18l4 3q5 6 16 15t14 11q2 2 6 4.5t6 3.5q4 1 10 5l12 6l10 5l11 6l6 3q7 1 14 5q7 5 19 8q0 1 2 1q3 0 8.5 2t6.5 2q2 0 5 1t4 1q2 0 5.5 1.5t4.5 1.5q3 0 9 2l8 2q1 0 5 2q26 0 39 1h7q1 1 3 1q2 -1 6.5 -1.5t5.5 -0.5q4 0 5 -1q6 -2 9 -2q4 0 6 -1q4 -2 13 -2h4
q1 -1 3 -1q2 -2 6 -2t6 -2q3 -2 13 -4q6 -2 8 -2q3 -1 8 -1l13 -6l12 -6q7 -1 13 -6q2 -1 5.5 -2t5.5 -2q2 0 5.5 -2t5.5 -2q2 -1 5 -3t5 -3l7 -3l23 -13q2 -2 8 -5.5t8 -4.5q1 -2 4.5 -5t4.5 -5q2 -2 1 -5q-3 -8 -11 -16q-5 -5 -7 -9l-4 -4l-18 -19l-8 -9q0 -1 -1.5 -2.5
t-1.5 -2.5l-20 -20q-1 -1 -3 -3.5t-3 -4.5q0 -2 -2 -2q-1 -1 -4.5 -3.5t-4.5 -4.5l-7 -9l-8 -9l-5 -3q-2 0 -4.5 2t-3.5 2l-3 3q-3 2 -7 5.5t-5 4.5l-9 6q-2 2 -8 4q-1 1 -5 3l-6 3l-4 2h-4l-14 6q-2 2 -6.5 3t-5.5 2q-8 1 -19 6q-5 1 -33 1q-2 -2 -4 -2q-1 2 -5 0.5
t-5 -1.5q-6 0 -9 -1q-2 0 -8 -2q-13 -4 -17 -8q-4 -1 -17 -10q-1 -1 -2 -1l-7.5 -7.5t-8.5 -8t-7 -7.5l-6 -8q-6 -6 -9 -14l-12 -16q-2 -2 -4.5 -6.5t-3.5 -5.5l-2 -3q-1 -4 -8 -19z" />
    <glyph glyph-name="D" unicode="D" horiz-adv-x="558" 
d="M126 728h45l6 -2q9 -1 29 -1q1 0 2.5 -0.5t2.5 -1.5h3q19 0 28 -1q7 0 10 -2h4l12 -3l4 -1q5 0 7 -2q6 0 18 -6q7 0 10 -2q1 -1 4 -1.5t4 -0.5q2 0 3 -1l12 -6q11 -3 11 -4q4 0 25 -11l5 -4q14 -8 24 -19q10 -10 14 -17q1 -2 3.5 -5l4.5 -5.5t4 -4.5l4 -6q1 -3 4 -7t4 -7
q3 -5 11 -15l2 -6q5 -10 5 -11q4 -8 5 -13l3 -11q4 -10 5 -15q1 -1 1 -3q1 -1 1 -4v-5q0 -1 1.5 -3.5t1.5 -4.5v-4l3 -15l2 -4v-6q1 -1 1 -4q0 -2 2 -6v-10q0 -3 2 -11q1 -2 1 -7q1 -10 1 -31q0 -2 1 -3q0 -1 -0.5 -4t-0.5 -5q-1 -11 -1 -35q0 -2 -2 -4q1 -1 1 -3
q0 -3 -1 -4q0 -11 -1 -16q0 -13 -2 -16v-6q0 -1 -0.5 -3.5t-1 -4.5t-1.5 -4v-5q0 -3 -2 -9l-1 -1q0 -9 -3 -16q0 -2 -1.5 -6t-1.5 -5q-1 -6 -5 -16q-4 -8 -4 -15q0 -1 -0.5 -2t-0.5 -2q-5 -9 -5 -11l-3 -10l-2 -4q-5 -13 -7 -16l-3 -6q-2 -2 -2 -4q-1 -4 -5 -11.5t-5 -10.5
q-2 -1 -3.5 -3t-4 -4.5l-3.5 -3.5l-3 -5q-1 -2 -8 -9l-7 -5l-4 -6q-7 -7 -9 -8q-3 -1 -8 -6q-2 -2 -7 -5t-6 -4t-4.5 -2t-4.5 -3q-1 -1 -3 -2t-4.5 -1.5t-3.5 -1.5q-3 -2 -9 -4t-16 -8q-8 0 -11 -2l-15 -4l-12 -3q-8 0 -12 -2q-2 -1 -6 -1h-22l-6 -3h-50q-4 -2 -5 -2
q-8 0 -25 -0.5t-25 -0.5t-24.5 0.5t-24.5 0.5q-2 1 -6 5q-2 3 -2 9q0 4 0.5 12t0.5 12v10l2 4q-4 7 -2 19v1q1 2 1 3q1 1 0 2q0 1 -0.5 2.5t-0.5 2.5l2 6q-1 1 -1 4q0 2 0.5 5t0.5 4v37q-2 3 -2.5 7t-0.5 8.5v6.5v13.5v15v12.5q0 8 3 14q-2 4 -2 5q0 2 2 6v130l3 7v30
q0 9 2 13q1 2 -1 9q0 2 1 6t1 6v152q-2 2 -3 5v56q-2 4 -2 5v13q2 4 2 7q1 0 3 1l6 2q4 2 11 -1q2 0 6 2h1zM327 496l-6 10q-8 16 -21 26l-11 8q-1 1 -4.5 2.5t-4.5 2.5q-2 0 -12 5l-9 4q-3 1 -12 5q-10 2 -15 4h-12t-12 -1h-1q-1 -1 -2 -1q0 -1 -2 -3q0 -8 -1 -13v-6v-7
q-3 -5 -1 -14q0 -1 2 -5l-3 -6v-71v-32q1 -31 0 -31q0 -2 -0.5 -7.5t-1.5 -8.5q-1 -2 -1 -7v-51q0 -5 -1 -7q-1 -1 -0.5 -3.5t0.5 -3.5q0 -2 -1 -4q2 -6 1 -13q-1 -1 -0.5 -3.5t0.5 -3.5l-2 -6v-14v-8.5v-7.5l5 -4h3q4 -1 13 -1l13 2q2 1 7 1.5t6 0.5q2 0 3 1q10 3 24 11
l12 7l21 21q4 3 10 11l9 17q1 1 6 11l4 16q2 2 2.5 7.5t1.5 7.5q2 8 2 10t1 5.5t1 4.5q1 5 1 13v25q2 4 2 6v17q-2 8 -2 11q0 2 -1.5 6t-1.5 5q0 18 -1 26q-2 6 -2 9q0 1 -2 7l-3 8q-1 3 -1 9z" />
    <glyph glyph-name="E" unicode="E" horiz-adv-x="517" 
d="M195 315l-4 -3l-4 -4v-14v-15.5v-13.5v-41l-3 -6q2 -4 2 -6v-15q0 -1 -2 -5q0 -2 1.5 -4t1.5 -4q6 -2 10 -4l8 -3h14q7 3 15 0h61l6 2q7 2 12 -2q20 0 24 1h4.5t3.5 1q8 1 22 1q10 4 19 1q1 0 4 1q11 1 34 1l4 -4l1 -3q0 -18 -1 -27v-3q-2 -4 -2 -7v-7q2 -4 2 -5v-20
q0 -2 -0.5 -5.5t-0.5 -4.5t0.5 -3t0.5 -3q-3 -10 0 -13v-15q-2 -1 -5 -2t-5 -2h-51l-6 2h-7q-4 1 -12 -1q-6 -3 -13 1h-109q-9 0 -13 -2q-4 2 -6 2t-8 -2h-26l-7 2h-28h-30h-28q-2 1 -5 7v3q0 6 -1 9v3l-1 2q-1 2 0 5.5t1 4.5q1 36 1 111l2 6q1 19 1 59l2 6q1 18 1 56l2 7
q1 41 1 126l2 6v18q0 1 -2 5q0 11 2 15v2q-1 2 -1 3q-1 2 1 10q0 1 -2 5v19l2 5v13q0 1 -2 5v45.5v54.5v46q2 2 6 2.5t5 1.5q11 1 31 1q8 0 12 2h6q5 0 15 0.5t16 0.5h39l5 2h58q6 0 9 -1l2 1h2h31q5 0 7 -1h3q6 2 19 2h19q4 -2 6 -2q1 0 2 1q4 -2 5 -2h19q10 0 16 -1
q2 0 5.5 -1t5.5 -1h10q1 -1 2 -1l1 -1q0 -5 2 -13v-12l-2 -6q0 -8 -0.5 -25t-0.5 -26l-2 -4q0 -25 -1 -37q-2 -2 -4 -2h-28l-5 -3h-24l-6 -3h-12q-9 -5 -14 0q-6 -2 -7 -2q-9 -1 -27 -1q-16 0 -24 1l-2 1q-2 1 -3 1h-80l-7 -4q-3 -9 0 -16q1 -3 1 -7q0 -2 0.5 -5.5t0.5 -5.5
v-113l3 -4l8 -4l2 1h3q6 -2 13 1q12 0 43.5 0.5t43.5 -0.5l4 -2h10q2 -2 2 -3q-1 -4 0 -10v-3v-4v-3v-42q-2 -5 -2 -15l2 -6v-8q-3 -10 -2 -17l-9 -4h-28q-5 0 -11 2l-4 -2q-2 2 -5 2h-9q-4 -2 -5 -2q-9 0 -27 -0.5t-27 -0.5z" />
    <glyph glyph-name="F" unicode="F" horiz-adv-x="511" 
d="M233 603q-1 0 -3 -0.5t-3 -0.5q-1 -1 -4 -1l-4 -5v-50q0 -1 0.5 -3t0.5 -3q2 -2 0 -4v-3q0 -1 0.5 -2t0.5 -2q0 -2 -1 -3q2 -4 2 -8q0 -3 -2 -7q-2 -43 -1 -58q0 -1 1 -1q3 -3 4 -3q3 -1 9 1h25q2 0 4 -1t4 -1q14 0 22 -1l2 -1q2 0 3 -1h39l5 -3h31l3 -3q1 -2 1 -4
q0 -4 0.5 -11.5t0.5 -11.5q0 -40 -1 -59l-3 -7q-1 -1 -4 -1h-26h-22q-4 -2 -5 -2l-2 1h-2q-2 0 -6 -2h-26l-6 -3l-7 2q-1 0 -5 -2h-30q-1 0 -2.5 0.5t-2.5 1.5q-5 0 -9 -6v-1l-1 -2v-24q0 -12 -2 -17q2 -7 0 -10q0 -1 1 -3l-2 -4v-80q0 -1 -0.5 -2.5t-1.5 -2.5v-3l1 -2
q0 -2 -1 -3q5 -8 0 -16v-18q0 -3 2 -5q0 -10 -2 -14l2 -5v-48l-3 -4q-1 0 -3 -1h-27l-5 -3h-45q-4 -2 -5 -2q-4 0 -15.5 -1t-17.5 0l-10 2q-2 1 -8 1l-2 2q0 3 1 4q0 2 2 4q-1 3 -1 9q0 2 -2 4v19l2 5l-2 6v213q0 8 2 11q0 13 0.5 39t0.5 39q0 10 1 12v3q-1 3 0 7v2q0 3 1 5
q0 11 0.5 33t0.5 33q0 7 2 10v37q0 6 0.5 18.5t0.5 19.5v87l2 8v26q3 5 6 5q6 0 9 1h12q2 -1 8 2h62h170q3 0 9 0.5t9 0.5l4 2l5 -2l5 2h38l5 -2q2 0 5.5 -0.5t4.5 -0.5q5 -2 6 -5v-33v-1q1 -2 1 -3t-0.5 -5t-0.5 -6v-44l2 -6v-10q-2 -5 -7 -5h-15q-1 0 -5 -1.5t-6 -1.5h-4
q-9 -3 -26 -3q-10 0 -15 -2h-5q-9 0 -14 -1h-10q-1 -1 -3.5 -1h-4.5q-3 -2 -10 0q-2 0 -4 0.5t-3 0.5h-48q-1 -1 -2 -1q-2 -1 -3 -1q-2 0 -11 -0.5t-11 1.5z" />
    <glyph glyph-name="G" unicode="G" horiz-adv-x="780" 
d="M702 317q-1 -1 -1 -3q-1 -17 -1 -49q0 -5 -1 -8q-4 -6 0 -17l-2 -4v-35q0 -24 -1 -36l-2 -6v-26q0 -18 -2 -23q-1 -2 -1 -6q0 -21 -1 -31l-3 -6q-1 -1 -3 -1q-17 -1 -52 -1q-4 2 -5 2q-9 2 -28 0l-6 -2h-15q-3 0 -11 -2q-2 0 -4 1q-6 -3 -19 -1l-2 2q-1 2 -1 4
q0 1 -0.5 5t-0.5 5q1 8 -2 16q0 5 -1 7q-2 3 -8 7h-4q-5 -2 -13 -8t-12 -8q-6 -4 -10 -5q-1 0 -3 -1l-2 -1q-11 -6 -13 -6q-1 0 -5 -2t-7 -2q-2 0 -4 -2h-12q-9 -3 -10 -3q-6 0 -8 -1q-2 0 -6 -2h-13l-4 -2h-31q-2 0 -6 2h-17l-6 3h-30l-6 3h-17q-1 1 -2 1q-2 1 -3 1t-5 1
t-6 2l-11 3q-18 7 -22 9q-1 0 -3 0.5l-4 1t-3 1.5q-6 4 -9 4l-20 9l-12 6q-8 3 -9 4q-10 8 -11 8l-11 7q-9 6 -16 13q-6 8 -11 9q-16 16 -17 18q-4 6 -7 8q-10 11 -15 22q-10 18 -12 20q-1 2 -3.5 8t-3.5 10t-5 12q0 2 -2 5.5t-2 5.5q-6 12 -7 19q-1 2 -1.5 6.5t-2.5 6.5
q0 2 -2 7t-2 8q2 2 0 3l-3 21q0 1 -2 5v13q2 2 2 5q0 8 0.5 25t0.5 25l2 7q1 4 1 12q2 4 2 5q1 4 1 14l6 21q0 1 3 10q0 2 2 6q0 1 0.5 3.5t0.5 4.5q4 8 5 12l4 11q0 5 4 11t4 10q0 2 2 4q6 8 7 14q2 6 4 8q2 3 6 9.5t6 9.5l2 3q4 8 7 11q13 18 30 33l20 20q2 3 7.5 6.5
t7.5 6.5q10 10 16 13l10 9q14 7 17 8l17 9q10 4 15 5q2 0 5.5 1t4.5 1l9 2q4 2 14 4q8 4 14 4q4 2 14 2q3 2 28 4q1 0 5 2h11t12.5 0.5t10.5 2.5q2 -2 4 -2h19q2 0 6 2q2 -2 5 -2t9 -0.5t9 -0.5l6 -2h7q10 0 16 -3h5l7 -2q1 0 2.5 -0.5t2.5 -0.5t3.5 -0.5t4.5 -1t4 -1.5
q1 0 3.5 -0.5t4.5 -1t4 -1.5t8 -1q14 -6 22 -8q1 0 2 -1l8 -3l9 -4l20 -10q1 0 4.5 -2t5.5 -4q21 -15 22 -16l6 -5l2 -1q2 -3 14 -16l7 -7q0 -2 1 -3q-1 -4 -6 -6q-6 -4 -9 -5l-17 -10q-5 -5 -24 -17q-8 -6 -12 -10l-12 -9q-12 -10 -19 -14q-6 -2 -10 -2q-8 4 -11 7
q-8 6 -12 8l-4 2q-7 5 -16 7q-2 1 -6 2t-6 3q-2 0 -8 2t-9 2q-2 0 -8 2q-2 0 -5 0.5l-6 1t-6 1.5h-8h-48q-2 0 -6 -2h-6q-4 -1 -11 -1q-2 -2 -7 -2.5t-7 -1.5q-16 -4 -24 -7q-7 -2 -11 -6q-4 -2 -6 -4l-15 -12q-10 -8 -14 -13q-6 -4 -6 -8q-12 -16 -19 -22l-3.5 -7t-4.5 -8
l-3 -5q0 -2 -2 -6q-6 -10 -8 -15q0 -2 -7 -15q0 -1 -3 -13l-2 -13q-1 -2 -1 -7t-2 -8q-1 -6 -1 -19q-1 -1 -1 -4q0 -2 -2 -6v-10l3 -6v-22q0 -1 1.5 -4t1.5 -4q0 -5 4 -17q2 -3 2 -10q4 -6 7 -16q2 -6 7 -17.5t6 -13.5q1 -1 5 -6.5t6 -7.5q10 -12 17 -16q1 0 2.5 -1.5
t2.5 -1.5q4 -6 8 -7q2 -1 4.5 -3t5 -3.5t5.5 -2.5q18 -8 27 -11q1 0 3.5 -0.5t3.5 -0.5l8 -3q6 0 9 -1q2 0 6 -2q13 0 21 -1q1 0 5 -2h12l6 2q9 1 29 1q2 1 7.5 2.5t7.5 2.5q3 1 10 1q3 2 9 3t8 2q3 1 8.5 3.5t7.5 3.5l22 17q4 3 6 6l7 7q8 10 12 19q2 2 10 18l1 2v2
q0 6 -1 9q-2 3 -8 5q-4 0 -10 0.5t-9 0.5l-1 1h-2h-2q-2 -1 -3 -1t-3 1t-3 1q-1 -1 -2 -1q-2 -1 -3 -1t-7 2q-2 -2 -5 -2h-34l-4 4q0 3 -0.5 10.5t-0.5 11.5q0 1 -0.5 2t-0.5 2t0.5 4t0.5 4q0 12 1 18l2 2h12h165q3 0 4 1q5 2 20 2q26 0 39 1q1 0 2.5 0.5t2.5 0.5q3 1 7 -1
q1 0 3 -0.5t3 -0.5l1 -1v-2q2 -9 -1 -14q-1 -3 0 -6q2 -3 0 -10q-2 -5 1 -16z" />
    <glyph glyph-name="H" unicode="H" horiz-adv-x="685" 
d="M581 661q-2 -6 -2 -9v-26q0 -1 1 -3t1 -3v-106q0 -12 0.5 -36t0.5 -36q0 -4 -0.5 -14t-0.5 -14q0 -1 -1 -5t0 -6q-1 -3 -1 -9v-152l1 -2v-2q0 -1 -0.5 -3t-0.5 -3q0 -14 1 -17v-3q-2 -4 -1 -6q2 -5 2 -17v-49l3 -8l-3 -5v-65l-2 -2h-15h-4q-5 2 -22 2q-2 0 -10 -2l-6 2
q-2 -2 -5 -2q-9 0 -11 1q-1 1 -3 1h-25q-13 0 -16 -2q-12 -2 -23 0q-2 5 -3 20q0 2 -2 6q0 12 1 19q2 3 -1 7q1 1 1 2q1 2 1 3q-2 4 -2 6v43q5 6 0 13v40q2 3 2 15q0 1 -2 5l3 6q0 10 -1 14q-1 1 -1 3q2 3 2 9v7v15q5 6 0 14q0 34 1 38q0 2 -2 6q-3 3 -9 5h-3l-1 -1h-10
l-5 2h-3q-51 0 -76 1q-5 0 -16 -0.5t-17 -0.5h-32q-6 0 -16 0.5t-15 0.5h-5l-4 -2l-3 -4v-19q-2 -2 -2 -6q-1 -34 -1 -106q-1 -1 -1 -2q-1 -2 -1 -3q-1 -18 -1 -57q-1 -1 -1 -2q-1 -2 -1 -3q0 -7 -0.5 -21.5t-0.5 -22.5q0 -1 -1 -3.5t-1.5 -4.5t-0.5 -4v-37q-9 0 -10 -1
q-4 -1 -8 1q-7 -2 -11 0q-2 0 -4 -1q-1 0 -2.5 1t-2.5 0q-4 -2 -10 0q-1 0 -3 -1h-1q-8 -1 -25.5 -0.5t-24.5 -1.5q-2 0 -3 1h-13q-2 -2 -4 -2q-9 0 -12 -1q-3 1 -7 5q-2 25 0 79l2 4q0 1 -2 7v23q2 4 2 6q0 10 0.5 30.5t0.5 31.5v231q2 5 2 21q1 5 1 14q0 4 -2 10v2
q1 1 1 2q2 47 0 95q0 2 -2 6v21q2 4 2 5q0 3 0.5 10t0.5 10v22q0 17 2 21q3 0 10.5 -0.5t11.5 0.5h21q7 5 13 0h13q24 -3 25 -3h31l2 -3q0 -6 0.5 -18t0.5 -18l2 -5q-2 -4 -2 -14v-16q4 -7 1 -13v-7q1 -3 1 -31q1 -11 1 -34l2 -6q0 -7 0.5 -21t0.5 -21q0 -1 0.5 -2.5
t1.5 -2.5q0 -3 0.5 -7t0.5 -6t2 -4q-3 -10 -2 -12v-4q2 -5 2 -21l1 -1q1 -2 5 -2.5t5 -2.5h39l6 -2q14 -1 42 -1q1 0 2 0.5t2 0.5q6 2 16 2h21q3 0 7 2q1 0 3.5 -0.5t3.5 -0.5h4h2l2 1q2 1 3 1q14 0 21 2t14 0q2 0 3 -1q1 0 3 1h1q1 0 5.5 -1t6.5 0q2 0 6 6v3v4q-2 8 -2 12
v9q4 7 2 15q0 3 -2 5v28l3 6v146l2 10q1 5 1 14q0 7 1 8t6 4h3q26 0 40 1q7 0 10 1q2 -1 4.5 0t3.5 1t5 -2h18l6 2h28q1 -1 3.5 -1.5t4 -1.5t1.5 -3q1 -1 1 -2q0 -3 0.5 -10.5t0.5 -11.5l2 -4v-19z" />
    <glyph glyph-name="I" unicode="I" horiz-adv-x="311" 
d="M204 335l-2 -5v-12q1 -1 1 -2q1 -2 1 -3q0 -6 -2 -9v-16q4 -6 0 -18q2 -4 2 -5v-192l-3 -10q-1 -1 -3 -1q-7 -1 -20 -1q-4 -2 -5 -2q-11 -2 -23 0q-4 2 -19 2h-50q-3 0 -4 1q-2 1 -3 3.5t-2 3.5q0 11 -1 16q0 1 -0.5 2.5t-0.5 2.5q-1 7 -1 21l-3 6v10t2 12q-1 1 -1 2
q-1 2 -1 3l2 6q2 6 0 47v3l-1 1q0 1 1 3q-2 6 -2 18v48q0 5 -2 11l2 4v27q2 4 2 6q1 24 1 73q0 3 2 9q0 5 0.5 13.5t0.5 12.5q0 10 2 15q1 2 1 7v27q0 9 2 13v6q1 6 1 17q0 1 0.5 4.5t0.5 5.5t-1 4l2 6q1 15 1 47l2 5q0 4 0.5 12.5t0.5 13.5v19q0 5 1 7l2 13v15q0 3 2 9
q0 4 0.5 13t0.5 14l2 5v16l3 2h7q3 0 4 1q4 1 9 1.5l10.5 1t8.5 0.5q1 0 5 2h12q4 0 10 0.5t9 0.5q3 1 9 2t9 3q6 -2 9 -2q1 0 4 -0.5t5 -1.5v-1l1 -1q0 -1 0.5 -3t0.5 -3q-1 -23 -1 -70q0 -1 -2 -5q0 -4 1 -6q2 -5 -1 -12v-2q1 -1 1 -2q1 -2 1 -3v-71q-2 -8 -2 -10
q0 -24 -1 -36v-47q0 -5 0.5 -16.5t0.5 -17.5q-1 -30 -1 -89z" />
    <glyph glyph-name="J" unicode="J" horiz-adv-x="579" 
d="M303 64h-76l-5 2q-12 0 -18 1q-1 0 -5 2q-8 0 -13 1q-8 4 -13 5l-13 6l-14 7q-7 7 -11 9l-16 11l-8 6q-1 1 -2.5 3t-3 3t-2.5 2q-5 4 -6 9l-2.5 2.5t-2 3t-2 3t-2.5 3.5q-5 7 -10 13q0 1 -0.5 3t-0.5 3q-4 4 -11 23q-4 10 -4 15q0 2 -1.5 6t-0.5 6q0 4 -2 10q-1 2 -1 7
q-3 12 -3 13v13l-3 9v45q0 1 -1.5 5t0.5 5q-2 5 -2 15.5v12.5l2 2q0 1 14 1l13 -1q1 0 2 -0.5t2 -0.5q3 -1 9 -1q6 2 8 2h10q2 -1 3 -1h3l1 1h10q1 0 5 -2q1 0 4 1.5t4 -0.5q1 -1 3 1l8 -3l2 -2v-38q2 -4 2 -6q1 -2 1 -9q0 -2 0.5 -7t1.5 -7l2 -17q0 -1 1 -3.5t1 -4.5v-9
l3 -7q0 -3 2 -5l5 -7q6 -10 9 -12q1 -2 11 -9l9 -5q2 -2 7 -4t6 -2q5 -2 13 -2l6 -3h29l6 3h11l14 6q8 2 12 4q13 5 14 5l5 4q8 4 15 14q6 11 6 13l8 23q0 1 0.5 3t0.5 3q0 4 1 6q2 4 2 20q3 6 3 11v30q1 1 1 2q1 2 1 3q1 4 1 15v16q2 4 2 5q0 3 0.5 11t0.5 12v19q0 15 2 19
v1q-1 1 -1 2q0 2 2 4v129q4 10 1 15q3 4 1 10t-6 7q-1 1 -3 1q-21 1 -65 1h-19h-4l-1 1q-6 -1 -13 1h-1l-5 -2q-4 0 -13 -0.5t-14 -0.5q-1 0 -5 -2q-11 0 -14 2q-1 -1 -2 -1q-2 -1 -3 -1h-12l-5 2h-33l-1 -1h-3h-2q-2 1 -3 1h-8l-6 -2l-38 -1q-37 0 -37 1l-7 3v1q-1 1 -1 2
v31q0 7 1 10q1 2 0.5 5t0.5 5q1 1 0 4t-1 4v2q1 2 1 3v7q-2 4 -2 14v15q0 1 1 3v1v1l1 2q-1 1 -1 4q-1 2 0.5 4t1.5 3q2 2 4 2q7 0 21.5 0.5t22.5 0.5l4 2q0 1 13 0h13h45q5 0 8 -2q6 4 13 0q12 4 18 0h26q18 0 27 -1q4 0 6 -1q1 0 2.5 -0.5t2.5 -0.5q6 0 12 -3h4t5 -1l2 -1
h4q2 1 4 1q19 0 29 1q2 0 5 -0.5t5 -0.5q4 1 12 1q2 2 4.5 1.5t4.5 0.5h5q10 0 30 0.5t30 0.5q6 0 17.5 -0.5t16.5 -0.5h22l2 -3q0 -8 2 -12v-6q0 -5 0.5 -13t0.5 -12q0 -5 -1 -8t0 -7q-2 -3 -2 -13v-29q0 -45 -1 -68v-29q0 -2 -2 -6v-10q0 -3 2 -9l-2 -4q-1 -24 -1 -73.5
v-74.5q-3 -8 0 -13q-2 -6 -2 -7q0 -17 -1 -25q0 -1 -2 -5v-18l-3 -6q0 -10 -1 -15q0 -1 -1 -4.5t-1 -5.5l-3 -10v-9q-1 -2 -3 -9t-3 -10l-4 -16q-2 -10 -6 -15q-1 -1 -2 -5.5t-3 -6.5l-6 -10l-6 -12q-1 -1 -7.5 -11t-11.5 -15q-1 -1 -8 -8.5t-12 -9.5q-2 -4 -11 -8l-23 -12
q-3 -2 -8 -3t-7 -2q-9 -1 -17 -6q-1 0 -7 -1t-9 -2q-1 0 -4 -0.5t-5.5 -1t-3.5 -1.5z" />
    <glyph glyph-name="K" unicode="K" horiz-adv-x="630" 
d="M376 391q-1 -3 -1 -8q0 -1 0.5 -3.5t0.5 -3.5q8 -16 13 -23q2 -2 3.5 -5.5t2.5 -4.5q2 -2 2 -4l5 -5q4 -5 5 -8t4 -7t4 -7q2 -2 12 -20q8 -8 15 -22l3 -8l4 -6l3 -5q2 -4 4 -6t4 -5.5t3 -4.5l11 -15q8 -10 10 -16l3 -5q2 -1 3.5 -3t3 -5t2.5 -4q2 -1 4 -5l3 -6l14 -24
q2 -1 4 -5q3 -2 6.5 -8t5.5 -8l2 -2q2 -5 7 -14t7 -13q1 -4 -2 -7l-15 -9q-20 -10 -24 -11q-1 -1 -4.5 -2.5t-5.5 -3.5q-12 -8 -19 -11q-3 -2 -11 -4q-8 -6 -10 -6q-2 -2 -4 -2h-3q-5 3 -11 13q-1 2 -3.5 6t-4.5 6l-6 9q-1 2 -7 10t-8 13l-1 3q-2 2 -3 4l-7 7l-3 5
l-9.5 15.5t-8.5 16.5q-12 20 -16 24l-8 9q-1 3 -6 8l-16 25l-5 7l-12 15q-2 2 -5.5 7.5t-5.5 7.5q-1 1 -7 10q-1 1 -3 3.5t-3 4.5q-3 4 -9 13t-10 13q-2 2 -4.5 6t-4.5 6q-6 6 -8 10l-4 5q-4 2 -7 9l-9 10q-7 7 -9 11q-1 4 -7 6t-13 0q-3 -2 -5 -8q-1 -2 -1 -6.5t-1 -6.5v-2
q1 -2 1 -5v-4q-3 -7 0 -14q0 -9 -2 -12l2 -6v-27q-2 -4 -2 -7q0 -1 1 -2v-2v-1q1 -1 1 -2v-21q0 -14 -1 -16q1 -2 0 -4.5t-1 -3.5q0 -2 2 -6v-12l-2 -6q-1 -21 -1 -63.5v-64.5l-4 -7l-3 -3q-4 0 -5 1q-9 4 -20 -1h-30l-5 -3h-39l-4 -2q-1 1 -2 1q-2 1 -3 1h-4q-2 0 -6 2
l-3 2q-1 1 1 7v2q-2 4 -2 6v56q0 11 -1 16v5l-2 4v93v32q0 6 1 9q2 3 0 9q0 2 0.5 4t0.5 4q1 7 1 23v19l2 4v28l-2 4q0 2 1.5 6t0.5 6q1 11 1 33.5v34.5v39v39v6l2 6v10q0 6 0.5 20t0.5 21q0 1 0.5 2t0.5 2v3q-1 2 1 13v8q-4 11 0 17q0 12 -2 15v1v50q0 1 1 3l3 3
q25 0 38 -1l1 -1h3q10 -2 18 1q3 0 5 -1q2 1 6 1q11 1 31 1q9 0 13 -2h1q1 1 2 1l5 -3q3 -2 5 -7v-45q-3 -9 -1 -15q1 -1 0 -3v-2q2 -4 1 -6q-2 -5 0 -10q0 -10 -2 -14l2 -6v-15l-2 -5q-1 -25 -0.5 -73t-0.5 -72l3 -3h13l4 3q5 10 13 19l8 8l1 1v2l8 11q7 10 7 11l2 2
q8 7 20 27q15 20 18 23q7 5 10 15l10 11q5 5 13 17t13 18l3 5q6 5 10 13l9 11q6 10 10 15l11 13l11 14q0 1 8 11q12 12 14 16q13 13 15 14q1 0 3 3q1 2 3 2q6 -2 9 -4q2 -1 4.5 -4t5 -5t5.5 -3q2 -2 7.5 -6t6.5 -5q7 -3 11 -9q2 -1 4.5 -4t5 -5t5.5 -3l12 -11l8 -6
q12 -8 17 -13l2 -3q0 -2 -5 -9l-9 -13q-4 -4 -10 -14q-7 -10 -8 -11q-3 -3 -7 -9l-36 -54q-2 -2 -2 -3l-3 -6q-1 -2 -8 -11.5t-11 -14.5l-10 -13l-9 -13q-2 -4 -4 -6q-8 -13 -26 -37q-3 -5 -4 -6q-5 -10 -11 -16q-1 0 -8 -13z" />
    <glyph glyph-name="L" unicode="L" horiz-adv-x="476" 
d="M65 423q1 2 1 4q1 19 1 169l3 6v111q0 2 -2 6l3 4q1 0 2 0.5t2 0.5h11h12.5h10.5h15h18h16q3 0 8 -0.5t7 -0.5l11 -3l1 -2q0 -18 1 -27q2 -9 2 -11q0 -4 3 -10q0 -50 1 -76l2 -6v-39v-9q0 -3 1 -4q2 -7 2 -20t1 -18v-5q0 -1 2 -5v-19l3 -5v-59q2 -4 2 -5q-3 -5 0 -11
q0 -1 -0.5 -2t-0.5 -2q2 -8 2 -13v-35l3 -6v-87l5 -4q0 -2 10 -1l11 1q1 0 5 2h2q1 -1 2 -1q2 -1 3 -1h96q7 0 20 -0.5t20 -0.5l12 -4q1 -1 1 -2q0 -2 -0.5 -5.5t-0.5 -4.5v-75q2 -4 2 -6q0 -3 -2 -5v-22q2 -4 2 -5v-22q0 -8 1 -12q0 -1 -1 -4.5t0 -4.5l-3 -6v-1l-12 -3h-28
l-6 2h-22q-1 0 -3 -2l-4 2h-12l-6 -2q-1 0 -2.5 0.5t-2.5 0.5t-3 -0.5t-3 -0.5h-27q-1 0 -3 1h-2h-3q-4 -1 -13 -1q-2 0 -6 2h-98l-5 -2h-21q-19 -1 -37 0q-1 0 -2 0.5t-2 0.5q0 21 -0.5 62.5t-0.5 61.5q-2 8 -2 12v67.5t-1 67.5v86q0 4 -2 8z" />
    <glyph glyph-name="M" unicode="M" horiz-adv-x="738" 
d="M486 732h2l2 1q22 -1 65 -1q3 -2 23 -2q4 2 7 2h18q15 -3 16 -3h4h3.5h4h4.5l2 -2v-12v-13.5v-11.5q-2 -2 -2 -5q-1 -15 -1 -48v-162q-1 -1 -1 -2q-1 -2 -1 -3v-2q1 -2 1 -3q-3 -6 0 -13q1 -6 -1 -11q-1 -9 -1 -90t1 -94v-1q1 -2 1 -3q-2 -7 -1 -12q0 -1 0.5 -3t0.5 -3
l-1 -1v-3v-18v-2q1 -2 1 -3q-2 -10 0 -20q1 -9 0 -18q-3 -7 1 -20q-1 -1 -1 -2q-1 -2 -1 -3v-43q-1 -14 -1 -43l-3 -3q-1 0 -3 -0.5t-3 -0.5q-4 -2 -13 0q-3 -1 -10 -1h-35q-9 0 -28.5 -0.5t-29.5 -0.5q-1 0 -4 0.5t-5 0.5q-4 4 -6 5q0 1 -1 2v1v57l-3 8q2 4 2 5v58l-1 2v2
v3q3 6 -1 12v13q1 2 1 4.5v4.5q3 4 0 8q0 2 -1 3v54v59q0 7 -1 11q0 2 -1 4t-1 4l2 7v12q0 2 -2 6q2 4 2 5q0 12 -1 15q-1 6 -1 17v33l-3 6v17v19.5v16.5q-1 4 -6 6h-7q-2 -1 -6 -5t-6 -5q-6 -3 -14 -13l-20 -19q-10 -10 -14 -16q-1 -2 -4 -5t-4 -5t-4 -4.5t-4 -3.5l-6 -5
l-6.5 -8.5t-8.5 -9t-7 -7.5l-5.5 -5.5t-6.5 -8.5q-14 -16 -22 -23h-2h-2q-8 6 -11 10q-1 1 -4 4.5t-4 5.5q-10 13 -11 14q0 2 -2 2q-4 3 -6 6q-4 4 -25 33q-1 2 -4.5 5.5t-4.5 6.5q-1 2 -4 5.5t-4 4.5q-7 7 -8 9q-1 3 -4.5 7t-4.5 6l-10 11q0 1 -1 3q0 4 -4 7q-6 1 -12 0
l-2 -3l-2 -4q-1 -6 0 -13q0 -1 2 -5l-2 -6q1 -1 1 -2t-1 -2v-2q-1 -16 -1 -46v-41q-2 -4 -2 -5v-23q0 -1 0.5 -4t0.5 -5q-2 -4 -1 -8q4 -8 0 -15q0 -10 -0.5 -29t-0.5 -28v-52q0 -2 -1 -5.5t-1 -5.5t1 -5t1 -5q0 -4 -2 -10l2 -6v-42q0 -12 1 -18q0 -6 1 -9q2 -5 -1 -13v-16
l1 -1v-3q1 -1 1 -3v-34q0 -5 -3 -7l-1 -1h-33l-7 2l-6 -2h-32q-1 0 -3 1t-3 1q-5 -2 -18 -2q-6 2 -9 2q-1 0 -3 0.5t-3 0.5l-2 2l-2 10q-1 3 -1 8q0 12 -0.5 36.5t-0.5 36.5v13l-2 5q0 16 -0.5 50t-0.5 51q0 1 -2 5q1 2 1 5q0 1 -0.5 3t-0.5 3v126l2 6v152q0 1 -2 7v23
q0 11 -1 17v8v38v2l-1 2q0 1 0.5 3t0.5 3q1 5 1 14q0 5 1 6q1 3 1.5 8t0.5 7v20q2 2 3 2t3 0.5l2 0.5q2 0 9 2h12.5h14.5h13l4 -2h16q1 0 2 0.5t2 0.5t2 -0.5t2 -0.5h17q1 0 7 2q1 -1 2 -1q2 -1 3 -1q6 0 18 -0.5t19 -0.5q2 -1 4.5 -3t3.5 -3l8 -13l2 -6l7 -10.5t8 -11.5
q2 -4 7 -11t7 -12l14 -19l2 -2q1 -3 2 -5q2 -3 5.5 -9t4.5 -7q14 -20 19 -30q4 -8 7 -11t7.5 -9t6.5 -8l4 -8l3 -5l4 -4q10 -6 15 -4q4 1 8 7l9 15q0 1 4.5 6.5t5.5 9.5l1 1v2q3 3 16 21l4 4q5 12 10 18q3 6 9.5 16l8.5 13l13 18l3 5q1 1 3.5 7t4.5 8q2 3 4.5 8t4.5 8
q1 1 1 2q1 2 1 3q3 3 7.5 11t7.5 11z" />
    <glyph glyph-name="N" unicode="N" horiz-adv-x="746" 
d="M630 52l-11 -3q-8 0 -12 2q-16 0 -20 -1q-5 -2 -11 1q-6 0 -17 0.5t-16 0.5l-6 2h-47q-3 2 -9 4q-5 5 -11 17l-18 25q-4 4 -12 19q-3 6 -4 7q-1 2 -3.5 5t-3.5 5l-5 9q-6 9 -7 10q-2 2 -7 12q-1 2 -3.5 5.5t-3.5 5.5q-1 3 -2.5 5l-3.5 4.5t-3 4.5q-6 8 -16 26q-2 4 -4 6
q-3 6 -11 18l-1 2q-1 2 -2 3q-3 4 -8.5 12l-7.5 11l-4 7q-2 5 -12 20l-13 20l-3 5q-9 18 -19 28l-3 3q-2 5 -14 29q-14 13 -29 43l-6 6q-3 3 -5 8q-4 8 -8 11q-2 4 -4 6q-2 6 -4 8l-12 2q-4 -2 -7 -7v-18v-22.5v-19.5q-1 -19 -1 -59q-4 -8 0 -14v-13v-6q-2 -5 -2 -17v-159
l-3 -5q0 -11 2 -14q-1 -1 -1 -2q-1 -2 -1 -3q0 -33 -1 -51q-2 -2 -2 -4l-2 -1h-14q-4 -3 -10 -3q-56 0 -84 1q-7 3 -12 1q-2 0 -2 2v7q0 6 -1 9q0 3 -2 9q2 4 2 7v11q-2 11 0 14q0 2 -1 5.5t-1 4.5v9l2 5q-1 1 -1 2q-1 9 0 16v1l1 2q-1 2 -1 13v2q1 2 1 3v7q0 1 -2 5l3 6v75
q0 9 2 13v10q0 2 -2 6v2q1 1 1.5 3t0.5 3v18q0 2 -1 4t-1 4l3 7v68q1 1 1 2q1 2 1 3v16q-2 7 0 14v30q0 2 -2 6q1 -1 2 1t0 3q-4 5 0 13v18q0 2 -2 6v39q0 2 1.5 5.5t1.5 5.5v6v100q2 4 2 6v14q0 1 -2 7l3 24l2 2h7l5 -2h2q1 0 4 -0.5t5 -0.5h11q1 0 3.5 -1t4.5 0t10 1
q1 0 4.5 -0.5t5.5 -0.5t3 1h24q13 0 17 -2h6q3 -1 9.5 -1h9.5h15q3 -3 7.5 -12t6.5 -12t5 -6l2.5 -5t3 -5.5t3.5 -4.5q1 -4 6 -11.5t7 -12.5q1 -3 5 -9q1 -1 4 -6q6 -11 7 -13q3 -4 7 -12l2 -3q7 -8 18 -30q1 -3 4.5 -8t4.5 -7l3 -4q2 -6 4 -9q1 -2 5 -9l5 -9q1 -2 4.5 -8
t5.5 -10l9 -18l9 -17l9 -18l3 -7q4 -4 13 -22q1 -1 4 -7t5 -9q1 -1 1 -3q1 -3 5 -9l9 -15v-1l1 -2q0 -2 2 -5.5t2 -4.5l6 -10q1 -1 2 -4l1 -3q3 -4 16 -30q8 -12 11 -19q2 -4 7 -12t7 -13q4 -4 7 -10l1 -2l8 -7h5l10 10q1 3 1 8.5t2 8.5l-2 4v79q1 6 1 17.5v17.5q0 3 1 4
q-2 6 -2 18.5v15.5l3 6v35l-3 6v7l3 5v73l3 6v96q0 2 0.5 4t0.5 3v3q-2 2 -0.5 9t1.5 8l1 1v2l8 4q9 0 11 -2l6 1q6 2 6 -1l4 2q3 0 10 0.5t11 0.5q1 0 2.5 0.5t2.5 1.5h30q17 0 19 -2h8.5t8.5 -1q2 -2 2.5 -6t1.5 -5q2 -71 0 -108l-2 -4v-78q1 -1 1 -2q1 -2 1 -3v-9
q-2 -5 -2 -16q0 -5 1 -7t0.5 -4t0.5 -3q2 -7 -1 -12q-2 -5 1 -13q-1 -1 -1 -4q0 -1 1 -4.5t0 -5.5l-2 -4q2 -4 2 -7q2 -34 0 -67q0 -2 -2 -6q0 -10 2 -15q-4 -11 0 -20q1 -2 -1 -8q3 -8 -1 -13v-10q1 0 2 -5v-24q-2 -8 -2 -12v-127q0 -6 -2 -10q-1 -2 -1 -7q0 -17 -2 -22v-1
q1 -1 1 -2v-4v-7z" />
    <glyph glyph-name="O" unicode="O" horiz-adv-x="823" 
d="M461 55h-17l-13 -5q-1 0 -3 -0.5t-3 -0.5q-2 0 -8 -0.5t-9 -1.5t-6 0q-2 0 -6 2h-7h-8t-11 2q-3 1 -8 1t-8 1q-2 2 -5 2q-4 0 -12 2l-8 3h-4t-5 1t-7 2t-8 2l-6 2q-6 0 -9 1q-2 1 -6 2t-6 2q-8 4 -28 10q-2 0 -6 2q-2 1 -5.5 2.5t-4.5 1.5q-6 2 -12 6q-15 10 -20 12
l-16 9q-3 2 -9 5t-7 4q-2 2 -8 6t-9 7l-3 3q-7 3 -10 9q-3 4 -7 7q-2 1 -10 9q-2 5 -8.5 11t-8.5 9t-5 8t-5 8q-2 2 -4 8q-1 7 -6 13l-3 5v3q-1 1 -7 13l-5 14l-7 16q-5 13 -5 15q-2 2 -2.5 7t-2.5 7v4q0 4 -2 10q-1 1 -1 3q-3 15 -3 16q0 9 -1 13q0 1 -2 5v46q2 5 2.5 15.5
t1.5 13.5q0 2 1 4q0 1 0.5 3t0.5 3q0 14 2 18q1 1 1 3v7q2 3 3 8t2 7t2 6.5t2 6.5q5 15 7 19q10 20 11 24q2 2 7 13q4 8 7 11q6 11 7 13q8 11 9 13l9 12q1 3 6 8q8 8 9 10q1 1 4 3.5t4 4.5t4 5.5t4 5.5q7 11 27 29q10 8 20 17q2 2 17 12q15 8 17 9l42 21q4 2 12 4q1 0 3.5 1
t4.5 1.5t4 0.5q12 3 14 3q2 2 4 2q4 1 13 1l4 2l7 1q8 0 12 2h15q1 0 9 -2h29q13 0 20 -3q2 -1 5.5 -1h4.5q3 -2 10 -2.5t10 -2.5h4q2 0 6 -0.5t6 -0.5q2 -2 6.5 -2t6.5 -1q1 -1 5 -1.5t6 -2.5q1 -1 4 -1q2 -1 6 -1q8 -5 15 -5q3 -2 9 -4t7 -2l15 -8l11 -4q6 -2 10 -6
q1 0 1 -1q12 -5 25 -15l4 -2l8 -3l7 -7q12 -8 17 -13l29 -29l9 -11q11 -17 20 -35l6 -13l5 -10q4 -12 7 -18q0 -2 2 -4q0 -3 2.5 -8.5t2.5 -8.5l3 -6q0 -4 2 -9.5t2 -6.5q0 -3 2 -5q0 -2 0.5 -5.5t1 -6.5t1.5 -6q1 -1 1 -6v-9q2 -6 2 -7v-64q0 -8 -2 -12q1 -1 1 -4
q-1 -4 -1 -13q-1 -4 -1 -13l-2 -6v-10q-1 -2 -2 -4.5t-1 -3.5v-5q-1 -6 -3 -8q0 -9 -3 -13q0 -7 -5 -17q-1 -2 -1 -7q-8 -15 -9 -20l-3 -5l-5 -10q-3 -9 -10 -20q-2 -2 -4.5 -7l-3.5 -7q-8 -12 -13 -17q-3 -3 -8.5 -11t-9.5 -11q-2 -5 -8.5 -12t-8.5 -10q-1 -2 -4 -4t-4 -3
l-20 -19l-16 -10q-2 -1 -9 -5.5t-11 -6.5q-10 -5 -11 -5q-2 -1 -5 -2t-4 -2q-2 -1 -5.5 -1.5t-4.5 -0.5q-6 -2 -7 -2q-4 -2 -6 -2l-7 -2q-10 -4 -15 -5q-2 0 -6.5 -2t-7.5 -2t-7 -2q-5 -3 -11 -3q-1 0 -3.5 -1.5t-3.5 -1.5zM424 232l19 6q6 3 7 3q2 0 6.5 1.5t6.5 1.5
q18 3 27 10q2 2 20 12l10 9q7 6 10 12q3 3 5.5 8.5t4.5 7.5q2 3 5 9l4 8q1 3 3 8t3 6q1 2 3 6.5t2 6.5q5 15 5 19q0 3 1 4q1 3 1 10q2 14 0 26q0 7 -1 10l-2 9q0 1 -1 5t-1 5v3.5t-1 3.5l-3 9q-6 18 -12 26q-1 0 -3 5t-10 13l-9 10q-1 2 -4 5l-4 4q-4 2 -14.5 8.5t-16.5 9.5
l-6 4q-7 1 -13 6q-15 6 -19 7q-1 0 -3 1h-1q-6 1 -17 1l-6 3h-24l-5 -3h-8l-7 -3q-2 0 -5.5 -1.5t-5.5 -1.5t-11 -3q-4 0 -5 -1l-14 -7q-21 -11 -30 -23l-7 -6q-3 -3 -8.5 -10t-6.5 -9q-1 -1 -2 -3l-1 -2l-14 -28q-8 -16 -11 -24q-5 -13 -6 -16q0 -7 -3 -13q-2 -24 0 -47
q2 -6 2 -7l1 -6q1 -4 3.5 -9.5t2.5 -7.5t2 -6t3 -7l2 -4q2 -2 5.5 -8t4.5 -8q2 -2 5.5 -6t6.5 -7t6 -5q2 -1 6.5 -3t6.5 -4q3 -2 9 -5t7 -4q2 -1 11 -4q4 -2 11.5 -5t11.5 -5q1 -1 3 -1q3 0 9 -2t9 -1q4 -2 16 -4l3 -2h9.5h12h9.5z" />
    <glyph glyph-name="P" unicode="P" horiz-adv-x="509" 
d="M428 428q0 -2 -1.5 -4.5t-1.5 -4.5q0 -10 -4 -18l-2 -9q-1 0 -3 -8q0 -2 -2 -6l-5 -10l-3 -10l-11 -21q-1 -2 -2.5 -4.5t-2.5 -5t-1 -5.5q-3 -6 -4 -7q-8 -12 -8 -13q-1 -2 -5.5 -7t-5.5 -8l-8 -7q-6 -4 -9 -7l-8 -6l-9 -6l-18 -9l-9 -5q-2 -2 -4 -2t-13 -6
q-1 0 -4.5 -0.5t-5.5 -1.5q-1 -1 -4 -1l-10 -3q-2 -1 -5.5 -1.5t-4.5 -0.5l-6 -2h-9q-8 -5 -14 1q-6 -1 -15 -1q-2 -2 -3 -2v-6t-2 -7q2 -6 2 -7q0 -17 -1 -25q0 -3 -1 -8.5t-1 -7.5v-30l-3 -7v-17q0 -1 -0.5 -3t-0.5 -3q-1 -2 -1 -4q-1 -2 -1 -6l2 -3q0 -1 -0.5 -2.5
t-1.5 -2.5v-36v-2q-1 -1 -1 -2l-1 -1l-10 -3h-2l-2 1q-8 -2 -11 -1q-1 0 -5 2h-47q-4 -2 -7 -2q-1 0 -8 2q-4 0 -11 0.5t-11 0.5q-1 1 -1 3q-1 8 -1 26l-3 6v80q-2 2 -2 5q0 1 0.5 4t-0.5 4q0 2 -0.5 6t-0.5 6v42l-2 5l2 4v40q1 34 1 101q-1 25 -1 74q0 3 -1 5t-1 8
q-1 9 -1 27v32q0 7 -2 10q4 5 0 11q2 6 2 7v40q0 2 -1 3q-1 3 -1.5 9.5t-0.5 8.5v47l-2 4l2 8q0 5 -1 7q-2 8 -2 11v20q0 4 1 6q2 3 2 8.5t1 7.5q0 3 4 3q18 1 119 1q4 -2 6 -2h2q3 1 5 0q4 0 6 -1h14q4 -2 5 -2q3 -1 12 -1l6 -3q2 0 5.5 -1.5t5.5 -1.5t4 -0.5t4.5 -1.5
t3.5 -1t3 -1t3 -1h4t4 -1q11 -2 19 -7q7 -5 14 -8q10 -8 15 -11q3 -1 7 -4t6 -4t11 -7l7 -5q1 -1 4 -3.5t5 -3.5l5 -4l11 -13q4 -5 10 -15l2 -4q3 -3 7 -11q1 -1 2 -5.5t3 -6.5q1 -2 2.5 -7t2.5 -7t2 -6t2 -6q0 -3 1.5 -7t1.5 -6t0.5 -6t0.5 -5q0 -3 2 -5v-3q0 -14 2 -20
q1 -1 1 -5v-22v-26v-22q0 -7 -2 -10v-6q-1 -4 -1 -10zM287 570l-14 7l-13 6q-3 0 -9.5 2.5t-10.5 1.5l-1 1h-2q-10 3 -20 1q-2 0 -3 -1l-2 -10q-2 -4 -2 -7v-19v-46v-27q0 -5 1 -6q1 -2 1 -12v-34q0 -6 0.5 -18t0.5 -18v-3q1 -3 6 -5h12q4 2 5 2q5 1 12 1q14 4 16 5
q10 3 16 8q13 9 16 13l14 17v3l9 19q0 2 0.5 6t0.5 5l5 16v28q-2 6 -2 8q-1 4 -4 11.5t-4 10.5q-3 2 -5.5 8t-4.5 8z" />
    <glyph glyph-name="Q" unicode="Q" horiz-adv-x="791" 
d="M262 719q7 0 10 2q1 1 4 1q1 0 10 3q3 1 10 1l5 2h65l5 -2q1 0 4 1t4 -1h28l7 -2l10 -2q1 0 7 -2q14 0 22 -1q2 -1 6.5 -2.5t8 -2.5t6.5 -1q2 -1 4.5 -1.5t5.5 -1t5 -0.5l12 -4q2 0 6 -2l6 -3q2 0 5.5 -1.5t5.5 -1.5t3 -1q4 -1 12 -5q6 -1 12 -5q14 -6 20 -11l10 -5
q2 -1 7.5 -6.5t9.5 -8.5l5 -5l7 -7q3 -2 5 -5q2 -4 8 -9.5t7 -7.5l12 -12q2 -2 5 -6.5t5 -6.5l5 -7q1 -3 4.5 -8t4.5 -7q2 -3 15 -29q1 -4 4 -10t3 -9q2 -3 4 -9.5t3 -9.5q0 -1 0.5 -5.5t1.5 -6.5q2 -3 2 -10q0 -3 2 -5q1 -2 1 -6q0 -7 3 -13l-2 -4q2 -4 2 -6v-51
q0 -10 -1 -15l-2 -13q0 -3 -1 -4q-2 -6 -2 -9q0 -2 -2 -10q0 -2 -0.5 -6.5t-0.5 -7.5l-2 -6q0 -3 -0.5 -7.5t-0.5 -6.5q-1 -2 -3 -9.5t-3 -12.5q0 -2 -1.5 -5t-1.5 -4q-1 -2 -2 -5.5t-2 -5.5l-6 -12q-6 -12 -8 -19q-2 -3 -9 -17.5t-12 -22.5l-4 -8q-8 -14 -10 -16t-5.5 -7.5
t-4.5 -6.5q-4 -6 -14 -18l-7 -8l-4 -3q-3 -3 -9.5 -8t-9.5 -8l-5 -3q-5 -2 -15 -8q-2 0 -2 -5q0 -1 3 -11l23 -45l6 -13q7 -15 10 -18l19 -31l-4 -5q-2 -2 -3 -2q-13 -5 -27 -12l-9 -4q-3 0 -5 -2q-3 -3 -6 -3q-2 0 -4.5 -1.5t-3.5 -1.5q-4 -4 -7 -5q-2 -1 -7.5 -3t-8.5 -3
q-5 2 -6 4l-5 7l-6 7q-1 2 -4.5 8t-4.5 9q-2 3 -15 25q-12 16 -27 42q-2 4 -8 12l-5 5l-3 3q-4 5 -9 2h-1q-4 0 -5 1l-4 -2h-45q-7 -3 -12 -1q-3 -1 -7.5 0t-5.5 1h-30l-6 3h-6q-9 0 -14 1q-6 2 -11 2q-3 2 -9 3t-8 2l-1 1q-5 0 -7 1q-3 0 -7 2l-6 2q-3 0 -7 2q-2 1 -7 2.5
t-7 2.5q-1 0 -3 1q-4 2 -6 2q-3 0 -5 1q-3 2 -10 2l-18 9q-20 12 -29 20l-12 9l-9 9l-7 6q-3 1 -4 4q-7 8 -15 15l-3 2l-6 8q-6 9 -7 10t-2.5 3.5t-3.5 4.5q-4 4 -5 9l-10 19q-1 5 -4.5 13t-4.5 13l-6 14q0 5 -1 9l-3 6t-2 6q-2 9 -3 10q0 10 -1 14q0 2 -2 4v15q0 3 -1 4
q-2 4 -2 18v65l3 6v20q2 4 2 5q1 4 1 12q0 5 1 7t1 6q0 1 0.5 3l1 4t1.5 3q1 2 1 6q0 6 2 8v3q0 3 1.5 8t1.5 8q0 2 2 7t2 8q2 4 4.5 13.5t5.5 14.5q2 2 4.5 7l3.5 7q3 8 7 13q1 1 6 8q6 12 10 16l12 15q7 7 8 9q1 1 3.5 4t3.5 5q4 3 10.5 10t11.5 10q1 0 3 2l15 12
q1 1 5 3.5t6 4.5l13 9l33 16q2 1 4 1q13 3 25 9zM542 425q-2 4 -2 12v10l-9 24l-4 8q-3 6 -11 16q-1 3 -4.5 6.5t-4.5 6.5l-1 1l-11 12q-4 1 -13 10l-5 5q-3 0 -7 2q-4 3 -11.5 7.5t-9.5 6.5l-2 1q-9 4 -20 7q-3 0 -11 2t-12 1l-3 1l-7 2h-12q-8 0 -11 2h-2q-3 -2 -17 -2
q-4 0 -6 -1q-17 -5 -22 -7h-3q-5 0 -15 -6q-1 0 -3.5 -1.5t-4.5 -1.5q-2 -1 -9 -5l-27 -16q-1 -1 -2.5 -2t-2.5 -2.5t-2 -2.5l-7 -7q-1 -3 -5 -7q-2 -2 -4 -6q-1 -2 -2 -3l-6 -7l-7 -14q-1 -2 -2 -4.5t-2 -5.5t-2 -5t-2 -7t-2 -7v-4q0 -1 -1 -3t-1 -4v-7q-3 -6 -3 -19
q0 -2 -2 -8q-1 -11 -1 -36q-2 -2 -2 -4v-13l3 -14q0 -2 2 -6q0 -7 1 -10q0 -2 2 -4q0 -5 1 -7q2 -6 8 -18q1 -2 3.5 -8t4.5 -9q5 -6 11 -11l22 -17l7 -5q6 -3 16 -11q7 -1 15 -6q1 0 3.5 -0.5t3.5 -0.5q3 0 7 -2l6 -1q5 0 7 -2q10 0 15 -1h1l4 -2q16 -1 31 0q10 4 15 5
q7 -3 13 -1q3 1 8 1q6 0 9 1q2 1 4.5 2t3.5 1l10 3q2 2 4 2l4 2l11 7q3 0 5 1q2 2 5 4.5t6.5 5t5.5 4.5q7 6 13 13q2 4 7.5 9.5t5.5 6.5q2 2 2 3l14 28q1 3 6 14l4 12l3 12q3 12 3 14t2 6q2 25 0 54z" />
    <glyph glyph-name="R" unicode="R" horiz-adv-x="540" 
d="M73 610q0 2 -1 4l2 6q0 29 1 45q0 1 2 5q0 1 -1.5 5t0.5 5q-1 5 -1 14v14q0 1 0.5 3t1.5 4.5t1 3.5q1 0 2.5 0.5t2.5 1.5l4 4q1 0 3 1h33h9.5t10.5 2h2q2 -1 12 -1q1 0 5 2l6 -2q6 4 15 0h16q6 2 14 0q1 0 3 1h1q1 0 2.5 -0.5t2.5 -0.5q10 0 13 1h2q2 -1 3 -1q7 -1 19 -1
h37l4 -2q4 0 10 -2t9 -2q4 0 6 -1t6.5 -1.5t6.5 -2.5q1 0 5 -2t7 -2q6 -4 10 -5q2 -1 5 -3.5t5 -3.5l14 -7q5 -5 11 -8l9 -9q12 -12 14 -16q1 -2 2.5 -4l3.5 -4.5t3 -3.5q5 -7 5 -9v-1q1 -1 1 -2q4 -7 5 -9q0 -2 1.5 -4.5t1.5 -3.5q3 -4 5 -14v-7q1 -7 3 -10q0 -3 2 -8.5
t2 -7.5q2 -2 2.5 -7t1.5 -7t1.5 -7t0.5 -7q0 -3 2 -5v-37l-2 -4q-1 -10 -1 -28l-2 -4l-3 -18q-1 -1 -1 -3.5v-3.5q-3 -8 -3 -14q0 -2 -1 -4t-1 -3t-2 -5t-2 -6q0 -1 -3 -10q0 -3 -1 -4l-7 -17l-7 -14q-1 -2 -2 -5.5t-2 -5.5q-2 -6 -13 -23q-4 -6 -7 -9l-14 -15q-3 -2 -5 -5
q-1 -2 -1 -6l-5 -6q6 -18 10 -26l9 -21l10 -25q0 -3 2 -7q4 -7 5 -14q5 -10 5 -12l1 -2l6 -12q4 -13 7 -16q0 -3 1 -5.5l2.5 -6t2.5 -5.5q-1 -3 1.5 -9t2.5 -8l6 -18l8 -16l-1 -2q0 -1 -1 -1q-9 -4 -11 -5q-6 0 -10 -3q-2 -1 -5.5 -2t-5.5 -2q-6 -2 -10 -2l-7 -3
q-2 0 -6 -1.5t-6 -1.5q-1 0 -5.5 -1.5t-7.5 -1.5t-5 -2l-14 -6l-2 -1h-2q-3 0 -5 1q-8 4 -11 15v2q-4 7 -9 20t-8 18q-1 1 -1 5q-4 3 -8 16q-1 2 -1 4q-5 7 -9 25l-5 12q-2 2 -3 7t-2 6q-2 3 -4 8.5t-3 7.5q0 3 -5 15q-1 2 -1 6q-4 9 -5 16q-1 3 -3 8.5t-2 7.5q0 1 -1.5 3.5
t-1.5 3.5q-2 2 -3 2q-1 1 -3 1h-23q-1 0 -3.5 -1t-4.5 -1.5t-4 -0.5h-3h-4h-3h-13q-3 -1 -6 -6v-67q2 -33 0 -66l-2 -5q0 -1 0.5 -2.5t0.5 -2.5t-1 -2v-2l2 -6q-3 -10 0 -19q-2 -2 -2 -5q0 -1 -0.5 -2.5t-1.5 -2.5q-2 -1 -6.5 -1.5t-6.5 -1.5q-3 -2 -6 0l-2 1q-3 -2 -9.5 -2
h-8.5q-6 0 -9 -1q-1 -1 -2 -1q-8 3 -10 1q-4 -2 -11 0q-2 0 -6 -1t-6 -1h-37q-4 0 -5 3q0 1 -0.5 4t-0.5 5t-1 5t-1 4l2 6v40v47v40l-2 5v8t1 8v3q-1 3 0 7q1 3 1 10v15v53v59v2l-1 2q2 10 -1 16l2 7v1q-1 2 -1 3l1 1v3q0 10 -1 12v2q1 2 1 13q1 23 1 68l2 5v11q1 25 1 74
q0 1 0.5 3t0.5 3zM237 399q1 1 13 3q2 2 7 2l5 1q3 1 8 3.5t7 2.5q1 0 3 1h1l16 11q3 1 4 4t5 7q7 14 8 17q4 14 8 20q1 5 1 13v13l2 4v19q0 6 -2 10l-3 11q-2 9 -14 32q-5 9 -17 20q-4 1 -10 5t-8 5q-3 1 -9 5l-10 6q-9 0 -14 1q-4 2 -8 2q-2 -2 -5 -2q-7 -1 -22 -1l-4 -5
q-1 -3 -1 -10v-16q1 -35 0 -71q-4 -5 0 -12v-8l-1 -2q-1 -3 0 -5q0 -1 0.5 -3t0.5 -4v-18q-1 -1 -1 -3q2 -4 1.5 -17.5t-0.5 -17.5q-2 -4 -2 -6q-1 -4 -1 -11l3 -3q2 0 6 -0.5t7 -0.5q1 -1 2 -1q2 -1 3 -1h21z" />
    <glyph glyph-name="S" unicode="S" horiz-adv-x="572" 
d="M256 533l2 -4l-2 -6q2 -8 2 -12t1 -5q1 -2 2 -6q1 -2 1 -3q10 -19 12 -22q0 -1 3 -8l8 -8l3 -2q10 -5 28 -17q8 -6 13 -6l5 -3q10 -9 24 -15q3 -1 7.5 -4.5t7.5 -4.5q7 -3 15 -9l15 -9q10 -5 18 -13q1 -2 9 -7q2 -2 2 -4q2 0 2 -2l8 -9q8 -8 9 -10q1 -3 7 -9q0 -1 2 -5.5
t2 -7.5t2 -7.5t2 -6.5q0 -3 4 -13q0 -2 0.5 -8.5t0.5 -9.5q2 -4 2 -5q1 -22 0 -43l-2 -5q0 -9 -1 -15v-2q-1 -2 -1 -3l-3 -9t-2 -9q-1 -4 -5 -17q-3 -6 -3 -14l-7 -8q-5 -12 -8 -16l-3 -6q-3 -6 -11 -16q-4 -7 -12 -13q-6 -5 -11 -11l-9 -9l-11 -7q-10 -5 -11 -6
q-2 -2 -7 -4l-5 -2q-10 -4 -14 -8l-4 -2q-5 -1 -15 -5h-5t-4 -1q-6 -3 -8 -3q-1 0 -4 -1t-4 -1q-11 -1 -62 -1q-1 0 -4 0.5t-4 0.5q-2 2 -7 2.5t-7 1.5q-7 4 -13 5l-10 2l-9 5q-9 2 -10 3q-3 0 -5.5 1.5t-6 4t-5.5 3.5l-10 8l-11 7q-1 0 -8 5l-2 2q-15 12 -28 27q-3 2 -7 7
t-6 7l-8 9q-2 3 -6 8t-5 7t-5 6q-7 7 -15 19q-1 2 -0.5 4t1.5 3t2 2.5t1 2.5q2 2 3 2l8 7l32 32l24 22q5 3 12.5 10.5l9.5 9.5h3q4 -4 5 -6q3 -5 11 -13q2 -2 9 -8.5t11 -9.5q3 -1 6 -8q6 -2 10 -6q2 -1 5.5 -4t4.5 -3q2 0 7.5 -2.5t8.5 -3.5q2 -1 7.5 -3t8.5 -3q9 0 14 -1
q2 0 6 1.5t7 1.5q3 1 11 1l10 3q1 1 5 4t6 6q2 1 10 12q2 3 6 16v20q0 5 -2 7v4q-1 2 -1 5l-6 15l-9 13l-9 12l-20 19q-3 2 -7.5 6t-5.5 4q-3 1 -6 2.5t-7 4.5t-6 4l-10 8q-7 5 -16 10l-32 31l-14 13q-1 1 -3.5 3t-3.5 4l-7 8l-7 7l-6 9l-7 14q-1 2 -7 13q0 2 -1.5 6t-2.5 7
q-5 12 -5 17v2q-1 3 -1.5 6t-1 7t-0.5 6l-2 5v45q1 1 1 2q1 2 1 3q0 3 0.5 9.5t0.5 10.5q1 2 2 7t3 8q2 6 10 21q5 10 12 17l3 4q3 5 17 19q4 4 12 10t12 8l6 4q2 2 7.5 5t7.5 6l2 1q3 1 8 3t6 3q8 0 11 2q1 0 4.5 0.5t5.5 1.5t6 1.5t6 1.5l21 7q5 1 15 1l5 2h21t21 1l6 -3
q2 0 6 -0.5t7 -0.5q1 0 11 -3q2 0 5.5 -2t5.5 -3q4 -1 12 -5l11 -5l3 -3t4 -3.5t3 -3.5q2 0 4 -0.5t3 -0.5l3 -2q1 -1 2 -2.5t2.5 -2.5t2.5 -2l5 -5q11 -7 19 -18l5 -6l15 -16l8 -10l12 -16q5 -6 9 -18q0 -4 -3 -5l-28 -28l-20 -19q-2 -2 -6 -5t-6 -5l-9 -9l-5 -4l-9 -6
l-8 13q-10 10 -12 14l-7 9l-27 16q-5 1 -14 6t-14 6h-16l-6 -3h-12l-15 -7l-14 -14l-5 -11q-2 -4 -2 -5q0 -2 -1 -5.5t-1 -4.5t-1.5 -4.5t-1.5 -5.5z" />
    <glyph glyph-name="T" unicode="T" horiz-adv-x="645" 
d="M230 71v97q0 3 -2 9q1 5 0 14l2 4v81.5v81.5l2 5v16l-2 6q2 2 2 5q0 31 1 47q0 16 1 19v3v1l-1 2v9l2 4q-2 2 -2 4v38q0 2 2 4q-4 5 0 13q-2 5 -2 13.5v10.5q2 10 2 11q-1 1 -6 7h-2l-1 1h-11q-2 0 -10 2l-4 -2q-6 2 -8 2h-9q-10 0 -29 0.5t-29 0.5q-6 5 -14 0q-1 0 -3 1
t-3 1l-2 -1q-2 -1 -3 -1h-9q-3 0 -10.5 -0.5t-11.5 -0.5q-3 0 -13 2q-4 2 -15 2l-3 4q0 1 1 3v1q-1 1 -1 2l1 1v3l-2 6v53l-2 6q-1 6 -1 16v17q2 2 2 5l2 12q2 10 6 11q1 0 3 1h23.5h28.5h24h23h164l6 -2q8 -2 15 1l4 -2q4 2 6 2l2 -1h3h3q4 3 13 -1h17q3 0 5 1h1l2 1
q15 1 43 1h56q6 0 9 -1h7q4 1 12 1h52q3 -3 4 -3l1 -2q0 -14 -1 -21v-4v-3l-2 -6v-29l-2 -6q-1 -12 -1 -39q-2 -2 -2 -5q0 -12 -1 -18q0 -4 -2 -5q-6 -1 -11 2q-17 2 -18 3l-7 -2q-2 0 -4 1q-5 -2 -23 -2q-6 -3 -11 -3h-25q-4 0 -6 -1q-1 0 -2.5 -0.5t-2.5 -0.5t-5 2l-6 -2
q-9 0 -12 2h-52q-4 -3 -7 -7q-1 -5 -1 -25v-23l-2 -7v-9q0 -1 0.5 -2.5t1.5 -2.5v-53q-2 -5 -2 -29v-7l2 -5v-118v-116l-2 -6v-100l2 -5q0 -2 -1 -3q-3 2 -11 2q-4 0 -12 2l-4 -2q-32 0 -48 -1q-2 0 -6 -2q-2 -1 -12 2q-1 0 -3 -1h-2q-4 1 -12 1.5t-11 0.5h-10q-4 2 -6 5z
" />
    <glyph glyph-name="U" unicode="U" horiz-adv-x="603" 
d="M519 705q0 -1 1 -2v-1v-52q-2 -9 -1 -11q-2 -5 0 -8v-1q-1 -2 -1.5 -7t-0.5 -6v-39v-50q-2 -4 -2 -6q-1 -28 -1 -88l-2 -6q0 -2 1 -4q-2 -9 -2 -43q-1 -1 -1.5 -3t-0.5 -3q-1 -5 -1 -15l-2 -5q0 -5 -0.5 -13t-0.5 -12l-2 -5q0 -3 -0.5 -9t-0.5 -9q0 -7 -2 -10v-3
q-3 -15 -3 -16v-5q0 -1 -0.5 -3.5t-0.5 -4.5l-2 -5v-6q-1 -6 -3 -9q0 -2 -0.5 -6t-0.5 -6q-5 -13 -8 -23q-1 -2 -4 -11q-3 -5 -7 -15l-15 -27q-2 -2 -4 -6q-6 -4 -9 -11l-2 -2q-4 -4 -11.5 -13.5t-12.5 -13.5q-8 -8 -14 -11q-22 -14 -28 -17q-4 -2 -12 -4.5t-12 -4.5
q-4 0 -11.5 -3t-8.5 -3q-8 0 -12 -1q-1 0 -5 -2h-39q-1 0 -4 1t-5 1q-6 1 -17 1q-3 0 -5 1q-3 2 -17 2l-5 3q-3 0 -8 2t-6 2q-2 1 -5 2t-5.5 2t-4.5 2t-5.5 1.5t-4.5 1.5q-2 2 -8 4l-3 1q-3 1 -4 2l-4 3q-1 0 -2.5 0.5t-2.5 0.5l-6 4q-11 4 -26 12l-21 21q-4 4 -5 6l-8 10
q-1 1 -3.5 5t-4.5 6l-1 1v2q0 3 -4 8t-5 9l-6 15q0 1 -0.5 4t-1.5 5t-1.5 5t-0.5 4t-1.5 4t-1.5 4q0 4 -1.5 10t-1.5 9q0 2 -2 6v17l-3 9q0 20 -1 30q0 1 -0.5 2.5t-0.5 2.5q1 4 -1 10q0 14 -1 22q0 13 -1 16q-1 1 -1 5v189q0 25 1 37l1 2v3q0 8 0.5 25t0.5 25q0 1 0.5 2.5
t1.5 2.5q-1 1 -1 3.5v3.5q-2 7 1 12q0 7 0.5 22t0.5 23q3 4 10 7q2 1 4.5 0t3.5 -1l6 2h129l8 -3q1 -4 0 -7q-3 -6 0 -12q-3 -4 -1 -11q0 -1 2 -5v-24q-1 -1 -1 -2q-1 -2 -1 -3q-1 -10 -1 -32l-3 -7v-32q0 -16 -2 -21v-12q2 -10 0 -14q-1 -11 -1 -33q0 -2 -2 -8q2 -6 0 -12
q-1 -21 -1 -63l-2 -5q-2 -29 0 -58v-1q1 -1 1 -2t-1 -3v-1v-19l2 -5v-22q0 -13 3 -20q1 -1 1 -3v-3l9 -18q1 -2 4 -6t4 -6q2 -4 11 -6l4 -3q7 -7 17 -8h1q2 -1 3 -1q5 -3 13 -1q4 2 7 2q5 0 17 4q10 4 15 9l17 12l7 12q3 4 7 12q0 1 1 3t1 4t2 6.5t1 7.5v16l3 5v29q0 6 3 10
v62l3 6v34l3 8v156q0 5 2 7q-1 1 -1 2q-1 2 -1 3v21l2 5v9q-5 11 0 23q0 2 -2 6q0 2 3 5q1 1 4 1h44h34h8l4 -2h30.5t30.5 -1z" />
    <glyph glyph-name="V" unicode="V" horiz-adv-x="608" 
d="M208 526l2 -6q0 -4 1 -7v-8q1 -1 1 -4q0 -6 2 -18q1 -2 1 -8t1 -9l2 -11q0 -2 1 -8t1 -9q2 -12 2 -17v-2q0 -2 1.5 -6t1.5 -6q0 -5 2 -13v-3.5t1 -3.5q-1 -2 0.5 -6.5t1.5 -6.5v-2q1 -3 2 -4v-5q0 -3 1 -8.5t1 -8.5q0 -1 0.5 -3.5t0.5 -3.5q2 -8 2 -12q0 -1 1 -3v-1v-1
l-1 -2l2 -10q0 -2 0.5 -6t0.5 -7v-2q0 -2 1 -3v-4q0 -7 2 -11v-3q0 -10 2 -15q1 -1 4 -2t4 -2h8l3 3l3 12q0 1 0.5 3t0.5 3q0 5 1 7v1q0 4 2 10.5t2 8.5l1 2q0 4 2 10.5t2 8.5q1 9 5 20q0 4 1 5q1 2 2 7l1 6l3 8v4t1 3l6 21q0 4 2 10t2 7v2q1 2 2 8t3 9v2q0 3 2 8t2 7t1 3
q4 7 4 16q1 5 5 20q3 9 3 11q0 3 2 7q0 2 2 5.5t2 5.5l5 17l6 15q1 8 7 20q1 2 1 7q0 1 1.5 4.5t2.5 5.5q0 5 4 15q4 9 6 18q4 12 5 19q3 4 5 13l2 9q0 4 3 10t3 10l4 13l3 8q3 7 5 13q0 1 3 7q5 0 7 -1q1 1 5 1q8 0 12 1h1q2 -1 3 -1t3 1q5 1 11 -1q10 0 11 -1h1q1 1 2 1
q2 -1 4.5 -1h3.5h4h4h7q6 0 9 -1q1 -1 2 0t2 0q2 1 5 1h6q4 0 5 -1t2.5 0t2.5 0q4 -2 8 -1h7h6q1 0 4 0.5t4 0.5l2 -2q1 0 1 -2l-6 -15q-2 -2 -2 -3q-1 -3 -2.5 -6.5t-1.5 -5.5q-1 -1 -1 -3q-2 -12 -5 -17q-2 -3 -4 -11q-1 -1 -1 -4q-1 -1 -2 -4l-1 -3q0 -2 -1.5 -4.5
t-1.5 -3.5l-8 -26l-4 -16q-1 -3 -5 -16q-3 -4 -5 -13q-1 -3 -5 -16q0 -5 -3 -11q-1 -3 -3.5 -11.5t-4.5 -13.5q1 -3 -1 -8t-2 -8v-1q-1 -1 -1 -2q0 -2 -1 -5.5t-1 -5.5l-4 -11q0 -4 -1 -6q-2 -7 -2 -9v-2l-1 -2q-2 -6 -2 -9q0 -1 -1 -2q-2 -8 -4 -14q-2 -4 -4 -16
q-2 -8 -4 -11q0 -2 1 -3q-3 -4 -5 -13q0 -2 -3 -14l-3 -10q-2 -9 -5 -13v-10q-3 -7 -5 -13l-4 -14l-3 -14q-3 -12 -3 -13l-3 -6v-5l-3 -6l-3 -12q0 -3 -2 -9t-3 -10v-2l-2 -2q0 -6 -3 -12q-1 -2 -2.5 -7t-2.5 -7v-3l-1 -1v-4l-3 -5q-1 -2 -2 -6q-1 -2 -1 -3q-1 -2 -1 -5
q-5 -9 -5 -19l-2.5 -5t-2.5 -5.5t-1 -4.5v-2q-3 -3 -5 -12q-2 -3 -4 -9q0 -2 -3 -8q-1 -3 -1 -7q-5 -8 -6 -14v-1q-1 -1 -1 -2q-4 -11 -5 -14q0 -2 -6 -10v-5q0 -1 -7 -4l-2 1h-8h-8q-7 0 -10 -1q-8 2 -23 0h-2q-1 1 -2 1h-18l-2 -1h-5l-7 2h-2q-2 -1 -3 -1q-8 0 -12 -1
q-5 -2 -8 1q-4 -3 -10 -1q-6 1 -18 1q-2 2 -4 2q-1 1 -3 1q-1 2 -1 6l-6 12v2q-1 2 -6 16l-1 2v3v2l-6 13q0 7 -1 10q-2 8 -2 10q0 1 -1 3v2q-3 15 -3 16q-2 6 -2 10l-6 23q-1 3 -2 6.5t-2 8t-2 6.5q0 1 -0.5 5t-0.5 5q0 2 -2 6q-1 3 -2 7.5t-1 5.5q0 3 -1.5 7t-1.5 6
q0 4 -1 7.5t-2.5 8l-2.5 7.5q-1 2 -2.5 10t-3.5 13q0 2 -2 8.5t-2 10.5q-1 3 -2.5 10.5t-2.5 10.5l-2 10v3q-2 5 -4.5 14.5t-3.5 12.5q0 5 -1 7l-2 7q-3 16 -3 17l-3 18l-3 15v3q0 5 -4 15l-3 12q-1 2 -1 4q0 3 -1 7t-1 6l-7 24l-3 11l-3 16q-4 12 -4 18l-1 5q-1 5 -2 7
q-1 1 -3 13q-1 6 -5 25q0 3 -1 5q-1 3 -1 9l-3 13q-2 8 -2 11q0 1 -1 3t0 3t0 2.5t0 2.5q0 1 -1 3l-1 2q0 2 -1 8.5t0 9.5q0 2 -2 8l-3 18q-1 5 -1 13q1 1 4 3q2 0 7.5 1t8.5 0h16q4 0 6 1q4 -1 9 0q2 1 6 1h13l3 -2h41q2 0 9.5 -1t11.5 0q2 -8 2 -10v-1q1 -2 2 -7t2 -7
q0 -4 1 -10.5t1 -9.5q0 -2 1 -5t1 -4q1 -3 1 -7.5t1 -6.5v-8q3 -6 3 -13q0 -3 2 -7q0 -5 1 -8q0 -3 1 -8.5t1 -8.5q0 -1 0.5 -3t0.5 -3v-3v-3q0 -4 1 -6t1 -6l2 -6l4 -18q1 -3 2 -8.5t2 -8.5q1 -2 1.5 -6.5t0.5 -6.5z" />
    <glyph glyph-name="W" unicode="W" horiz-adv-x="781" 
d="M510 465v1l1 2q0 2 2 10l2 10q0 1 1 3v2l3 17v1q2 3 4 16q0 1 1 7t2 9q-1 2 2 10q0 3 2 9q2 10 2 15q0 1 0.5 2t0.5 2q2 6 2 9l2 9l3 14v1l1 2q0 2 0.5 4t0.5 3q1 3 1.5 6t1 6.5t0.5 5.5v2q0 4 1 7l2 2q0 1 0.5 3t0.5 4v3q3 16 3 17q2 12 2 17l3 6v5l3 7l3 2
q1 0 2.5 -0.5t2.5 -0.5q4 2 6 1h12.5t12.5 1h3q1 1 8 1h8h4t3 1h11h4q6 1 12 0q1 0 4 1t5 0q3 1 7 0.5t6 0.5q1 -2 5.5 -1.5t5.5 0.5q3 1 7.5 1h7.5q5 0 7 -1q1 0 1 -0.5t1 -0.5v-2q0 -5 -1 -8l-6 -24q-2 -7 -1 -10q-1 -3 -2 -9.5t-3 -9.5l-2 -8q0 -5 -2 -11q0 -2 -2 -9.5
t-2 -11.5q0 -2 -2 -10q0 -2 1 -3v-1q-1 -1 -1.5 -3l-1 -4t-0.5 -3q-2 -17 -6 -25q0 -3 -2 -11t-1 -13q0 -1 -3 -11q0 -8 -3 -17q-2 -5 -4 -17q0 -2 -1 -2q-2 -6 -2 -18l-3 -8l2 -4q-2 -2 -2 -9q0 -1 -0.5 -2t-0.5 -2l-5 -21q0 -5 1 -7q-2 -4 -2 -7q-2 -8 -2 -11
q0 -1 -0.5 -3t-0.5 -3q-3 -6 -3 -14l-2 -7q-1 -3 -1 -9l-4 -10v-2q0 -2 -1.5 -7t-0.5 -8q-1 -2 -1.5 -7t-2.5 -8v-4l-4 -24q-3 -11 -2 -13l-5 -21q-2 -4 -4 -16l-4 -19v-1q-1 -1 -1 -2q1 -2 0 -6t-1 -5q0 -2 -3 -11q-1 -5 -3.5 -14.5t-2.5 -11.5l-2 -11q-1 -1 -1 -3l-3 -21
l-2 -5v-5q-1 -1 -1 -4q0 -1 -0.5 -2.5t-0.5 -2.5t1 -1q-2 -7 -7 -28q-2 -6 -2 -11v-2q-1 -2 -1 -5q0 -5 -4 -15q0 -4 -1 -5l-1 -1v-2h-52q-2 0 -4 -0.5t-3 -0.5h-2q-5 1 -11 0q-1 -1 -4 -1h-16h-5q-3 0 -4 -1h-2q-10 -2 -24 1h-8q0 1 -1 1l-2 1l-3 7q-3 0 -5 6l-4 8
q-6 8 -7 15v2q-1 1 -6 11l-5 10l-6 18q-2 2 -2 5v2q-4 4 -4 8q-6 12 -7 13q0 2 -2 4.5t-2 3.5q-2 6 -4 9l-3 8v3q-1 1 -1 2q-2 3 -5 9t-4 7l-3 8l-6 11q-4 11 -5 14l-1 3l-7 6h-7l-6 -9l-1 -1q0 -2 -2 -6l-2 -5q-1 -1 -4 -7q-1 -3 -4 -8.5t-4 -7.5l-6 -12l-6 -12
q-2 -2 -2 -5q-3 -10 -9 -17q-6 -10 -7 -16v-2l-1 -2q-3 -4 -7 -12q-7 -14 -8 -17l-2 -4l-8 -18q0 -2 -2 -4q-7 -14 -8 -17t-5 -9q-4 -2 -6 0q-1 0 -3.5 -0.5t-3.5 0.5q-2 1 -6 1h-6q-10 -2 -30 -2h-24h-29q-6 0 -9 1h-4l-5 3q-2 8 -2 12q0 2 -1 4t-1 4q-2 12 -4 14
q0 12 -1 15v3l-3 15v9q-1 1 -1 3.5v3.5q-1 0 -1 2q0 3 -1 9.5t-1 9.5q1 2 -1 4q2 4 1 7l-1 1q0 3 -1 7t0 7q0 1 -1 3t-1 3v7q-1 2 -1.5 4.5t-0.5 3.5q0 3 -1 5q1 3 0 7.5t-1 6.5l-2 17q-1 5 -1 14v2q-2 3 -4 18v6q0 3 -1 10t-1 10q0 1 -2 7v7q-1 3 -1 9t-1 10q-1 2 -1 8
q0 5 -2 7q-1 2 -0.5 4t0.5 3v5q0 4 -2 12q0 5 -1 7v8q0 8 -3 15v1l-2 16q0 6 -1 9q0 1 -0.5 4t-1.5 5v3q0 5 -1 8v3q0 10 -3 19q0 3 -1 8t-1 7v2q-1 1 -1 2q2 7 -1 19q-2 6 -2 8v8q0 4 -2 12q0 4 -2 10v5q0 1 -0.5 4t-1.5 4v3q1 3 -0.5 8t-1.5 7q0 1 -0.5 3t-0.5 3
q1 2 -2 15q0 1 -1 3v1q0 3 1 4q0 1 -1 7t-2 9q1 6 0 10q-1 2 -0.5 4t0.5 3q-2 2 -2 7l-1 3q-1 3 0 5q-1 3 -1 8q0 7 -1 8v1q0 2 -1 7t-1 7v3q-2 5 -4 19l-1 1v2t1 1q6 2 11 2q1 0 6 0.5t8 1.5h10h10h12q14 0 17 -2q1 0 2.5 1t2.5 0h5q4 -1 10 0q0 1 1 0q1 0 2 -1q2 0 3 1h8
h7h5q1 0 4.5 -0.5t5.5 -0.5t4 -2l1 -1v-7q1 -3 1 -7q0 -1 1 -3v-2q0 -6 2 -16v-2q1 -2 1 -3q0 -4 1 -6l2 -12q0 -7 1 -8t1 -4v-4q1 -3 1 -9v-23q0 -1 0.5 -4t0.5 -5l2 -9q0 -2 1 -4.5t1.5 -5t0.5 -5.5q1 -2 1 -8.5t1 -9.5q1 0 1 -2q-1 -6 1 -16q2 -5 2 -15q0 -1 0.5 -4
t0.5 -5q0 -6 1 -8q1 -1 1 -3t3 -23q1 -1 1 -2v-7q0 -1 0.5 -3t0.5 -3t3 -22q1 -4 0 -8q0 -1 1 -3.5t0 -4.5q0 -1 0.5 -4t0.5 -5q2 -6 2 -8q1 -1 1 -4v-5v-7l1 -2v-3q0 -2 2 -6q0 -4 1.5 -12t1.5 -12q0 -1 0.5 -3.5t0.5 -3.5q0 -2 0.5 -4t0.5 -3q2 -12 2 -16t1 -6l1 -1
q-1 -3 0 -9t1 -8q0 -1 1 -3t1 -3q0 -3 1 -8t0 -7h9l9 3l6 9q0 2 2 4.5t2 4.5l3 2q4 7 10 13q3 2 5 6q6 10 7 14q2 2 2 3l6 9l3 5q2 2 2 5l4 4l3 5l10 18q2 2 4 8l5 8q5 5 6 7q1 3 4 7.5t4 6.5l9 13l7 12l6 5q4 -2 5 -6l4 -7q0 -1 2 -3.5t2 -4.5q1 -1 1 -2q3 -3 3 -8
q7 -5 8 -12l4 -9l8 -14q1 -1 1 -4q2 -2 3 -2l6 -11q1 -3 5 -9q2 -4 2 -5l8 -13q5 -7 5 -8t5 -8q1 -4 5 -10.5t6 -9.5q4 -9 5 -11q1 -3 8 -17q4 -6 4 -10q3 -1 7 -6l3 -5l2 -1l7 3q3 3 3 8q2 2 2 3q0 9 1 12q0 1 0.5 5t1.5 6q1 5 3.5 14.5t2.5 11.5v2q0 4 2 10q3 6 3 14
q0 1 1 3q0 1 -1 2l1 1q2 6 2 10q0 1 0.5 2.5t0.5 2.5t-1 1q1 1 1 2q3 6 3 14q0 1 0.5 4t0.5 5l2 8q1 4 1 11q2 5 4 19q0 3 2 9q3 13 2 16z" />
    <glyph glyph-name="X" unicode="X" horiz-adv-x="661" 
d="M453 740q3 -1 5 -1q5 0 7 -1q1 -1 3 -1q5 1 17 -3q13 -4 17 -5h2l2 -2l12 -3q1 -1 8 -3l20 -7l6 -3l5 -3q0 -2 1 -3l-14 -18l-8 -13l-3 -8l-3 -6q0 -3 -2 -3l-3 -4q-3 -8 -11 -22l-5 -7q0 -6 -6 -11q-2 -6 -4 -10q-7 -13 -8 -18l-1 -1q-2 -3 -5 -10.5t-5 -10.5
q-5 -7 -5 -8l-6 -12q-1 -3 -3 -7t-2 -6l-6 -11q-1 -2 -3 -5t-3.5 -5.5t-2.5 -4.5l-1 -1v-1q-2 -6 -6 -9q-8 -16 -16 -28l-2 -4q-2 -2 -2 -4l-1 -1l-5.5 -11.5t-6.5 -11.5q-1 -1 -3 -4t-2 -4l-6 -8q0 -2 -1 -4l-5 -5v-4q7 -14 10 -17q0 -2 1 -3l1 -2q2 -3 3 -5l5 -5
q0 -2 2 -4q0 -4 5 -11l6 -11q3 -8 8 -15l5 -9q4 -3 10 -15q6 -15 13 -25q6 -9 16 -29q2 -4 5 -5q0 -5 4 -6q1 -6 7 -14q2 -2 4 -6q5 -12 11 -19q1 -1 2 -3t2 -3.5t2 -2.5q0 -3 1 -4t6 -11l2 -3q2 -1 3 -4t2 -4q2 -2 4 -6q1 -2 2 -3q6 -10 10 -15l3 -3q2 -3 6 -8.5t5 -7.5
q1 -1 3.5 -5.5t3.5 -7.5q1 -6 5 -11l3 -4q0 -1 1 -3l-1 -1q-11 -4 -14 -5q-1 0 -3.5 -1t-4.5 -1.5t-4 -0.5q-1 0 -3.5 -1.5t-4.5 -1.5q-1 -1 -3 -1q-6 0 -11 -5q-13 0 -22 -4q-3 0 -8.5 -1.5t-7.5 -1.5l-16 -4l-18 -3q-2 0 -3 1l-4 -2l-4 5l-3 2q-1 1 -3.5 5.5t-3.5 7.5
l-4 5q-4 2 -5 6q-1 5 -6 10l-2 3q0 1 -1 2q-6 8 -7 13q-2 2 -2 3l-8 12l-4 4q-3 8 -8 17l-12 18q-8 13 -8 15l-6 8q-5 10 -7 12t-2 3q-2 5 -8 13l-6 10q-12 22 -16 27l-3 5q-1 3 -7 11h-7q-1 0 -3 -2l-4 -6l-3 -6l-11 -22q-2 0 -2 -2l-4 -8q0 -1 -2 -3t-2 -3l-10 -17
q-2 -4 -2 -5q-5 -4 -11 -14q-1 -6 -6 -9l-2 -5q-4 -4 -7 -10q0 -2 -2 -5t-3 -4q-1 -5 -5 -8q0 -1 -5 -8q-1 -1 -2 -3.5t-2 -3.5l-7 -14q-1 -2 -9 -13l-4 -8q-6 -8 -7 -14l-4 -5l-11 -16q-2 -4 -5 -5q2 -4 -2 -5q-2 0 -6 2q-12 6 -18 7l-8 4q-3 0 -5 1q-3 3 -12 5l-17 5
q-1 1 -2 1q-9 5 -11 5q-1 0 -7 2h-2q-1 1 -2 1t-2 1t-14 6q-7 2 -10 7l3 7l3 6q1 2 3.5 7.5t3.5 8.5l4 8q3 6 3 7l3 6q2 4 4 10l3 8l13 25l13 26q6 10 10 14l6 10q4 8 7 11l12 20l6 8l9 15q4 9 12 18l4 6l6 13l8 14q4 5 10 17q4 6 5 9q1 2 5 8l6 9t10 19v1q-1 2 -1 3l1 1v3
l-2 4q-5 6 -13 20l-4 3v4l-11 16q-3 3 -3 4l-3 5q-1 2 -4 7t-4 8l-3 3v4l-8 13q-2 2 -4 6q-1 1 -3.5 6.5t-3.5 8.5q-2 1 -4 5q-2 3 -5 8.5l-5.5 10t-4.5 8.5q-2 2 -4 7t-3 7l-6 12q-4 6 -5 9l-4 9q0 2 -1 2q-2 2 -4.5 7l-3.5 7q-2 3 -4 9l-6 11q-1 5 -5 13l-7 16q0 2 -1 2
q-2 2 -4 7t-2 6q-2 5 -8 15l-3 6l2 2q9 2 16 6l6 2q1 0 2.5 1t2.5 0q2 0 4 2q12 4 18 7q1 0 11 3q11 2 20 9h7q1 1 19 6l5 -4l11 -16q2 -2 5.5 -7.5t5.5 -7.5q3 -7 10.5 -18.5t9.5 -13.5l2 -2q2 -5 14 -22l3 -6l4 -5q10 -15 12 -17l10 -14l6 -10q2 -6 6 -9v-2l1 -2l4 -4
l3 -6l3 -5q2 -5 8 -15q5 -5 5 -9l7 -8q1 0 3 -0.5t3 -0.5q2 0 4 1l4 4l1 2q1 2 2 3l3 4l3 6l15 21q1 0 1 1q2 3 6 8.5t6 7.5q0 1 1 2q2 1 15 20l11 16q0 2 2 2l12 16l2 2q3 8 7 12q2 2 3 4.5t2 3.5q3 4 5 8l9 15l2 4q7 8 11 17q6 9 7 10q4 3 4 8z" />
    <glyph glyph-name="Y" unicode="Y" horiz-adv-x="581" 
d="M412 740q12 -4 17 -8q7 -5 25 -11q2 0 2 -1l11 -6q3 -2 9 -4q2 0 11 -5q1 -1 4 -2t4 -2h2q7 -5 21 -11v-4q-4 -10 -8 -14q-2 -3 -4 -9l-7 -16q-6 -10 -8 -15l-3 -3q-2 -2 -2 -3l-9 -15q0 -3 -1 -5q-1 -1 -3.5 -5.5t-3.5 -7.5l-2 -4l-6 -8q-5 -11 -10 -19q0 -1 -2 -3
q-2 -1 -4 -5l-5 -9q-1 -1 -2.5 -4t-2.5 -4q0 -1 -1 -3l-3 -6l-10 -18l-3 -6t-2 -5q-6 -12 -10 -17q0 -1 -1 -2l-2.5 -2.5t-1.5 -2.5l-3 -7l-3 -5q0 -2 -2 -4l-3 -6q-1 -1 -2.5 -4t-2.5 -4q-2 -5 -1 -7q-3 -4 -7 -12q-3 -6 -3 -7t-2 -3t-2 -3t-3 -7l-4 -8q-6 -8 -7 -13
l-5 -10q-1 -2 -3 -5t-2 -5q0 -1 -3 -4l-4 -10v-14v-7q-1 -2 -1 -12v-38q0 -6 -1 -8q-1 -1 -1 -2.5v-2.5q0 -11 -1 -13q1 -1 0 -6v-4q0 -6 -1 -9v-1q0 -2 -1 -2q0 -11 -1 -14v-1q1 -1 1 -2t-0.5 -2t-0.5 -2v-4q0 -1 0.5 -2t0.5 -2v-3q-1 -8 0 -13q0 -1 -1 -3v-7.5t-1 -7.5
q0 -2 0.5 -4t0.5 -3v-26q0 -1 -0.5 -3t-0.5 -3t0.5 -3t0.5 -3q0 -4 -1 -6q0 -1 1 -2q0 -7 -1 -10l-1 -1v-2q0 -3 -0.5 -8t-0.5 -7q0 -1 -0.5 -4.5t-0.5 -5.5q1 -2 1 -9l-2 -9q-1 -1 -3 -1q-1 -1 -2 -1h-2q-2 -1 -3 -1q-2 0 -8.5 -1t-9.5 0q-1 -1 -3 -1h-3q-1 -1 -2 -1h-3h-6
q-7 -1 -14 0h-3q-3 -1 -8.5 -1t-8.5 -1q-3 2 -5 0q-3 -1 -8 1q-5 -3 -12 -1q-2 2 -5 0h-2q-2 0 -11 5q0 1 -1 2l-3 3v9q-2 4 -2 12v10q0 5 -1 8v7q2 13 0 24v6q0 4 1 6v34l-1 1v2t0.5 3t0.5 3v5q1 3 0 6q0 2 1 3q1 3 -1 11q2 4 2 13v10q1 3 1 17v2l-1 2q0 1 0.5 3t0.5 3
q0 7 2 10q-1 3 -1 8q1 2 1 7t1 8v8q0 5 1 8v7q0 5 1 8v8q0 1 2 3l-1 2l-11 15q-2 2 -4.5 7l-3.5 7v5q-1 1 -1 2l-7 14q-1 3 -3 8t-3 6q-5 10 -7 12q1 4 -3 10l-6 12q-2 6 -5 9q0 1 -1 1q-3 11 -8 15v1q-1 2 -2 5.5t-2 4.5q-3 3 -5 9l-6 11q-4 6 -5 10l-5 10l-4 10
q0 2 -2 5.5t-3 5.5l-10 20l-3 7l-4 4l-2 4q0 1 -2 6t-4 7q-3 4 -7 12l-1 2v2l-5 9q-1 1 -2 3l-1 2q-2 8 -6 14q-2 4 -2 5l-3 4q-3 3 -10 19q-1 1 -1.5 3t-1.5 4l-2 4q-2 5 -4 7q-4 4 -6 13l-5 5v6l4 3h5q1 0 3 1l3 3q7 3 23 7q3 2 9.5 4.5t8.5 3.5q11 2 21 9q4 0 6 1l33 14
h7q1 -2 7 -13l2 -4l8 -18q0 -1 1 -3q6 -7 9 -17q1 -1 1 -6l6 -11q2 -8 3 -8q1 -1 1 -3q2 -6 7 -9q0 -3 1 -5l6 -16l3 -6q7 -14 7 -18l7 -12q0 -2 1 -4q0 -1 2 -3q0 -4 3 -9q4 -6 3 -11q3 -3 7 -9q7 -17 10 -21q1 -2 4 -10l3 -9l1 -3q1 -3 2 -4l3 -7q1 -1 3.5 -3t4.5 -3l9 4
v3v4q4 3 11 15q3 5 4 6q1 4 8 15q0 1 5 11q3 3 5 11l4 3q1 2 3.5 8t4.5 9l1 1q0 2 6 14l8 15q5 7 13 23q1 3 5 9q0 1 1.5 4t3.5 4q2 6 4 8q1 3 5 9q3 1 5 6q1 3 4 7t4 6l8 13q2 1 7 12q2 2 4 8q2 2 5.5 7.5t5.5 7.5z" />
    <glyph glyph-name="Z" unicode="Z" horiz-adv-x="625" 
d="M517 198l4 -2v-1q0 -7 -1 -9v-5q2 -3 0 -7q-2 -8 -2 -11q1 -2 0 -5q-1 -1 -1 -2q0 -2 0.5 -4t0.5 -3q0 -11 -1 -14v-5v-5q0 -1 -0.5 -2.5t-0.5 -2.5t0.5 -3t0.5 -3q-1 -2 -1.5 -7t-0.5 -6q0 -12 -1 -18v-3.5v-3v-3.5v-3q-1 -1 -6 -4h-3l-2 1q-2 -1 -4 -1h-3h-7
q-2 -1 -7 -1h-2q-4 -1 -7 0q-8 0 -10 -1h-5q-5 0 -8 -1q-2 1 -6 1h-13q-1 0 -4 0.5t-5 0.5q-1 0 -3 -1q-1 1 -2 1h-1q-2 -1 -5 -1h-51q-1 1 -2 1h-10h-4h-33q-7 0 -11 2h-3q-4 -1 -11.5 -1.5t-9.5 -0.5h-8q-1 0 -4.5 0.5t-5.5 1.5h-11q-2 0 -4 -0.5t-3 -0.5h-9q-3 1 -9 1h-9
q-1 0 -3 1q-7 -2 -10 0h-3q-8 -1 -25 -1h-22l-1 -1h-2h-3l-1 1q-16 0 -19 1q-3 -1 -10 -1q-14 0 -21 1h-8.5h-8.5t-4 1q-5 2 -10 0q-1 0 -2 1l-6 -2q-4 2 -5 2q0 10 1 15q0 2 -1 3l1 2v2q0 2 -1 3q1 2 1 5q1 3 1 8q1 2 1 8q0 9 1 13v3q0 4 2 10q-1 1 -1 3q0 3 2 9q2 10 2 14
q0 2 0.5 4t0.5 4q-1 1 0 3t1 3v6q1 2 1 6v1q1 1 1 2q2 2 3.5 6t2.5 5l6 9l6 9q0 1 2 3q10 16 16 23l9 12q1 1 4 7l7 11q4 4 5 7q6 5 11 15q6 9 7 10l3 3q6 9 7 10l2 3q5 6 6 7l9 12q1 1 5 6.5t6 7.5q2 4 7 11t6 8l12 16l11 13q1 1 5 6.5t6 7.5q2 3 7.5 10.5t9.5 11.5
q2 4 8 12q3 5 9 13t7 9q0 1 4 5.5t6 7.5q2 4 4 6l9 11l3 4q1 5 6 10q1 2 4.5 6t4.5 5q2 4 4 5l10 14l2 2q1 2 1 4l6 5v5q-2 1 -3.5 5t-2.5 5q-4 2 -5 2q-8 2 -11 2h-13q-4 1 -22 1h-6h-7h-6h-3q-3 1 -8 1.5t-7 0.5q-1 0 -1 0.5t-1 0.5q-2 0 -3 -1q-1 1 -4 1q-2 0 -3 -1
q-3 2 -9 2t-8 1q-1 -1 -2 -1q-5 2 -10 0q-3 -1 -10 -1h-9q-3 0 -6 -1q-1 1 -6 1q-5 2 -10 0q-8 0 -17 3q-8 -2 -12 0q-2 0 -3 -1q-2 1 -13 1t-13 -1q-6 2 -10 1q-3 0 -11 2v1q-1 1 -1 2l-2 9q-2 5 0 10l1 1q0 3 1 10t1 11v10q0 3 1 4v4l-1 1v2v5.5v5.5q0 6 1 7v2l2 18v13
q0 5 1 7q6 2 9 2h10q7 0 9 -1q9 3 26 0q2 2 6 1.5t6 0.5q1 0 5 0.5t6 1.5q5 -2 15 -1.5t16 -0.5h1h23q4 -1 11 -1q3 0 7 2h27h3q2 1 4 1h4h6h2q2 -1 3 -1h2q3 1 5 0q3 1 18 1h21q1 -1 2 -1q1 1 3 1h3t3.5 -1t3.5 0h7q2 0 4 1q7 0 10 -1q2 1 5 1h77q6 0 9 2q2 0 3 -1
q4 -1 8 0q1 1 2 1h3h18q2 0 5 1q5 -2 7 0q7 -2 10 0h5q3 -2 8 0q2 -1 5 -1q7 0 10 -1h7q2 -1 5 -1q3 -7 0 -16v-1q1 -1 1 -2q-1 -1 -1 -5.5t-1 -6.5v-4q0 -3 -0.5 -10t-0.5 -11q0 -5 -1 -8q-1 -4 1 -8q0 -2 -1 -3q1 -2 1 -16v-1q-1 -2 -1 -14q0 -5 -2 -17q-1 -1 -1 -4l-4 -4
q-8 -11 -14 -16q0 -1 -2 -3l-7 -8q-1 -1 -2.5 -3.5t-3.5 -3.5q-4 -4 -4 -8l-14 -15l-5 -10q-3 -2 -7.5 -8t-7.5 -9q0 -5 -6 -10l-3 -3l-1 -2l-3 -3q-7 -7 -9 -12l-4 -5q0 -1 -8 -14l-3 -3q-4 -7 -11 -14l-2 -2l-2.5 -2.5t-2.5 -2t-2 -2t-2 -2.5q-1 -2 -4 -5t-4 -5
q0 -2 -4 -6l-6 -7q-1 -2 -3.5 -3.5t-3.5 -2.5v-3q-1 0 -6 -5q-2 -4 -4 -5l-2 -2l-8 -13l-8 -9l-6 -7q-1 -3 -5 -7q-4 -2 -5 -4l-4 -5q0 -3 -3 -4q-2 -1 -7 -9q-1 -3 -5 -7.5t-5 -6.5l-8 -11l-5 -5q-6 -5 -6 -7l-3 -4l-9 -8l-8 -9q-2 -4 -8 -10l-10 -11q-1 -2 -4 -5.5
t-4 -4.5l-5 -5l-11 -12q-3 -2 -8 -12l2 -5q-1 -1 -1 -2l1 -1v-3l5 -5q4 0 6 -1l10 2h7h9q4 0 7 -1h58q5 0 7 -1q1 1 4 0t4 -1q0 1 13 0h14h6h6h3h3h6h46q4 1 10 1q2 -1 3 0q2 1 6.5 1h6.5q11 0 13 1h3q5 0 8 1q1 1 6 1h2q4 1 11 1h2z" />
    <glyph glyph-name="bracketleft" unicode="[" horiz-adv-x="424" 
d="M307 807q6 -1 17.5 -1h16.5q1 -1 1 -3q2 -6 -1 -13q-1 -1 -1 -5v-82q-2 -2 -2 -5q-2 -4 1 -7q2 -3 -2 -5h-9h-11h-9q-5 0 -14.5 -0.5t-15.5 -0.5l-2 -1h-2q-2 0 -4 1q-1 0 -5 -2h-44q-4 0 -12 -2q-1 0 -3 -0.5t-3 -1.5q-5 -3 -5 -9l-4 -6q3 -14 0 -28q-1 -2 -1 -8
q-1 -23 -1 -70l-2 -5q0 -7 1 -9v-8v-3q0 -3 -1 -4l2 -6l-2 -5q0 -6 2 -8v-20v-2l-1 -2q2 -6 0 -10v-3q1 -1 0 -3.5t0 -4.5q1 -3 1 -8v-129q0 -6 0.5 -19t0.5 -19l2 -6l-2 -6v-9q0 -1 2 -5q0 -15 0.5 -43.5t0.5 -42.5q2 -6 2 -9v-33q0 -2 -2 -8q0 -8 -0.5 -25t-0.5 -26
q3 -5 6 -5h4q1 0 8 5h33q11 0 22 -2l9 2h29q2 0 3 -1t1 -2v-70q-2 -8 -2 -11v-22q0 -5 -1 -7q-2 -2 -2 -3q-4 -2 -18 -2q-6 -3 -11 -3q-2 0 -5 -0.5t-4 -0.5q-2 1 -13 1q-1 0 -3.5 -1.5t-4.5 -1.5q-8 0 -9 -1q-1 -2 -3 0q-2 1 -8 1h-33q-1 0 -4 -1q-5 1 -16 1h-71
q-16 0 -24 1q-4 0 -6 4l-3 8q0 2 -0.5 8.5t-0.5 9.5q1 24 1 72q0 6 1 9v4q-2 5 1 11v67q-2 8 -2 9v23q0 7 -0.5 23t-0.5 23q0 5 0.5 15t0.5 16q0 16 -0.5 48.5t-0.5 48.5v23q0 3 -1 5.5t-1 3.5l2 4v52q0 7 -1 10q0 1 0.5 2t0.5 2v24q0 1 -2 5q0 8 2 12q0 85 1 128l2 4
q-4 18 0 28q0 15 0.5 45t0.5 44l2 5l-2 6q0 1 1 3t1 3v18.5t1 17.5q1 2 4 2l3 1q1 0 3 0.5t3 0.5q2 0 3 -1q1 0 4.5 1t4.5 -1h11q6 5 12 0q1 1 3 1h2q2 -1 3 -1h14l6 2q6 1 18 1q1 0 5 2q10 0 15 1q2 0 6 2q9 0 13 -1q1 -1 5 1q22 0 33 1q2 0 3 1q1 0 3.5 -0.5t3.5 -0.5
q2 0 6 -0.5t6 -0.5q0 1 14 1l15 -1q7 0 10 -2z" />
    <glyph glyph-name="backslash" unicode="\" horiz-adv-x="473" 
d="M414 37q-4 -6 -10 -7l-13 -6q-10 -2 -14 -4q-11 -5 -28 -10l-16 -6l-15 -6h-7q-10 6 -12 15q-1 2 -5 11q0 1 -1 3q-2 4 -2 6q-1 2 -2 4.5t-2 5.5t-2 5q-5 10 -11 30l-8 21q-4 5 -5 11q0 3 -4 11q-2 3 -4.5 10l-3.5 10q0 3 -1 4q-3 6 -8 20l-3 12q-3 5 -6.5 15l-4.5 13
q0 2 -2 6q-1 2 -3.5 7.5t-3.5 8.5q-1 5 -5 15q0 2 -1.5 5.5t-1.5 4.5l-3 8q-1 1 -1.5 3t-1.5 4l-2 4l-2 8l-4 8l-2 8l-4 5l1 2v2q0 3 -1 5.5t-2.5 5t-2.5 4.5q-4 7 -6 15l-3 8q-4 6 -5 9q0 5 -3 9l-2.5 7.5t-3 8.5t-3.5 8q0 3 -1 5q-2 4 -4.5 11.5t-4.5 11.5l-2 4
q-4 14 -8 20l-3 8l-3 7q0 4 -6 12q0 4 -1 7q0 2 -2.5 7t-3.5 8l-2 4l-3 6q-5 15 -7 19q-11 22 -12 25q0 1 -1 3l-9 19q0 3 -3 9t-4 10q-3 5 -6.5 13.5t-4.5 11.5q-5 9 -5 11l-3 7q-2 4 -4 6q1 4 -3 16q-5 14 -8 20q-2 4 -4 12l-7 17q-4 10 -5 16q0 2 -2 6l-3 8q-2 5 3 8
q2 1 9 5t12 5q10 6 23 9l4 2q3 3 5 3t4.5 1.5t3.5 1.5q12 6 18 6q2 2 7.5 3t6.5 2q2 2 5 -3q1 -3 8 -17l6 -16l2 -4q0 -5 3 -11.5t4 -8.5q1 -6 9 -18l2 -4q1 -4 5 -12q2 -8 4 -12q2 -3 3.5 -8.5t2.5 -6.5l8 -15l2 -6l4 -5v-3l2 -6q1 -2 3.5 -7.5t3.5 -8.5q0 -3 4 -11
q6 -11 14 -35q7 -24 15 -37q1 -2 2.5 -7.5t2.5 -7.5q0 -1 2 -5.5t2 -6.5q4 -8 5 -12q5 -12 5 -13q1 -3 4 -9.5t4 -10.5q0 -3 3 -7t3 -7q0 -2 5 -12q0 -4 1 -6q0 -2 2 -5.5t3 -5.5q6 -12 7 -18q2 -2 3 -6t2 -5l3 -10l5 -10l2 -7l3 -9t4 -9q4 -6 7 -18l2 -4l6 -13q1 -4 5 -12
l2 -8l4 -8q2 -6 7 -16.5t6 -13.5l6 -15q5 -14 10 -26q4 -6 5 -10q0 -2 1.5 -5.5t1.5 -6.5l3 -9l3 -8q2 -3 4.5 -9.5t3.5 -8.5l2 -6t2 -6.5t2 -5.5l2 -4l4 -6q1 -2 3 -7t2 -8q2 -8 7 -22.5l7 -20.5z" />
    <glyph glyph-name="bracketright" unicode="]" horiz-adv-x="403" 
d="M289 820l7 -4q1 -1 1 -3q1 -24 1 -72q0 -13 -1 -15t-1 -7q0 -35 1 -53v-22l-2 -8v-49q1 -7 1 -21v-21q2 -6 -2 -13q2 -3 2 -11q-2 -1 -1 -5t-1 -5v-38q0 -6 -1 -9q3 -8 -1 -16l2 -4q-2 -6 -2 -8v-31q0 -8 -1 -12q-1 -2 -1 -8q0 -11 0.5 -32t0.5 -32q1 -3 0 -7.5t-1 -6.5
q-1 -2 -1 -6v-50q-2 -10 -2 -11v-20q0 -1 -2 -7l2 -3v-8q-2 -2 -2 -4q0 -4 -0.5 -11t-0.5 -11q0 -3 -2 -5v-24q0 -7 -1 -10q-1 -2 -1 -5q0 -7 -1 -10v-12q-1 -1 0 -4.5t-1 -4.5v-18v-61q0 -6 -1 -10q-1 -1 -1 -5v-23q0 -1 -0.5 -3.5t-0.5 -4.5t1 -3q0 -1 -2 -7v-13
q0 -4 -4 -6l-2 -1q-6 -1 -18 -1l-4 -2q-2 0 -6 -0.5t-6 -0.5q-8 0 -11 -2q-13 -2 -19 0q-2 0 -3.5 -0.5t-2.5 -0.5l-83 -2l-6 -3q-16 0 -24 -1q-1 0 -2 -0.5t-2 -0.5t-5.5 1t-6.5 4q-1 1 -1.5 6.5t-2.5 8.5q3 8 0 14q-1 4 -1 12t-0.5 25.5t-0.5 26.5v33q0 2 7 5
q4 1 11.5 1.5t9.5 0.5q1 0 3 1t3 1q3 1 9 1q10 0 15 2q2 2 5 0q6 -3 11 0q1 0 3 -0.5t3 -0.5q5 3 7 8v30l-2 4q2 3 2 12q0 8 1 12q1 1 1 5v54q2 4 2 20v28l2 8v27q0 10 2 15t-1 9q-3 5 1 12v51l2 6v9q0 10 -0.5 30t-0.5 30v9q2 6 2 8l-2 5q0 25 -1 38q4 9 2 27q0 1 -2 5v13
q0 1 2 5v23q0 10 -0.5 30t-0.5 30q0 3 2 9v33q2 4 2 6q1 3 1 8l-5 9h-13q-4 1 -13 1q-1 0 -3 1h-1h-16l-5 -2l-56 -2q-1 1 -3 1q0 1 -0.5 2t-0.5 2v31q-1 16 -1 49v12v8l1 1q2 0 8 2t9 2q4 0 7 3q5 0 15.5 0.5t15.5 0.5q1 1 2 1q2 1 3 1q30 1 90.5 2t90.5 2z" />
    <glyph glyph-name="asciicircum" unicode="^" horiz-adv-x="397" 
d="M51 625l5 6l13 12l5 4l8 7q2 2 6.5 5.5t6.5 5.5q2 1 6 4.5t5 4.5q8 6 12 8q2 2 6 4q3 4 10.5 10t10.5 9l7 5q2 0 5 3l18 15q4 4 9 5l2 -2l10 -8q2 -1 5.5 -4t4.5 -3q4 -2 14 -12l5 -7q8 -5 14 -12q13 -13 19 -16q2 -2 7.5 -6t6.5 -5l12 -12q3 -2 7 -8q1 -3 5 -7
q6 -4 11 -12q-7 -8 -27 -20q-1 0 -2.5 -2t-3.5 -3l-7 -5l-6 -5l-8 -4l-8 7q-12 14 -20 19l-9 10l-6 8l-26 25q-11 4 -13 4q-2 -1 -5.5 -4.5t-5.5 -4.5l-22 -20l-15 -16q-3 -3 -10.5 -8t-9.5 -7q-5 -4 -13 -7h-2q-1 1 -2 1l-9 8l-2 3q-5 7 -15 14q-6 5 -9 13z" />
    <glyph glyph-name="underscore" unicode="_" horiz-adv-x="319" 
d="M255 -98v-8q-4 -7 -7 -8q-5 -1 -35 -1l-3 2l-4 -2q-4 -1 -9 2q-2 0 -5.5 0.5t-5.5 0.5q-14 0 -42.5 -0.5t-41.5 -0.5l-6 -2h-18l-4 2q-3 -2 -10 0h-12q-2 0 -6 -2h-15q-2 1 -3 3.5t-2 3.5v1q-1 1 -1 2v6v31.5t1 31.5q2 8 2 11q0 4 5 6q5 1 15 1h77q6 2 10 0h21l3 2l5 -2
l6 3h44l5 -3h23l2 2q3 1 5 1q7 0 9 -6q-6 -14 0 -23l-3 -9q0 -6 -2 -9q0 -2 2 -6q0 -13 -2 -16q2 -4 0 -7q0 -1 2 -7z" />
    <glyph glyph-name="grave" unicode="`" horiz-adv-x="298" 
d="M199 598h-1l-10 -2q-3 -1 -8 -1q-32 0 -47 -1q-1 1 -3 1q-11 9 -15 20q-1 2 -5 8.5t-6 10.5q-4 9 -11 17l-5 7q-1 2 -3.5 6.5t-4.5 6.5l-9 16q-7 8 -10 15l-5 7q-4 3 -6 11l2 2q14 0 20 1q1 0 5 2q21 0 31 1q2 0 4 2h10l6 -3h16q6 -3 7 -4q7 -10 10 -21q5 -9 5 -11
q3 -9 4 -11q0 -2 1.5 -5.5t1.5 -5.5l1 -1q1 -3 4 -8.5t4 -7.5q1 -5 5 -15q4 -5 6 -13q1 -1 2.5 -5.5t2.5 -6.5q3 -5 1 -12z" />
    <glyph glyph-name="a" unicode="a" horiz-adv-x="621" 
d="M53 339q0 2 2 13q0 6 3 12q1 2 1.5 6.5t2.5 6.5q1 2 1 6l2 3l2 6q3 3 3 7l2 2l4 8q5 5 6 8l7 14l4 6l9 11l7 5q2 1 6 5t7 5q2 2 6 4t5 3l2 1q10 5 15 9h1q1 1 2 1l7 2l7 5q6 2 9 4q2 1 6 1q2 1 4 1q5 5 11 6l14 4l1 -1l6 3h35h6t6 -1h4l15 -2h3q1 0 4 -1t4 -1q4 0 7 -3
l8 -2q1 0 4 -0.5t5 -1.5l11 -3q4 0 9 -3l6 -2q0 -2 3 -3l2 -1h2q0 -2 1 -3l9 -6h6l1 1q0 2 3 2l4 2q0 5 -1 8v11q0 2 1 2q7 3 13 1h4q8 1 17 -3l1 1h2t3.5 0.5t4.5 0.5t4.5 -0.5t3.5 -0.5t4 -0.5t4 -1.5q5 1 11 0l2 2q2 0 4 -2q5 1 11 -1q3 0 5 2h2q2 0 4.5 -0.5t3.5 -0.5h9
q1 -1 2 -1q1 -2 0 -6.5t-1 -5.5v-4t-1 -5t-1 -4.5v-4.5q-1 -5 -1 -28q0 -4 -1 -6q1 -1 0 -3.5t-1 -3.5q0 -8 -1 -10q1 -1 0.5 -3t-0.5 -3q1 0 1 -5q-1 -3 -1 -10q0 -3 -1 -5q-1 -1 -1 -3v-12q0 -4 -1 -6q1 -2 1 -12v-4t-1 -3v-7v-5q0 -1 1 -3v-2v-3l-1 -2v-7q0 -1 0.5 -2
t0.5 -2q-1 -2 -1 -6v-29q0 -4 -2 -7q2 -5 1 -6l2 -7l-3 -3l3 -16v-3l1 -2v-4q1 -5 3 -10t5 -11t4 -9q0 -2 3 -3q0 -2 1 -3l9 -11q4 -4 8 -5h1l11 -4q8 -2 11 -1q1 -3 1 -8v-6v-33l-2 -4q1 -1 1 -2t-1 -2v-2v-9q1 -2 0 -3.5t-1 -2.5v-6q0 -2 -2 -4l2 -11l-1 -1v-1q2 -4 0 -9
q-2 -6 -2 -10q-10 -4 -14 -4q-7 0 -10 -1h-4l-8 2q-2 -1 -13 -1q-4 2 -13 2l-6 3h-3q-2 2 -7.5 3.5t-7.5 2.5l-14 7l-1 1q-2 2 -12 10q-3 3 -7 11l-6 11q-1 -1 -3 -1q-1 0 -5 2l-6 -3q-2 -2 -3.5 -5l-2.5 -5l-10.5 -7t-11.5 -7q-1 0 -8 -5q-6 -4 -10 -5l-7 -4q-8 -3 -24 -11
h-6q0 -1 -1 -1l-6 -3q-5 0 -7 -1q-1 0 -4.5 -0.5t-5.5 -1.5h-9h-36q-6 0 -8 1q-4 0 -7 -1l-5 3h-7q-2 1 -7 1q-6 2 -8 2q0 2 -2 2q-14 2 -17 5q-1 0 -3 -1q-1 0 -6.5 2t-9.5 4h-2.5t-2.5 1q-1 0 -2.5 1.5t-2.5 1.5q-2 0 -6 5q-4 1 -12 5q-1 1 -4 2t-4 2q-1 0 -2 1t-2 2.5
t-2 2.5q-2 1 -6.5 5t-6.5 5q-1 0 -6 5q-2 1 -3 3t-2.5 4.5t-2.5 3.5t-8 11q0 1 -1 1q-2 2 -5.5 7t-5.5 7l-2 6q-7 11 -8 15l-4 9q0 8 -3 16q0 2 -0.5 5t-1 5.5t-1.5 4.5v3q-3 5 -3 16l-2 8v13q-2 2 -2 6q1 12 1 34v11q0 1 0.5 3.5t0.5 4.5q0 5 1 7v3q0 1 0.5 5t1.5 6v3
q0 8 2 11zM157 265q-1 -2 0 -4t1 -3q8 -23 9 -25q4 -8 9 -13q7 -9 15 -13l9 -6q6 -6 13 -6l3 -2q12 -3 13 -3h4q2 -1 6.5 0t6.5 -1l4 2q2 -1 5 -1l8 2q1 0 2 -1q8 3 24 11l12 11l3 3t4 3l6 5l3 4q10 12 11 20q0 3 1 4l3 6q0 1 0.5 3t0.5 3q2 4 2 7q0 10 1 15v9q0 1 -1 4.5
t0 5.5q0 1 -1 3t-1 5v2l-3 4v3v2l-1 2l-9 14l-6 8l-4 4q-4 6 -9 8q-2 2 -6 4l-2 3q-5 3 -13 7l-10 5q-8 0 -11 1q-1 0 -4.5 0.5t-5.5 1.5q-3 0 -9 2l-7 -3q-1 -1 -5 1l-4 -2q-1 0 -4 -0.5t-4 -1.5q-2 -2 -8 -6l-9 -6q-1 0 -9 -8l-8 -9q-1 -2 -6.5 -9.5t-7.5 -12.5
q0 -1 -1 -2.5t-1 -2.5q-1 -2 -4 -13q0 -3 -2 -9q-1 -3 -1 -10l-2 -10v-9v-6z" />
    <glyph glyph-name="b" unicode="b" horiz-adv-x="530" 
d="M68 421q0 19 -1 29v14q0 1 0.5 3t0.5 4q0 1 -0.5 3t-0.5 3v10q0 4 2 10q0 6 1 8v9v8q1 0 1 1t-1 1q-1 2 0 5v1q-1 2 0 3q2 3 -1 6l2 6v6q0 2 -2 6q1 2 1 7v4q1 4 0 4v7q-1 3 1 8q0 1 -0.5 3t-0.5 3t0.5 2.5t1.5 2.5q-2 6 -2 8q0 4 -1 6q0 1 -0.5 3t-0.5 3v5q0 9 1 10
q0 13 -1 15v5q0 2 -0.5 7t-1.5 8q0 4 1 6v14v6q0 2 -1 3q0 1 -0.5 3t-0.5 3l1 2q0 2 1 2q-1 2 -1 4q0 6 1 10l1 1l2 1q11 0 13 -1h1l2 1h13q0 1 1 1l2 1q1 -1 3 -1h1l2 1q1 -1 3.5 -1h4.5q6 -2 12 1h2q1 -1 4 0t5 0q1 -1 3 -1h2l2 1q1 0 2 -1h2q8 0 12 -1h9h9l2 -1h3
q3 1 9 1q1 -1 1 -3q0 -4 1 -6q2 -2 0 -4v-12q-1 -4 -1 -12q0 -9 -1 -11q2 -4 2 -8v-19q0 -3 -1 -5l1 -1q0 -2 -1 -3v-9v-19q0 -5 1 -7v-6q-1 -4 -1 -10q1 -7 0 -13q-1 -7 -1 -19q0 -1 -0.5 -2.5t-0.5 -2.5t0.5 -3.5t0.5 -3.5t-2 -7l2 -2v-3.5t1 -3.5q1 -2 1 -6q0 -5 -1 -8
l4 -4q6 -2 11 -1h2q3 -2 10 0q2 0 10 -2t13 -2q1 0 3.5 -1t4.5 0h8q3 -1 8 -1.5t6 -0.5q2 1 6 0t5 -1h7q1 -1 3 -1q5 0 7 -1q1 -1 4 -1.5t5 -1.5q3 -1 10 -1l14 -4q2 0 3 -1l12 -6q8 -4 12 -5q2 -2 6 -4l7 -6q1 -1 2 -1q2 -1 3 -1q4 -6 7 -8l12 -9q2 -2 2 -3q1 -2 4 -5.5
t4 -5.5q3 -2 5 -7q1 -1 3.5 -5.5t3.5 -7.5l1 -2q1 -2 2 -3l1 -1q1 -2 1 -3q4 -11 5 -14q1 -2 1 -5l2 -3v-2l3 -12v-1l1 -2q0 -2 0.5 -6t0.5 -6l1 -6q1 -5 2 -7v-3q0 -1 0.5 -4t1.5 -4v-10q2 -6 2 -9q0 -6 1 -9q0 -1 0.5 -3.5t1.5 -4.5v-4v-13v-1v-8q0 -7 -1 -8v-16
q0 -5 -1 -6v-4q0 -5 -2 -13q-2 -10 -4 -14q-1 -5 -5 -20q0 -1 -1 -3q-2 -10 -6 -21q-4 -8 -5 -12v-2q-2 -2 -6 -10l-9 -15q-1 -1 -1 -2q-1 -2 -1 -3q-5 -4 -15 -18q0 -2 -2 -2q-2 -1 -3 -3t-2 -2q-2 0 -6 -5q-18 -13 -21 -14q-1 0 -4 -3l-16 -6q-2 0 -8 -2h-2q-3 -3 -12 -5
l-8 -3q-3 -1 -7 -1q-1 -1 -3.5 -1h-3.5h-7q-4 -2 -7 -2q-1 0 -4 -1t-5 0q-2 0 -4.5 -0.5t-3.5 -0.5h-5q-1 -1 -4 -1q-15 0 -18 1h-3q-5 0 -7 1q-6 2 -11 0q-2 -1 -14 -1l-2 1l-16 -3q-3 0 -5 1h-8q-1 -1 -5 -1q-2 1 -6.5 1.5t-5.5 0.5q-3 1 -9 1q-2 0 -6 -0.5t-6 -0.5h-11
q-1 1 -2 1q-3 -1 -11 -1q-4 1 -11 1q-6 0 -9 2l-15 -3h-4h-1q-1 1 -2 1q0 11 1 13v15q-1 1 -1 3t-0.5 4t-0.5 4v4q1 5 0 5v30q0 3 1 5q-1 1 -1 2q0 3 1 4q-2 7 -1 16q1 2 1 4v7v8q1 11 0 20q-1 1 -1 2q1 1 1 3v2v7q-1 1 -1 3q0 1 0.5 3t0.5 3v6q1 1 -1 6q2 4 1 8q-1 2 -1 16
q0 1 0.5 2.5t0.5 2.5q0 21 -1 32q0 1 0.5 2.5t0.5 2.5v5q0 1 0.5 3t0.5 3q0 4 1 5q-1 3 -1 8q-1 5 -1 15v3q1 3 1.5 8t0.5 7q0 5 -0.5 15.5t-0.5 15.5q0 4 -1 5v2q1 2 0.5 4t-0.5 3q1 3 0 7v5q0 3 -1 5zM322 288q-2 2 -2 4q1 7 -3 19q-1 1 -1 2q0 3 -5 10v3l-4 6q-3 6 -9 12
q-4 4 -5 6l-6 5q-8 6 -12 7q-7 1 -13 6h-2h-4.5t-5.5 2q-2 -1 -10 2h-8h-10q-2 0 -8 -2q-3 -2 -5 -5q-4 -4 -4 -6v-5v-8v-34q0 -5 2 -15v-12q0 -9 -1 -14v-8v-10q0 -4 -1 -6q-1 -3 0 -7q0 -12 1 -15v-13q1 -4 -1 -11v-2q3 -3 1 -7q-2 -2 0 -6l5 -4q2 0 3 -1q2 -1 7 -1
q1 0 3.5 -0.5t3.5 -0.5h12q2 0 5 0.5t4 0.5q2 0 5 1t5.5 1.5t4.5 0.5l9 3q12 2 17 8l4 2q4 2 5 4l6 9v4q2 2 4 6.5t3 6.5q1 1 6 14v5l3 8q0 2 0.5 7.5t0.5 8.5v19z" />
    <glyph glyph-name="c" unicode="c" horiz-adv-x="500" 
d="M284 505l1 -1h2h2h2q5 0 17 -2q2 0 13 -6h1q2 -1 3 -1q7 -1 17 -7l18 -6h2q2 -1 3 -1q5 -5 27 -22l3 -3q5 -2 6 -5q1 -1 3 -2.5t2 -2.5q1 -5 5 -11q0 -1 -1 -3l-9 -10l-11 -10q-4 -4 -8.5 -8t-9.5 -9.5t-8 -8.5l-8 -7l-7 -6q-1 -1 -5.5 -6t-6.5 -8l-7 -4l-5 4
q-1 0 -2.5 1.5t-2.5 1.5q-1 1 -4 2t-4 2q-4 0 -10 4q-2 0 -4 2q-11 0 -13 1q-1 1 -5 1h-13q-1 0 -7 -2q-1 1 -2 1l-16 -3q-1 0 -3 -2h-5l-4 -3l-10 -4q-2 -1 -4 -2.5t-3 -1.5l-3 -2l-3 -3q-8 -8 -15 -20l-8 -10q-2 -10 -6 -17v-5q-4 -7 -6 -23v-3q1 -1 1 -8q1 -3 1 -8.5
v-8.5v-3.5v-3.5q2 -6 2 -9q2 -2 4 -7t4 -7l1 -1q3 -8 8 -10l6 -4q1 -1 16 -11q1 0 2 -1q2 -2 3 -2h1l1 -1q2 -1 9 -3t10 -3q6 -3 13 -3h3q2 -1 5 -1h15q20 2 25 4q2 1 5.5 2.5t5.5 2.5l12 5q1 1 3 1l7 5q3 1 8 6q0 1 5 3q2 2 4 6q4 0 5 -2l8 -9l2 -3q3 -4 6 -6
q0 -1 1.5 -2.5t2.5 -3.5q1 0 1 -0.5t1 -0.5q10 -12 12 -14l2 -3q3 -5 8 -8q3 -1 4 -4q2 -3 5 -5l5 -8q10 -10 12 -15q0 -1 -1 -2l-7 -6q-5 -6 -7 -6l-3 -3q-6 -7 -14 -12q-2 -1 -6 -5q-2 -1 -8.5 -6t-10.5 -6q-3 -2 -9 -4t-8 -3q-1 -1 -3 -1q-6 -2 -9 -4q-1 -2 -9 -4l-12 -4
q-6 -2 -10 -2h-2l-2 -1l-9 -3q-2 1 -5 1q-10 0 -11 -1q-3 0 -8 -1t-7 -1t-7 -0.5t-8 -0.5q-4 0 -7 -1q-1 0 -3 -1t-4 -1t-7 1.5t-8 1.5q-5 0 -7 1t-6 -1q-8 4 -14 4q-1 0 -3.5 0.5t-3.5 0.5q-10 3 -22 8h-7q-2 1 -4 2.5t-3 1.5l-6 3l-16 11l-10 8q-2 1 -5 4.5t-5 4.5l-2 2
l-8 8q-1 0 -1 1l-1 2q-4 4 -6 5l-12 17q-8 12 -11 16q0 2 -1 4l-3 6q0 3 -2 5q-4 6 -8 20q-1 1 -1 2q0 2 -1.5 7.5t-1.5 8.5q-1 1 -1.5 4t-0.5 4t-1 3.5t0 4.5q0 1 -0.5 2.5t-0.5 2.5q1 3 -1 5q0 4 -1 5v31q0 5 1 8v3t1 2v9q0 9 1 10v3q0 8 3 16l4 21q2 4 2 7q0 1 0.5 3.5
t0.5 3.5t3 7l3 7q4 10 7 15q1 6 5 11q2 2 3.5 4.5t3 5.5l2.5 5l3 3l4 7l5 6q2 0 4 4q14 18 18 22q10 10 16 14q0 1 2.5 1.5t3.5 2.5l6 3l10.5 5.5t8.5 4.5l6 3q4 0 7 3l2 1q7 1 14 5q1 0 4 0.5t5 1.5q6 2 9 2t7 2q2 0 4 0.5t4 0.5q2 1 6 1.5t6 1.5q1 0 4 1h5h18h4
q2 -1 13 -1z" />
    <glyph glyph-name="d" unicode="d" horiz-adv-x="531" 
d="M412 734q1 2 6 0.5t6 -1.5l2 -2q-1 -3 -1 -16v-27q0 -5 -1 -7v-7v-7q1 -3 1.5 -8t0.5 -6v-11l-2 -4l2 -5v-15q0 -1 0.5 -3t0.5 -3v-6q1 -4 -1 -8q2 -2 2 -8q0 -13 1 -19v-9q1 -1 1 -3.5v-3.5v-6q-1 -3 -1 -14q0 -1 2 -3q-2 -3 -2 -10v-14v-7q-1 -1 -1 -4q0 -11 1 -16v-4
q1 -2 1 -7v-30v-3l-1 -2v-6q0 -6 -1 -8v-5q0 -11 -1 -13q0 -11 1 -13q0 -1 -1 -6q3 -6 0 -12q2 -4 2 -12v-26q0 -3 -1 -5v-4v-34q2 -5 -1 -11l2 -4q-2 -4 -2 -7v-5q2 -10 0 -19v-5q-1 -1 0 -1v-12q-1 -4 -1 -13v-9v-4v-24q0 -1 -0.5 -3t-0.5 -3q0 -2 1 -4q-1 -3 -1 -10v-6
q0 -9 -1 -13v-4v-4v-6q0 -1 -0.5 -3t-0.5 -3q2 -5 0 -12q1 -3 1 -9q-1 0 0 -5v-4q0 -1 -0.5 -3t-0.5 -3q0 -6 -1 -9v-2v-6q0 -1 -2 -5v-2q-2 -2 -6 -4l-7 -3h-9h-9q-1 1 -4.5 1h-4.5h-2l-2 -1q-2 0 -3 1q-3 -2 -10 -2h-9q-3 0 -4 -1l-1 1h-2q-4 -2 -7 -1h-2q-2 0 -3 1h-16
q-3 0 -10.5 -0.5t-11.5 -0.5q-5 0 -8 1h-2h-20q-4 0 -7 1q-1 1 -4 1h-6q-3 -1 -7 1h-6q-2 0 -4 0.5t-3 0.5q-6 2 -11 1q-8 0 -11 2h-3q-5 0 -9 1q-1 -1 -3 -1q-6 2 -9 0q-4 2 -12.5 3.5t-12.5 3.5h-5q-6 2 -9 2l-11 6q-6 4 -9 5q-7 5 -8 5q-3 2 -9 4q0 1 -2 3q0 1 -2.5 2
t-3.5 3q-4 4 -6 5q-1 0 -2.5 2t-3.5 3l-5 5q-3 1 -4 4q-10 15 -11 17q-4 9 -5 11q-2 8 -4 13q-1 1 -1 3v3q-2 4 -2 5l-2 6q0 1 -0.5 3t-0.5 3v1l-2 2q1 1 1 3q-3 9 -3 21v19q-2 5 -2 17q0 11 1 17q2 10 2 16v5v1q1 1 1 2q-1 2 0 6.5t1 5.5v1q2 2 2.5 6.5t1.5 6.5q2 6 2 10
q0 5 1 7q1 1 1.5 3l1 4t0.5 3q2 5 4 11q0 1 1 3q2 4 2 6l1 2q3 3 3 11l4 4q0 2 2 6t2 6l6 10l9 11q0 2 1 3q9 12 10 13l11 11q2 3 7 4l2 4q1 0 5 2q8 8 16 12l7 5q1 0 8 5q4 2 10 4l4 4h5l4 4q8 2 13 4q2 1 5 1.5t4 0.5h4q3 1 10 1h14q5 0 8 -1l2 1q13 0 19 1q3 0 5 -1t7 1
l13 -3q7 0 10 2h4q2 3 0 5v11q1 1 1 3q-1 3 -1 10q0 1 -0.5 3t-0.5 4l1 2v3q0 4 1 5q-3 3 0 6q-1 2 -1 6q-1 8 -1 22q0 5 1 8v5v3v3v6v6q0 1 0.5 3t0.5 3q-1 3 0 9q0 6 -1 7q1 2 1 5q0 8 1 13q-1 1 -1 2v7q1 2 1 6v6q0 1 -0.5 2.5t-0.5 2.5t0.5 3t0.5 4q0 5 1 7v31q0 6 1 9
v10v4l3 2q2 0 10 2q9 -1 19 1h14q1 0 3 0.5t4 0.5h8q2 2 5 0q0 -1 8 -1l7 1q3 1 9 1h10h4zM302 188l-2 6v6q0 2 0.5 5.5t0.5 5.5v14t1 14q0 1 -1 1q0 1 0.5 3t-0.5 3v5v3q2 4 0 11q1 3 1 8v9q1 3 1 7v18q0 5 -1 7v2q1 2 1 5q0 11 1 14v1l-2 3q2 3 0 11l3 4q-1 3 -6 11l-7 5
q-2 0 -6 1t-6 -1h-1q-1 1 -2 1h-5q-1 0 -5 -1t-6 0h-1l-2 -1q-4 -2 -5 -2t-10 -2l-9 -3l-2 -1q-4 0 -6 -2l-10 -7q-2 1 -4 -2l-2 -2h-2l-4 -4q-4 -2 -15 -13q-8 -10 -10 -16l-3 -3l-4 -7q0 -2 1 -2q-3 -3 -3 -5l-3 -9q-1 -3 -2 -8.5t-2 -8.5l1 -2v-2v-5q0 -1 -0.5 -2
t-0.5 -2q1 -2 1 -5q1 -2 1 -7v-8q1 -2 2 -4.5t2 -5.5t2 -5q1 -1 1 -3.5v-4.5l3 -5q1 -1 2 -3t2 -3q3 -3 3 -6q3 -1 3 -5q4 -4 12 -9t11 -8l4 -2q1 -1 10 -3h3t2 -1l12 -4q5 -1 12 -1h3q1 0 3 -2q1 0 1 0.5t1 0.5q15 -3 19 -2q5 2 8 0h8l3 2l4 8q-1 1 -1 3q-1 1 -1 5z" />
    <glyph glyph-name="e" unicode="e" horiz-adv-x="547" 
d="M175 510q4 1 9 1q24 8 35 8q2 1 8 1h28q1 0 5 0.5t5 1.5h20q1 0 5.5 -1t5.5 -1h19q7 0 11 -3q3 0 9.5 -1.5t9.5 -1.5q1 0 7.5 -3.5t10.5 -3.5q1 0 2 -0.5t2 -0.5l18 -9q4 -2 19 -12q2 -1 7.5 -7t8.5 -8l13 -14l11 -22q5 -11 6 -14l2 -4q3 -5 7 -19q0 -2 1.5 -6.5
t1.5 -6.5q4 -10 2 -18q0 -1 1.5 -4t1.5 -4t0.5 -5t1.5 -6q1 -1 1 -3.5v-3.5q0 -2 -1 -7t0 -8t1 -10v-13q0 -2 0.5 -5t0.5 -4q-2 -4 -2 -5q0 -4 -0.5 -11t-0.5 -10q0 -1 -1 -3q-1 -4 -2 -4t-5 -0.5t-5 -1.5t-3.5 0t-3.5 1l-5 -2q-12 -1 -37 -1h-1q-1 -1 -2 -1q-3 0 -4 1
q-8 -2 -31 -2h-1l-3 2h-31q-11 -4 -18 -1l-1 1h-3h-6h-1q-2 -1 -3 -1l-2 1h-3h-53q-27 0 -38 1q-1 0 -5 -1t-6 -1h-7q-1 -1 -4 -1t-4 -2l-1 -5v-6q0 -21 1 -34q1 -2 3 -7.5t3 -8.5v-2q5 -7 10 -16q1 -2 4 -4.5t4 -3.5q3 -1 16 -12q8 -3 11 -5l12 -3q3 -2 11 -4q2 -1 8 -1.5
t7 -1.5q2 0 10.5 -0.5t12.5 -1.5h4q14 2 17 1l6 2h9l5 3q13 0 19 1t11 5q7 0 13 3q3 -1 7.5 1t6.5 2t6.5 1.5t7.5 0.5q1 0 3 -2q5 -15 5 -19q0 -1 1.5 -3t2 -4t0.5 -4t2 -8t2 -8q3 -9 3 -11q4 -7 4 -25q-1 -1 -10 -6l-25 -12l-11 -6q-6 0 -8 -1t-8 -2t-8 -3q-11 0 -16 -1
q-3 0 -7 -2q-5 0 -15.5 -0.5t-16.5 -0.5q-2 0 -6 -2h-12q-4 0 -6 1q-4 2 -13 2h-26l-5 3h-11q-11 3 -13 4q-1 0 -5 1t-7.5 1.5t-4.5 1.5q-2 1 -11 1q-9 6 -12 5q-2 2 -10 4t-9 3l-13 9t-14 9q-1 2 -7 8l-8 8q-7 8 -9 12l-14 22q-10 16 -11 20l-11 27q-1 2 -1 7
q-1 2 -3.5 8.5t-4.5 8.5v7.5t-1 6.5q-1 2 -1 5q0 1 -1 6t-2 8q0 2 -0.5 6.5t-0.5 6.5v12q0 3 -2 9v10q1 1 1 2q1 2 1 3q0 28 1 42q0 2 2 6q0 2 0.5 6.5t0.5 6.5q2 2 2 4q0 3 2 10t2 11q0 2 1.5 5.5t1.5 5.5q1 3 3.5 8.5t3.5 8.5q2 6 7 13l7 11l7 10q1 1 2 2.5t2 3.5t2 3
l11 14q6 11 31 32q3 3 22 15zM363 331v15l-3 8v7q-4 9 -6 15q0 5 -4 13l-14 13q-10 10 -16 12q-6 0 -9 1q-1 0 -4 1.5t-4 1.5q-10 2 -17 2h-24q-4 -3 -16 -3q-11 -6 -13 -6q-3 0 -4 -1t-7.5 -5.5t-9.5 -7.5q-6 -7 -14 -12l-3 -7q-8 -8 -8 -20q-2 -2 -3 -8v-5q-2 -10 -2 -11
v-6l8 -11l2 -2q1 0 2 -1h5q4 2 11 -1q2 -1 7 1q3 0 4 1q3 0 9 -0.5t8 -0.5q7 0 23 -0.5t23 -0.5q24 0 35 1q3 0 8 0.5t8 0.5q19 0 23 -1l4 4q3 6 1 13z" />
    <glyph glyph-name="f" unicode="f" horiz-adv-x="436" 
d="M248 92l-2 -6v-14q0 -9 -1 -13l-2 -2h-33q-3 0 -4 1q-4 -2 -6 -2q-10 0 -32 -0.5t-32 -0.5q-1 0 -2.5 0.5t-2.5 0.5q-2 2 -2 3q2 5 -1 10q0 2 -0.5 6.5t-0.5 6.5v53q-1 30 -1 89l-2 62l-6 7q-2 1 -14 1h-9l-3 1q-3 1 -5 0q-3 1 -10 1h-26q-2 2 -3 2v33v3l1 2q-1 2 -1 6
q0 1 0.5 4.5t-0.5 5.5q0 2 -0.5 4.5t-0.5 3.5t0.5 3t0.5 3q2 7 0 14v6q-3 7 1 16l-2 5q-1 3 1 9q1 1 1 3v13l2 2h10h3l1 -1h3q4 2 12 2q3 1 11 1h12h23l7 4l1 1v2v2q-1 0 0 25v26q0 8 2 13v7v14l3 7v8q0 7 2 10v4q0 3 2 10t2 11q1 3 3.5 11.5t4.5 13.5q5 14 9 20q2 2 5 8
t6 9q2 5 6 8q0 1 3 4.5t4 5.5t3 4.5t3 3.5l30 30l21 11q9 7 13 7q8 5 10 5q2 1 5.5 2.5t4.5 1.5l10 3q12 3 14 3q4 2 13 2l8 3q13 1 40 1q1 0 1 -1q1 0 2 -1v-58q0 -15 -2 -19v-31q-1 -2 -4 -2t-4 -1t-4.5 -1.5t-5.5 -2.5q-1 -1 -4.5 -1.5t-4.5 -0.5l-25 -12l-13 -13
q-7 -7 -9 -12q-4 -4 -9 -12.5t-7 -11.5q-7 -10 -9 -28l-3 -9v-8q0 -5 -1 -7q1 -3 -1 -9v-45q0 -6 -2 -9l3 -5q1 -2 12 -7q10 2 15 2l3 -2q2 2 5 2q5 0 15.5 0.5t15.5 0.5q6 0 9 -1l1 -1q0 -12 -1 -15t-1 -10v-15q0 -1 -0.5 -4.5t-1.5 -5.5q-1 -1 -1 -5v-11q0 -13 -2 -17v-6
q0 -14 -1 -21l-3 -11q-1 -1 -2 -1q-12 0 -18 -1q-24 0 -37 -1q-1 0 -3 -0.5t-4.5 -1.5t-3.5 -1l-4 -8q-1 -12 -1 -36q0 -1 -1 -2v-2q3 -7 0 -13q-1 -12 -1 -37v-6q-3 -5 -1 -14v-2l1 -2q1 -2 0 -4.5t-1 -3.5v-82z" />
    <glyph glyph-name="g" unicode="g" horiz-adv-x="545" 
d="M54 198q0 12 -1 17q-2 8 -2 9q0 3 -0.5 11t-0.5 12q0 1 -1 3t-1 4v42l3 23q0 8 2 11q1 2 1 5q0 2 2 8q0 2 0.5 6t0.5 5l4 12l1 2q2 3 3 4q0 6 4 14l9 18q2 4 4 7l15 18l5 7q2 4 9 9l10 9q3 3 10 7.5t9 6.5l7 5q8 3 9 4q6 5 12 6l1 1h2t3 1q4 2 6 2q1 0 5.5 2t6.5 2
t5.5 1.5t5.5 1.5q1 0 4.5 1t5.5 1t6 0.5t6 0.5h1q1 1 2 1q2 1 3 1q28 1 58 0q6 -2 9 -2l14 -3q1 0 5 -2t6 -1q2 0 5 -1.5t5 -1.5q4 -2 19 -7q3 -1 8.5 -3.5t7.5 -3.5l9 -6t9 -5q1 -2 5 -5t5 -5l10 -11q1 -2 4.5 -6t4.5 -7l7 -5q0 -1 1 -2.5t1.5 -3t1.5 -2.5l3 -9q1 -3 6 -11
q1 -2 2.5 -7t2.5 -7q1 -3 1 -10q0 -1 1.5 -4.5t2.5 -5.5t1.5 -7t1.5 -7q1 -1 1 -3q0 -9 2 -13q1 -1 1 -4q0 -9 1 -14q0 -1 1 -3t1 -3v-8q0 -3 2 -11q1 -5 1 -15v-14l3 -5v-19q2 -2 2 -4q0 -4 -1 -6l2 -4q-3 -16 -3 -17q2 -4 2 -6v-13l-1 -2v-2v-2l1 -2v-22q0 -6 -1 -9
q-1 -2 -1 -7v-41q-2 -3 -3.5 -8.5t-2.5 -8.5v-11q0 -15 -2 -20q-1 -4 -1 -13l-3 -4v-13l-5 -15v-5.5t-1 -5.5q-3 -12 -3 -13q0 -2 -1.5 -6t-1.5 -7l-1 -1v-3q-4 -7 -7 -15q0 -1 -0.5 -4t-0.5 -5l-6 -12q-2 -6 -8 -16q-8 -18 -19 -30q0 -1 -14 -17q-11 -12 -22 -19
q-7 -6 -18 -9q-2 0 -3 -1q-2 0 -5.5 -2t-6.5 -3q-5 0 -11 -3q-1 -1 -5.5 -2t-6.5 -3q-3 0 -8.5 -1.5t-7.5 -1.5q-12 -3 -13 -3q-2 0 -6 -0.5t-6 -0.5l-4 -2h-45l-5 2q-5 0 -8 1q-5 0 -13 2l-11 3q-5 1 -12.5 3.5l-10.5 3.5t-9.5 4.5t-10.5 4.5l-4 2q-4 3 -12 7q-3 2 -3 3
q-3 6 0 10q0 1 2 6t4 7q2 4 4 10q1 2 2.5 4.5t2.5 5t1 5.5q1 2 3 6.5t3 6.5q3 6 7 18l1 1v1h3q2 1 7 -2l15 -6q4 0 10 -2t9 -2q1 0 5 -2l3 2q4 -2 7 -2h7l9 -3h19q6 0 9 2l1 1h3h12q10 4 20 11q1 0 2.5 0.5t2.5 0.5l2 2l12 11l2 5q3 4 5 6l2 4q4 10 5 15l6 17v9q1 2 1 4
q2 2 2 4l1 7q0 7 2 10q0 3 0.5 9t0.5 10q0 1 1 2q0 2 1 3v7q-6 8 -10 8q-5 -1 -6 -4q-2 0 -4 -2h-2l-15 -5q-2 -1 -7 -1h-17q-7 -4 -15 -1q-1 0 -3 -0.5t-3 -0.5t-3 0.5t-4 0.5t-6 -2q-4 2 -5 2q-10 1 -32 1q-3 0 -4 1q-3 1 -8 1.5t-7 0.5q-12 2 -17 4q-10 4 -15 5
q-2 1 -11 5q-1 0 -4 0.5t-5 0.5q-2 3 -8 7l-11 7q-2 4 -4 6q-1 1 -5 5.5t-6 7.5q-6 4 -7 7q-6 7 -9 15l-4 8q-7 12 -13 31q-1 2 -1 6q0 1 -0.5 4t-0.5 5q-2 6 -2 10q0 3 -2 7q0 2 -1 3zM332 204l19 29q0 1 0.5 3.5t1 4.5t1.5 4q1 1 1.5 5.5t2.5 7.5v17v3t-1 3q-2 6 -2 19
l-2 5l-2 10q-1 2 -2 6t-1 5l-5 8q-1 7 -12 23l-17 17q-14 12 -22 13q-21 7 -26 7q-5 2 -21 2q-1 0 -4 -0.5t-5 -0.5q-15 -5 -18 -5q-4 -2 -10 -6.5t-9 -6.5q-9 -6 -15 -15l-10 -15q0 -1 -1 -1l-6 -13q-1 -1 -2 -4.5t-2 -5.5q0 -6 -6 -18q0 -12 -3 -17v-49l5 -10q3 -9 3 -10
l4 -8q1 -3 5 -7h1l2 -1q2 -4 7 -9l6 -6q4 -2 14 -8t16 -8q2 0 6 -0.5t6 -0.5q3 -2 16 -2h24q13 5 23 6l18 12q1 1 4.5 3.5t5.5 4.5q1 2 3 3.5t5 3t4 2.5z" />
    <glyph glyph-name="h" unicode="h" horiz-adv-x="574" 
d="M200 552q3 -6 0 -13q0 -15 -0.5 -45t-0.5 -45q0 -2 0.5 -4.5t0.5 -3.5l3 -7q3 -3 7 -2l4 2q0 2 1 2q4 3 11 9.5t9 8.5q2 1 9.5 5.5t12.5 5.5q6 4 16 7q1 0 2 0.5t2 0.5q12 2 13 3q1 0 5 0.5t6 1.5t5 1h34q1 0 2.5 -0.5t3.5 -0.5t3 1q1 0 4.5 -1.5t5.5 -1.5h7l12 -3
q1 0 3.5 -1.5t4.5 -1.5h3q4 -2 12.5 -5t9.5 -4q4 -2 6 -4q1 -1 15 -8l13 -13l2 -2q1 -3 3.5 -7t3.5 -5l3 -6t3.5 -7.5t2.5 -7.5q2 -4 2 -5l2 -4q-1 -1 -1 -3q0 -1 1.5 -4l2.5 -5q1 -4 1 -13q6 -14 6 -20v-3q2 -3 2.5 -7t0.5 -8.5v-6.5q2 -2 2 -4q1 -12 1 -37l2 -4
q-4 -7 -1 -15q1 -3 1 -9q1 -46 1 -137v-52q-2 -5 -4 -6h-17q-1 0 -5 2q-5 0 -7 -1q-4 -1 -13 -1q-10 -1 -31 -1q-4 -2 -6 -2q-8 -2 -14 1q-3 0 -4 -1h-8q-5 0 -6 3v23l2 5l-1 2v3q4 7 -1 13v7l2 4v22q-5 9 0 18q0 26 1 39q0 18 1 20q0 1 -0.5 3t-0.5 3q0 3 -0.5 9.5
t-0.5 9.5v16q-2 8 -2 10t-0.5 5.5t-0.5 5.5q0 6 -1 10l-1 2q0 1 -0.5 5t-1.5 6q-1 1 -2.5 6.5t-3.5 8.5q-9 11 -20 19l-12 5l-10 5q-1 0 -3.5 -1t-3.5 0q-2 1 -6 1h-10q-17 0 -22 -2q-2 0 -14 -3q-6 -1 -12 -5l-9 -6q-4 -4 -7 -4l-16 -13l-4 -5l-9 -13q-8 -14 -10 -22
q-5 -18 -5 -21q0 -2 -2 -6q1 -2 1 -4v-1q-1 -2 -1 -3v-8q-1 -13 -1 -37v-2l-1 -2q0 -1 0.5 -3t0.5 -3t-1 -3.5t0 -3.5q0 -1 0.5 -3t0.5 -3q0 -7 -1 -9q-1 -3 -1 -11v-80q0 -4 -1 -6l-8 -4h-65q-1 -1 -2 -1q-2 -1 -3 -1q-2 0 -4 1h-1q-2 -1 -3 -1q-8 -2 -12 2l-7 -2l-7 3
l-2 2v24q0 43 1 64q0 3 2 7v198l2 13q-1 2 -1 10q0 2 2 6v50q0 4 -1 6v2.5v2.5q-1 2 -1 6v26q0 3 1 5q2 4 -1 9l2 5q0 2 -1 2q-3 6 0 10v2q1 1 1 2v28q-3 8 -1 13q2 4 2 13v80q0 2 2 6q0 46 2 52q0 2 -1 3l2 4v13q2 2 3 2h35l6 3q24 0 35 1q9 0 15 2h27q1 0 4 -3
q2 -10 1 -89q-1 -1 -1 -2q-1 -2 -1 -3q0 -3 -0.5 -10t-0.5 -11v-50q0 -7 -2 -10z" />
    <glyph glyph-name="i" unicode="i" horiz-adv-x="324" 
d="M63 484q2 4 4 5q2 0 7.5 0.5t8.5 1.5q6 -2 8 -2h2q4 -3 9 1q7 -2 10 -1q4 -2 14 0q8 0 12 1q2 0 6 -0.5t6 -0.5q5 0 7 1h3t3 1h12v-3q-1 -1 -1 -3v-3v-6v-4.5t-1 -3.5t-1 -3.5v-3.5v-44q0 -1 -0.5 -3t-0.5 -4v-22q-1 -1 -1 -3.5v-3.5q-1 -2 -1 -5q0 -5 -1 -7q2 -6 1 -10
q-1 -1 -1 -3q0 -5 1 -7q0 -1 -0.5 -3t-0.5 -3v-14q0 -4 -1 -7v-5q-1 -2 -1 -6.5v-6.5q0 -8 -1 -10v-18q0 -3 1 -5q1 -3 0 -8v-1q0 -3 1 -9t1 -9v-3q1 -2 1 -6q0 -1 0.5 -3t1.5 -3v-3l3 -15q5 -12 6 -14q1 -1 4 -7l6 -5q6 -5 7 -6q2 0 2 -2q5 -5 18 -9q4 -1 17 -5v-1
q1 -2 1 -3l2 -8q0 -3 1 -8.5t1 -8.5l-1 -2v-3q1 -7 0 -16q-2 -2 0 -4v-10q0 -7 1 -10q-1 -3 -1.5 -9.5t-0.5 -8.5q0 -3 -0.5 -8.5t-0.5 -7.5v-1l-1 -2l-6 -2q-2 0 -6 -2q-1 1 -3 1q-4 0 -7 -1h-5h-2.5h-2.5h-7h-18q-2 0 -5 1t-4 1h-9l-9 2q-1 1 -2 0q-4 0 -12 4
q-1 0 -2.5 0.5t-2.5 0.5l-10 5q-2 2 -5.5 4t-4.5 2q-9 6 -10 7h-3q0 1 -0.5 1t-0.5 1l-8 10l-2 4q-6 8 -7 14l-4 11q-4 10 -4 14v2q-1 2 -2 9t-3 10q0 1 -3 16l-2 15q0 7 -1 11v12v15q0 6 -1 9q-2 5 0 11q-2 8 -2 13v18q0 1 -0.5 2.5t-0.5 2.5v2q1 1 1 2q-1 1 -1 2l2 5v1
l-1 2v80q0 1 0.5 3t0.5 4v1l-1 2q1 4 1 10q0 2 0.5 7t0.5 8q1 1 1 2v3t-0.5 3.5t-0.5 4.5q1 2 1 8v33q0 4 1 6v5v14zM137 580h-28q-4 2 -6 2h-4l-8 4q-2 0 -5 2t-4 2l-8 4q-2 1 -7 6l-2 4l-3 4q-4 6 -6 12v19q0 6 2 18l3 8q0 2 2 6q5 12 12 20l3 5q6 3 10 8q6 8 16 10
q10 0 15 -1q10 -2 15 -2q4 0 9 -3q10 -4 15 -5q1 0 3 -2l3 -3q6 -8 6 -10q1 -4 5 -10l2 -8q0 -6 1 -9l3 -11q0 -1 -1 -2q1 -4 1 -12l-3 -5v-6q0 -1 -1.5 -4.5t-1.5 -5.5q-8 -16 -15 -22l-4 -3q-6 -5 -11 -6z" />
    <glyph glyph-name="j" unicode="j" horiz-adv-x="328" 
d="M57 -5q1 2 1 7q2 2 3 6.5t2 6.5l3 6l2 7l4 11q0 3 2 7t2 6q0 1 3 11q2 4 2 5q0 4 5 19q0 1 0.5 2.5t0.5 2.5q0 7 1 11l3 9q0 1 0.5 3t0.5 3l2 7q0 1 2 7q0 12 1 20q1 5 5 15v15q2 2 2 5q1 4 0.5 12t1.5 11t2 10.5t2 11.5q1 9 1 26l3 6v13q0 4 1 6q2 4 2 12v10v33q1 1 1 2
q1 2 1 3v10q-2 9 -1 11v3q-1 2 -1 6.5v6.5l2 4q2 7 -1 12q3 5 -1 16q2 4 2 5v50q0 2 0.5 6.5t0.5 6.5t2 2h23q9 0 16 3l6 -2h12q1 1 2 1q2 1 3 1h15h18h15q6 -3 5 -6q0 -1 -0.5 -4t-0.5 -4v-2q1 -2 1 -3q0 -18 1 -27q0 -7 -0.5 -19t-0.5 -19v-7q0 -1 -2 -5l1 -1v-1
q2 -6 -1 -14v-36q0 -38 -1 -58q0 -11 -2 -14v-15q0 -2 -2 -8l2 -6l-3 -7v-7q0 -3 -2 -9v-7q-1 -1 -1 -5q0 -3 -0.5 -10.5t-1.5 -11.5q-1 -2 -1 -8q0 -14 -2 -18q-1 -5 -1 -14q-3 -5 -3 -9t-2 -10q-1 -4 -1 -12l-5 -11q0 -1 -0.5 -4.5t-1.5 -5.5q-1 -1 -1 -3l-2 -13
q0 -1 -3 -11q-1 -2 -1.5 -6.5t-2.5 -6.5v-2q0 -1 -0.5 -5.5t-1.5 -6.5t-1.5 -5.5t-1.5 -5.5q-1 -1 -1.5 -5t-1.5 -5q-1 -2 -1.5 -5.5t-1.5 -5.5q-2 -2 -2 -6.5t-2 -6.5q0 -2 -1.5 -6t-1.5 -5q-3 -12 -7 -19q-1 -2 -2 -4.5t-2 -5.5t-2 -5q-1 -1 -6 -14l-9 -19l-17 -32l-6 -11
l-9 -10q-3 -3 -6.5 -6t-7.5 -7.5t-6 -6.5l-5 -3q-7 6 -12 14l-12 17q-6 6 -14 20q-16 24 -17 26q-2 2 -12 17l-4 4q0 3 1 4q1 6 5 11q4 4 12 19l9 18zM173 613h-23q-29 12 -34 15l-4 6t-4 7t-3 7v13q0 10 2 16q1 3 1 9q3 6 17 27q11 11 14 13l5 3q5 3 11 4l5 1q6 0 9 2
q3 -2 9 -2.5t9 -1.5q2 0 22 -13l5 -5q1 -5 4.5 -12.5t4.5 -9.5v-8.5v-10.5v-9t-2 -7.5t-2 -6.5q-1 -1 -4 -6.5t-5 -7.5q-1 0 -3.5 -2.5t-3.5 -4.5l-9 -6q-6 -4 -9 -5q-2 -1 -6.5 -2.5t-5.5 -2.5z" />
    <glyph glyph-name="k" unicode="k" horiz-adv-x="532" 
d="M74 52l-4 5v62q-1 3 -1 19v8v8q0 6 -1 8q-1 1 -1 3v14q0 1 0.5 2.5t0.5 2.5q-1 3 -1 9v27v4q0 2 -1 3q1 1 1 5v20v8l-1 1v2q1 2 1.5 7t0.5 7q0 1 -0.5 3.5t-0.5 4.5q2 5 0 11v6q1 1 1 3.5v3.5v11q-1 4 0 10q2 3 0 6v6q-1 5 -1 14v9q2 2 0 6q-1 1 -1 4v5v2q1 1 1 2
q0 2 -1 3q0 1 1 2q-2 14 0 21q0 1 -1 3t0 3v1q1 1 1 2t-1 3t0 3t1 2q-1 3 -1 9v34q0 5 -1 6q0 2 0.5 5.5t0.5 4.5q-2 5 -1 9v3q1 2 1 5.5v4.5q1 2 1 5v26q0 1 0.5 3t0.5 3q0 5 1 5q-2 5 -2 13v10q0 1 0.5 3t0.5 4v4q0 1 0.5 2.5t0.5 2.5v11q0 7 1 11q-1 2 -1 8q0 11 1 13v4
q-1 3 -1 7.5t-1 7.5q-2 3 0 6q1 3 1 11q0 6 1 9v3q-2 13 0 22v5q1 2 1 8v2q0 3 1 5v6h1q1 1 2 1q5 2 15.5 2h12.5q3 -2 11 -2h9t3.5 0.5t4.5 0.5q1 0 4 -0.5t5 -0.5h21q6 2 7 2h6l1 1q1 -1 3.5 -1h3.5q5 0 7 1q1 -1 6 -1.5t7 -2.5v-3q0 -11 1 -16v-7q1 -2 1 -6v-5t-1 -4
q-1 -2 -1 -8q0 -1 -1 -2q3 -3 1 -7v-13q-2 -3 0 -5v-8q0 -4 -1 -6q1 -3 0 -6l1 -2v-3v-5v-2q-2 -8 0 -24v-7q-2 -3 0 -6v-8q0 -3 -1 -5l1 -1v-2t-0.5 -4t-0.5 -4v-4q2 -8 0 -17v-33q0 -6 -1 -8v-4v-3t1 -3q-2 -4 -2 -11v-9q0 -9 -1 -11q0 -12 1 -15q-1 -2 -1 -7q0 -7 -1 -10
l1 -2q0 -13 -1 -19v-2q1 -1 1 -4v-5v-4q-2 -6 0 -17q-2 -7 -1 -11v-12q0 -2 2 -4q10 -6 16 -6l4 5q2 1 6 5q4 3 9 10l11 10q5 5 5 6l8 7q5 3 12.5 10.5l9.5 9.5q1 2 5.5 6.5t6.5 7.5l10 9q1 1 2 2.5t2.5 2.5t2.5 2l10 10l4 4q2 3 5 5v3q4 2 5 5q2 3 7.5 9t7.5 8q6 5 11 11
q1 3 6 5h4l13 -8l6 -5q4 -6 11 -9l7 -7l4 -2q1 -3 3.5 -5t6 -4.5t5.5 -4.5q5 -5 15 -13l3 -7q0 -1 -1 -2q-4 -4 -10 -14l-4 -5q-6 -5 -10 -13q-4 -4 -5 -6q-3 -1 -5 -5q-2 -1 -3.5 -3.5t-2.5 -3.5q-8 -8 -9 -8l-1 -1v-1q-4 -4 -5 -6l-16 -17q0 -1 -2 -2t-3 -3l-4 -6l-12 -11
q0 -1 -1 -1l-2 -1q-3 -6 -9 -9q-1 -3 -3 -5t-5 -4.5t-4 -4.5l-2 -4l-1 -1q-2 -1 -5 -1q-2 -3 -4 -9q2 -4 2 -6q5 -3 12 -12l10 -14q2 -1 4 -6q1 0 6 -8q0 -1 2 -2.5t2 -2.5l3 -6l4 -7q0 -1 2 -4t3 -5t3 -4.5t3 -3.5l2 -2q1 -3 7 -9q1 -2 2 -3.5l2 -3t2 -2.5q8 -12 13 -18
l9 -12q1 -1 1 -2l4 -3q0 -2 6 -13q1 -2 5 -6q1 -1 1 -4l7 -7l1 -1q1 -2 3 -3q5 -7 8 -14v-1l-4 -2l-4 -4l-9 -6q-8 -2 -10 -6q-3 -1 -9 -5q-6 -3 -18 -11l-6 -3q-4 -2 -26 -14h-1q-3 2 -5 7l-3 2l-3 3q0 2 -2.5 5.5t-3.5 5.5l-4 5l-3 6l-3 3q-1 1 -1 3l-6 7q-3 4 -7 12l-2 3
q-6 8 -8 13l-6 8l-9 13l-2 3l-7 14l-1 2q-2 3 -3 5l-8 9l-2 3q-1 2 -2.5 3.5t-1.5 2.5q-9 11 -12 18q-4 2 -7 9q-7 7 -17 25q-1 0 -3 1h-2q-2 1 -6 1q-1 -3 -4 -4q-2 0 -3 1q0 -1 -1 -3v-2v-3l-1 -1q0 -1 1 -2q-2 -4 -2 -5q-1 -2 -0.5 -5.5t0.5 -4.5q2 -7 0 -10q2 -6 2 -8
t-1 -3q1 -2 1 -6v-10q1 -2 1 -5q-1 -3 -0.5 -9.5t-1.5 -9.5q2 -6 0 -9v-5l1 -1v-3q-1 -1 -1 -4t1 -5q-2 -11 0 -17v-1l-1 -2v-5q0 -7 -1 -11q-2 -2 0 -3q1 -3 1 -9v-16q-2 -1 -5 -1t-5 -1q-3 1 -8 1q-1 1 -3 1h-3h-5h-2l-2 1q-6 0 -9 1q-2 0 -3 -1q-7 3 -19 1q-2 -1 -12 -1
q-9 0 -13 -1h-7h-8t-8 -1q-1 0 -3.5 1t-3.5 0q-2 -1 -7 -1q-1 0 -3 -0.5t-4 -0.5z" />
    <glyph glyph-name="l" unicode="l" horiz-adv-x="365" 
d="M212 51l-3 2q-7 0 -8 1h-2q-10 1 -19 5h-3q-5 1 -13 5q-3 2 -9.5 4t-8.5 3l-3 -1q-5 5 -15 9q-3 1 -8 6l-11 9q-6 4 -14 16l-3.5 7t-4.5 7q-4 8 -5 12q-2 4 -4 10l-3 10l-2 10q0 1 -0.5 3t-0.5 4l-2 3q0 5 -1 8l1 1l-4 17v6v3t-1 3q0 1 -0.5 5t-0.5 6v11q0 1 -0.5 4
t-1.5 4v21q0 5 -1 7q-1 3 -1 9v6q0 12 -1 17t-1 16v9q0 3 1 5q2 8 -1 15v30q0 1 -1 3.5t0 3.5q1 2 -1 7q1 3 1 10v38q-1 2 0 5t1 4q0 2 -0.5 5t-0.5 4v4q3 7 0 14q1 3 1 8v15q0 8 1 10q-1 1 -1 3v3q-1 3 1 9q-1 1 -1 3v2v6v2q1 2 1 3q-1 1 -1 2v3q1 4 1 13q0 3 -0.5 8
t-0.5 7v2q1 1 1 2v9q0 1 0.5 2t0.5 2v16v4q-2 2 0 4q1 4 1 12t1 10v5q0 10 1 12v9v10q2 6 1 10q0 1 1 2.5t0 3.5q0 1 0.5 3t0.5 3q0 5 1 7v16l2 6h1l2 1q5 -2 9 1q7 -2 10 -1q2 1 12 1h14q6 0 12 2q3 1 10 1q8 1 27 1h11h1l2 1l8 -2l1 -2l-1 -2q0 -8 -2 -11q1 -10 1 -29
q0 -2 1 -3l-2 -3q0 -3 -0.5 -9t-0.5 -9q1 -1 0 -3.5t-1 -3.5q0 -5 -1 -8v-8q1 -3 1 -19q-1 -4 -1 -11l-1 -1q1 -2 1 -4v-4q0 -4 -1 -7q0 -1 0.5 -3t0.5 -4q-1 -3 -1 -18v-4v-1l-1 -2v-12q1 -3 1 -9v-3q-1 -2 -1 -7t-1 -7q2 -6 0 -10q2 -6 0 -10q0 -10 1 -15v-2q-1 -5 -1 -14
q0 -7 -1 -9v-7q0 -9 -1 -13v-2l1 -2q0 -14 -1 -17q-1 0 0 -5v-4q0 -2 0.5 -4t0.5 -3q-1 -3 -1 -8v-8q0 -6 0.5 -18t0.5 -18v-10q0 -6 1 -9q1 -1 1 -4v-5q1 -1 1 -2q-1 -1 -0.5 -6.5t0.5 -7.5t2 -6q0 -5 1 -7v-3q0 -8 1 -11q0 -5 1 -8l-1 -1q1 -6 5 -18q1 -7 5 -16l3 -6l1 -2
q0 -1 1 -2q0 -1 1 -4q0 -3 4 -9l3 -3q1 -1 8 -11v-1q1 -1 3 -1l3 -6l8 -4l9 -5q2 0 4.5 -2t3.5 -2l10 -4h7l8 -4q0 -1 1 -3v-37q0 -1 -1 -2q1 -3 1 -7t0.5 -11.5t0.5 -11.5l-1 -1v-3q-1 -4 1 -8q-3 -5 0 -9v-1q-1 -1 -1.5 -4t-0.5 -4q0 -2 -1 -3q0 -3 -1 -9t0 -10
q-1 0 -3 0.5t-3 0.5h-2q-2 -1 -3 -1q-20 0 -22 1h-1q-2 0 -9 1t-10 0h-6z" />
    <glyph glyph-name="m" unicode="m" horiz-adv-x="760" 
d="M70 342q-2 12 0 19q0 1 0.5 5t-0.5 6v20q0 6 2 9q-1 1 -1 8v24q-1 1 0 1q1 3 1 16q0 10 1 14q2 4 -1 7q3 6 0 10q1 3 1.5 10t0.5 9q2 2 5 0l11 4q1 -1 3 -1q1 0 2 1q2 -1 11 -1q1 -1 4 -1h5q4 -1 8 0q4 2 7 -1l3 3h16l10 3h6q12 -2 14 -4q1 -1 3 -1h2l1 -1q1 -2 1 -6.5
t1 -5.5q-2 -6 0 -8q-3 -7 0 -13q0 -2 -2 -4v-6l3 -5q1 0 3 -1h2h8q4 3 4 7l8 8l6 8q4 3 7 7q4 4 12 8l11 6q2 2 4 2q3 0 3 1q1 1 2.5 1.5t3.5 1t3 0.5q12 4 24 3q9 0 11 -1h2q1 1 2 1q7 -3 14 -2q7 -3 18 -5q4 0 5 -2q1 -1 4 -2t5 -3q1 0 6 -2t8 -1q1 -1 10 -7q3 -5 8 -8
q4 -4 7 -10l3 -4q0 -3 4 -7q2 -10 4 -17q1 -3 5 -9h1q2 -1 3 -1t3.5 0.5t4.5 0.5l5 5v4q1 1 5.5 7.5t7.5 9.5q1 0 3 2q3 5 10 11.5t8 8.5q2 2 5 2q3 5 9 7q2 2 4 2q8 5 16 6l3 2l10 2l3 1q4 1 6 2h11q3 1 31 1q4 -1 13 -1q3 -3 4 0l6 -3q2 0 5 -0.5t6.5 -1.5t5.5 -1
q5 -1 17 -7q3 -3 9.5 -7.5t8.5 -6.5q6 -2 9 -4l4 -6q8 -7 13 -18q0 -2 1 -2q2 -4 9 -22q2 -3 4 -11l3 -12l2 -7q0 -7 -1 -8l1 -2v-14l1 -2q-1 -1 0 -3t1 -3v-5v-47q0 -1 0.5 -2t0.5 -2v-2q-2 -4 -1 -6v-15q-2 -6 -2 -17v-1q-1 -2 -1 -3q2 -6 0 -10l2 -11q0 -1 -0.5 -3
t-0.5 -4v-13q0 -6 -1 -9q-2 -5 1 -11q-1 -2 -1 -5t1 -4q-1 -2 -1 -7v-20q-1 -1 -1 -3.5v-3.5q-1 -1 -1 -5q1 -1 1 -6v-6v-6q0 -1 0.5 -3.5t0.5 -3.5q-2 -8 -2 -12v-23q0 -1 0.5 -3t0.5 -3l-4 -6q-5 0 -7 -1h-7h-11h-7q-2 1 -8 1h-1q-1 -1 -2 -1h-1q-3 1 -8 1q-1 0 -3 0.5
t-4 0.5q-3 0 -5 1q-1 0 -3 -1t-3 0t-3 0l-1 -1q-7 -2 -9 -1l-4 -2q-11 2 -15 6q-2 4 -2 7v3q1 2 1 5.5t1 4.5v4l2 10q-1 4 0 9q-2 4 -2 11.5v9.5q-1 3 -1 21v22q0 1 -1 2v2v1q1 2 1 16v3q-1 3 -1 17q-1 5 -1 16q0 9 -1 11v9q0 6 -1 9v5q0 1 -0.5 4t-1.5 4q0 1 1 3
q-1 2 -2 5.5t-2 5.5q0 5 -6 13l-6 8l-5 7l-7 7l-18 5q-1 1 -3 1t-5.5 0.5t-4.5 0.5q-4 1 -7 0q-2 -1 -4.5 -1.5t-3.5 -0.5l-9 -2l-9 -4q-9 -3 -15 -9l-2 -2l-9 -15q-2 -3 -4 -8t-3 -8v-9q0 -7 -3 -13v-11q-1 -2 -1 -13q0 -1 -0.5 -5t-1.5 -6v-24q-1 -3 -1 -9v-25
q0 -2 -0.5 -4t-0.5 -4q2 -4 0 -7v-8q0 -1 1 -1l-2 -4q2 -7 0 -10q0 -11 1 -16v-12q-1 -4 -1 -11l2 -3l-3 -7q0 -11 -1 -17h-2q-3 1 -10 1h-7q-1 0 -2.5 0.5t-3.5 0.5l-11 -2q-2 0 -3 1q-1 0 -3 -1h-28q-4 0 -6 -1h-3t-3 -1q-1 1 -3 1q-3 0 -7 -2q-1 0 -3.5 0.5t-3.5 0.5
t-3.5 -0.5t-3.5 -0.5l-1 1h-1q0 1 -1 1v8v3v6v3t-1 2v12q0 1 0.5 2t0.5 2q-1 2 -1 6v6v9q0 8 -3 16v1q2 2 2 5.5v4.5l-2 3q0 1 2 5q-2 3 -2 12v19q1 2 1 14v5v2q-1 2 -1 3v27q0 5 -2 17v1v6q-1 2 -1 7.5t-1 8.5q0 3 -3 9q1 2 -1 8q-1 6 -7 18q-3 5 -9 10q-12 8 -20 10
q-2 -1 -12 2q-7 0 -9 -1q-1 1 -3 1h-2q-4 -2 -8 -2l-5 -2l-2 -1q-11 -3 -19 -9l-1 -1q-10 -6 -13 -17l-3 -8v-9q0 -1 -1 -3t-1 -4t-2 -6q-1 -2 -1 -5v-10v-3l-2 -3q1 -6 0 -12q1 -4 0 -9q0 -2 1 -3q-1 -1 -1 -3v-27v-6v-5v-38v-7v-6q1 -2 1 -6v-40v-3l-1 -2q1 -3 1 -22
l-4 -2h-20h-10q-3 -1 -19 -1h-13q-2 -1 -4 -0.5t-3 0.5t-4 1q-1 -1 -9 -1q-2 -1 -6 -1q-3 2 -7 -1q-1 1 -3 1t-6 -2h-6q-4 5 -4 12q0 12 1 17v2v6q1 2 1 5.5v5.5v15q0 2 1 3q-2 5 -1 9q2 3 0 8q1 3 1 12q0 10 -1 12q-1 3 1 7q-1 2 -1 4q1 8 0 18q0 1 -0.5 4.5t-0.5 5.5
q1 3 0 6v6q1 2 1 8v24q-1 10 0 20q0 8 1 9v4v29v9v8q0 2 0.5 4t0.5 3z" />
    <glyph glyph-name="n" unicode="n" horiz-adv-x="570" 
d="M194 174q0 -1 0.5 -2.5t1.5 -2.5q2 -30 0 -60q0 -1 -0.5 -2.5t-0.5 -2.5q0 -2 1 -3q-2 -4 -1 -8v-4q0 -1 0.5 -2t0.5 -2q0 -2 -2 -6q3 -7 2 -13q0 -1 -3 -4q-15 -1 -46 -1q-1 -1 -4.5 -1t-4.5 -1q-2 0 -9 1.5t-9 0.5q-4 -2 -10 -2q-18 -2 -34 1h-1q-1 -1 -2 -1q-4 0 -4 2
l-3 11q0 6 2 8q0 1 -2 8v67q2 4 2 6q1 24 1 71l2 6v21q-3 8 0 13l-2 5v8q0 1 0.5 4t0.5 5t-1 3l2 6v15l-2 6v7.5t1 8.5q1 1 -1 5v124q2 4 5 5h12t13 1q1 0 2 1q1 0 3 1h13q1 0 8.5 0.5t9.5 1.5t10 1h10l6 3q1 -1 4 -1q4 1 23 1l5 -3v-2l1 -1v-53q1 -3 5 -5q1 0 11 3l2 3
q1 3 5 9q0 1 1.5 3t2.5 4q7 13 15 16l11 10l15 9l4 2l13 4l13 2q3 2 18 2q3 0 9 2q2 1 7 1q22 1 45 0q4 -2 6 -2q7 -1 21 -7q1 0 3.5 -1.5t4.5 -1.5l1 -1h2q3 -2 22 -12l6 -3l12 -13l8 -15l8 -13q0 -6 1 -8q1 -1 2 -6.5t3 -7.5l3 -17v-5q0 -3 0.5 -7.5t0.5 -6.5l2 -5
q0 -11 1 -18v-2q1 -2 1 -3q1 -5 -1 -11l2 -5q0 -75 1 -112q0 -3 2 -5q-2 -4 -2 -7q-1 -3 -1 -9v-63v-13q0 -2 -2 -8l2 -4l-2 -6q0 -3 -0.5 -9t-0.5 -9t-5 -5q-5 -1 -19 -1h-19l-6 -2q-4 -1 -16 -1t-19 -2l-2 1q-1 0 -1 1h-10q-8 -2 -10 -2l-8 3q-2 2 -2 4v15q0 1 2 7
q0 6 -1 8l-2 8q0 1 1.5 4.5t-0.5 4.5q0 2 -0.5 5t-0.5 4v48l3 6q0 10 -2 13v9v17v2l1 2l-1 1v2q4 5 0 13q0 7 -0.5 20.5t-0.5 20.5l-2 6q-1 4 -1 13q-2 3 -4 10.5t-5 10.5q-13 15 -26 22q-8 3 -19 6h-31q-3 0 -7 -2l-9 -2q-1 -1 -6.5 -2.5t-8.5 -3.5l-8 -5q-9 -4 -13 -7
q-5 -2 -10 -9l-3 -5l-5 -5q-2 -3 -3.5 -9t-2.5 -8q0 -3 -0.5 -9t-0.5 -10q0 -9 1 -14q3 -6 1 -13q-4 -9 0 -14q-2 -6 -2 -7v-48z" />
    <glyph glyph-name="o" unicode="o" horiz-adv-x="592" 
d="M362 51q-4 0 -7 -2.5t-5 -2.5q-7 0 -11 -2q-5 0 -7 -2q-1 -1 -6 -1t-7 -1q-2 1 -6.5 0t-6.5 -1h-11q-8 -2 -9 -2q-6 -1 -19 -1q-14 0 -21 1q-1 0 -3 1t-4 1l-18 4q-2 1 -5 1.5t-4 0.5t-3.5 1t-4.5 1l-6 2q-2 1 -5.5 2t-5.5 2l-13 6q-8 2 -12 4l-18 8l-16 8l-6 6l-12 6
q-8 8 -11 13l-4 5l-6 6q0 1 -5 8q-1 1 -19 25q-4 6 -10 25q0 1 -1.5 4t-1.5 5q0 1 -3 10q-1 1 -1 3v3q0 2 -2 6v69q2 4 2 5q0 9 1 13q0 5 1 8q2 4 1 7q0 4 4 16l6 24q3 9 4 11q1 3 8 17q3 4 15 28l7 7q9 8 18 22q4 7 11 12q4 2 6 4q7 8 31 23q1 1 7.5 4.5t9.5 6.5q7 4 16 6
q7 1 14 5q2 2 4 2q3 -1 7 1t6 2q4 -1 10.5 1t9.5 2q3 2 10 2q7 1 21 1q1 0 3 1t3 1l5 -2q1 0 3 1h2q2 0 3 -1l5 2q1 -1 2 -1q2 -1 3 -1h7.5t8.5 -0.5t8 -2.5h8q1 0 5 -0.5t5 -0.5q3 -1 8 -1.5t8 -2.5l12 -4q1 0 4.5 -2t5.5 -2q1 0 2.5 -1t2.5 -2t2 -1l4 -2q6 -2 20 -12l7 -6
q6 -3 7 -4q3 -3 9 -7t7 -5q14 -11 26 -25l9 -15q5 -6 6 -12q4 -10 4 -14q0 -1 1.5 -4t1.5 -4l2 -10q1 -1 1.5 -4t1.5 -5q5 -14 4 -19q0 -4 1 -5l3 -17q0 -1 0.5 -2t0.5 -2q-1 -9 0 -14v-3l-1 -1q0 -7 -0.5 -19t-0.5 -18t-1 -9q-1 -1 -1 -3q0 -1 -1 -5.5t-2 -7.5q0 -1 -3 -14
q-1 -2 -1 -6t-1 -6q0 -2 -1.5 -6t-2.5 -7l-3 -9l-1 -1q0 -2 -1 -3t-4 -10q-2 -2 -3.5 -8t-2.5 -7t-3 -4.5t-4 -5.5q-4 -6 -7 -9l-5 -8q-5 -10 -8 -13l-8 -11q-2 -3 -7.5 -7.5t-7.5 -6.5q-3 -2 -8 -4.5t-7 -4.5l-15 -9l-6 -4q-10 -7 -23 -11zM261 388q-5 -3 -9 -3
q-1 0 -4.5 -1t-5.5 -2l-9 -3l-10 -5q-12 -12 -17 -15l-3 -3q-2 -2 -4 -6q-8 -10 -14 -21l-6 -8q0 -1 -0.5 -3t-0.5 -3q-6 -8 -6 -10t-1.5 -5.5t-1.5 -5.5q1 -2 0 -5q-4 -9 -2 -23v-9q1 -1 1 -2q1 -2 1 -3q0 -2 0.5 -8t1.5 -9q3 -3 6 -9q1 -3 4 -7.5t4 -6.5q4 -3 7 -7l21 -11
q1 -1 3 -1q1 -1 2 -1q9 -5 29 -11l4 2q4 -2 12 -2.5t12 -1.5l4 2h12q1 2 5 1.5t6 -0.5l3 1q3 1 3 0q2 -1 8 2q4 0 7 3t11 7t11 6q13 13 16 17q1 4 3.5 10t3.5 8q0 1 5 13q0 2 0.5 6t0.5 6l2 5v35l-5 15l-8 14q0 1 -3 4.5t-4 5.5q-7 9 -12 12q-5 4 -7 6l-10 9q-3 2 -8.5 5
t-7.5 5q-1 1 -7 4q-2 0 -5 1t-5.5 1.5t-5.5 0.5l-9 3q-12 0 -18 1z" />
    <glyph glyph-name="p" unicode="p" horiz-adv-x="532" 
d="M189 51l-3 -11q0 -1 1.5 -3.5t0.5 -4.5q0 -1 -2 -7q0 -1 0.5 -2t0.5 -2t-0.5 -3t-0.5 -3v-25q0 -2 -2 -6q-1 -2 -1 -3v-12q2 -4 2 -6v-10q0 -1 -1 -3q0 -2 1 -4t0 -4t0 -4.5t1 -3.5v-6l-2 -6v-68l-4 -10l-2 -2q-7 0 -10 -1q-1 0 -3 -0.5t-3 -0.5q-8 4 -12 -1h-16
q-2 0 -5 1t-4 1q-3 0 -9 -2h-10q-6 0 -9 1h-7q-2 -1 -16 -1l-6 3l-2 2q0 6 1 9q3 5 0 8q-2 8 0 12q1 3 1 9q0 7 0.5 21t0.5 21q0 1 2 5q0 12 -0.5 34.5t-0.5 33.5q0 1 -0.5 2.5t-0.5 2.5l1 2v2v71v38v27l2 6v100q0 2 -2 8v2l1 2q0 44 1 64q0 2 1 4.5t1 3.5q-2 4 -2 5
q-1 22 -1 68l1 1v3v2q-1 2 -1 3v17q0 1 2 7q0 33 1 50q0 2 2 2q10 3 11 3t4 -0.5t5 -0.5q4 2 10 2h45h25t24 1q5 0 8 1h2q1 -1 2 -1t5 2q4 -2 7 -2h9q7 -1 21 -1q3 -2 16 -2q6 -2 7 -2q2 0 4 1q1 -1 5 -1q5 -1 15 -1l18 -6q1 0 4 -1t4 -1q3 -1 9.5 -3.5t10.5 -3.5
q1 -1 5.5 -3.5t7.5 -3.5q2 -1 7 -4t7 -4q2 -3 8.5 -7t7.5 -5l15 -16q2 -3 5.5 -10t6.5 -10l2 -4v-3q1 -2 4.5 -8.5t4.5 -10.5q1 -3 8 -17q3 -10 7 -16q0 -10 1 -15q0 -2 2 -6q0 -13 1 -21q0 -1 2 -5v-16l-2 -4l1 -2q0 -1 -0.5 -4t-0.5 -4v-7q0 -2 -0.5 -5l-1 -6t-1.5 -5v-12
q0 -3 -1.5 -9t-1.5 -9l-3 -6l-3 -8q-3 -16 -11 -33v-6q-1 -2 -3.5 -8t-3.5 -9l-8 -10q0 -2 -3 -5t-3 -5q-14 -16 -21 -20l-3 -3q-5 -5 -11 -8q-1 -1 -5 -4t-7 -4q-1 -2 -5 -4.5t-5 -3.5t-5 -3.5t-6 -4.5q-8 -4 -13 -4q-1 0 -3.5 -1.5t-3.5 -1.5h-12q-4 -2 -5 -2
q-12 -1 -36 -1l-9 -2q-2 -1 -6 -1h-19q-7 0 -19 -3q-4 2 -7 2h-1q-3 -2 -6.5 -6.5t-5.5 -5.5zM282 205q8 9 20 36q0 7 1 11q2 4 2 7q0 12 2 18v6l-2 6q0 14 -1 20l-9 23q-6 6 -16 20q-13 10 -26 14q-4 0 -8 2q-7 5 -8 5t-4.5 0.5t-5.5 0.5q-20 0 -29 -1q-4 -1 -6 -5v-11v-14
v-12v-32q0 -2 -0.5 -5.5t-0.5 -5.5q0 -1 2 -5l-3 -7v-12q0 -1 -0.5 -2.5t-1.5 -2.5q-1 -3 -1 -9v-53l5 -12q2 0 5.5 -0.5t5.5 -0.5q1 0 4.5 -1t5.5 1l4 -2h9q4 2 5 2q4 1 12 1l10 3.5t10 4.5q9 4 19 12z" />
    <glyph glyph-name="q" unicode="q" horiz-adv-x="527" 
d="M196 474q11 0 14 2q3 1 8 1q4 2 5 2q4 1 13 1l4 2h10.5h12.5h11h2q1 -1 2 -1l4 2q8 0 24 -0.5t24 -0.5l5 -2h17q7 0 10 -2q2 -1 6 -1q18 0 27 -1h1q2 -1 3 -1q2 -1 8 -1t9 -1q1 -1 2 -5t3 -5v-42l-3 -5v-11q2 -2 2 -4q0 -20 1 -30q0 -9 -2 -14q-1 -5 -1 -15v-74
q0 -1 0.5 -2.5t1.5 -2.5q-1 -1 -1 -2q-1 -2 -1 -3v-161q0 -9 -2 -14q0 -1 1 -2q1 -5 -2 -12v-67q0 -10 -2 -15q0 -1 1 -4.5t1 -5.5l-2 -7q-1 -27 -1 -80l-3 -7v-20v-23v-19q-2 -2 -5.5 -3t-4.5 -2h-61q-3 0 -10.5 -0.5t-11.5 -0.5q-9 1 -28 1q-1 0 -4 3q-1 1 -1 3
q-1 5 -1 16v28q0 4 -2 12l2 6v52v15q1 15 0 15q0 13 1 18q0 3 2 5v38q-2 8 -4 12l-7 6q-4 0 -9 -2h-30q-3 1 -9 2t-8 3l-3 -2q-1 1 -3 1q-2 2 -5 2q-6 0 -9 2h-2q-1 0 -5 0.5t-6 1.5q-1 1 -4 1.5t-5 1.5l-4 2q-3 0 -6.5 1t-5.5 1t-6 2l-6 3q-2 0 -6 2t-5 2l-5 3q-6 0 -9 1
q-6 4 -18 10t-17 9q-2 3 -8 11t-9 11q-1 2 -2 5l-1.5 4.5t-1 3.5t-0.5 4q-5 13 -8 17q0 9 -1 13q0 1 -1 4.5t-1 5.5q-2 2 -3.5 7.5t-1.5 6.5q-1 2 -1 14q0 6 -1 9q-2 9 0 13q-2 6 -2 8v20q2 4 2 5q1 3 1 9q0 1 1.5 3t0.5 4q-1 1 0 4t1 4q0 10 2 13v5q1 6 3 8l1 2v2q0 8 4 20
q1 6 7 18q2 3 4 9t4 8q2 3 5 9t5 9q9 16 14 20l9 9l4 4q4 7 12 14l8 9q9 9 19 16l16 8q9 3 27 13zM287 346q-5 8 -17 13h-14l-6 -3h-10q-1 -1 -3.5 -2t-3.5 -2l-26 -18q-6 -4 -7 -8l-2 -2q-3 -2 -7 -8.5t-5 -7.5q-4 -4 -7 -10t-3 -8q0 -1 -1.5 -4t-1.5 -5q0 -7 -1 -11
q0 -3 -2 -7v-20l3 -5q0 -14 2 -18l2 -12q10 -26 21 -40q1 -1 6 -4t7 -5q2 -1 6 -3.5t6 -3.5q1 0 6 -2t8 -1q7 -3 15 -3q1 0 7 -3q14 0 21 1q4 2 5 5v39q-2 4 -2 5v21q2 8 2 10v87q4 9 1 13v1q1 1 1 2q2 2 -1 10q2 6 1 9z" />
    <glyph glyph-name="r" unicode="r" horiz-adv-x="396" 
d="M320 367q-1 -2 -1.5 -6.5t-0.5 -6.5q-2 -5 -7 -5q-2 1 -6 -1t-5 -2q-2 0 -5.5 -2t-5.5 -1q-2 0 -5 -2t-5 -2t-5.5 -1.5t-5.5 -1.5l-4 -3l-6 -3l-6 -3l-20 -13q-3 -2 -19 -18q-2 -2 -2 -3q-1 -3 -8 -10q-8 -18 -10 -22q-5 -13 -5 -16q0 -2 -2 -6v-7q0 -7 -1 -10
q0 -1 0.5 -4.5t-0.5 -4.5q-1 -2 -1 -8q0 -2 -2 -8v-15q0 -5 -1 -6q-1 -3 -1 -25q0 -5 0.5 -13.5t0.5 -12.5l-3 -8q1 -15 1 -50l-3 -8q0 -1 -2 -1q-6 0 -12 -3q-9 0 -29 -2q-2 0 -6 -2l-43 -2q-6 -2 -8 -2q-2 -1 -5 -1l-3 3v10q0 19 -1 29q5 10 -1 21l2 5q0 2 1 3
q0 5 -0.5 15t-0.5 16v17q0 2 2 8l-3 91q2 4 2 6q1 20 -1 59q2 8 2 9q0 7 -0.5 19t-0.5 18q0 5 -0.5 15.5t-0.5 15.5q-3 8 -1 14v31q0 3 2 7v24l1 1v2q2 1 7.5 1t7.5 2q5 -2 7 0q2 1 6 -1q3 0 9 0.5t9 0.5l5 2h2l5 -2q2 0 8 0.5t9 0.5l6 2q16 2 24 1q2 -1 3 -5t2 -5
q-1 -1 -1 -4v-20q0 -12 -1 -18v-2q-3 -7 -1 -15l4 -4h9l3 2l5 7l3 8l8 11l1 1q2 1 6.5 5.5t7.5 5.5q1 0 3 2t4 3l3 1l4 2l9 4q6 4 9 5q0 1 1 1q2 0 3 1l15 5q2 1 6 1q4 2 6 2q21 2 34 1l2 -2q1 -21 0 -40q-1 -5 -1.5 -15t-0.5 -13q0 -1 -0.5 -3t-0.5 -3v-44z" />
    <glyph glyph-name="s" unicode="s" horiz-adv-x="383" 
d="M121 33q-1 0 -3 -1h-1q-2 -1 -4 0t-3 1q-6 0 -19 0.5t-20 0.5q-1 1 -5.5 2t-6.5 3h-1q0 1 -0.5 1t-0.5 1q-1 5 -1 13.5v14.5q0 1 -2 5q0 1 1 3.5t0 3.5q-1 2 0 5q1 1 1 2q0 6 -1 9v11q0 4 1 6l-2 6v15q4 7 0 13v21v2q1 2 1 3q0 3 -1 4q0 1 1 2l1 1h26h27l15 6q2 0 6.5 2
t5.5 2l10 6l8 10v12q0 7 -2 10l-2 9q-8 12 -17 17l-4 3q-3 3 -9.5 7.5t-8.5 6.5q-1 0 -3 0.5t-3 0.5l-6 5q-3 0 -5 1l-8 4q-1 2 -7 7.5t-8 10.5q-4 4 -12 19q0 2 -1 2q-2 2 -10 21q-2 24 0 48l1 2q1 2 1 3l3 11v2q0 1 0.5 5t1.5 6q1 1 1.5 5t2.5 6q0 5 4 11l15 31l10 8
q6 5 18 13q7 4 19 8q1 0 4.5 1t5.5 2q1 0 4 1t5 2q3 0 8.5 2t7.5 2q3 0 4 1l2 1h2q2 0 3 1q14 0 17 2q3 0 7 0.5t6 0.5h1q2 1 3 1t3 -0.5t3 -0.5h9q25 0 37 -1h3q1 0 24 -3l8 -4l3 -3q1 -15 0 -49l-2 -4q0 -1 1 -2v-2q1 -2 1 -6q-1 -3 -1.5 -6t-1 -7t-0.5 -6v-5q-1 -1 -1 -2
q-1 -2 -1 -3v-10l-2 -2h-39l-2 -1h-3q-4 -2 -6 -2q-2 -1 -5 -1l-12 -6l-13 -10q-2 -2 -4 -8t-3 -8l-3 -14q1 -4 1 -13q2 -3 2 -8.5v-6.5l3 -3q8 -9 15 -15q1 -1 3 -2l3 -1q4 -5 11 -7q8 -4 11 -7l12 -6l6 -6q6 -5 10 -7l5 -7l6 -7l6 -13q0 -2 0.5 -4t0.5 -3l2 -5q1 -5 1 -16
q1 -1 1 -3q1 -2 1 -3v-21q0 -7 -2 -10q0 -5 -0.5 -17t-0.5 -17l-3 -14l-2.5 -5t-2.5 -5.5t-1 -4.5l-6 -13q-4 -5 -9 -15l-4 -5l-5 -7q-2 -1 -6 -4l-4 -3l-10 -6q-5 -2 -13 -8q-1 0 -3 -1h-2l-12 -6h-1q-3 -2 -9.5 -4.5t-8.5 -3.5h-8q-3 0 -7 -2t-7 -2q-4 -2 -12 -2
q-7 0 -19 -0.5t-19 -0.5z" />
    <glyph glyph-name="t" unicode="t" horiz-adv-x="405" 
d="M114 383l2 6v46q0 2 2 6v42q3 7 2 12q0 1 -1 1q-6 11 -7 13q-2 0 -7.5 0.5t-8.5 1.5l-9 -2h-12q-1 0 -5 2h-30q0 -1 -4 -1l-5 1q-1 0 -3 2q-1 30 -1 89l2 6v19q1 2 5 4l7 3q1 0 5 -2q9 5 17 1q4 2 8 1q1 0 2.5 0.5t2.5 0.5q4 0 11 0.5t10 0.5q7 -4 10 -2q1 1 6 14
q1 4 0 9l-2 9q2 4 2 5l1 9q0 8 2 12v17q0 8 1 11l2 9l2 2h6.5h8h7.5q3 1 11 1q4 0 6 1q6 3 15 -1h23q4 2 5 2q1 1 3 1q3 0 9 -2q2 2 7 2q6 0 9 1q3 0 5 -3q1 -5 1 -13.5v-13.5q-2 -8 -1 -10v-2l-1 -2q0 -31 1 -45q1 -5 8 -8q9 1 28.5 0t29.5 0q2 0 5.5 -1t4.5 -1h7l4 -4
q3 -18 1 -41q0 -1 -2 -5v-46v-4v-4v-4t1 -5l-4 -7q-3 -2 -9 -2h-18h-22h-19q-1 1 -2 1q-7 -1 -13 -6q-1 -1 -1.5 -6t-2.5 -7q0 -3 0.5 -9.5t0.5 -8.5q0 -3 2 -5q-2 -6 -2 -8v-9q0 -1 -0.5 -4t-0.5 -5v-2l-1 -2q-1 -9 -1 -25q0 -17 1 -26q-2 -2 -2 -6v-5q2 -7 2 -22
q-1 -1 -1 -3q-1 -2 -1 -3q0 -12 0.5 -36t0.5 -37q2 -4 2 -6q2 -24 2 -35q0 -2 3 -9t3 -10q0 -2 2 -6l8 -13q3 -4 7 -12q1 -1 2 -2.5t2.5 -2.5t2.5 -2l14 -7q2 -1 17 -6q10 -4 15 -3q2 -2 2.5 -6t1.5 -5q0 -1 -2 -7q2 -2 2 -5q0 -1 -1 -3t-1 -4q0 -9 0.5 -28.5t0.5 -29.5
l-2 -9q0 -9 -4 -14l-7 -3q-2 0 -3 1l-4 -2q-15 -1 -50 -1q-9 3 -10 3q-2 -1 -5 0.5t-4 1.5q-2 0 -5.5 0.5t-5.5 0.5l-9 4q-6 2 -19 10q-14 10 -20 16q-5 4 -14 18l-5 8q-2 2 -3 2q-2 2 -6 9.5t-7 10.5q0 2 -2 7.5t-2 8.5q0 8 -2 11q-1 2 -1.5 5.5t-1.5 5.5t-1 6l-3 9
q0 5 -1 21.5t0 25.5q0 7 -0.5 23t-0.5 24l-2 75q0 4 0.5 12.5t0.5 13.5z" />
    <glyph glyph-name="u" unicode="u" horiz-adv-x="540" 
d="M445 488l5 -5v-45l-2 -5v-36q-2 -4 -2 -6q-1 -6 -1 -19q0 -5 -1 -7v-3v-3q-1 -3 -1 -10v-50q0 -1 -0.5 -2.5t-1.5 -2.5q0 -25 -1 -37q0 -1 -2 -5v-30q-3 -5 -3 -22v-4q0 -1 -2 -5v-17q-1 -7 -6 -17v-10l-10 -20l-6 -13q-1 -2 -3.5 -5.5t-3.5 -5.5q0 -1 -0.5 -1t-0.5 -1
l-17 -18l-21 -14l-16 -11q-2 -1 -8 -3.5t-9 -4.5q-7 1 -21 -5l-9 -2q-4 -1 -12 -5q-2 0 -7 -0.5t-8 -0.5q-4 -2 -5 -2h-28q-4 2 -20 2h-11q-6 2 -8 2l-15 4q-3 2 -9 2q-2 0 -6 2q-1 -1 -2 -1h-1q-3 1 -8.5 2.5t-8.5 2.5q-15 8 -18 11q-1 1 -5 3.5t-6 4.5l-12 9q-8 3 -18 15
q-7 8 -11 17q-5 8 -14 31q-2 3 -4 9q0 1 -0.5 4.5t-1.5 5.5t-4 10q-1 5 -1 14l-3 6v16l-2 9q-1 1 -1 5q0 5 -0.5 16t-0.5 17q-1 0 -2 5l-2 53q0 1 -1 2v2q1 4 1 24q-2 10 -2 11q0 2 2 4v37q0 9 2 13v31q2 4 2 5q1 13 1 37l3 5h3q12 1 36 1q16 0 20 -1h3q5 1 16 1h35
q2 -2 4 -6q-1 -2 -1 -4q3 -5 -1 -12v-15q-2 -4 -2 -6q2 -5 2 -24q0 -2 -2 -4l2 -4q-2 -6 -2 -9v-91q0 -4 -1 -6l1 -1v-3l2 -38q1 -1 3 -13q2 -2 2 -7t1 -7l3 -13l6 -7q4 -4 6 -8q4 -5 13 -9q2 0 4.5 -1t5.5 -2.5l5 -2.5l15 -5q6 -2 10 -2q5 1 15 1q5 3 12 3l14 7q1 1 14 9
l7 7q7 6 10 12l4 6q0 1 0.5 4.5t1.5 5.5t1 5q0 7 2 11q0 5 2.5 14t1.5 13q2 8 2 9q1 1 1 3.5v3.5q0 2 2 6v10q0 3 -2 9q-1 3 -1 10l2 6v80l2 5q-2 2 0 9q0 9 -1 14l1 6q-2 2 -2 5q-1 5 -1 17q3 8 8 11q3 1 10 1h12.5h15.5h13q5 0 15 0.5t14 0.5h25z" />
    <glyph glyph-name="v" unicode="v" horiz-adv-x="555" 
d="M351 499q4 1 12 -1l4 2h74q4 2 5 2q10 1 31 1q0 -1 1 -1v-2l-1 -2q-2 -12 -3 -13q0 -3 -2 -7.5t-2 -6.5q-3 -12 -3 -13l-5 -11q0 -3 -1 -6l-3 -9l-3 -8q-3 -5 -10 -26l-2 -9q0 -1 -1 -3t-1 -3q0 -4 -1 -6l-8 -19q0 -1 -1.5 -4.5t-2.5 -5.5q-2 -6 -2 -10v-2q-1 -1 -1 -2
q-4 -10 -5 -15q0 -2 -2 -6l-5 -10q-2 -4 -7 -19q-1 -2 -1 -4q-3 -5 -6 -14t-5 -12q-2 -8 -4 -11q-4 -8 -5 -12q-4 -14 -7 -21q-1 -1 -2 -5t-3 -6q0 -3 -4 -11q-2 -4 -2 -8q0 -2 -1.5 -4t-1.5 -4t-3 -8q-5 -8 -6 -15l-7 -21q0 -1 -3 -4q-2 -4 -4 -12l-4 -11l-3 -6t-2 -6
q-6 -10 -7 -16q0 -1 -1.5 -4t-3.5 -4q-2 -2 -3 -2q-3 1 -7.5 -1t-6.5 -2h-12h-7q-8 -1 -8 0q-1 0 -7 -1t-7 0q-4 -2 -12 -2h-9q-2 1 -4 1q-3 3 -8 1t-12 1h-17q-3 0 -4 -1q-7 -2 -20.5 -2h-16.5q-1 0 -3 1q-1 1 -1.5 5t-2.5 6q-1 5 -4 14.5t-4 13.5t-5 12q-1 1 -2 5.5
t-3 6.5q0 3 -1.5 7t-1.5 6q-4 16 -8 23q0 3 -2.5 9t-2.5 8v2l-1 2q0 4 -2 11t-2 10q0 1 -2 4.5t-3 5.5l-4 12l-3 12q-1 6 -5 16q-2 5 -4 11l-3 12q-2 4 -2 7q0 6 -3 12l-9 26v11q-2 6 -4 16q-1 4 -5 12q-3 4 -3 9q0 3 -1 3q-1 2 -1.5 5t-1.5 5t-1.5 5.5t-1.5 5.5l-2 10
q-3 6 -3 13l-4 8l-1 2v2q0 3 -2 8t-2 8q-3 12 -3 14q0 3 -1 4q-1 2 -2 6.5t-2 6.5q0 2 -1.5 6.5t-1.5 6.5l-3 11l2 2l3 2q18 0 27 1h37q8 0 12 2h7l4 -2q2 2 4 1q5 -2 9 1h16q2 0 5 -3q0 -1 0.5 -5t1.5 -6t1.5 -6t1.5 -5q1 -2 2 -6t2 -6l3 -11q0 -1 1 -4.5t2 -5.5
q-1 -3 1 -7.5t2 -6.5q0 -1 1.5 -5t1.5 -6l3 -10q2 -3 4 -11l2 -4v-7q0 -5 3 -10q0 -2 1.5 -7.5t1.5 -8.5l6 -12q0 -1 0.5 -4.5t1.5 -5.5q3 -6 3 -12q0 -1 2 -5.5t2 -6.5q0 -1 1 -4t1 -4l4 -11q0 -2 3 -11q0 -2 2 -6q1 -4 1 -12l2 -6l3 -12v-5q1 -4 3 -6v-3q0 -5 3.5 -14.5
t3.5 -10.5q0 -4 4 -8l3 -3h8l4 3q4 10 4 14q1 3 5 10.5t5 12.5q0 1 1 2t1 2q0 2 0.5 4t1.5 4.5t1 4.5t2 6.5t2 5.5q1 2 2.5 7t2.5 7q0 1 6 16q1 2 2 7.5t3 7.5q1 2 4 10q0 2 3 8q1 1 2 5t2 5q0 1 0.5 1t0.5 1q0 3 1.5 8t1.5 7l1 2v2q0 2 5 11q0 5 4 17q2 4 2 8l3 8
q0 1 1 3.5t1.5 4.5t0.5 4t1.5 5t1.5 4q1 3 3.5 8t2.5 7l9 27q1 3 3 8t2 7l4 14q1 0 1 1z" />
    <glyph glyph-name="w" unicode="w" horiz-adv-x="825" 
d="M419 81q-3 3 -10 16q-6 6 -10 8q-7 2 -10 -1v-5q-16 -20 -25 -29q-3 -3 -9 -7q-15 -8 -17 -9q-1 -1 -3 -1q-3 -1 -8 -3t-6 -3q-11 0 -17 -3h-4q-2 0 -6.5 -1.5t-6.5 0.5q-5 -2 -27 -2h-3q-4 -2 -6 -2q-1 0 -3 1h-2q-2 -1 -3 -1t-2.5 0.5t-2.5 0.5h-17q-2 0 -6 -2
q-9 0 -14 2q-5 1 -16 1q-1 1 -6 3t-8 3q-2 0 -2 1q-4 1 -12.5 5.5t-13.5 5.5l-23 12q-2 1 -5 4.5t-5 4.5l-7 9q-3 6 -7 10q-4 6 -5 10q0 2 -6 13q-4 6 -5 9q-1 5 -1 14q-1 2 -4 12q-2 8 -4 14q0 2 -0.5 5l-1 6t-1.5 5v6q-1 5 -1 16l-2 6q0 5 -0.5 14.5t-0.5 15.5q-1 1 -1 2
q-1 2 -1 3q0 5 -0.5 16t-0.5 17q0 1 -2 5q0 14 -0.5 42t-0.5 42v2q-1 1 -1 2v3q-3 8 1 15q0 10 -2 15t1 10t0 10q-1 4 -1 13v16l2 4v10t1 9l2 2h22l5 -2q14 0 42.5 -0.5t43.5 -0.5l7 -3q0 -1 0.5 -1t0.5 -1v-21q0 -1 -0.5 -3.5t-0.5 -3.5q-1 -3 1 -10v-33q1 -33 0 -33v-37
q-3 -11 -2 -14q1 -1 1 -2q1 -2 1 -3v-15q-1 -1 -1 -2q-1 -2 -1 -3q2 -8 2 -11q0 -7 0.5 -20t0.5 -19q2 -6 2 -8q0 -8 8 -22q2 -2 4.5 -7.5t3.5 -6.5q3 -2 10.5 -5.5t10.5 -6.5q26 -2 39 -1q4 2 12 4l12 6l25 25q6 12 6 15q3 8 3 16q0 3 1 4q1 3 1 9v41v122l3 6v21t1 22l4 4
h54q1 -1 3 -1l2 -1q35 -1 68 0q4 -1 7 -6v-8.5t-2 -11.5q-1 -7 -1 -22v-50l-3 -6v-33q0 -9 -2 -13q-1 -3 0 -6q1 -1 0.5 -3.5t0.5 -3.5q1 -2 -1 -7q-1 -3 1 -10q0 -12 -1 -14t-1 -6v-15q0 -2 1 -3t1 -2l-2 -5q4 -8 3 -11q0 -3 2 -7l6 -21l5 -11q15 -16 32 -24h31l6 3
q14 3 25 8l5 3q6 4 10 9q9 9 14 24l6 15v19l2 4q1 7 1 20v20l2 4q-1 1 -1 3v7v2v9q1 2 -1 9v22q2 4 2 6v103l4 5l1 1h1h26l4 1q6 -3 15 1q5 0 15.5 0.5t16.5 0.5q28 0 32 1q4 -2 4 -4t1 -6t1 -6t0.5 -5t0.5 -5t1.5 -5t0.5 -5q0 -1 -0.5 -3t-0.5 -3q2 -6 0 -9q-3 -5 1 -12
v-13q-4 -5 0 -14q-2 -7 -1 -14q0 -2 -1 -3q1 -2 1 -5q0 -1 -0.5 -2.5t-0.5 -2.5v-41v-22t-1 -22v-7l-2 -5q0 -5 -0.5 -17t-0.5 -18q-3 -12 -3 -13v-8q0 -7 -1 -11l-2 -10q0 -1 -1 -3t-1 -3v-16l-3 -7q0 -6 -1 -9q-1 -1 -2 -6.5t-3 -7.5q0 -4 -4 -12l-13 -25q-1 -1 -4 -4.5
t-5 -5.5q-2 -1 -4 -4t-3 -4l-8 -6l-10 -9l-15 -9q-5 -5 -19 -11l-13 -3q-1 0 -11 -3l-6 -2q-8 0 -12 -1q-2 0 -6 -2q-10 0 -15 -1l-1 -1h-3q-5 2 -8 1q-2 0 -4 -0.5t-3 -0.5q-3 2 -9 2h-7q-1 0 -3 0.5t-3 0.5q-2 3 -4 1q-4 0 -10 2t-7 2q-3 1 -8.5 2.5t-8.5 3.5q-2 2 -7 4
t-6 2q-2 -1 -5 1t-4 2q-18 15 -37 22z" />
    <glyph glyph-name="x" unicode="x" horiz-adv-x="584" 
d="M145 273q0 7 -1 10l-4 3v1l-1 1l-4 8q-1 3 -4 8.5t-3 8.5q0 1 -2 3l-3 4q-1 8 -6 15q-1 7 -8 17q-5 8 -14 33l-5 14q-1 3 -5 14q-2 2 -3 6.5t-2 5.5l-2 7q-5 14 -13 23l-2 7q-6 10 -8 15q-1 3 0 6l1 1h11q12 1 38 1q1 -1 2 -1q2 -1 3 -1t5 2h11q1 0 5 -2q14 1 42 1
q1 0 6 -5l3 -5q2 -4 5 -9l7 -11.5t6 -9.5l6 -10l13 -21q4 -9 13 -20l1 -1l9 -18q2 -3 9 -17l15 -23q3 -2 9 0l3 5q1 1 1 2q0 2 -2 5t-2 4q1 4 2 5q5 12 6 14q7 17 11 22l3 5q1 3 3 6.5t5 8t4 6.5l11 19q6 12 11 16q1 2 3.5 6.5t3.5 5.5q11 19 13 22l2 4l4 4q4 0 11.5 0.5
t11.5 0.5h29h6q3 -2 9 -2h7q9 0 28 0.5t29 0.5q4 0 6 -1v-3q-1 -3 -3.5 -6.5t-2.5 -5.5l-6 -10q-2 -3 -5 -9t-5 -9l-9 -15q-6 -7 -9 -17q-13 -26 -15 -31q-1 -4 -5 -8q0 -1 -1 -1q-2 -5 -7.5 -14.5t-7.5 -13.5q-3 -8 -7 -13q-1 -2 -3 -6.5t-4 -6.5l-5 -9q-1 -1 -4 -7t-5 -9
q0 -1 -1 -2.5t-1.5 -3t-1.5 -2.5v-2t1 -2q1 -2 2 -5.5t2 -5.5q5 -9 8 -17q1 -2 4 -7.5t4 -8.5q2 -2 4 -8q1 -3 3.5 -8l3.5 -7l3 -7l4 -11q2 -2 2.5 -6t1.5 -5q2 -3 4 -11q1 -4 5 -10t6 -14q1 -3 4 -9t4 -9t3.5 -8l3.5 -7q0 -2 6 -13l3 -7q2 -6 10 -21q1 -3 5 -9l3 -8
q2 -3 0 -6q-1 -1 -3 -1q-4 -1 -11 -1q-5 0 -13 -0.5t-12 -0.5h-39l-8 2h-22q-10 0 -15 2h-9q-2 0 -5 3q-6 11 -6 13l-8 16q-5 9 -8 17q-1 3 -4 8.5t-4 8.5q0 2 -1 3q-1 2 -9 23l-3 8q-4 8 -10 26q-1 4 -4.5 11l-4.5 9l-7 6h-4.5h-4.5l-2 -1q-5 0 -9 -2q-1 0 -3 -1h-2
q-2 -2 -2 -3q0 -3 -1 -4q-3 -7 -11 -21l-5 -10q-5 -11 -10 -19l-11 -22q-7 -14 -9 -17l-4 -7q0 -4 -8 -19q-5 -7 -10 -16q0 -2 -6 -10q-3 -1 -16 -1q-5 -1 -15 -1q-5 -3 -7 -2q-2 0 -4 2q-7 -1 -19 -1l-5 -2l-2 1h-3h-1l-2 -1q-5 2 -16 2q-6 -1 -19 -1q-4 0 -10 2
q-5 1 -16 1q-1 0 -1 1q-1 0 -2 1v9l6 13q1 3 5 14q5 10 7 12q1 1 1.5 3.5t1.5 3.5q8 15 9 17q5 8 10 19q2 3 6.5 13.5t7.5 15.5q6 10 15 30t13 27l3 5q1 4 8 15q3 6 12 15z" />
    <glyph glyph-name="y" unicode="y" horiz-adv-x="538" 
d="M257 -174l-5 -2q-6 0 -18 -0.5t-18 -0.5q-8 -3 -14 0q-21 0 -31 1q-6 2 -7 2l-10 3q-1 0 -4 0.5t-5 1.5l-9 3q-20 6 -36 17q-11 8 -13 9l-9 7v7q1 2 5 12.5t7 15.5q2 8 17 37q1 3 5 6q4 -1 13 -1q2 -1 7.5 -3.5t8.5 -4.5h8t8 -1l4 -2h2q3 0 8.5 -2t7.5 -2q2 1 10 -2h8
t11 -2q2 0 3 1h25l6 3q6 2 7 2l15 6q10 4 24 20q3 3 7 11q3 3 5 12q5 15 5 20v3v7q0 1 2 5l1 6q0 6 2 8v16q-2 2 -7 5q-6 2 -10 -1q-2 -1 -5.5 -1.5t-5.5 -2.5q-11 0 -15 2h-13q-2 0 -6 -2h-15q-1 1 -2 1q-2 1 -3 1t-7 -2l-6 3h-27h-15q-2 2 -7 2t-7 2q-1 1 -3 1
q-1 0 -5 0.5t-6 1.5q-5 3 -11 4l-11 4q-7 7 -14 11l-3 4l-7 7q-1 1 -6 4q-1 2 -2.5 4l-3.5 4.5t-3 3.5l-15 30q-4 6 -4 11q0 1 -1.5 5t-1.5 6t-1.5 5.5t-1.5 5.5t-1.5 6t-1.5 6v10l-2 6v5.5t-1 5.5q-1 4 -1.5 9l-1 10.5t-0.5 8.5v4q-2 4 -2 12q0 31 -1 47q0 6 -1 9
q1 5 -1 10q1 1 1 2q1 2 1 3q-2 6 -2 22q3 10 1 12v2q2 1 0.5 4t-1.5 4v11l3 6v48q0 1 1.5 5.5t0.5 7.5v5l3 18q0 2 0.5 6.5t0.5 6.5q0 5 2 7q-1 1 -1 3q2 2 3 2h21q17 -2 32 0q8 0 12 1q2 1 7 1h7l9 2q5 0 7 1q6 2 9 -3q1 -5 1 -14q0 -1 -1 -1q0 -2 -2 -4q2 -2 2 -4v-14
q-2 -8 -2 -11q-1 -3 -1 -21q1 -4 -1 -8q-2 -3 0 -6q3 -9 0 -17v-3q2 -4 0 -10q-1 -1 -1 -3q0 -1 1 -4.5t0 -5.5v-2l1 -2q-2 -5 -2 -22v-77q0 -2 2 -6v-6q1 -5 1 -13l3 -9t4 -9l3 -6l7 -5q0 -1 3 -4.5t4 -5.5q0 -1 6 -7q12 -2 13 -3l9 -3q1 0 5.5 -1t7.5 -2h4h21q3 0 4 1
q2 1 6.5 1.5t5.5 0.5l14 7l12 8q9 7 14 15q3 5 7 15l3 6l2 9q1 2 1 8q0 3 2 7q3 18 3 19q1 2 1 6v21l3 6v67l3 6v99q4 10 6 12q1 0 3 1h103q3 0 5 -3q1 -2 1 -7t1 -7q2 -5 -1 -12v-9q2 -2 2 -6v-24q0 -2 -1 -3l2 -7q0 -2 -0.5 -6t-0.5 -6l-1 -2l2 -4v-24l-3 -6v-13l2 -3
q-1 -2 -1 -7q-1 -2 -1 -7q0 -2 1.5 -7t1.5 -7q-1 0 0 -8v-7v-31v-14q-2 -4 -2 -5q0 -4 1 -6q-1 -1 -1 -3q-1 -11 -1 -68q-2 -6 -2 -8l-2 -28q0 -1 -1 -3t-1 -3v-34q0 -5 -2 -8q-1 -2 -1 -7v-16q-3 -6 -3 -11q0 -3 -2 -9q-1 -4 -1 -13q-1 -1 -1 -2q-1 -2 -1 -3q-1 -3 -1 -11
q0 -1 -1.5 -4.5t-0.5 -5.5q0 -2 -0.5 -5t-0.5 -4l-2 -6q0 -1 -0.5 -4t-0.5 -5q-3 -5 -3 -15l-5 -10q0 -2 -1.5 -5.5t-1.5 -5.5q0 -1 -2 -5t-2 -7q-1 -2 -2 -6t-2 -6q-1 -4 -5 -12t-7 -12q-1 -2 -5 -7t-6 -8l-10 -11q-6 -4 -7 -9q-1 0 -9 -8l-14 -10q-1 -1 -7 -6l-7 -2
q-4 -2 -6 -2l-3 -1q-5 -5 -17 -9q-1 0 -4.5 -1.5t-5.5 -2.5q-1 0 -3 -0.5t-4 -0.5q-10 -3 -11 -3q-3 0 -4 -1q-5 -2 -14 -2z" />
    <glyph glyph-name="z" unicode="z" horiz-adv-x="467" 
d="M61 493l3 3h3l2 -1q3 0 7 2l4 -2h7l5 2l2 -1h3t2 0.5t2 0.5h5q8 0 11 1q4 0 10 -2q4 2 12 2h10l83 2q4 0 13 0.5t13 0.5q1 0 5 2q16 1 46 1.5t40 0.5q4 -2 6 -2q5 -1 16 -1l3 -4l1 -2v-9q0 -1 -0.5 -4.5t-0.5 -5.5v-37q0 -3 -2 -11v-43l-15 -18l-30 -32q-2 -2 -2 -3
l-20 -23q-9 -9 -12 -15l-4 -4q-6 -6 -18 -22l-5 -7l-6 -6l-6 -7q-1 -2 -6 -7.5t-7 -9.5q-1 -1 -3.5 -4t-5 -5t-4.5 -4q-3 -12 -3 -13l8 -10h32q10 -2 12 -2h21q4 2 5 2t3 -0.5t3 -0.5h58q7 -3 5 -8v-1l-1 -2q0 -2 -1 -3l2 -6v-9v-2q-1 -2 -1 -4q0 -6 -0.5 -18t-0.5 -17
q0 -3 -2 -7q0 -11 1 -17q0 -2 2 -6v-9q-1 -1 -1 -2q-1 -2 -1 -3v-5t-2 -6h-4q-1 -1 -6 1q-1 -1 -3 -1q-2 -1 -3 -1q-62 -3 -127 -3q-4 2 -5 2h-66l-5 2q-54 0 -81 -1l-7 4v1l-1 2q0 6 -0.5 17t-0.5 16v25q0 1 0.5 2.5t1.5 2.5v47q0 2 2 4.5t2 3.5l5 7q2 2 5 6.5t5 6.5l9 12
l14 15q10 12 14 18q1 1 2 3t2 2q2 1 3 3.5t2 3.5l8 8l8 9q5 7 8 8l2 3q2 4 7 9.5t7 8.5q0 1 2 3q3 4 21 26l8 10l8 9q1 4 -5 13h-28l-5 -3h-8l-87 -2q-4 0 -6 3q0 22 -1 32q-2 6 -2 8q0 8 -0.5 23.5t-0.5 23.5q0 5 1 7v3q-1 2 -1 7v13z" />
    <glyph glyph-name="braceleft" unicode="{" horiz-adv-x="356" 
d="M102 45q-2 14 -3 15v6q-1 8 -1 23q-5 7 0 13q0 54 1 81l2 5q0 14 1 21q0 1 2 5v41v27q0 11 -2 14q-1 2 -1 6q0 6 -2 8q-1 2 -1 6t-1 6q-1 1 -1 3t-0.5 4.5t-0.5 4.5q-3 4 -6.5 14t-5.5 14l-18 17l-9 5q-6 3 -8 5v83q1 3 5 5q1 0 4.5 1.5t5.5 2.5q1 0 4.5 1t5.5 1
q5 1 15 5q3 0 9 4l9 13l6 15q1 2 2 8l1 5q1 1 1 9v51q-2 4 -2 5q-1 5 -1 16v4q-2 6 -2.5 12.5t-0.5 15v12.5q0 3 0.5 9t0.5 9q0 1 2 5v15q0 12 3 17q0 9 1 13q0 1 0.5 2.5t0.5 2.5q1 7 1 21l2.5 5t2.5 5.5t1 4.5q11 25 24 37l5 7q4 7 12 12l12 8l10 9q1 0 2.5 0.5t3.5 0.5
l3 3q4 4 12 8q7 3 14 8q8 5 12 5q2 1 5.5 2t5.5 2l9 4l4 -3q11 -22 12 -25q1 -4 4 -11t4 -11q0 -2 1 -3q2 -2 5 -8.5t4 -7.5l9 -17q0 -2 1 -3l-3 -3q-6 -4 -10 -5q-9 -3 -15 -9q-5 -5 -13 -10l-11 -12l-4 -4q-3 -8 -7 -13q-3 -9 -8 -12q-2 -2 -4 -7q-6 -12 -8 -18
q-6 -12 -6 -20q0 -3 -2 -7v-21.5v-25.5v-21l2 -6q0 -6 0.5 -19t0.5 -20q5 -8 0 -17q0 -1 2 -7v-12q0 -3 -2 -11q0 -4 -0.5 -10.5t-0.5 -9.5l-2 -6q0 -10 -1 -15q0 -2 -1 -6q-2 -2 -2 -4l-4 -11l-17 -17q-2 -2 -6 -4l-6 -3q-6 -8 -4 -15l12 -9q8 -10 13 -15q4 -12 9 -22
q1 -3 1 -10q2 -2 2 -5q1 -5 1 -15l2 -5v-63l-1 -1v-3v-2q1 -2 1 -3q0 -2 -2 -6q0 -5 -0.5 -17t-0.5 -18q0 -1 -1 -3t-1 -3q0 -5 -0.5 -15t-0.5 -15l-2 -5v-24q5 -8 0 -14v-22l2 -5q0 -2 0.5 -6t0.5 -7q2 -2 2 -5l2 -8l3.5 -7t4.5 -8q4 -6 5 -10q0 -2 2 -5t2 -5l14 -14
q0 -3 -3.5 -7t-3.5 -5q-4 -2 -8.5 -8t-6.5 -8l-4 -4q-11 -7 -32 -30l-5 -4q-2 -2 -6 0q-1 0 -4.5 3t-5.5 4l-9 8l-6 6q-9 6 -10 7t-2 3t-2 3.5t-2 2.5q-5 5 -6 9z" />
    <glyph glyph-name="bar" unicode="|" horiz-adv-x="308" 
d="M199 334q1 -8 1 -24l-2 -6q0 -23 2 -69q0 -17 1 -26q0 -8 -2 -12q0 -1 2 -5l-1 -2q-1 -2 -1 -4q0 -11 0.5 -32.5t0.5 -32.5q0 -13 -1 -16v-6v-39l-2 -7l2 -3q-2 -8 -2 -12q1 -13 1 -40q0 -1 -1.5 -4t-0.5 -5q0 -1 0.5 -4t0.5 -4q0 -2 -1 -4q1 -9 1 -28l-2 -2h-4
q-68 -3 -82 -2q-5 0 -7 1h-2q-1 -1 -2 -1q-2 1 -4 1h-11t-10 1t-3 2v3q-2 50 -2 74v6v2l1 2q0 2 -1 3q1 1 1 4v25q0 13 2 16v13q0 1 -1 3q-2 4 -2 6q0 5 -0.5 15t-0.5 16q0 7 -0.5 21.5t-0.5 22.5q0 4 2 10l-2 83l2 6v33q0 11 1 13q1 4 -1 8q2 7 1 10q0 1 -2 5q-1 3 1 10
q1 10 1 32q0 1 1 3q-2 3 0 9v43q0 2 2 4q0 41 -4 117q0 1 -2 5q0 3 -0.5 10t-0.5 11v7q1 2 1 4v3q0 2 1 3q-2 48 -2 73q0 3 -0.5 8t-0.5 7q0 10 2 15q0 1 0.5 4.5t0.5 5.5q-1 12 -1 37v8q1 1 0.5 4.5t0.5 4.5q2 5 0 10v38q-1 5 -1 13l3 3q26 0 39 1q4 -2 5 -2q28 0 86 2
l2 -2q1 -11 1.5 -30t0.5 -25q-2 -10 -2 -14q0 -6 0.5 -18.5t0.5 -18.5v-13q0 -2 -2 -6l3 -104q-2 -4 -2 -5q0 -42 1 -62q-2 -4 -2 -5v-31q0 -19 -1 -23v-19l1 -2q1 -2 1 -4l-1 -2q0 -2 -1 -3v-32q0 -1 -0.5 -3t-0.5 -3q0 -41 1 -61q0 -5 -1 -7q-1 -1 0 -3v-2q-1 -2 1 -10z
" />
    <glyph glyph-name="braceright" unicode="}" horiz-adv-x="359" 
d="M103 882q20 -7 33 -17q11 -8 22 -21l9 -10l3 -10q4 -8 10 -26q0 -1 1.5 -6t1.5 -8q3 -4 3 -14q2 -4 2 -6q1 -7 1 -22q0 -1 0.5 -3t0.5 -3v-2q-1 -2 -1 -3q0 -3 1 -4v-3q-1 -3 1 -10q0 -21 1 -31v-9q1 -2 1 -7q1 -2 1 -13q1 -18 1 -54v-4l2 -5q0 -11 1 -17v-6q2 -4 2 -12
q0 -5 1 -7q0 -1 1 -3v-2q-1 -2 0 -4t1 -3q0 -4 1 -6q2 -10 4 -12q1 -2 2.5 -5.5t2.5 -5.5q7 -7 9 -12q11 -13 18 -16q1 0 4.5 -2.5t6.5 -3.5q1 0 5.5 -2.5t7.5 -2.5q2 0 7 -1.5t8 -2.5q0 -1 1 -4v-115q-1 -6 -8 -9q-2 -1 -9 -1q-3 -1 -10.5 -5t-11.5 -5q-5 -3 -21 -19
q-1 -2 -5 -8.5t-5 -9.5q-1 -4 -1 -12q-1 -3 -3 -8t-3 -7v-12q-1 -3 -1.5 -6.5t-1 -8t-0.5 -6.5v-29l-2 -6v-38q2 -4 2 -14q0 -1 0.5 -3t0.5 -3.5t0.5 -3t1.5 -2.5v-45l-2 -6q0 -2 -0.5 -6t-0.5 -6l-2 -5q0 -1 -0.5 -4.5t-0.5 -5.5q-1 -2 -3.5 -7.5t-3.5 -8.5q0 -2 -2.5 -6.5
t-2.5 -7.5l-9 -15q-1 -1 -4 -5t-4 -7q-2 -2 -8 -10t-11 -11l-15 -9q-2 -1 -5 -3t-4 -3l-18 -9l-6 6q0 2 -2 5.5t-2 5.5t-1 4.5t-1 3.5q-1 1 -1 4v5q-4 12 -7 18l-1 2v2l-6 20q0 1 -1 3q-2 4 -2 6t-1.5 5.5t-1.5 4.5v2q1 2 2.5 4.5t3 4.5l3.5 4.5t4 4.5q8 15 15 25q2 9 4 11
q1 3 4 13t4 17q1 4 1 19l3 6v85l-3 6v56l2 6q1 6 1 21l2 4q1 3 1 5q-1 2 2 7l1 2v3q2 17 9 26l5 7q2 2 26 12l3 4v3l-8 8l-17 9l-14 18l-9 17q-1 2 -1.5 6t-1.5 6q0 1 -3 14q-1 3 -1 10v48q0 1 0.5 2.5t1.5 2.5q1 4 1 12v119q0 1 -0.5 4.5t-1.5 5.5q0 2 -1 3q0 10 -1 15
q0 3 -1 7.5t-1 6.5q0 3 -2 7t-2 6q-3 7 -5 13q-3 8 -8 13q-3 2 -5 5q-7 7 -14 11l-19 13l-12 6q0 2 -1 3l1 1q2 3 5 8.5t6 10t7 8.5l3 5l9 12.5t8 13.5q0 1 2 3q8 10 8 11l9 10q2 4 4 5z" />
    <glyph glyph-name="asciitilde" unicode="~" horiz-adv-x="402" 
d="M265 418q2 0 2 -1l10 -4q10 -4 14 -8q1 -1 6 -4q4 0 12 -6q12 -8 19 -10l2 -4v-4q-4 -8 -8 -12l-8 -10q-8 -10 -13 -14q-1 0 -12 -7t-18 -10q-1 0 -5.5 -0.5t-7.5 -1.5q-2 -1 -7 -1q-15 -3 -16 -3h-17l-5 3h-10q-9 3 -10 3t-5 2l-26 13q-3 0 -10.5 1.5t-11.5 0.5
q-18 -5 -39 -20q-1 1 -4 1q-2 1 -6.5 4.5t-7.5 4.5q-3 4 -12.5 11t-13.5 12q-2 3 -8 7q-2 2 -3 2v3l18 17q1 1 8.5 7t11.5 10q1 0 2.5 1t2.5 2t2 1q1 3 4 4l8 3q4 2 10 4q1 0 3 1q4 2 6 2q0 1 7 0h7l30 -15q1 0 3 -2t23 -12h8q3 0 7 -2q7 -2 12 1q6 1 27 13l10 9q7 7 9 8z
" />
    <glyph glyph-name="uni00A0" unicode="&#xa0;" horiz-adv-x="350" 
 />
    <glyph glyph-name="exclamdown" unicode="&#xa1;" horiz-adv-x="304" 
d="M70 11q0 1 0.5 1t0.5 1q-1 3 0 9t1 9q0 1 0.5 2t0.5 2t1 3v2q0 9 1 13q2 6 -1 10q1 2 1 6v11q0 6 1 8t1 7q0 10 1 12v4q0 11 1 17q1 2 1 8q0 1 0.5 3t-0.5 4q1 2 1 8v11q0 7 1 11q1 2 1 6q0 5 1 8v30v4q1 4 0 6v5q0 6 1 10t1 13q3 11 3 21q0 2 1 3v5q0 2 -0.5 5t-0.5 5
q1 3 1 9q0 7 1 10v5q0 1 0.5 4t1.5 5v8q0 1 0.5 4t0.5 5v9q1 4 1 12q0 4 2 10v4l1 1v3q2 0 4 2q1 -1 3 -1l11 3q3 -2 9 -2q10 0 19 3h7h5q10 0 11 1q6 -1 12 0q1 1 8 -1q0 -4 2 -12l-1 -2v-2v-2l2 -18q0 -1 -0.5 -3t-0.5 -3l2 -9q0 -1 -0.5 -3.5t-0.5 -4.5q0 -5 1 -8
q1 -1 1 -5q0 -8 1 -9v-4.5t-1 -4.5q1 -1 1 -11q0 -6 1 -9q-1 -6 0 -10v-3.5t1 -4.5q0 -7 1 -9v-4v-31q0 -5 1 -8q1 -1 0 -4q0 -4 2 -12v-25q0 -5 1 -8q0 -1 -0.5 -3.5t0.5 -4.5t1 -8q0 -2 -2 -4v-52l1 -2q-2 -7 0 -15v-3.5t1 -4.5v-8q0 -2 1 -3q-1 -3 -1 -10v-60
q0 -8 -1 -11v-1l-1 -1q0 -1 0.5 -3t0.5 -3q-1 -2 -1 -6v-7l-3 -12q-1 -1 -3.5 -1h-3.5h-5q-5 0 -7 -1h-6q-1 0 -3 -0.5t-4 -0.5h-9h-7h-7h-6h-3.5t-3.5 -1h-2q-1 -1 -2.5 0t-2.5 1q-3 -2 -6 0h-8q-4 -1 -9 1l-2 -1q-3 -1 -5 0q-4 0 -7 1h-10l-1 1h-2h-1q-2 -1 -3 0v19
q1 6 1 18v7q0 7 1 9v5q0 7 2 10q0 3 -1 7zM194 532l-3 -5l-1 -2v-3l-4 -8l-3.5 -3.5t-3.5 -4.5t-4 -4.5t-4 -2.5q-1 -1 -8 -5t-11 -5q-3 0 -11 -2q-3 -1 -16 -1q-10 1 -20 10l-10 10l-2 5q-5 10 -5 21v6q2 5 -1 10q6 20 20 41q1 1 3 2t3.5 2t3 2.5l2.5 2.5q5 5 10 5l9 3
q9 0 11 -1h6l3 -2q2 0 5 -0.5t4 -0.5l8 -4q2 -1 4.5 -5.5t5.5 -5.5l4 -6q2 -4 2 -7l2 -6q0 -1 1.5 -8.5t1.5 -11.5v-3q-1 -2 -1.5 -6.5t-0.5 -6.5z" />
    <glyph glyph-name="sterling" unicode="&#xa3;" horiz-adv-x="591" 
d="M379 743q3 -2 8 -3t7 -2q10 -2 15 -4h4q2 -2 3 -2l9 -4q3 0 4 -1l15 -10q1 0 7 -2l5 -4l17 -12l5 -4l5 -5q0 -1 2 -5q3 -3 5 -9q1 -2 1 -4l3 -4q1 -2 2.5 -5.5t2.5 -5.5l7 -17v-3q1 -2 1 -6l2 -4q3 -5 3 -11q-2 -4 1 -5q-1 -3 -1 -8q0 -10 -1 -12q0 -1 1 -2v-6
q-1 -2 -1 -6q0 -9 1 -14v-1l-1 -2v-2q2 -38 2 -57q0 -4 -1 -5h-10q-1 1 -5 1q-1 0 -3.5 1t-4.5 0q-6 0 -8 1h-22q-1 0 -3 -1h-1q-1 1 -2 1q-2 -1 -6 -0.5t-5 -1.5q-6 2 -8 0q-10 2 -16 0q-3 1 -7.5 1h-7.5q-1 8 1 13q-3 5 -1 12q0 3 -1 4l1 2v2q0 1 -0.5 1t-0.5 1q0 5 -1 8
q0 1 -0.5 4t-0.5 4q-4 17 -5 19q-4 5 -7 13l-7 7l-6 6q-8 4 -12 4q-3 0 -9 2q-2 0 -4 0.5t-4 0.5h-7q-3 -1 -8 1q-20 -8 -24 -10l-9 -18q-6 -12 -7 -20q0 -4 -1 -6q0 -2 -2 -8v-4t-1 -4v-9q0 -6 -1 -9v-8q0 -3 -1 -4v-1q-1 -1 0 -2.5t0 -2.5v-6q1 -2 0 -5v-2v-14
q0 -6 -1 -10v-1l1 -2q0 -2 -1 -3v-11q1 -7 0 -14v-3v-3v-16l-1 -1q1 -2 1 -6q2 -1 4 -2.5t3 -1.5q3 0 5 2q2 -1 6 0t4 -1q2 1 3 1t3 -1q4 0 11 -1t11 0q1 0 3.5 -0.5t3.5 -0.5q6 0 8 -1h5q5 0 7 -1h6h7q2 0 1 -4l-1 -5q0 -2 1 -4q-1 -2 -1 -9q0 -8 -1 -12v-5q0 -7 -1 -11v-5
v-9v-3.5t1 -4.5q-1 -3 -1 -7.5v-7.5l-4 -3q-5 0 -8 -1l-15 -2q-7 -1 -20 -1.5t-17 -0.5h-6q-1 0 -3 0.5t-3 0.5t-2.5 -0.5t-2.5 -1.5l-3 -2l-1 -2v-22q-1 -3 -1 -11q2 -7 0 -15v-11v-9q0 -2 -1 -3q3 -10 -1 -24q1 -2 1.5 -5.5t0.5 -4.5q2 -2 2 -3q4 -1 10 -4q3 0 10 0.5
t11 0.5t6 1q4 2 8 -1q5 2 7 1h2q4 0 11 -1t10 -1h11q2 -1 6 1q1 -1 4 -1q1 1 4.5 0.5t4.5 0.5q1 -1 3.5 -1h3.5h5q10 0 12 -1q17 0 26 1q1 1 2 1q5 -2 8 -1q2 0 4 0.5t3 0.5h6h3h4q3 -1 11 1q2 0 5.5 -0.5t5.5 -0.5q1 -2 1 -7v-3t-1 -3q-2 -4 0 -7q2 -6 0 -11l1 -1v-2
q-2 -4 0 -6q0 -2 0.5 -5.5t-0.5 -5.5v-4q0 -10 -1 -15q0 -18 1 -20v-13q0 -1 0.5 -3t0.5 -3q-1 -2 -1 -10l-2 -4l-1 -1h-14l-2 -1h-4q-2 1 -4 1q-8 -2 -14 0q-1 0 -3 -1h-2q-10 0 -15 -1q-6 0 -9 -1h-5h-7q-1 -1 -3.5 0t-3.5 1h-7q-5 0 -8 -1q-1 -1 -5 -1q-2 1 -8 1
q-4 0 -7 1h-18h-7q-10 -1 -30 -1q-10 -1 -29 -1q-3 0 -4 -1q-4 -1 -7 0h-3h-6t-5 1q-1 -1 -3 0t-3 0l-1 -1h-12q-6 -2 -11 -2h-2q-11 3 -21 -1l-3 2l-3 -2q-1 1 -4 1q-1 1 -5 1q-2 -1 -9 -1q-5 0 -8 -1q-6 0 -9 -1h-1q-2 1 -3 1h-7.5t-7.5 1q-1 0 -3.5 -0.5t-3.5 -0.5
q-2 0 -4 -0.5t-3 -0.5h-7q-1 0 -4 -0.5t-4 -0.5h-15q-2 -1 -3 -1h-20q-14 0 -21 -2q-2 1 -6.5 1.5t-6.5 1.5q-2 4 -2 14q0 9 1 10v6q-2 4 -1 6q0 1 -0.5 3t-0.5 3q2 3 0 7v7v13q0 1 -0.5 3t-0.5 3t1 3v2v3t-1 3q1 3 1 9t1 9v4v7q1 2 12 6h5q8 2 11 2h12q4 0 6 1h1q2 0 20 3
q14 0 16 1q4 -1 9 0q3 0 4 3q4 4 5 6q0 22 -1 32q0 5 1 8q0 1 1 1v7q0 5 1 7v8v8q0 1 -0.5 3.5t-0.5 3.5v9q0 2 0.5 6.5t1.5 7.5l-3 8q-9 6 -10 7l-3 -2q-7 0 -8 -1q-2 -2 -4 0q-1 1 -3.5 1h-4.5q-8 0 -12 1h-11h-10q-1 0 -4 0.5t-5 1.5h-6l-4 7q-1 6 -1 19t1 20q1 6 1 17
q0 3 1 5q-2 4 -2 14h3q8 0 22 4q5 -2 8 0h8q1 0 5 0.5t6 1.5q1 1 4 1h4q3 -2 7 0q4 -1 10.5 -0.5t9.5 0.5q1 1 4 9q1 1 1 6l-2 2q3 12 2 15q1 2 1.5 7t0.5 7t0.5 7t1.5 8q0 1 0.5 4.5t-0.5 5.5v2q1 4 1 13v8q-1 7 0 7q-1 2 0 6.5t1 5.5l-1 1v3v12q0 1 0.5 3t0.5 3q0 6 2 16
q1 2 1 6v12v4q0 1 3 23l3 6q0 3 2 20q3 8 4 10q2 8 3 8t3 8l6 12q1 2 3.5 6.5t3.5 6.5l3 7q4 6 5 9q8 14 14 20l13 11q4 4 7 5q4 2 5 4q1 1 2 1q2 0 6 4q6 3 8 3l11 4q20 7 26 8q1 0 3 0.5t3 0.5h5q1 1 5.5 1t6.5 2q2 0 7.5 1t8.5 1q11 0 16 1q6 0 8 -1q1 -1 2.5 0t2.5 0
q4 0 16 -2z" />
    <glyph glyph-name="yen" unicode="&#xa5;" horiz-adv-x="560" 
d="M399 722h1q5 -3 15 -7q5 -2 6 -4q2 -2 7 -5.5t7 -6.5q1 -1 2 -1l11 -9q2 0 3 -1t5 -3.5t7 -3.5l4 -3q1 -2 4.5 -4.5t4.5 -3.5l6 -3l6 -3q2 -2 5 -4t5 -3l4 -3q1 -3 -1 -7q-1 -1 -5 -7t-7 -9q-3 -1 -5 -6q-9 -12 -10 -13l-6 -8q0 -1 -2 -4t-2 -5q-1 -2 -5 -8t-7 -9
q-3 -6 -4 -7l-3 -6q0 -1 -1 -1q-1 -2 -4.5 -8t-6.5 -8l-2 -3l-9 -15q-4 -5 -10 -15q-6 -12 -11 -18q-4 -8 -5 -9q-1 0 -1 -1q-1 -2 -3.5 -5.5t-3.5 -5.5q-2 -4 -8 -12v-1q-1 -1 -1 -2l-3 -4q-2 -1 -3.5 -3.5t-2.5 -3.5t-2.5 -4t-2.5 -4q-5 -5 -6 -7q-1 -1 -6 -7l-1 -1
q-1 -1 -1 -2q-2 -4 -8 -10l-6 -8q-5 -7 -6 -8q-4 -1 -4 -8q-2 -8 -2 -11v-9q1 0 1 -5l-1 -4q0 -4 -1 -6q3 -6 0 -13q1 -1 1 -3l-1 -2v-2t2 -5l8 -5q0 1 1 2q14 2 25 -1q6 -2 10 -2q7 0 11 -1h9l5 -2q0 -11 -1 -16q-1 -2 -1 -7v-6v-7v-6q0 -8 -3 -16h-4q-4 0 -5 -1
q-3 -1 -17 -1h-2q-2 -1 -3 -1l-1 1h-3q-6 0 -9 1l-1 -1h-2q-3 0 -4 1q-7 1 -15 0q-3 -3 -1 -5q1 -3 1 -9v-7v-3t1 -3v-6v-8q0 -1 0.5 -3t-0.5 -4v-4l-1 -1v-3v-4l2 -4q1 0 3 -0.5t3 -1.5q2 1 6 1h8q7 1 23 1q7 0 11 -2l4 2q2 -2 4 -2q0 -1 0.5 -1t0.5 -1v-15q0 -1 0.5 -2.5
t0.5 -3.5v-22l-2 -3q-6 -2 -7 -2h-7q-6 0 -9 -1q-1 -1 -4 -1h-16q-1 0 -2 0.5t-2 0.5h-4q-8 2 -12 -1l-4 2q-1 -1 -2 -1q-2 -6 -4 -8q1 -2 1.5 -5t0.5 -4q0 -2 2 -8v-24q0 -5 1 -8q2 -5 0 -11v-8v-3v-7q-1 -1 -1 -5h-3q-11 -3 -14 -4q-2 1 -6 1h-22q-3 0 -4 1q-5 1 -15 1
q-4 0 -12 2q-2 1 -6 1h-19q-4 0 -7 1q-3 -1 -19 -1q-1 0 -3 0.5t-3 0.5l-2 4v38q-2 9 1 14q-1 2 -8 9q-5 1 -12 -2q-4 -1 -7 0l-2 -1h-2h-11t-10 1q-7 1 -21 1q-1 4 0 8q0 2 -1 4q0 8 1 12v3q1 2 1 12t1 12v4v2q-1 2 0 3v11q0 2 -1 4l2 4q2 2 6 2.5t6 1.5l3 -2q1 1 4 1h16h6
h6h1q4 1 6 0t8 -1q0 2 3 2h3l4 4v6q-1 1 -1 3v4v7q2 3 0 6q-2 1 0 3q1 5 1 16q0 8 1 12l3 7l-12 8h-5l-4 -3h-6q-6 0 -9 1q-5 1 -9 0q-7 1 -14 0q-4 1 -20 -1l-3 4q-1 2 0 4.5t1 3.5v4t-1 3q0 1 1 3v2v13q0 8 6 14l8 2l1 -1q7 2 17 0h5q3 1 8 1h14q1 0 3.5 1.5t4.5 1.5
q1 -2 4 1l4 4q0 5 -1 8v4q0 5 -1 8q2 7 -1 13l2 4q-2 6 -2 9t0.5 12t1.5 14q-6 8 -8 12q0 1 -3 4.5t-4 5.5q-2 1 -4 5q-1 3 -8 12l-3 5l-6 12q-1 1 -2.5 5t-2.5 6l-3 4q-2 2 -4 8l-5 7l-9 15q-1 1 -2.5 4.5t-2.5 4.5q-1 2 -3.5 6.5t-3.5 6.5l-8 12l-8 13v1q-1 1 -3.5 4.5
t-3.5 6.5l-6 11q-1 2 -3 5t-2 4q-1 3 -5 9l-6 9l-9 14q-1 2 -5 6q-5 10 -8 12l-2 3l-5 7q-1 0 -2 2.5t-3 3.5q-1 0 -3 4q2 2 3 2q5 2 20 13q1 1 2 1q8 4 13 10q3 0 4 1l4 2l3 3q2 0 4 2q7 2 10 5q2 1 5.5 2.5t5.5 2.5q3 1 6.5 2.5l8 3.5t6.5 3q4 2 6 1l4 3l4 -2q4 -8 6 -10
q8 -8 10 -13l7 -11l3 -5q1 -2 2.5 -4.5t4 -5.5t3.5 -5q0 -2 1 -3t7 -10l7 -11l3 -2v-4q0 -1 6 -10q1 -3 5 -8.5t6 -9.5q0 -1 2 -5l6 -8q0 -1 2 -3.5t1 -4.5l5 -6l8 -11l1 -2q1 -3 3 -4v-1l1 -1q2 -6 10 -16l5 -7q3 -3 3 -6l5 -4q8 2 11 2l1 -1h3h4l4.5 9t6.5 10q2 7 3 8
t1.5 3t1.5 3q3 1 3 5q3 2 6 7.5t5 7.5l5 9q11 17 13 19q0 1 2 3q2 4 4 6l8 12q8 16 10 19q2 4 4 6q8 13 10 15t2 4q0 1 1.5 2.5t1.5 2.5t1.5 2.5t1.5 2.5v1l1 1q1 3 4 7.5t3 5.5q0 2 1 2q4 4 4 8q0 1 1 1q0 2 1 3l8 10q0 1 2 1z" />
    <glyph glyph-name="section" unicode="&#xa7;" horiz-adv-x="536" 
d="M429 637l-5 -3q-3 0 -8.5 0.5t-7.5 -0.5h-13q-5 0 -13 1t-13 1h-3q-2 1 -7 1q-1 0 -3 1t-3 0t-5 -1h-39q-1 2 -1 5v24v6q-1 1 -1 4v8v9v8q-1 1 -1 3q0 1 1 2q0 1 -1 2l-5 13q0 2 -1 4t-2.5 4.5t-2.5 3.5q-3 3 -5 3l-8 4q-6 2 -10 2h-4q-7 3 -16 -2l-7 -3q-5 -1 -7 -4
l-18 -12q-7 -7 -8 -13l-3 -2l-1 -1l-2 -7q-1 -2 -1.5 -6.5t-0.5 -5.5v-3q1 -2 1 -5q0 -5 1 -7q1 -1 1 -4q0 -7 1 -9v-8q4 -5 4 -16q0 -4 3 -8l10 -12l3 -5l3 -3l3 -2q0 -2 1 -2l7 -11q1 -1 2 -1q2 -1 4 -6l3 -3q1 -1 2.5 -3.5t3.5 -2.5q1 0 1 -0.5t1 -0.5l9 -9q7 -8 23 -20
q3 -3 11 -7l3 -4l3 -2q6 -5 13 -10l16 -12l3 -3l15 -18l11 -13l6 -10v-3l8 -8q1 0 1 -1l1 -2l9 -18l5 -10q0 -2 2 -6t2 -6q0 -1 1 -2q2 -4 4 -12q2 -6 4 -18l2 -15v-3l2 -12v-12q2 -6 2 -9q-1 -1 0 -4t0 -5q1 -11 -1 -19q0 -1 -0.5 -4t-0.5 -5q0 -6 -1 -8q-2 -6 -2 -8
q0 -4 -2 -12t-2 -14q-2 -6 -2 -11q-2 -2 -4 -12q-3 -6 -3 -12q-2 -2 -3 -2l-6 -11q-3 -6 -4 -7t-2 -3t-2 -3q-2 -1 -5 -7l-5 -6v-7q2 -2 4 -6l4 -2q1 -1 1 -2q1 -2 1 -3l5 -5q0 -5 6 -11v-3q4 -6 5 -9q6 -8 7 -14l3 -7q3 -1 3 -6q0 -2 1 -3l6 -15q4 -14 7 -21v-1
q0 -2 0.5 -4.5t1.5 -5.5t1 -5q0 -1 1 -4.5t0 -5.5l1 -1v-2v-1l-1 -2q0 -1 0.5 -3t0.5 -4v-40q-1 -1 -4 -14v-4q0 -3 -5 -23q0 -4 -1 -6l-2 -2v-5q0 -1 -1 -2.5t-2 -2.5t-1 -2v-1q-1 -1 -1 -2l-3 -7q-1 -1 -2 -4l-1 -3l-2 -6l-1 -1q-1 -2 -2 -3q-3 -4 -7 -12q-7 -7 -13 -16
l-2 -2q-3 -2 -7.5 -6.5t-6.5 -5.5l-1 -1q-2 -1 -6 -3.5t-6 -4.5q-8 -6 -12 -8q-20 -10 -24 -11q-4 -4 -12 -4q-2 -1 -5 -1q-1 0 -3 -0.5t-3 -1.5h-3q-5 0 -7 -1h-3.5t-3.5 1q-1 -1 -3.5 -1.5t-3.5 -0.5q-3 -1 -9 -1h-24q-4 0 -14 2h-4q-1 0 -2.5 0.5t-2.5 0.5t-3 0.5t-4 0.5
q-5 -3 -9 0q-22 7 -29 8q-1 0 -5 2q-1 0 -3.5 1.5t-4.5 1.5q-2 1 -4.5 3t-3.5 2l-1 1h-1q-6 3 -11 8q-1 2 -5 4q-2 4 -4 5q-1 1 -3.5 4t-4.5 4q-6 10 -10 13l-12 14v1l-1 1q0 2 -6 13l-2 4q-3 4 -8 21l-4 15q0 1 -1 4q0 5 -2 11q0 2 -0.5 4t-0.5 3q1 5 -1 15l-2 4
q0 2 -1 7.5t0 8.5v31q0 4 2 6h6q2 1 7 1q3 2 6 0q4 -1 8 1q2 -2 4 -2h10q2 0 5.5 -0.5t4.5 -0.5q2 -1 6 -1q2 1 5 1t5 1h1q1 0 3 -1t4 0h2q7 -3 15 -1q3 0 6 1q4 -2 10 -2q3 2 6 0h2.5h2.5l6 -2q-1 0 0 -10v-11q0 -2 0.5 -6.5t0.5 -7.5q1 -1 1.5 -4t0.5 -4q2 -4 2 -7
q1 -3 3 -8t3 -6l6 -6q1 -1 3 -1q5 -3 30 -3q3 0 9 2q1 0 4 0.5t5 1.5l10 5l10 11q0 1 1 1q1 1 3 4t3 4q1 2 2 6q1 2 1 3l3 17q1 11 0 22q-1 1 -1 3q0 7 -1 10q-1 0 -1 2v2l-4 12q-3 6 -7 10q-2 1 -4 5q-1 2 -14 15l-7 8l-7 7q-6 4 -8 7l-7 6q-6 6 -10 8q-1 1 -5 3.5t-7 3.5
q-2 0 -2 3l-10 5q-21 16 -23 18t-3 2q-1 1 -14 11q-2 1 -5.5 4t-4.5 4q-2 2 -6 4q-5 5 -6 7l-11 12l-6 7q-2 4 -4 4q-1 2 -2.5 4.5t-2.5 4.5q-1 3 -5 7q0 3 -1 4q-1 2 -4 10q-1 5 -5 13q-2 8 -4 11q-1 3 -4 13q-2 4 -2 8v2q-1 1 -3 13q0 3 -2 11q-3 18 -2 22q0 5 -1 7
q-1 6 0 12q2 6 0 11v12q1 1 1 3v2v6q0 8 1 11q1 2 1 6q0 10 1 11v3q0 4 2 12q0 4 2 12q0 1 1 8t2 11v3q5 11 6 18l2 5q2 4 2 6t1 3t2 3.5t2 3.5t2 4l1 3q1 1 2.5 4.5t2.5 4.5t2 3l1 2q3 7 7 9l5 7q1 2 9 10q4 3 7 7q0 1 -3 7l-3 2q0 1 -2 2.5t-3 2.5q-1 2 -5 6l-8 9l-13 15
q-5 5 -8 11l-6 9q-4 5 -7 13q0 2 -6 13q-2 6 -4 9v2q0 2 -3 8q0 10 -3 17l1 1q-1 5 -1 11v28q0 3 2 11l4 15q2 6 5 13l2 5v3q7 10 9 18q0 1 5 8l13 23l9 12q8 13 17 22q1 3 12 11l3 4q6 3 18.5 11t19.5 12q6 0 9 1l6 2q1 0 3 0.5t3 0.5t3 0.5t3 0.5q2 1 6 1h4q4 0 6 1
q6 -2 9 0h20q2 -1 15 -1q1 1 2 1l2 -1h2q6 2 10 1q0 -1 3 -2q2 0 4 -1q5 0 7 -1q8 -2 10 -2t4 -0.5t3 -0.5q4 -2 7 -2l4 -3l10 -4l10 -3q9 -6 10 -6q1 -2 5 -3.5t5 -2.5q0 -1 3 -1q13 -11 14 -11l3 -3q1 -1 1 -2q5 -2 9 -11l5 -5q0 -1 1 -3q7 -9 11 -18v-1q5 -6 7 -16l3 -9
q3 -13 3 -14q0 -5 1 -8t1 -8q0 -6 1 -9v-5v-34q0 -10 -1 -11q2 -8 1 -12q-1 -3 -1 -20v-1l1 -2l-2 -3q0 -7 -1 -10t-1 -9q-1 -2 -1.5 -7t-0.5 -6zM280 438l-8 7q-1 2 -4.5 5t-5.5 5q-1 1 -7 6q-2 2 -3 2q-3 1 -6 3t-6.5 5t-5.5 4h-10q-3 -2 -5 -7q-2 -2 -4 -6l-14 -22v-2
l-3 -4q0 -2 -5 -12q1 -2 -2 -12q-3 -13 -3 -14l-2 -7q0 -7 1 -9v-4v-8v-6q-2 -2 0 -5v-3q0 -4 2 -10l3 -9l5 -16q-1 -1 2 -6l3 -6l3 -5l3 -7q4 -10 7 -14q5 -4 7 -6l9 -8q1 -1 5 -4t6 -5l10 -8q6 -7 16 -9q4 2 9 7q2 2 2 3q11 12 13 23q2 2 2 4l3 9q1 7 5 21v2l5 21
q0 1 0.5 4.5t0.5 5.5q1 5 0 14.5t-1 13.5l-1 2q0 1 -0.5 3t-0.5 3q0 4 -1 7q-1 5 -5 20q-3 11 -9 20q-4 4 -10 14z" />
    <glyph glyph-name="dieresis" unicode="&#xa8;" horiz-adv-x="401" 
d="M76 684l10 8q7 1 16 0q11 -5 22 -14q4 -4 13 -21q0 -1 0.5 -6t1.5 -8q1 -1 1 -4v-11q-2 -6 -2 -7l-5 -10q-2 -1 -5.5 -5.5t-6.5 -5.5l-6 -4q-2 -1 -6 -1.5t-6 -2.5h-21l-7 3q-8 1 -15 8l-6 6l-11 19v11q0 4 1 5q2 4 2 11l10 19q5 6 11 11q1 0 4 -1t5 0zM226 636v14
q2 7 10 24l8 8l4 2l13 7q2 1 7 1q2 -1 5 -1t4 -1h5.5t4.5 -1q14 -5 16 -7l7 -6l3 -3q8 -12 10 -19q3 -22 2 -25q0 -1 -2 -5v-3l-9 -13l-2 -2l-21 -11h-24q-8 4 -12 3l-9 6q-6 4 -7 7l-6 9q-2 3 -4 8t-3 8z" />
    <glyph glyph-name="copyright" unicode="&#xa9;" horiz-adv-x="787" 
d="M342 763q3 2 17 7l7 2q8 0 12 1q2 1 7 1.5t6 0.5q3 0 9 2h7q6 0 8 -1h3.5t3.5 -1h8q3 0 10.5 -0.5t11.5 -0.5q5 0 7 -1t6 -1q5 0 8 -1q1 0 4 -1t5 -1t5 -2t4 -2q2 1 5 -0.5t4 -1.5q4 -1 10 -5q21 -8 23 -9q1 -1 4.5 -1.5t5.5 -2.5q3 -1 9 -5l9 -5q1 -1 3.5 -3t4.5 -2
q1 0 6 -5q2 -2 6 -4q10 -6 15 -10q3 -2 8.5 -7t8.5 -7q2 -1 15 -14q10 -9 24 -31l5 -9l5 -10t7 -12q1 0 3 -5q0 -2 1 -3q6 -14 10 -21q1 -4 4.5 -11t4.5 -11v-4q2 -4 2 -7q1 -2 1 -6q2 -2 2 -6l2 -18q0 -1 2 -5v-15q3 -7 3 -27l2 -4q-2 -6 0 -9q-3 -4 -1 -9q3 -8 0 -17
q-1 -2 -1 -7v-15q-2 -3 -3 -9t-3 -9v-15l-5 -9q0 -1 -0.5 -3l-1 -4t-1.5 -3q-1 -2 -1 -6q0 -3 -2 -5q0 -1 -0.5 -3l-1 -4t-1.5 -3l-5 -10l-6 -14q-1 -4 -11 -27q-16 -27 -23 -35l-19 -26q-2 -1 -6 -5l-22 -21q-2 -2 -6 -4.5t-5 -3.5q-3 -4 -11 -8l-7 -5q-2 -2 -7 -5t-7 -5
q-5 -1 -12.5 -5.5t-9.5 -5.5q-5 -3 -15 -7q-4 -1 -10 -5q-2 -1 -10 -4l-6 2l-2 -2l-13 -6q-3 -1 -14 -4l-7 -2l-9 -3h-24q-4 -2 -5 -2q-1 -1 -4 -1h-28q-4 0 -6 1q-6 2 -9 2h-36l-5 2h-2q-6 1 -17 1q-5 3 -17 3q-15 6 -16 6t-2.5 0.5t-2.5 0.5l-14 7q-3 1 -7 3t-7 2
q-2 0 -10 4q-4 0 -7 1l-6 3q-14 6 -21 8q-5 1 -13 7q-4 4 -14 10l-18 12q-1 0 -2 1h-2l-11 7q-3 7 -11 12l-9 8l-4 4t-4 5l-7 9q-7 7 -8 9q-4 6 -7 8q0 2 -1 2q0 3 -3 8.5t-3 7.5q0 1 -2 3q-1 2 -9 17q-1 3 -3 8t-3 6q-1 2 -1 7l-5 10l-3 12q0 2 -0.5 9t-0.5 11l-2 4
q0 13 -1 19v2l-1 2q0 2 1 3q-1 1 -1 2q-1 2 -1 3l2 6v12v1q-1 1 -1 2t0.5 4.5t0.5 5.5q0 1 0.5 5t0.5 6v10l2 6q0 3 0.5 8.5t0.5 7.5q2 4 2 5q0 5 1 8v4l3 18l5 11q0 1 0.5 3t0.5 4l9 21q2 5 6 12.5t5 11.5q2 2 7 13q1 6 5 11l21 30q5 8 12 15q11 11 13 15l3 4q22 22 26 24
l2 2q2 3 5 5q22 16 34 23q15 10 33 15l12 5h3l1 1q3 0 8 2t6 2q5 1 13 5q10 2 15 4q12 3 13 3q12 3 13 3q6 3 13 3zM523 271l9 8q2 2 6 4.5t5 3.5q6 6 10 8q3 2 6 6.5t4 5.5l10 12q6 10 8 15l8 15q1 2 9 23v2l1 2l3 8l2 9q2 6 2 8q1 3 1 9q0 2 1 3l2 11q0 8 1 9q-1 1 0 5
t1 5q1 33 0 67q-3 6 -2 8q0 5 -3 11q0 2 -2 6.5t-2 6.5q-1 2 -2 5t-2 5l-3 6t-2 7q0 2 -1 2q-2 2 -5 7.5t-5 7.5q-5 3 -6 8l-27 27q-5 2 -13 10q-12 12 -23 18l-6 4q-6 4 -9 4q-1 0 -5 2t-6 2q-1 0 -2 1t-2.5 2t-2.5 1q0 1 -2 1q-2 1 -6.5 2.5t-8 2.5t-6.5 1q-2 0 -6 2
q-2 2 -8 4q-11 0 -16 1q-8 2 -13 2q-27 1 -53 0q-3 0 -4 -1q-3 -1 -8.5 -1.5t-8.5 -2.5q-2 0 -6.5 -2t-7.5 -2q-2 -1 -7 -2t-7 -2l-11 -4q-3 -1 -6.5 -3t-5.5 -2l-23 -13q-30 -18 -46 -35q-4 -5 -15 -16q-9 -12 -12 -18l-6 -13q-1 -3 -3.5 -8l-3.5 -7q-2 -4 -5 -13t-5 -13
l-1 -3q-1 -3 -2 -4l-2 -8q0 -2 -1 -4t-1 -3q0 -3 -2 -10t-2 -12q-2 -3 -2 -13v-39l2 -4q0 -2 0.5 -7.5t1.5 -8.5q2 -4 4 -16l2.5 -5t2.5 -5.5t1 -4.5q1 -3 1 -7q2 -7 8.5 -18.5t7.5 -12.5l6 -9q3 -3 8 -9.5t8 -9.5q1 -5 10 -12q6 -3 10 -7q10 -8 12 -10q16 -7 25 -15
q1 -1 3 -1q4 0 10 -4q1 -1 5 -1.5t6 -2.5q1 -1 2 -1q2 0 7 -1.5t8 -1.5q2 0 7 -2t8 -2q1 0 2 -1h2h5.5t4.5 -1l6 -3h29q7 4 14 1q39 -2 58 -1q2 2 3 2q14 4 20 7h2q3 0 5 1q10 5 15 6q9 2 15 6zM316 574q3 2 8.5 5t8.5 5q2 2 6.5 4t6.5 3q3 0 9 1.5t9 1.5q18 2 36 0
q1 0 5 -2q8 0 12 -2l10 -2q1 0 3 -1q4 -2 6 -2q7 -4 17 -6q2 0 2 -1q8 -4 12 -5v-2q1 -1 0 -1q-3 -5 -7 -15l-6 -15l-10 -14q0 -2 -2 -2l-19 8h-14q-2 -1 -6.5 -2t-6.5 -2l-12 -6q-1 -2 -7 -8q-3 -2 -6.5 -8t-4.5 -7q-1 0 -1 -2q-1 -3 -3 -8t-3 -6q0 -1 -0.5 -4.5t-1.5 -5.5
q-3 -6 -1 -13q2 -4 2 -11q0 -1 0.5 -3t0.5 -3t1 -1l12 -13q1 -1 26 -12h12q4 0 5 1q1 0 21 3q5 2 13.5 7t12.5 7q5 -5 5 -9q3 -8 9 -16q5 -5 9 -18v-2q-2 -3 -6 -6.5t-5 -5.5q-13 -7 -14 -9q-9 -5 -17 -8q-1 0 -5 -1.5t-6 -1.5q-2 -1 -5.5 -2t-5.5 -2q-6 -2 -9 -2
q-5 0 -7 -1q-7 -3 -13 1q-2 -1 -5 -1q-4 2 -12 1.5t-12 0.5q-1 0 -11 3q-5 2 -13.5 7t-12.5 7l-8 6q-1 1 -4.5 3.5t-5.5 4.5l-9 10q-5 7 -5 8l-7 12q-1 2 -2.5 5.5t-2.5 5.5q-4 7 -3 12l-3 9l-3 9q-1 0 -1 19l1 20q0 1 2 7l1 2q-1 4 1 10.5t2 8.5t1 3q10 20 14 24q4 6 7 9z
" />
    <glyph glyph-name="guillemotleft" unicode="&#xab;" horiz-adv-x="517" 
d="M49 363l2 9q2 2 6.5 9t7.5 10q1 3 5 7q6 7 13.5 14l16.5 16l14 14l7 5l5 7l14 13q3 1 12 11q1 0 6.5 5.5t9.5 7.5l10 10h4l5 -5t7 -5q1 0 5 -4l5 -5q5 -2 15 -14l8 -9l-2 -2l-2 -2l-2 -2l-2 -2l-2 -2q-5 -3 -13 -11l-26 -27l-7 -7l-7 -7q-2 -1 -4 -5l-6 -6l-2 -1
q-1 -3 -5 -7t-5 -7v-6q2 -3 4.5 -9t3.5 -8q1 -3 3.5 -7.5t3.5 -6.5t3 -5t3 -5q1 -4 5 -10q1 -1 1 -3q1 -1 10 -16q7 -14 11 -17q1 -3 5 -8.5t6 -9.5q2 -5 8 -15q1 -1 7 -16q0 -2 -1 -3q-2 -2 -13 -8l-30 -14q-3 -1 -9 -1q-9 6 -15 16q-2 2 -5 7t-5 7q-2 3 -6 7.5t-4 5.5
q-1 1 -2.5 3t-3 4.5t-2.5 3.5q-6 6 -8 10l-8 9q-7 12 -8 14l-11 16l-6 8q-8 14 -10 16q-1 3 -5 8t-5 8q-1 2 -3 4.5t-3 3.5q-1 2 -4 9zM356 334l7 -8q1 -2 3.5 -5.5t3.5 -5.5q0 -1 2 -3q2 -4 4 -10q5 -3 11 -13q2 -4 6 -10.5t5 -8.5l9 -13q0 -1 1 -2l-3 -3l-8 -4
q-2 0 -16 -6l-12 -6q-2 0 -6 -2l-6 -3q-5 -2 -13 -4h-5q-6 4 -8 9q-3 8 -8 13q-1 2 -5 9t-6 11l-11 21l-11 19q-3 8 -9 14l-1 1q-3 5 -9.5 14t-8.5 13l-3 7q-1 1 -1 3q2 3 7 5q4 10 14 20l13.5 13.5l16 15.5t13.5 14l42 41l13 15q2 0 8 -2q8 -5 12 -7l11 -7q3 -1 7.5 -3.5
t5.5 -3.5t4.5 -3.5t4.5 -4.5q3 -4 -1 -6l-3 -3l-4 -2q-2 -4 -10 -10l-2.5 -2.5t-3 -2.5l-3 -2t-3.5 -2l-15 -14l-24 -24q-5 -7 -12 -11l-7 -5q-2 -3 -4 -9q2 -4 2 -6q10 -10 16 -21z" />
    <glyph glyph-name="registered" unicode="&#xae;" horiz-adv-x="798" 
d="M583 723q2 -1 7 -6q3 -1 9 -5t8 -5l5 -3l12 -13l15 -14l9 -12q4 -2 8 -10l3 -5q8 -8 12 -16l4 -5l12 -18q1 -1 2.5 -5t2.5 -6q3 -4 6 -12t5 -12q0 -2 2 -6.5t1 -7.5q0 -3 2 -9q1 -1 1 -5q1 -1 1 -2.5v-2.5t1.5 -5t1.5 -6q-1 -4 -1 -12v-2l1 -2q0 -2 2 -6v-27l3 -5v-19
l-2 -4q0 -3 -0.5 -9.5t-0.5 -9.5q0 -7 -2 -10v-6q-1 -5 -1 -17q-1 -1 -1 -2q-1 -2 -1 -3q0 -5 -1 -7v-9q-2 -2 -2.5 -7t-1.5 -7q-4 -9 -5 -17q0 -2 -3 -11q-2 -4 -5 -11.5t-5 -10.5q-3 -9 -4 -10l-5 -11q-1 -1 -1 -4q-1 -2 -4 -9q-2 -3 -5 -9t-4 -7q-6 -12 -11 -17l-6 -9
l-3 -2q-2 -2 -3 -4l-21 -21q-7 -7 -16 -13q-1 -1 -3 -2t-3.5 -2t-2.5 -2q-5 -4 -9 -6q0 -2 -2 -2q-1 -1 -2 -3t-3 -3q-2 0 -6 -4q-1 -1 -4 -1q-7 -2 -11 -6q-11 -7 -23 -10q-12 -2 -17 -4q-1 0 -3 -0.5l-4 -1t-3 -1.5t-7 -4q-4 0 -12 -2h-1l-2 1q-8 -5 -15 -6q-2 -2 -7 -2
t-7 -1q-3 -2 -8.5 -2t-8.5 -1l-4 -2h-12h-49q-8 0 -13 2q-4 2 -8 -1l-6 2q-13 0 -16 2q-2 1 -7 1h-16q-3 2 -10 3.5t-10 2.5q-2 1 -8.5 3.5t-9.5 4.5q-1 0 -4 0.5t-4 0.5q-2 1 -6.5 3.5t-8.5 4t-8 2.5h-2q-1 1 -2 1q-2 0 -6.5 2t-5.5 2q-4 1 -9.5 3.5t-8.5 2.5l-5 2.5
t-5.5 3t-4.5 3.5q-4 2 -6 2l-4 2q-1 1 -11 7.5t-15 11.5l-4 3l-15 11q-1 1 -3.5 2.5t-4.5 3.5q-3 3 -9 8.5l-11 10t-10 8.5q-2 3 -4 5.5t-4.5 5t-3.5 4.5q-10 15 -12 17t-4 6l-9 19l-6 15q0 2 -1 5t-1.5 5.5t-0.5 4.5q0 3 -2 10t-2 10q-2 4 -2 5q-2 32 0 63q0 2 2 4v24
q0 1 1 3q2 4 2 6q0 7 2 10l1 1v2q0 9 1 10q2 3 2 9l4 14q2 8 5 14q1 2 2.5 6t2.5 6l9 18q3 9 20 44q5 10 12 17l9 12q1 1 4 4.5t4 5.5q1 3 6 8l13 14q1 2 4.5 5t4.5 4l8 9q4 3 11.5 9.5t10.5 8.5l22 16q26 16 33 20l15 9q1 0 2.5 0.5t2.5 1.5q2 1 6 2.5t6 2.5q6 5 12 6l11 4
q2 0 6.5 1.5t6.5 1.5h2l2 1q2 1 11 4l5 1q5 1 7 2h4t4 1q5 2 24 2h56q8 -2 10 -2q8 0 11 -2q2 -1 6.5 -1.5t5.5 -0.5q3 -2 10 -2q2 0 4.5 -1.5t3.5 -1.5h1q12 -1 24 -5q9 -4 20 -7q3 0 8 -1.5t6 -1.5t3.5 -1.5t4.5 -1.5t4 -2q1 -1 3 -2.5t4.5 -2.5t3.5 -2q2 -2 13 -7
q2 -2 6 -3.5t6 -3.5zM599 603l-4 3q-2 4 -8 10l-5.5 5.5l-6.5 6.5l-6 6q-7 7 -23 19l-16 11q-3 3 -9 6t-8 5q-1 0 -3.5 1.5t-3.5 2.5q-12 8 -21 9q-1 0 -3.5 1t-4.5 1q-1 0 -10 3q-18 3 -19 3q-2 0 -4.5 1.5t-3.5 1.5h-15q-2 2 -5 2q-4 1 -14 1h-41q-12 0 -17 -2
q-2 -1 -6 -1q-8 0 -11 -1q-15 -5 -41 -17l-7 -3q-3 0 -4 -1q-4 -4 -14 -8l-15 -9q-12 -8 -22 -16q-6 -6 -10 -8q-3 -1 -4 -4q-2 -4 -8 -10q-16 -16 -19 -21q-6 -8 -8 -12q-1 -3 -4 -7t-4 -7t-5.5 -11.5t-6.5 -13.5q-1 -2 -1.5 -5t-0.5 -4l-4 -8l-2 -7q0 -1 -3 -11
q-1 -1 -3 -13q0 -2 -2 -8q0 -5 -0.5 -13.5t-0.5 -12.5l-2 -5v-45l2 -5v-5q0 -16 3 -23q0 -3 2 -7.5t2 -5.5q3 -10 4 -13l6 -11q0 -2 6 -10q1 -2 2 -5.5t2 -5.5t4 -5.5t4 -5.5l2 -6l16 -17q1 -1 2.5 -2t2.5 -2.5t2 -2.5q6 -5 6 -7q0 -1 1.5 -2l3 -2t2.5 -2q4 -5 21 -17
q5 0 7 -2l5 -4l27 -13q5 -2 13 -5.5t11 -4.5q5 0 6 -1l12 -3h4q1 -1 10 -3q2 0 6 -2q20 -3 21 -3q4 0 12 -0.5t12 -0.5h2q1 -1 2 -1l2 1h3h14l4 -1q5 1 12.5 1.5t9.5 0.5q7 1 12 4q6 2 14 4q1 0 7 2t9 2l12 3l12 3q1 0 5 1.5t6 1.5q3 0 4 1l16 8q14 8 16 9q3 1 8 5.5t8 5.5
l3 3q15 14 27 27l5 6q2 2 5 8t5 8q1 1 3.5 5.5t3.5 7.5l4 4q3 5 3 9l1 3q2 2 3 4l3 8q3 6 7 18q0 3 2 7l3 17v3t1 3v16l2 5v13q-2 3 -2 10q0 30 -1 45q-2 6 -2 9q0 7 -2 10q-1 2 -1 6q0 2 -2 7t-2 8v3q-1 2 -4 11t-5 14q-2 2 -2 4q-1 6 -7 16q-2 2 -12 20zM476 369
q0 -5 1 -8q1 -2 5 -6l-1 -3q-6 -4 -18 -10h-3q-3 1 -6 -1t-5 -2l-8 10q-1 1 -3.5 4t-3.5 5l-7 9l-5 10l-5 5l-10 10q-2 2 -4.5 6t-4.5 6l-5 7l-3 8l-3 7q-11 6 -13 6l-4 -4q-1 0 0 -9v-9v-17l-3 -7v-45l-4 -8l-4 -3h-10l-5 2q-1 0 -2 1h-18q-2 0 -4 2v30l2 5q-1 1 -1 3
q3 6 -1 12q2 8 2 13q1 22 1 65q2 4 2 6q0 1 -2 5q0 11 -1 16q0 1 -2 5v24q0 2 2 4l-2 4v69q2 2 5.5 3t4.5 2h20q8 0 10 -1t5.5 0t4.5 1q3 0 7 -2q2 0 7.5 -0.5t8.5 -1.5q4 0 8 1t8 0l5 -2q1 0 4.5 -0.5t5.5 -0.5q11 -6 13 -6t8 -3l12 -8q8 -14 9 -16l7 -17v-24q0 -8 -2 -12
q-2 -10 -7 -17l-3 -4q-1 -1 -2.5 -2t-2.5 -2.5t-2 -2.5l-6 -6l-7 -5l-6 -9q0 -1 0.5 -2t0.5 -2l5 -11q2 -2 3 -5.5t2 -4.5q2 -3 3.5 -8.5t2.5 -8.5q3 -4 7 -14q8 -18 9 -20zM359 545q-1 -12 -1 -36q3 -7 10 -8h10q13 5 16 5q4 1 17 5l12 13v16l-4 8l-10 9q-3 0 -5 1l-7 5
q-11 0 -16 1q-2 1 -6 1.5t-6 2.5h-2l-6 -3l-2 -4q-1 -2 0 -5.5t1 -4.5t-0.5 -3t-0.5 -3z" />
    <glyph glyph-name="macron" unicode="&#xaf;" horiz-adv-x="340" 
d="M52 598q-1 2 -1.5 5.5t-1.5 5.5q-1 3 -1 9v23l-3 20v10q3 5 7 5q8 0 12 -1q2 -1 6 -1q2 -1 4 -1l6 3h17l6 3q27 0 32 -1q2 0 4 1h41l6 -2q3 0 5 1q5 2 12 -1q9 3 40 3q7 4 13 0q1 0 3 -0.5t3 -1.5q2 -2 -1 -10q-1 -2 -1 -6v-53q2 -4 2 -5q-3 -4 -5 -3q-7 3 -14 -1
q-28 0 -42 -1q-1 0 -5 -2q-31 0 -46 -1q-1 0 -5 -2h-50q-4 2 -5 2q-4 0 -17.5 0.5t-20.5 1.5z" />
    <glyph glyph-name="degree" unicode="&#xb0;" horiz-adv-x="329" 
d="M103 759q13 2 14 3q23 5 31 4h4h3.5h4h4.5h7q4 -1 7.5 -2.5t5.5 -1.5q2 1 6 -1t5 -2l12 -4l10 -7q2 -1 3 -3t2.5 -4.5t2.5 -3.5q17 -20 24 -46q0 -1 2 -5v-12q0 -9 -2 -13q0 -4 -2 -11t-2 -10q-1 -4 -8 -16l-8 -15l-10 -10q-3 -3 -11 -7h-2q-2 -1 -3 -1q-12 -7 -30 -12
q-6 -2 -9 -2h-41q-2 0 -5.5 1.5t-5.5 1.5q-1 0 -10 3q-2 0 -4.5 2t-3.5 2q-3 1 -8 6t-8 6l-4 3q-2 2 -2 3q-1 2 -5 6t-5 7q-1 1 -3.5 5t-3.5 7q-3 10 -4 11q0 2 -2 8.5t-2 9.5q-4 8 0 21q1 4 3 10t2 9l6 15q2 5 16 23l10 10q5 4 15 10q2 0 4 2zM109 647l13 -14l14 -6
q2 0 7.5 -0.5t8.5 -1.5q1 0 2.5 0.5t2.5 0.5q5 0 17 4q2 0 5 3q15 20 16 23q0 6 2 9q1 2 1 12q-1 2 -2.5 8.5t-3.5 9.5q0 6 -7 11l-18 12q-4 0 -12 2h-1q-2 -1 -3 -1q-9 0 -16 -3q-6 0 -13 -5q-10 -7 -18 -18q0 -8 -1 -11l-2 -5v-12q1 -1 3 -8t5 -10z" />
    <glyph glyph-name="twosuperior" unicode="&#xb2;" horiz-adv-x="379" 
d="M215 690q-6 8 -6 13q-5 9 -6 10l-2 3q-2 0 -3 1q-2 2 -2 3l-8 5l-8 2l-3 2q-6 0 -14 4q-14 -3 -23 -8l-8 -9l-4 -13q-2 -8 -1 -13l-3 -6q1 -6 -3 -16q-5 0 -7 -1t-4 -1h-3h-3q-2 1 -7 1.5t-7 0.5q-9 0 -13 -1h-8q-2 -1 -7 -1q-3 1 -8 1.5t-6 0.5h-2v6q-1 2 -1 6v6
q1 3 4 13l3 18q1 1 1 3l3 15v2l5 10l3 7q3 3 3 5q3 4 17 21l9 7q2 1 6 5q1 0 8 5l9 4l7 3q5 1 15 5l2 -1h13h12q1 0 2.5 0.5t2.5 0.5q1 -1 7 -1q8 0 15 -3q1 0 4 1q1 0 3 -2t4 -2l12 -6q3 0 5 -1l4 -3h3q3 -3 4 -3q2 -2 4 -2l2 -4q7 -1 13 -7l7 -5l3 -2l2 -1l7 -8l4 -5
q0 -2 2 -4q4 -4 3 -6q2 -6 4 -8q1 -2 4 -10q1 -2 1 -4q0 -1 0.5 -1t0.5 -1v-1l1 -2l3 -18v-26l-3 -6q0 -6 -1 -9q-1 0 -1 -2q1 -2 -2 -12q-3 -3 -3 -8l-2 -7q-3 -4 -3 -8q-1 -5 -7 -11q-2 -6 -20 -32l-2 -5q-6 -4 -11 -13q-4 -6 -14 -16l-4 -5l-8 -7q-1 0 -1 -1l-6 -6t-6 -7
q-9 -9 -12 -15q-1 -1 -2.5 -4t-2.5 -4v-5l4 -3q5 -2 9 0q6 2 12 0h2l2 1q2 -1 6 -1.5t5 -0.5q5 0 7 -1q5 0 7 1h8q1 0 6 0.5t7 1.5h6l12 -3q8 1 17 -4q6 0 9 -1q2 -3 2 -11q0 -6 2 -8q-2 -5 -2 -15v-4q-1 -1 -1 -10q-1 -1 -1 -4v-4v-8v-5l-4 -8v-5h-2q-4 0 -6 1q-7 1 -13 0
t-10 0q-4 -1 -12 -1q-10 0 -15 -1q-1 -1 -4 -1q-2 1 -5 1t-4 1q-1 -1 -4 -1h-5q-6 1 -11 0q-1 0 -2.5 0.5t-2.5 0.5h-12q-5 0 -8 1h-5q-1 0 -5 0.5t-5 0.5h-3h-3q-6 1 -10 0q-2 -1 -5 -1h-36q-1 -1 -5 -1q-1 0 -3.5 1t-4.5 0h-8h-3t-3 -1l-3 2l-14 -1q-13 0 -13 1q-2 2 -2 3
q0 12 -1 18q0 1 2 3v3v1q-1 1 -1 2v3v3q1 3 0 6v6q1 5 1 14q4 5 5 6l3 3l2 1l8 9l3 4q2 2 12 14q5 8 12 12l2 1l9 6l9 8q3 2 7 7t6 7q15 18 16 19l9 12l2 2l18 19q1 1 6 6.5t7 9.5q0 1 2 3l14 15l4 6q0 3 4 11q4 7 4 17q0 11 1 13v16z" />
    </font>
</defs>
</svg>
